<svg xmlns="http://www.w3.org/2000/svg" width="51" height="51" viewBox="0 0 51 51"><defs><style>.a{fill:#fff;}.b{fill:#f3b306;}</style></defs><circle class="a" cx="25.5" cy="25.5" r="25.5"/><g transform="translate(12 11)"><path class="b" d="M17.059,22H2.941A3,3,0,0,1,0,18.944V15.278a.6.6,0,0,1,.589-.612.6.6,0,0,1,.588.612v3.666a1.8,1.8,0,0,0,1.765,1.834H17.059a1.8,1.8,0,0,0,1.765-1.834V15.278a.589.589,0,1,1,1.176,0v3.666A3,3,0,0,1,17.059,22ZM10,15.889a.6.6,0,0,1-.588-.61V2.088L5.71,5.933a.578.578,0,0,1-.415.18.566.566,0,0,1-.153-.021.6.6,0,0,1-.416-.432.626.626,0,0,1,.152-.591L9.583.179a.574.574,0,0,1,.833,0l4.705,4.889a.626.626,0,0,1,.152.591.6.6,0,0,1-.416.432.566.566,0,0,1-.153.021.578.578,0,0,1-.415-.18l-3.7-3.845V15.278A.6.6,0,0,1,10,15.889Z" transform="translate(4 3)"/></g></svg>