<svg xmlns="http://www.w3.org/2000/svg" width="24" height="24" viewBox="0 0 24 24"><defs><style>.a{fill:#687c97;}</style></defs><path class="a" d="M15.5,24a.5.5,0,0,1-.5-.5v-9a3.5,3.5,0,0,0-3-3.465V17a2,2,0,0,1-2,2,3.95,3.95,0,0,1-2.352-.72A1.49,1.49,0,0,0,6.774,18H6.758a.55.55,0,0,0-.521.37.886.886,0,0,0,.162.889l3.475,3.909a.5.5,0,1,1-.748.664L6.6,20.99a.46.46,0,0,1-.1.01h-4A2.5,2.5,0,0,1,0,18.5V2.5A2.5,2.5,0,0,1,2.5,0h7A2.5,2.5,0,0,1,12,2.5v7.527A4.5,4.5,0,0,1,16,14.5v9A.5.5,0,0,1,15.5,24ZM2.5,1A1.5,1.5,0,0,0,1,2.5v16A1.5,1.5,0,0,0,2.5,20H5.72l-.068-.077a1.875,1.875,0,0,1-.376-1.831A1.547,1.547,0,0,1,6.75,17h.017a2.5,2.5,0,0,1,1.462.468A2.946,2.946,0,0,0,10,18a1,1,0,0,0,1-1V2.5a1.491,1.491,0,0,0-.439-1.061A1.51,1.51,0,0,0,9.5,1ZM6,14a.5.5,0,0,1-.248-.066C3.227,12.491,2,11.041,2,9.5A2.32,2.32,0,0,1,4.5,7,2,2,0,0,1,6,7.627,2,2,0,0,1,7.5,7,2.32,2.32,0,0,1,10,9.5c0,1.54-1.227,2.99-3.752,4.433A.5.5,0,0,1,6,14ZM4.5,8A1.33,1.33,0,0,0,3,9.5c0,1.089,1.01,2.24,3,3.421C7.99,11.741,9,10.59,9,9.5A1.33,1.33,0,0,0,7.5,8a1.1,1.1,0,0,0-1.053.724.5.5,0,0,1-.894,0A1.105,1.105,0,0,0,4.5,8Zm3-5h-3a.5.5,0,1,1,0-1h3a.5.5,0,1,1,0,1Z" transform="translate(4 0)"/></svg>