<svg xmlns="http://www.w3.org/2000/svg" width="18" height="19.007" viewBox="0 0 18 19.007"><defs><style>.a{fill:#687c97;}</style></defs><path class="a" d="M15.5,19.007H2.5a2.5,2.5,0,0,1-2.5-2.5V3.5A2.5,2.5,0,0,1,2.5,1H4V.5a.5.5,0,0,1,1,0V1h8V.5a.5.5,0,1,1,1,0V1h1.5A2.5,2.5,0,0,1,18,3.5V16.507A2.5,2.5,0,0,1,15.5,19.007ZM1,7v9.507a1.5,1.5,0,0,0,1.5,1.5h13a1.5,1.5,0,0,0,1.5-1.5V7ZM2.5,2A1.5,1.5,0,0,0,1,3.5V6H17V3.5A1.5,1.5,0,0,0,15.5,2H14v.5a.5.5,0,0,1-1,0V2H5v.5a.5.5,0,0,1-1,0V2Zm13,9H2.5a.5.5,0,0,1-.5-.5v-2A.5.5,0,0,1,2.5,8h13a.5.5,0,0,1,.5.5v2A.5.5,0,0,1,15.5,11ZM3,9v1H15V9Z" transform="translate(0 0)"/></svg>