<svg xmlns="http://www.w3.org/2000/svg" width="35" height="20" viewBox="0 0 35 20"><defs><style>.a,.c{fill:#f6b504;}.b{fill:#fffbf2;}.c{stroke:#f6b504;stroke-width:0.4px;}</style></defs><g transform="translate(-818 -405.5)"><g transform="translate(816 403.5)"><path class="a" d="M10,20A10,10,0,1,1,20,10,10.011,10.011,0,0,1,10,20ZM10,1a9,9,0,1,0,7.794,4.5A9.01,9.01,0,0,0,10,1Zm1.5,16h-3A5.506,5.506,0,0,1,3,11.5a.5.5,0,0,1,.5-.5h13a.5.5,0,0,1,.5.5A5.506,5.506,0,0,1,11.5,17ZM9,15a.994.994,0,0,0-1,.973A4.6,4.6,0,0,0,8.5,16h3a4.4,4.4,0,0,0,.524-.031.994.994,0,0,0-1-.969H9ZM4.027,12a4.53,4.53,0,0,0,2.99,3.75A2,2,0,0,1,9,14h2.025a2,2,0,0,1,1.983,1.741A4.531,4.531,0,0,0,15.973,12H4.027ZM13,9a1,1,0,1,1,1-1A1,1,0,0,1,13,9ZM7,9A1,1,0,1,1,8,8,1,1,0,0,1,7,9Z" transform="translate(2 2)"/></g><ellipse class="b" cx="9" cy="7" rx="9" ry="7" transform="translate(835 409)"/><g transform="translate(838.359 411.978)"><path class="c" d="M1.134,1.911A5.146,5.146,0,1,1,0,5.462a.286.286,0,0,1,.571-.034,4.574,4.574,0,1,0,.995-3.14H3.135a.286.286,0,0,1,0,.572H.848a.286.286,0,0,1-.286-.286V.286a.286.286,0,1,1,.572,0Z" transform="translate(0 0.001)"/></g></g></svg>