<svg xmlns="http://www.w3.org/2000/svg" xmlns:xlink="http://www.w3.org/1999/xlink" width="40" height="40" viewBox="0 0 40 40"><defs><style>.a{fill:#f6b504;}.b{clip-path:url(#c);}.c{fill:#ff827d;}.d{fill:#fff;}.e{fill:#9ec8da;}.f{fill:#ffc171;}.g{fill:#423e35;}.cj,.h{fill:none;}.h{stroke:#abdffb;stroke-miterlimit:10;}.i{fill:#65afa5;}.j{fill:#f4ebe2;}.k{fill:#ff9f08;}.l{fill:#ff8993;}.m{fill:#eee9d5;}.n{fill:#fcce7a;}.o{fill:#008a47;}.p{fill:#00743a;}.q{fill:#1e9151;}.r{fill:#66a029;}.s{fill:#0f8749;}.t{fill:#e54655;}.u{fill:#c13b48;}.v{fill:#fd838d;}.w{fill:#658d41;}.x{fill:#537134;}.y{fill:#ecf5ff;}.z{fill:#99c5ff;}.aa{fill:#5b9e97;}.ab{fill:#d2dae0;}.ac{fill:#2c2c2c;}.ad{fill:#7191bc;}.ae{fill:#e6e6e6;}.af{fill:#f1f1f1;}.ag{fill:#c2c2c2;}.ah{fill:#abdffb;}.ai{fill:#ffceca;}.aj{fill:#ff8981;}.ak{fill:#8f3526;}.al{fill:#bb4935;}.am{fill:#faaba5;}.an{fill:#08e;}.ao{fill:#002a63;}.ap{fill:#00af8f;}.aq{fill:#00947a;}.ar{fill:#af824b;}.as{fill:#e2aa63;}.at{fill:#ca9658;}.au{fill:#037701;}.av{fill:#06aa0e;}.aw{fill:#aaefb8;}.ax{fill:#006e24;}.ay{fill:#00822d;}.az{fill:#55e072;}.ba{fill:#00b040;}.bb{fill:#9dde98;}.bc{fill:#009435;}.bd{fill:#026600;}.be{fill:#80e895;}.bf{fill:#0bcc23;}.bg{fill:#2b9e36;}.bh{fill:#31b03c;}.bi{fill:#0094ff;}.bj{fill:#0070ff;}.bk{fill:#fdcb8c;}.bl{fill:#e38b1f;}.bm{fill:#a47033;}.bn{fill:#c76b1c;}.bo{fill:#844921;}.bp{fill:#f2b574;}.bq{fill:#f5b44e;}.br{fill:#fc1f1f;}.bs{fill:#ff3f28;}.bt{fill:#c82919;}.bu{fill:#078706;}.bv{fill:#ff8173;}.bw{fill:#86c42b;}.bx{fill:#a7e340;}.by{fill:#bdf052;}.bz{fill:#fd922b;}.ca{fill:#fc792c;}.cb{fill:#fdb645;}.cc{fill:#e46718;}.cd{fill:#ff9c94;}.ce{fill:#d6e5f5;}.cf{fill:#9ad0ee;}.cg{fill:#00715c;}.ch{fill:rgba(255,255,255,0);stroke:#fff;stroke-width:2px;}.ci{stroke:none;}.ck{filter:url(#d);}.cl{filter:url(#a);}</style><filter id="a" x="-2.006" y="-1" width="52" height="52" filterUnits="userSpaceOnUse"><feOffset dx="3.994" dy="5" input="SourceAlpha"/><feGaussianBlur stdDeviation="2" result="b"/><feFlood flood-color="#695f97" flood-opacity="0.2"/><feComposite operator="in" in2="b"/><feComposite in="SourceGraphic"/></filter><clipPath id="c"><g class="cl" transform="matrix(1, 0, 0, 1, 0, 0)"><circle class="a" cx="20" cy="20" r="20" transform="translate(0 0)"/></g></clipPath><filter id="d" x="-2.006" y="-1" width="52" height="52" filterUnits="userSpaceOnUse"><feOffset dx="3.994" dy="5" input="SourceAlpha"/><feGaussianBlur stdDeviation="2" result="e"/><feFlood flood-color="#695f97" flood-opacity="0.2"/><feComposite operator="in" in2="e"/><feComposite in="SourceGraphic"/></filter></defs><g class="b"><g transform="translate(-11.178 0)"><circle class="c" cx="4.072" cy="4.072" r="4.072" transform="matrix(0.272, -0.962, 0.962, 0.272, 11.779, 22.368)"/><path class="d" d="M139.486,153.938a1.238,1.238,0,0,0-.557,1.405,1.238,1.238,0,0,0-1.493-.235,1.159,1.159,0,0,0-.423,1.639,3.282,3.282,0,0,0,3.454,1.29,3.085,3.085,0,0,0,.646-3.63,1.159,1.159,0,0,0-1.627-.469Z" transform="translate(-122.47 -136.35)"/><path class="e" d="M389.89,80.23c-.093,0-.185,0-.275-.009-1.073-.076-1.688-.585-1.688-1.4a1.2,1.2,0,0,1,.532-1.09c1.231-.776,4.241.648,4.369.709l.133.064-.021.146C392.808,79.577,391.231,80.23,389.89,80.23Zm-.45-2.33a1.448,1.448,0,0,0-.767.173.811.811,0,0,0-.345.751c0,.786.824.961,1.315,1,1.2.084,2.595-.465,2.86-1.086a8.927,8.927,0,0,0-3.063-.834Z" transform="translate(-341.411 -69.846)"/><path class="f" d="M413.394,84.138l.139,2.123a.376.376,0,0,0,.127.258l3.275,2.872a.752.752,0,0,0,1.061-.07l1.487-1.7a.752.752,0,0,0-.069-1.061l-3.275-2.872a.376.376,0,0,0-.273-.093l-2.122.139A.376.376,0,0,0,413.394,84.138Z" transform="translate(-363.616 -75.161)"/><path class="g" d="M435.215,97.24h0a.319.319,0,0,1-.335-.3l-.129-2.55a.319.319,0,0,1,.3-.335h0a.319.319,0,0,1,.335.3l.129,2.55A.319.319,0,0,1,435.215,97.24Z" transform="translate(-382.238 -84.276)"/><path class="g" d="M426.186,104.463a.366.366,0,1,1-.384-.347A.367.367,0,0,1,426.186,104.463Z" transform="translate(-374.132 -93.05)"/><path class="g" d="M445.05,103.506a.366.366,0,1,1-.384-.348A.366.366,0,0,1,445.05,103.506Z" transform="translate(-390.58 -92.216)"/><path class="h" d="M363.512,62.226a5.419,5.419,0,0,0-5.066,7.37,4.236,4.236,0,1,0,2.483,2.836,5.43,5.43,0,1,0,2.583-10.206Z" transform="translate(-310.604 -56.525)"/><path class="i" d="M369.446,146.148v1.922a.427.427,0,0,1-.427.427h-4.911a.427.427,0,0,1-.427-.427v-1.922Zm-.427,1.6a.716.716,0,0,1-.96-.32,6332.68,6332.68,0,0,1,.64.64A.32.32,0,0,0,369.019,147.749Zm-3.843-.534v-.64h-.854v.64Z" transform="translate(-320.27 -129.7)"/><rect class="j" width="5.765" height="0.427" transform="translate(43.411 16.021)"/><path class="i" d="M369.446,138.238v.214h-5.765v-.214a.427.427,0,0,1,.427-.427h4.911A.427.427,0,0,1,369.446,138.238Z" transform="translate(-320.27 -122.431)"/><circle class="k" cx="0.32" cy="0.32" r="0.32" transform="translate(48.109 17.729)"/><circle class="l" cx="0.32" cy="0.32" r="0.32" transform="translate(47.468 17.729)"/><rect class="m" width="0.854" height="0.641" transform="translate(44.052 16.875)"/><rect class="m" width="1.922" height="0.213" transform="translate(46.935 16.768)"/><rect class="m" width="0.534" height="0.213" transform="translate(48.323 17.195)"/><path class="n" d="M408.9,50.477s-.271,1.629-1.629,1.629c1.357,0,1.629,1.629,1.629,1.629s.271-1.629,1.629-1.629C409.167,52.106,408.9,50.477,408.9,50.477Z" transform="translate(-358.274 -46.28)"/><circle class="h" cx="5.022" cy="5.022" r="5.022" transform="translate(0.24 20.904)"/><path class="o" d="M31.392,189.281l.624-.412a1.8,1.8,0,0,0,.375,1.245A1.8,1.8,0,0,0,31.392,189.281Z" transform="translate(-30.532 -166.951)"/><path class="o" d="M48.462,236.931a1.91,1.91,0,0,1,2.383.218A1.783,1.783,0,0,1,48.462,236.931Z" transform="translate(-45.416 -208.58)"/><path class="p" d="M35.807,231.222A1.91,1.91,0,0,0,33.424,231l-1.083.13a.936.936,0,0,1-.9-.414l-.229-.347A3.365,3.365,0,0,1,35.807,231.222Z" transform="translate(-30.378 -202.654)"/><path class="o" d="M33.081,224.372l.159.241a3.365,3.365,0,0,0-4.591-.848l-.2-.3c-.128-.193-.281-.764-.087-.892a.272.272,0,0,0,.136-.3l.209-.018A4.759,4.759,0,0,1,33.081,224.372Z" transform="translate(-27.812 -196.045)"/><path class="p" d="M28.844,214.792l1.214,1.838a4.76,4.76,0,0,0-4.372-2.119l-.209.018a.277.277,0,0,0-.035-.073.378.378,0,0,0-.091-.092l-.254-.185a.746.746,0,0,1-.292-.447A3.1,3.1,0,0,1,28.844,214.792Z" transform="translate(-24.789 -188.303)"/><path class="o" d="M27.909,207.974l.824,1.247a3.1,3.1,0,0,0-4.039-1.061.753.753,0,0,1,.034-.426l.092-.238a.658.658,0,0,0,.041-.195A2.242,2.242,0,0,1,27.909,207.974Z" transform="translate(-24.678 -182.731)"/><path class="p" d="M27.839,201.895l.824,1.247a2.242,2.242,0,0,0-3.048-.672.775.775,0,0,0-.036-.287.856.856,0,0,1-.019-.425l.069-.045S27.221,200.959,27.839,201.895Z" transform="translate(-25.432 -177.9)"/><path class="p" d="M31.189,192.919l.069.1a.845.845,0,0,0-1.14-.143l-.1.069a.25.25,0,0,0,.07-.345.374.374,0,0,1,.106-.518A1.8,1.8,0,0,1,31.189,192.919Z" transform="translate(-29.331 -169.756)"/><path class="o" d="M27.479,197.382l.481.728c-.618-.935-2.21-.182-2.21-.182l-.069.045a.855.855,0,0,1,.366-.54l.189-.125.1-.069A.845.845,0,0,1,27.479,197.382Z" transform="translate(-25.553 -174.114)"/><path class="q" d="M37.056,188.622l-.1.069a.844.844,0,0,0-.316,1.1l-.069-.1a1.8,1.8,0,0,1-.375-1.245.373.373,0,0,1,.518.106.251.251,0,0,0,.346.071Z" transform="translate(-34.71 -166.528)"/><path class="q" d="M43.521,188.519a.737.737,0,0,0,.238.131,2.242,2.242,0,0,0-.579,3.069l-.824-1.247c-.618-.935.7-2.1.7-2.1l.064-.042A.909.909,0,0,1,43.521,188.519Z" transform="translate(-39.948 -166.476)"/><path class="r" d="M66.949,223.016a1.633,1.633,0,0,1,.079,1.254,2.012,2.012,0,0,1-.814,1.023A1.91,1.91,0,0,1,66.949,223.016Z" transform="translate(-60.785 -196.725)"/><path class="q" d="M64.755,205.219l.229.347a.936.936,0,0,1,.029.987l-.545.945a1.91,1.91,0,0,0-.735,2.277A3.365,3.365,0,0,1,64.755,205.219Z" transform="translate(-58.306 -181.207)"/><path class="s" d="M61.441,199.77l.2.3a3.365,3.365,0,0,0-1.021,4.556l-.159-.241a4.759,4.759,0,0,1-.234-4.853l.1-.186a.272.272,0,0,0,.332-.006c.1-.064.261-.005.418.094A1.392,1.392,0,0,1,61.441,199.77Z" transform="translate(-55.189 -176.057)"/><path class="q" d="M53.417,192.3a.745.745,0,0,1,.3.445l.071.306a.326.326,0,0,0,.1.18l-.1.186a4.759,4.759,0,0,0,.234,4.853l-1.214-1.838A3.1,3.1,0,0,1,53.417,192.3Z" transform="translate(-48.753 -169.942)"/><path class="s" d="M48.41,190.912a.753.753,0,0,1,.4.136,3.1,3.1,0,0,0-.609,4.132l-.824-1.247a2.242,2.242,0,0,1,.579-3.069.71.71,0,0,0,.213.04Z" transform="translate(-44.15 -168.689)"/><path class="s" d="M40.289,188.2l-.064.042s-1.318,1.169-.7,2.1l-.481-.728a.844.844,0,0,1,.316-1.1l.1-.069.189-.125A.843.843,0,0,1,40.289,188.2Z" transform="translate(-37.118 -166.355)"/><path class="t" d="M68.983,219.762a2.489,2.489,0,0,1-4.977,0c0-1.374,1.114-1.991,2.489-1.991S68.983,218.387,68.983,219.762Z" transform="translate(-58.97 -192.152)"/><path class="u" d="M65.246,220a1.141,1.141,0,0,1,.438-.975,1.2,1.2,0,0,1,1.164-.126.834.834,0,0,0,1.14-.816,3.263,3.263,0,0,0-1.5-.322c-1.374,0-2.489.616-2.489,1.991a2.486,2.486,0,0,0,4.2,1.806C66.375,221.942,65.246,221.425,65.246,220Z" transform="translate(-58.965 -192.144)"/><path class="v" d="M86.739,223.658a.493.493,0,0,0-.2.215,2.332,2.332,0,0,1-.113.257c-.118.183-.365.21-.562.307a.807.807,0,0,0-.466.557.56.56,0,0,0,.239.539.589.589,0,0,0,.33.062,1.4,1.4,0,0,0,.441-.07,1.3,1.3,0,0,0,.6-.369l.017-.02a1.263,1.263,0,0,0,.312-1.176c-.066-.2-.236-.427-.519-.335A.436.436,0,0,0,86.739,223.658Z" transform="translate(-77.616 -197.239)"/><path class="w" d="M71.333,207.107a5.333,5.333,0,0,0-1.493.249l1,.249a3.062,3.062,0,0,0-.5,1.244,1.41,1.41,0,0,1,2.489,0,3.062,3.062,0,0,0-.5-1.244l1-.249a5.332,5.332,0,0,0-1.493-.249l.249-1h-1Z" transform="translate(-64.057 -181.985)"/><path class="x" d="M71.08,206.111l.249,1a5.333,5.333,0,0,0-1.493.249l1,.249a3.062,3.062,0,0,0-.5,1.244,1.716,1.716,0,0,1,1.244-.747v-1.991Z" transform="translate(-64.053 -181.985)"/><path class="n" d="M71.809,173.439s-.271,1.629-1.629,1.629c1.357,0,1.629,1.629,1.629,1.629s.271-1.629,1.629-1.629C72.081,175.068,71.809,173.439,71.809,173.439Z" transform="translate(-64.353 -153.496)"/><path class="n" d="M381.336,175.559s-.271,1.629-1.629,1.629c1.357,0,1.629,1.629,1.629,1.629s.272-1.629,1.629-1.629C381.607,177.188,381.336,175.559,381.336,175.559Z" transform="translate(-334.243 -155.345)"/><circle class="h" cx="4.208" cy="4.208" r="4.208" transform="translate(47.97 35.282) rotate(-76.525)"/><path class="i" d="M423.235,281.989v.907a.271.271,0,0,1-.271.271h-1.812a.272.272,0,0,1-.272-.271v-.907Z" transform="translate(-370.144 -248.146)"/><rect class="y" width="2.356" height="3.141" transform="translate(50.735 30.702)"/><path class="i" d="M423.23,244.189v.524h-2.356v-.524a.945.945,0,0,1,.376-.745.775.775,0,0,0,.279-.6v.039h1.047v-.039a.775.775,0,0,0,.279.6A.945.945,0,0,1,423.23,244.189Z" transform="translate(-370.139 -214.011)"/><path class="g" d="M427.033,239.543v.039h-1.047v-.523h1.047Z" transform="translate(-374.596 -210.713)"/><path class="y" d="M427.033,234.079v.524h-1.047v-.524a.131.131,0,0,1,.131-.131h.785A.131.131,0,0,1,427.033,234.079Z" transform="translate(-374.596 -206.257)"/><path class="z" d="M426.9,233.948h-.785a.131.131,0,0,0-.131.131v.262a.131.131,0,0,1,.131-.131h.785a.131.131,0,0,1,.131.131v-.262A.131.131,0,0,0,426.9,233.948Z" transform="translate(-374.596 -206.257)"/><rect class="z" width="2.356" height="0.262" transform="translate(50.735 30.702)"/><rect class="z" width="2.356" height="0.262" transform="translate(50.735 33.581)"/><path class="aa" d="M421.4,282.241v-.252h-.523v.907a.272.272,0,0,0,.271.271h1.813a.272.272,0,0,0,.272-.271v-.262h-1.44A.393.393,0,0,1,421.4,282.241Z" transform="translate(-370.141 -248.146)"/><rect class="ab" width="0.524" height="2.618" transform="translate(50.735 30.963)"/><path class="aa" d="M421.4,244.189a.945.945,0,0,1,.376-.745.771.771,0,0,0,.277-.564h-.522v-.039a.775.775,0,0,1-.279.6.945.945,0,0,0-.376.745v.524h.523Z" transform="translate(-370.141 -214.011)"/><path class="ac" d="M426.508,239.583c0-.013,0-.026,0-.039v-.484h-.524v.523Z" transform="translate(-374.596 -210.713)"/><path class="ab" d="M426.117,235.992a.131.131,0,0,0-.131.131v.262h.524v-.393Z" transform="translate(-374.596 -208.039)"/><path class="ad" d="M426.643,233.948h-.523a.131.131,0,0,0-.131.131v.262a.131.131,0,0,1,.131-.131h.393v-.131A.131.131,0,0,1,426.643,233.948Z" transform="translate(-374.599 -206.257)"/><rect class="ad" width="0.524" height="0.262" transform="translate(50.735 33.581)"/><rect class="ad" width="0.524" height="0.262" transform="translate(50.735 30.702)"/><path class="i" d="M441.9,257.019h2.356v4.248a.128.128,0,0,1-.128.128h-2.1a.128.128,0,0,1-.128-.128Z" transform="translate(-388.472 -226.374)"/><path class="aa" d="M442.576,264.418V261.6a.337.337,0,0,0-.337-.337h0a.337.337,0,0,0-.336.337v3.224a.271.271,0,0,0,.271.272h1.748a.337.337,0,0,0,.337-.337h-1.346A.337.337,0,0,1,442.576,264.418Z" transform="translate(-388.475 -230.071)"/><ellipse class="y" cx="1.178" cy="0.337" rx="1.178" ry="0.337" transform="translate(53.428 30.309)"/><circle class="h" cx="3.801" cy="3.801" r="3.801" transform="translate(4.584 31.22)"/><path class="ae" d="M70.024,273.123l2.063,3.337c.214.346,1.134.164,2.055-.406s1.5-1.312,1.282-1.657l-2.063-3.337Z" transform="translate(-64.217 -238.617)"/><path class="af" d="M73.057,269.868c.214.346-.36,1.088-1.282,1.657s-1.842.751-2.055.406.36-1.088,1.282-1.657S72.843,269.523,73.057,269.868Z" transform="translate(-63.913 -237.425)"/><path class="ag" d="M79.329,275.741c.071.115-.151.382-.5.6s-.683.293-.755.178.151-.382.5-.6S79.258,275.625,79.329,275.741Z" transform="translate(-71.228 -242.652)"/><path class="f" d="M475.208,40.909a.271.271,0,1,1-.271.271A.271.271,0,0,1,475.208,40.909Z" transform="translate(-417.278 -37.938)"/><path class="f" d="M464.607,28.189a.271.271,0,1,1-.271.271A.271.271,0,0,1,464.607,28.189Z" transform="translate(-408.035 -26.847)"/><path class="f" d="M443.407,38.789a.271.271,0,1,1-.271.271A.272.272,0,0,1,443.407,38.789Z" transform="translate(-389.55 -36.089)"/><path class="ah" d="M465.531,48.381a.136.136,0,0,1-.118-.2l1.086-1.9a.136.136,0,1,1,.236.135l-1.086,1.9A.135.135,0,0,1,465.531,48.381Z" transform="translate(-408.959 -42.559)"/><path class="ah" d="M445.143,47.836a.136.136,0,0,1-.134-.117l-.192-1.357a.136.136,0,0,1,.269-.038l.193,1.357a.136.136,0,0,1-.115.154Z" transform="translate(-391.014 -42.557)"/><path class="ah" d="M452.812,29.3a.136.136,0,0,1-.136-.136v-1.9a.136.136,0,1,1,.271,0v1.9a.136.136,0,0,1-.136.136Z" transform="translate(-397.868 -25.922)"/><path class="ah" d="M457.052,38.868a.132.132,0,0,1-.036,0,.136.136,0,0,1-.1-.166l.814-2.986a.136.136,0,0,1,.262.071l-.814,2.986A.136.136,0,0,1,457.052,38.868Z" transform="translate(-401.565 -33.317)"/><path class="f" d="M108.347,123.361a.271.271,0,1,0,.33.2A.272.272,0,0,0,108.347,123.361Z" transform="translate(-97.454 -109.824)"/><path class="f" d="M115.468,108.413a.271.271,0,1,0,.33.2.271.271,0,0,0-.33-.2Z" transform="translate(-103.663 -96.79)"/><path class="f" d="M138.633,113.435a.271.271,0,1,0,.33.2A.271.271,0,0,0,138.633,113.435Z" transform="translate(-123.862 -101.169)"/><path class="ah" d="M114,129.835a.136.136,0,0,0,.064-.226l-1.523-1.572a.136.136,0,1,0-.195.189l1.522,1.573A.136.136,0,0,0,114,129.835Z" transform="translate(-101.087 -113.872)"/><path class="ah" d="M140.785,122.43a.136.136,0,0,0,.1-.146l-.149-1.363a.136.136,0,1,0-.27.03l.149,1.363a.136.136,0,0,0,.15.12Z" transform="translate(-125.639 -107.598)"/><path class="ah" d="M128.763,106.369a.136.136,0,0,0,.1-.165l-.47-1.841a.136.136,0,0,0-.263.067l.47,1.841a.136.136,0,0,0,.165.1Z" transform="translate(-114.877 -93.177)"/><path class="ah" d="M121.651,118.064a.133.133,0,0,0,.034-.013.136.136,0,0,0,.051-.185l-1.528-2.692a.136.136,0,1,0-.236.134L121.5,118A.135.135,0,0,0,121.651,118.064Z" transform="translate(-107.753 -102.633)"/><path class="n" d="M406.358,228.014l.543.271-.543.271-.271.543-.271-.543-.543-.271.543-.271.271-.543Z" transform="translate(-356.535 -200.609)"/><path class="n" d="M105.315,251.334l.543.271-.543.271-.271.543-.271-.543-.543-.271.543-.271.271-.543Z" transform="translate(-94.042 -220.943)"/><path class="ai" d="M228.539,193.7a3.8,3.8,0,0,1-2.228-3.46v-.81h-5.973v.81a3.8,3.8,0,0,1-2.228,3.46l-.758.345a7.1,7.1,0,0,0,11.945,0Z" transform="translate(-192.679 -167.437)"/><path class="aj" d="M236.639,191.771a3.793,3.793,0,0,1-.323-1.529v-.81h-5.973v.81a3.8,3.8,0,0,1-1.517,3.038A9.9,9.9,0,0,0,236.639,191.771Z" transform="translate(-202.684 -167.441)"/><path class="ak" d="M203.056,96.146a8.024,8.024,0,0,0-.543,2.443,4.284,4.284,0,0,0,.814,2.172h1.086V96.146Z" transform="translate(-179.74 -86.101)"/><path class="al" d="M189.294,28.837s-3.258-.271-3.258-2.715c0-2.172.814-2.443.814-2.443s-2.013-.027-1.629-2.715c.271-1.9,1.357-3.258,4.344-3.258,5.7,0,6.787,3.8,8.687,3.529s1.357-.814,2.986-.814,3.529,1.629,3.529,5.973c0,2.715-2.715,6.244-2.715,6.244h-12.76Z" transform="translate(-164.621 -17.706)"/><path class="ai" d="M206.262,87.989v2.986h-.543a1.086,1.086,0,0,0-1.086,1.086V92.6c0,.9.729,2.172,1.629,2.172,0,3.3,3.8,5.973,5.973,5.973,2.443,0,5.973-2.674,5.973-5.973.9,0,1.629-1.272,1.629-2.172v-.543a1.086,1.086,0,0,0-1.086-1.086h-.543V88.8s-.272-1.629-1.086-1.629-1.086.814-3.529.814-1.9-2.443-3.8-2.443S208.434,87.989,206.262,87.989Z" transform="translate(-181.589 -76.859)"/><path class="aj" d="M220.883,86.36c1.9,0,1.357,2.443,3.8,2.443s2.715-.814,3.529-.814,1.086,1.629,1.086,1.629V88.8s-.272-1.629-1.086-1.629-1.086.814-3.529.814-1.9-2.443-3.8-2.443-1.357,2.443-3.529,2.443V88.8C219.526,88.8,218.983,86.36,220.883,86.36Z" transform="translate(-192.681 -76.859)"/><path class="am" d="M310.635,134.9v-2.715h.543a.543.543,0,0,1,.543.543h0A2.715,2.715,0,0,1,310.635,134.9Z" transform="translate(-274.017 -117.527)"/><path class="am" d="M209.959,134.9v-2.715h-.543a.543.543,0,0,0-.543.543h0a2.715,2.715,0,0,0,1.086,2.172Z" transform="translate(-185.286 -117.527)"/><rect class="am" width="1.086" height="4.344" rx="0.543" transform="translate(30.103 14.388)"/><path class="al" d="M273.534,116.04a.27.27,0,0,1,.173-.242,6.815,6.815,0,0,1,2.615-.571h.2a.838.838,0,0,1,.759.4.551.551,0,0,1,.06.249c0,.434-.76.434-.76.434h-2.723A.3.3,0,0,1,273.534,116.04Z" transform="translate(-241.667 -102.738)"/><path class="al" d="M228.575,116.04a.27.27,0,0,0-.173-.242,6.814,6.814,0,0,0-2.615-.571h-.2a.838.838,0,0,0-.758.4.551.551,0,0,0-.06.249c0,.434.76.434.76.434h2.723A.3.3,0,0,0,228.575,116.04Z" transform="translate(-199.151 -102.738)"/><path class="an" d="M284.16,129.3c0,.75-.243,1.357-.543,1.357s-.543-.608-.543-1.357.243-1.357.543-1.357S284.16,128.555,284.16,129.3Z" transform="translate(-249.985 -113.83)"/><path class="an" d="M237.52,129.3c0,.75-.243,1.357-.543,1.357s-.543-.608-.543-1.357.243-1.357.543-1.357S237.52,128.555,237.52,129.3Z" transform="translate(-209.317 -113.83)"/><path class="am" d="M283.086,153.387a2.172,2.172,0,0,0-.012,4.343,5.706,5.706,0,0,0,1.635-3.611A2.164,2.164,0,0,0,283.086,153.387Z" transform="translate(-248.097 -136.012)"/><path class="am" d="M221.2,155.559a2.17,2.17,0,0,0-3.794-1.441,5.657,5.657,0,0,0,1.718,3.608A2.17,2.17,0,0,0,221.2,155.559Z" transform="translate(-192.726 -136.012)"/><path class="al" d="M249.324,166.948a1.3,1.3,0,0,1-1.207-.618.136.136,0,0,1,.242-.122,1.044,1.044,0,0,0,.965.469,5.585,5.585,0,0,0,3.162-1.589.136.136,0,1,1,.192.192A5.748,5.748,0,0,1,249.324,166.948Z" transform="translate(-219.493 -146.179)"/><path class="ao" d="M228.432,123.205a.136.136,0,0,0-.182.061l-.607,1.214a2.306,2.306,0,0,0-4.488-.108.964.964,0,0,0-1.513,0,2.306,2.306,0,0,0-4.488.108l-.607-1.214a.136.136,0,0,0-.243.122l.8,1.6a2.307,2.307,0,1,0,4.613-.036c0-.073,0-.145-.011-.217a.746.746,0,0,1,1.379,0c-.007.071-.011.144-.011.217a2.307,2.307,0,1,0,4.613.036l.8-1.6A.136.136,0,0,0,228.432,123.205Zm-9.02,3.786a2.036,2.036,0,1,1,2.036-2.036,2.036,2.036,0,0,1-2.036,2.036Zm5.973,0a2.036,2.036,0,1,1,2.036-2.036,2.036,2.036,0,0,1-2.036,2.036Z" transform="translate(-191.753 -109.21)"/><path class="ak" d="M303.24,99.895v2.172h.543a1.078,1.078,0,0,1,.568.164,4.716,4.716,0,0,0,.246-1.522,2.228,2.228,0,0,0-2.443-2.443C302.968,98.266,303.24,99.895,303.24,99.895Z" transform="translate(-266.622 -87.95)"/><path class="ak" d="M276.5,88.539a.136.136,0,0,1-.122-.075,3.042,3.042,0,0,0-2.612-1.827,2.833,2.833,0,0,0-2.275.649,1.725,1.725,0,0,1-.964.438,1.3,1.3,0,0,1-1.207-.618.136.136,0,0,1,.242-.122,1.044,1.044,0,0,0,.965.469,1.528,1.528,0,0,0,.807-.388,3.108,3.108,0,0,1,2.471-.7,3.325,3.325,0,0,1,2.817,1.974.136.136,0,0,1-.121.2Z" transform="translate(-237.98 -77.544)"/><path class="ak" d="M228.735,72.6a.136.136,0,0,1-.129-.093,2.262,2.262,0,0,0-2.043-1.537,3.724,3.724,0,0,0-2.609,1.306.136.136,0,1,1-.212-.17,3.943,3.943,0,0,1,2.821-1.409,2.576,2.576,0,0,1,2.3,1.722.136.136,0,0,1-.086.171.133.133,0,0,1-.043.008Z" transform="translate(-198.225 -63.912)"/><path class="ak" d="M210.1,31.839c-2.518,0-3.154-.554-3.959-1.255a7.422,7.422,0,0,0-1.266-.935,6.024,6.024,0,0,0-4-1.068,3.044,3.044,0,0,0-2.335,1.032.136.136,0,0,1-.217-.163,3.259,3.259,0,0,1,2.552-1.14,6.285,6.285,0,0,1,4.14,1.1,7.656,7.656,0,0,1,1.31.966c.792.69,1.364,1.188,3.781,1.188a.136.136,0,0,1,0,.271Z" transform="translate(-176.06 -26.952)"/><path class="ak" d="M272.569,56.189a.136.136,0,0,1-.135-.12c-.01-.084-.263-2.052-2.037-2.052a1.94,1.94,0,0,0-1.481.5,2.5,2.5,0,0,1-1.208.588,8.4,8.4,0,0,1-3.6-.549.136.136,0,0,1,.1-.254,8.314,8.314,0,0,0,3.455.537,2.236,2.236,0,0,0,1.091-.533,2.212,2.212,0,0,1,1.651-.555c2.017,0,2.3,2.269,2.307,2.292a.136.136,0,0,1-.119.15Z" transform="translate(-233.371 -49.131)"/><path class="ap" d="M177,221.228s-2.443,2.986-5.43,2.986-5.43-2.986-5.43-2.986a39.015,39.015,0,0,1-8.144,2.986V245.39h27.149V224.214A39.014,39.014,0,0,1,177,221.228Z" transform="translate(-140.922 -195.166)"/><path class="aq" d="M221.812,225.029A6.525,6.525,0,0,0,228,221.616c-.256-.125-.511-.254-.759-.388,0,0-2.443,2.986-5.43,2.986s-5.43-2.986-5.43-2.986c-.25.135-.506.265-.765.391C215.9,222.259,217.468,225.029,221.812,225.029Z" transform="translate(-191.166 -195.166)"/><path class="ap" d="M107.319,244.548h-1.086s-7.059,9.773-7.6,18.732v.679a3.394,3.394,0,0,0,3.393,3.394h5.294Z" transform="translate(-89.162 -215.5)"/><path class="ap" d="M361.515,244.548H362.6s7.059,9.773,7.6,18.732v.679a3.393,3.393,0,0,1-3.393,3.394h-5.294Z" transform="translate(-318.381 -215.5)"/><path class="aq" d="M136.872,314.988a5.425,5.425,0,0,1-5.158,3.8c-3.81,0,3.8-12.759,5.158-12.759Z" transform="translate(-117.085 -269.108)"/><path class="aq" d="M350.915,303.457l5.973-2.443s-1.086-11.945-5.973-11.945Z" transform="translate(-309.138 -254.319)"/><path class="ar" d="M177.125,306.351l-2.172-2.172,19.547-.272,3.258,2.443Z" transform="translate(-155.709 -267.258)"/><path class="as" d="M174.953,306.029V328.29l1.086.543V307.115Z" transform="translate(-155.709 -269.108)"/><path class="at" d="M183.433,314.509v21.718l1.086,1.629V315.595Z" transform="translate(-163.103 -276.502)"/><path class="au" d="M194.855,269.485c.3.8.6,1.141.889,1.273l0,.01s-1.9.31-2.3-.752a22.953,22.953,0,0,1-1.439-2.8C192.3,267.84,193.218,269.448,194.855,269.485Z" transform="translate(-170.573 -235.261)"/><path class="av" d="M198.224,293.786a2.016,2.016,0,0,0,.163.338l-.03.015a1.11,1.11,0,0,1-1.46-.664c-.4-1.062-1.239-1.15-1.991-2.079a8.1,8.1,0,0,1-1.15-1.991,2.951,2.951,0,0,0-1.593-1.018l-1.018-1.637s.8-1.106,1.549-.177c.4,1.062,2.3.752,2.3.752l0-.01a1.612,1.612,0,0,0,.836.054v.044l1.062,2.832Z" transform="translate(-169.828 -251.82)"/><path class="aw" d="M228.74,295.78c.885,1.283.973.442,2.832,2.168s1.858,4.956,1.858,4.956l-.354.133a2.267,2.267,0,0,1-2.757-.989,2.015,2.015,0,0,1-.163-.338l-1.327-3.54-1.062-2.832v-.044A.966.966,0,0,1,228.74,295.78Z" transform="translate(-201.76 -259.743)"/><path class="av" d="M260.724,232.546c.2.057.405.252.7,1.048.531,1.416-.089,4.071.575,5.84a3.233,3.233,0,0,1-.1,2.823,10.27,10.27,0,0,0-.615-1.336l.05-.027a15.658,15.658,0,0,0-.973-3.672c-.149-.4-.28-.747-.4-1.061h0c-.587-1.565-.269-3.129.708-3.5Z" transform="translate(-229.581 -205.034)"/><path class="ax" d="M189.507,249.943c.108.428.724,2.555,2.237,2.714l.664,1.77c-1.637-.036-2.559-1.645-2.855-2.272,0-.007-.009-.013-.011-.02-.08-.192-.158-.389-.23-.584A1.709,1.709,0,0,1,189.507,249.943Z" transform="translate(-168.127 -220.204)"/><path class="av" d="M254.736,225.672a2.447,2.447,0,0,0,.535.1l-.048.119c-.977.366-1.295,1.931-.708,3.5h0a20.575,20.575,0,0,0-.86-2.088l.067-.037c-.354-.945-.505-2.144.19-2.486C254.3,225.023,254.435,225.535,254.736,225.672Z" transform="translate(-224.128 -198.263)"/><path class="au" d="M241.649,223.91c-.7.342-.545,1.541-.19,2.486l-.067.037c-.4-.75-.66-.661-1.526-1.055a1.539,1.539,0,0,1-.507-.371c0-.236.154-.708,1.17-1.088A1.229,1.229,0,0,1,241.649,223.91Z" transform="translate(-211.868 -197.394)"/><path class="ay" d="M193.743,234.006s.086-.815,1.438-1.343a2.111,2.111,0,0,0-.111,1.653c-2.124.8-1.195,3.274-1.195,3.274-1.513-.159-2.129-2.286-2.237-2.714C192.2,234.049,193.339,233.628,193.743,234.006Z" transform="translate(-170.259 -205.136)"/><path class="az" d="M211.612,224.724a1.538,1.538,0,0,0,.507.371c.866.394,1.124.305,1.526,1.055a20.6,20.6,0,0,1,.86,2.088c.122.314.253.664.4,1.061a15.648,15.648,0,0,1,.973,3.672l-.05.027a10.264,10.264,0,0,1,.615,1.336,7.726,7.726,0,0,1,.233.761,10.125,10.125,0,0,1,.177,4.779l-1.062.4s0-3.23-1.858-4.956-1.946-.885-2.832-2.168a.965.965,0,0,0-.973-.487,1.611,1.611,0,0,1-.836-.054c-.292-.133-.589-.474-.889-1.273l-.664-1.77s-.929-2.478,1.195-3.274a2.11,2.11,0,0,1,.111-1.652,1.829,1.829,0,0,1,1-.781l1.062-.4A2.193,2.193,0,0,0,211.612,224.724Z" transform="translate(-184.121 -197.111)"/><path class="ay" d="M194.855,269.485c.3.8.6,1.141.889,1.273l0,.01s-1.9.31-2.3-.752a22.953,22.953,0,0,1-1.439-2.8C192.3,267.84,193.218,269.448,194.855,269.485Z" transform="translate(-170.573 -235.261)"/><path class="ba" d="M198.224,293.786a2.016,2.016,0,0,0,.163.338l-.03.015a1.11,1.11,0,0,1-1.46-.664c-.4-1.062-1.239-1.15-1.991-2.079a8.1,8.1,0,0,1-1.15-1.991,2.951,2.951,0,0,0-1.593-1.018l-1.018-1.637s.8-1.106,1.549-.177c.4,1.062,2.3.752,2.3.752l0-.01a1.612,1.612,0,0,0,.836.054v.044l1.062,2.832Z" transform="translate(-169.828 -251.82)"/><path class="bb" d="M228.74,295.78c.885,1.283.973.442,2.832,2.168s1.858,4.956,1.858,4.956l-.354.133a2.267,2.267,0,0,1-2.757-.989,2.015,2.015,0,0,1-.163-.338l-1.327-3.54-1.062-2.832v-.044A.966.966,0,0,1,228.74,295.78Z" transform="translate(-201.76 -259.743)"/><path class="ay" d="M260.724,232.546c.2.057.405.252.7,1.048.531,1.416-.089,4.071.575,5.84a3.233,3.233,0,0,1-.1,2.823,10.27,10.27,0,0,0-.615-1.336l.05-.027a15.658,15.658,0,0,0-.973-3.672c-.149-.4-.28-.747-.4-1.061h0c-.587-1.565-.269-3.129.708-3.5Z" transform="translate(-229.581 -205.034)"/><path class="bc" d="M254.736,225.672a2.447,2.447,0,0,0,.535.1l-.048.119c-.977.366-1.295,1.931-.708,3.5h0a20.575,20.575,0,0,0-.86-2.088l.067-.037c-.354-.945-.505-2.144.19-2.486C254.3,225.023,254.435,225.535,254.736,225.672Z" transform="translate(-224.128 -198.263)"/><path class="ay" d="M241.649,223.91c-.7.342-.545,1.541-.19,2.486l-.067.037c-.4-.75-.66-.661-1.526-1.055a1.539,1.539,0,0,1-.507-.371c0-.236.154-.708,1.17-1.088A1.229,1.229,0,0,1,241.649,223.91Z" transform="translate(-211.868 -197.394)"/><path class="az" d="M211.612,224.724a1.538,1.538,0,0,0,.507.371c.866.394,1.124.305,1.526,1.055a20.6,20.6,0,0,1,.86,2.088c.122.314.253.664.4,1.061a15.648,15.648,0,0,1,.973,3.672l-.05.027a10.264,10.264,0,0,1,.615,1.336,7.726,7.726,0,0,1,.233.761,10.125,10.125,0,0,1,.177,4.779l-1.062.4s0-3.23-1.858-4.956-1.946-.885-2.832-2.168a.965.965,0,0,0-.973-.487,1.611,1.611,0,0,1-.836-.054c-.292-.133-.589-.474-.889-1.273l-.664-1.77s-.929-2.478,1.195-3.274a2.11,2.11,0,0,1,.111-1.652,1.829,1.829,0,0,1,1-.781l1.062-.4A2.193,2.193,0,0,0,211.612,224.724Z" transform="translate(-184.121 -197.111)"/><path class="au" d="M202.594,268.565c-.04-.026-.078-.053-.117-.081C202.515,268.512,202.553,268.54,202.594,268.565Z" transform="translate(-179.709 -236.37)"/><path class="au" d="M198.162,264.145q-.068-.08-.13-.165C198.074,264.036,198.118,264.091,198.162,264.145Z" transform="translate(-175.833 -232.443)"/><path class="au" d="M204.4,269.673c-.037-.017-.072-.037-.108-.056C204.328,269.636,204.363,269.657,204.4,269.673Z" transform="translate(-181.291 -237.358)"/><path class="au" d="M200.96,267.244c-.042-.034-.083-.071-.123-.108C200.877,267.173,200.917,267.21,200.96,267.244Z" transform="translate(-178.279 -235.195)"/><path class="au" d="M199.484,265.754c-.044-.044-.086-.089-.127-.136C199.4,265.665,199.44,265.71,199.484,265.754Z" transform="translate(-176.988 -233.871)"/><path class="au" d="M206.422,270.526c-.031-.009-.061-.022-.091-.032C206.362,270.5,206.391,270.517,206.422,270.526Z" transform="translate(-183.069 -238.123)"/><path class="au" d="M196.99,262.466c-.046-.064-.09-.128-.132-.193Q196.921,262.371,196.99,262.466Z" transform="translate(-174.809 -230.955)"/><path class="bd" d="M203.507,269.181c-.038-.021-.078-.04-.115-.064C203.429,269.14,203.468,269.16,203.507,269.181Z" transform="translate(-180.507 -236.922)"/><path class="bd" d="M207.308,270.794a1.675,1.675,0,0,1-.264-.05A1.664,1.664,0,0,0,207.308,270.794Z" transform="translate(-183.691 -238.341)"/><path class="bd" d="M217.693,242.43h0a2.191,2.191,0,0,0,.1.4A2.191,2.191,0,0,1,217.693,242.43Z" transform="translate(-192.976 -213.653)"/><path class="bd" d="M205.291,270.113c-.051-.017-.1-.034-.153-.056C205.187,270.079,205.239,270.1,205.291,270.113Z" transform="translate(-182.029 -237.742)"/><path class="bd" d="M196.857,262.271h0Z" transform="translate(-174.808 -230.953)"/><path class="bd" d="M197.906,263.806l-.019-.026Z" transform="translate(-175.707 -232.269)"/><path class="bd" d="M200.411,266.737c-.021-.019-.042-.038-.063-.059C200.368,266.7,200.39,266.717,200.411,266.737Z" transform="translate(-177.852 -234.796)"/><path class="bd" d="M199.088,265.311l-.039-.045Z" transform="translate(-176.72 -233.565)"/><path class="bd" d="M201.881,268.048c-.029-.021-.059-.042-.087-.064C201.822,268.006,201.852,268.027,201.881,268.048Z" transform="translate(-179.113 -235.934)"/><path class="bc" d="M198.958,303.06l.017.027a2.951,2.951,0,0,1,1.593,1.018,8.1,8.1,0,0,0,1.15,1.991c.752.929,1.593,1.018,1.991,2.079l-1.5-4A7.922,7.922,0,0,0,198.958,303.06Z" transform="translate(-176.64 -266.519)"/><path class="av" d="M275.59,304.793c-.064-.176-.141-.352-.22-.528C275.448,304.441,275.525,304.617,275.59,304.793Z" transform="translate(-243.267 -267.569)"/><path class="av" d="M277.134,307.7c-.018.033-.036.067-.048.088C277.1,307.766,277.116,307.735,277.134,307.7Z" transform="translate(-244.764 -270.565)"/><path class="az" d="M274.22,301.787c.051.106.1.211.147.317C274.32,302,274.271,301.893,274.22,301.787Z" transform="translate(-242.265 -265.409)"/><path class="az" d="M215.989,276.034a2.873,2.873,0,0,1,2.458.531,18.681,18.681,0,0,0-1.416-2,4.905,4.905,0,0,0-3.741-.34A.378.378,0,0,1,212.8,274a.367.367,0,0,1-.014-.189,15.215,15.215,0,0,0-1.524.4l.387,1.033c.3.8.6,1.141.889,1.273a1.61,1.61,0,0,0,.836.054q.086-.005.172,0a7.165,7.165,0,0,1,2.249-.361A.37.37,0,0,1,215.989,276.034Z" transform="translate(-187.371 -241.014)"/><path class="be" d="M209.779,249.082a5.056,5.056,0,0,1,3-.124c-.186-.2-.3-.315-.3-.317a11.437,11.437,0,0,0-1.746-1.648.378.378,0,0,1-.188-.5s.005-.006.007-.009a7.66,7.66,0,0,0-1.672-.69c-2.037.823-1.133,3.246-1.133,3.246l.276.737a15.209,15.209,0,0,1,1.524-.4A.373.373,0,0,1,209.779,249.082Z" transform="translate(-184.126 -216.584)"/><path class="bf" d="M233.325,294.613a.373.373,0,0,1,.429-.227,2.634,2.634,0,0,1,1.333.888c-.052-.2-.114-.4-.193-.621-.018-.049-.038-.1-.058-.149-.008-.007-.017-.011-.024-.019-.507-.528-2.034-1.818-3-1.456a.378.378,0,0,1-.487-.221.371.371,0,0,1,.031-.319,7.167,7.167,0,0,0-2.249.361.955.955,0,0,1,.8.489,2.453,2.453,0,0,0,.68.727A5.575,5.575,0,0,1,233.325,294.613Z" transform="translate(-202.927 -257.301)"/><path class="ax" d="M245.524,307.973c-.214-.555-.935-1.963-1.847-2.175a.378.378,0,0,1-.282-.454.357.357,0,0,1,.026-.056,5.575,5.575,0,0,0-2.738-.547,7.013,7.013,0,0,1,2.152,1.441c1.858,1.726,1.858,4.956,1.858,4.956l.714-.268a.368.368,0,0,1-.015-.237A8.272,8.272,0,0,0,245.524,307.973Z" transform="translate(-213.022 -267.977)"/><path class="az" d="M224.559,232.8c0-.033-.005-.07-.008-.107s0-.055-.008-.085c-.006-.054-.015-.11-.024-.169l-.006-.039c-.012-.07-.026-.142-.041-.217h0c-.048-.229-.109-.477-.181-.733-.29-1.039-.708-2.156-.708-2.156-.149-.4-.28-.747-.4-1.061a20.581,20.581,0,0,0-.86-2.088c-.4-.75-.66-.661-1.526-1.055a1.539,1.539,0,0,1-.507-.371,2.193,2.193,0,0,1-.511-1.266l-1.062.4a1.828,1.828,0,0,0-1,.781,2.111,2.111,0,0,0-.111,1.653c-.023.008-.04.02-.062.029a7.658,7.658,0,0,1,1.672.69,11.651,11.651,0,0,1,3.619,3.288A17.074,17.074,0,0,1,224.47,233l.086-.032A1.246,1.246,0,0,0,224.559,232.8Z" transform="translate(-192.797 -197.109)"/><path class="bb" d="M230.227,255.717a7.724,7.724,0,0,0-.233-.761,10.262,10.262,0,0,0-.615-1.336l.05-.027a2.889,2.889,0,0,0-.085-.783,19.765,19.765,0,0,0-1.473-2.065l0,0c-.175-.215-.337-.406-.488-.583a14.41,14.41,0,0,0-.7-2.8.378.378,0,1,0-.708.265,11.734,11.734,0,0,1,.435,1.481,9.917,9.917,0,0,0-1.827-1.648.378.378,0,1,0-.313.688,11.435,11.435,0,0,1,1.746,1.648s.115.116.3.317a5.055,5.055,0,0,0-3,.124.378.378,0,0,0,.265.708,4.909,4.909,0,0,1,3.741.34,18.685,18.685,0,0,1,1.416,2,2.872,2.872,0,0,0-2.458-.531.378.378,0,1,0,.265.708c.967-.363,2.495.928,3,1.456.007.008.017.012.024.019.019.05.04.1.058.149.079.221.142.424.194.621a2.634,2.634,0,0,0-1.333-.888.378.378,0,1,0-.172.736c.912.213,1.633,1.621,1.847,2.175a8.235,8.235,0,0,1-.132,2.66.368.368,0,0,0,.015.236l.348-.13A10.114,10.114,0,0,0,230.227,255.717Z" transform="translate(-197.673 -217.733)"/><path class="az" d="M229.1,295.306h0Z" transform="translate(-202.925 -259.758)"/><path class="bd" d="M240,230.983Z" transform="translate(-212.427 -203.672)"/><path class="bg" d="M211.268,274.211l.387,1.032c.034.09.067.172.1.251l.03.069q.037.082.074.156l.031.063c.033.064.066.124.1.178a2.159,2.159,0,0,0,.129.19l.037.046c.031.038.061.073.092.1l.043.042a1.051,1.051,0,0,0,.09.075c.013.009.026.02.038.028a.877.877,0,0,0,.125.072,1.611,1.611,0,0,0,.836.054,1.642,1.642,0,0,1,.172,0h0a7.166,7.166,0,0,1,2.249-.361h0a.372.372,0,0,1,.077-.1.343.343,0,0,1,.113-.071,2.873,2.873,0,0,1,2.458.531,18.688,18.688,0,0,0-1.416-2,4.906,4.906,0,0,0-3.741-.34.378.378,0,0,1-.487-.221.325.325,0,0,1-.018-.114.371.371,0,0,1,0-.074A15.194,15.194,0,0,0,211.268,274.211Z" transform="translate(-187.374 -241.02)"/><path class="bh" d="M207.747,249.042l.276.737a15.2,15.2,0,0,1,1.524-.4.37.37,0,0,1,.056-.145.364.364,0,0,1,.036-.05.4.4,0,0,1,.144-.1,5.056,5.056,0,0,1,3-.124c-.186-.2-.3-.315-.3-.317A11.439,11.439,0,0,0,210.732,247a.378.378,0,0,1-.188-.5s.005-.006.007-.009a7.659,7.659,0,0,0-1.672-.691C206.842,246.619,207.747,249.042,207.747,249.042Z" transform="translate(-184.129 -216.589)"/><path class="ay" d="M229.1,292.838h0c.033,0,.067,0,.1.008h0a.865.865,0,0,1,.181.043l.019.006c.019.007.038.017.057.026s.038.018.057.029.034.021.051.033.043.03.064.047l.047.038c.024.022.049.047.074.073s.026.026.038.04a1.686,1.686,0,0,1,.112.144c.064.093.123.172.179.243l.05.062c.039.048.077.092.113.131l.05.052c.037.038.074.072.109.1l.036.032a1.555,1.555,0,0,0,.141.1h0a5.575,5.575,0,0,1,2.738.547h0a.367.367,0,0,1,.168-.189l.038-.014a.329.329,0,0,1,.224-.023,2.635,2.635,0,0,1,1.333.888c-.052-.2-.114-.4-.194-.621-.018-.049-.038-.1-.058-.149-.008-.007-.017-.011-.024-.019-.507-.528-2.034-1.818-3-1.456a.378.378,0,0,1-.487-.221.372.372,0,0,1-.02-.164.049.049,0,0,1,0-.008.37.37,0,0,1,.049-.147h0a7.164,7.164,0,0,0-2.247.362Z" transform="translate(-202.923 -257.29)"/><path class="bg" d="M217.622,224.843c-.014.035-.028.07-.04.105s-.013.041-.018.061-.018.065-.026.1-.009.041-.013.061-.012.065-.016.1-.005.038-.007.056c0,.036-.006.072-.008.107,0,.014,0,.027,0,.041a2.344,2.344,0,0,0,.025.415,2.192,2.192,0,0,0,.1.4c-.023.008-.04.02-.062.029a7.658,7.658,0,0,1,1.671.69h0a.375.375,0,0,1,.21-.189c.007,0,.015,0,.022,0a.347.347,0,0,1,.261.014,9.916,9.916,0,0,1,1.827,1.648,11.734,11.734,0,0,0-.435-1.481.378.378,0,0,1,.708-.265,14.409,14.409,0,0,1,.7,2.8c.151.176.313.368.488.583l0,0c.333.413.637.82.916,1.22l.117.17c.155.227.3.453.44.675h0c-.023-.111-.05-.226-.079-.345l0-.019c-.03-.12-.062-.242-.1-.367v0l-.019-.068q-.029-.1-.059-.2-.013-.046-.027-.091-.036-.121-.073-.24l-.029-.092-.058-.181L224,230.5l-.072-.217-.031-.093-.058-.171-.029-.083-.049-.141-.024-.068-.051-.145-.016-.044c-.013-.036-.026-.07-.035-.1l-.008-.023-.029-.079-.006-.015-.008-.022c-.149-.4-.28-.747-.4-1.061a20.571,20.571,0,0,0-.86-2.088c-.4-.75-.66-.661-1.526-1.055a1.538,1.538,0,0,1-.507-.371,2.193,2.193,0,0,1-.511-1.266l-1.062.4a1.829,1.829,0,0,0-1,.781,1.561,1.561,0,0,0-.08.156C217.635,224.808,217.629,224.826,217.622,224.843Z" transform="translate(-192.8 -197.109)"/><path class="be" d="M272.024,291.625h0Z" transform="translate(-240.35 -256.547)"/><rect class="bi" width="4.887" height="2.443" transform="translate(32.003 37.736)"/><rect class="y" width="4.887" height="6.516" transform="translate(32.003 31.22)"/><path class="bi" d="M279.481,233.988v1.086h-4.887v-1.086a1.959,1.959,0,0,1,.779-1.545,1.608,1.608,0,0,0,.578-1.251v.081h2.172v-.081a1.607,1.607,0,0,0,.578,1.251A1.96,1.96,0,0,1,279.481,233.988Z" transform="translate(-242.591 -203.854)"/><path class="g" d="M287.366,224.352v.081h-2.172v-1.086h2.172Z" transform="translate(-251.833 -197.014)"/><path class="y" d="M287.366,213.019v1.086h-2.172v-1.086a.272.272,0,0,1,.271-.271h1.629A.272.272,0,0,1,287.366,213.019Z" transform="translate(-251.833 -187.772)"/><path class="z" d="M287.094,212.748h-1.629a.272.272,0,0,0-.271.271v.543a.272.272,0,0,1,.271-.271h1.629a.272.272,0,0,1,.271.271v-.543A.272.272,0,0,0,287.094,212.748Z" transform="translate(-251.833 -187.772)"/><rect class="z" width="4.887" height="0.543" transform="translate(32.003 31.22)"/><rect class="z" width="4.887" height="0.543" transform="translate(32.003 37.193)"/><path class="bj" d="M275.68,313.475v-1.086h-1.086v2.443h4.887v-.543h-2.986a.815.815,0,0,1-.814-.814Z" transform="translate(-242.591 -274.653)"/><rect class="ab" width="1.086" height="5.43" transform="translate(32.003 31.763)"/><path class="bj" d="M275.68,233.988a1.959,1.959,0,0,1,.779-1.545,1.6,1.6,0,0,0,.574-1.17h-1.082v-.081a1.608,1.608,0,0,1-.578,1.251,1.959,1.959,0,0,0-.779,1.545v1.086h1.086Z" transform="translate(-242.591 -203.854)"/><path class="ac" d="M286.276,224.434c0-.027,0-.054,0-.081v-1h-1.086v1.086Z" transform="translate(-251.833 -197.014)"/><path class="ab" d="M285.465,216.988a.272.272,0,0,0-.271.271v.543h1.086v-.814Z" transform="translate(-251.833 -191.469)"/><path class="ad" d="M286.551,212.748h-1.086a.272.272,0,0,0-.271.271v.543a.272.272,0,0,1,.271-.271h.814v-.271A.272.272,0,0,1,286.551,212.748Z" transform="translate(-251.833 -187.772)"/><rect class="ad" width="1.086" height="0.543" transform="translate(32.003 37.193)"/><rect class="ad" width="1.086" height="0.543" transform="translate(32.003 31.22)"/><path class="bk" d="M280.56,344.6a5.892,5.892,0,0,1,1.379,3.756c-.439-.511-1.127-1.154-2.022-2.175a11.869,11.869,0,0,1-2.255-3.848A10.208,10.208,0,0,1,280.56,344.6Z" transform="translate(-245.266 -300.759)"/><path class="bk" d="M296.981,310.961a5.858,5.858,0,0,1,1.375,3.754c-.438-.511-1.127-1.154-2.021-2.172a13,13,0,0,1-2.27-3.857A10.242,10.242,0,0,1,296.981,310.961Z" transform="translate(-259.568 -271.424)"/><path class="bk" d="M312.028,273.89a5.856,5.856,0,0,1,1.378,3.753c-.438-.511-1.125-1.151-2.021-2.172a13.056,13.056,0,0,1-2.276-3.862A10.218,10.218,0,0,1,312.028,273.89Z" transform="translate(-272.686 -239.095)"/><path class="bk" d="M326.215,239.36a5.886,5.886,0,0,1,1.376,3.757c-.439-.511-1.125-1.151-2.021-2.172a11.921,11.921,0,0,1-2.258-3.854,10.324,10.324,0,0,1,2.9,2.269Z" transform="translate(-285.07 -208.997)"/><path class="bl" d="M262.928,336.522a11.872,11.872,0,0,0,2.255,3.848c.9,1.021,1.584,1.665,2.022,2.175a1.526,1.526,0,0,1,.511,1.529c-1.179,1.394-2.936,2.4-4.721,1.675-2.529-1.031-2.59-4.51-1.737-6.608l1.415-3.472A8.607,8.607,0,0,0,262.928,336.522Z" transform="translate(-230.532 -294.952)"/><path class="bl" d="M282.315,305.9a1.491,1.491,0,0,1,.432,1.774l-.9,2.214a6.988,6.988,0,0,1-1.135,1.844,1.526,1.526,0,0,0-.511-1.529,5.892,5.892,0,0,0-1.379-3.756,10.208,10.208,0,0,0-2.9-2.267,8.592,8.592,0,0,1-.255-.852.011.011,0,0,0,0-.008l1.932-4.743a11.81,11.81,0,0,0,.423,1.295,13,13,0,0,0,2.271,3.856C281.189,304.747,281.877,305.39,282.315,305.9Z" transform="translate(-243.528 -262.611)"/><path class="bl" d="M297.41,268.9a1.491,1.491,0,0,1,.428,1.773l0,0-1.932,4.743a1.491,1.491,0,0,0-.432-1.774,5.859,5.859,0,0,0-1.375-3.754,10.242,10.242,0,0,0-2.916-2.275,11.794,11.794,0,0,1-.423-1.295l1.927-4.737a12.124,12.124,0,0,0,.423,1.284,13.062,13.062,0,0,0,2.276,3.862C296.285,267.75,296.972,268.39,297.41,268.9Z" transform="translate(-256.691 -230.353)"/><path class="bl" d="M312.761,239.011l-1.8,4.431,0,0a1.492,1.492,0,0,0-.428-1.773,5.854,5.854,0,0,0-1.378-3.753,10.216,10.216,0,0,0-2.918-2.281,12.112,12.112,0,0,1-.423-1.284.01.01,0,0,0,0-.008l.9-2.214a7.014,7.014,0,0,1,1.077-1.778l.012.01a7.289,7.289,0,0,0,.252.853,11.922,11.922,0,0,0,2.258,3.854c.9,1.021,1.582,1.662,2.021,2.172A1.5,1.5,0,0,1,312.761,239.011Z" transform="translate(-269.81 -203.12)"/><path class="bl" d="M326.033,215.11a3.333,3.333,0,0,1,1.835,1.864,6.618,6.618,0,0,1-.1,4.743l-1.544,3.794a1.5,1.5,0,0,0-.431-1.771,5.885,5.885,0,0,0-1.376-3.757,10.322,10.322,0,0,0-2.9-2.269,7.282,7.282,0,0,1-.252-.853l-.012-.01C322.434,215.422,324.219,214.372,326.033,215.11Z" transform="translate(-283.276 -189.62)"/><path class="bm" d="M280.56,344.6a10.211,10.211,0,0,0-2.9-2.267c.072.206.165.445.276.7a10.24,10.24,0,0,1,2.439,2.012,5.739,5.739,0,0,1,1.33,3.049c.083.09.161.176.232.258A5.892,5.892,0,0,0,280.56,344.6Z" transform="translate(-245.266 -300.758)"/><path class="bm" d="M294.065,308.686c.084.219.185.461.3.715a10.31,10.31,0,0,1,2.435,2.009,5.712,5.712,0,0,1,1.328,3.05c.082.089.16.174.229.256a5.858,5.858,0,0,0-1.375-3.754A10.239,10.239,0,0,0,294.065,308.686Z" transform="translate(-259.568 -271.424)"/><path class="bm" d="M309.107,271.609c.085.219.187.462.3.717a10.266,10.266,0,0,1,2.436,2.014,5.707,5.707,0,0,1,1.33,3.048c.082.089.16.175.23.256a5.854,5.854,0,0,0-1.378-3.753A10.215,10.215,0,0,0,309.107,271.609Z" transform="translate(-272.684 -239.095)"/><path class="bm" d="M326.214,239.362a10.321,10.321,0,0,0-2.9-2.269c.073.206.166.446.277.706a10.308,10.308,0,0,1,2.443,2.013,5.727,5.727,0,0,1,1.328,3.052c.082.089.161.175.23.256A5.882,5.882,0,0,0,326.214,239.362Z" transform="translate(-285.07 -208.999)"/><path class="bn" d="M269.364,342.549c-.439-.511-1.127-1.154-2.022-2.175a11.87,11.87,0,0,1-2.255-3.848,8.615,8.615,0,0,1-.255-.852l-.435,1.068,1.185,2.811a8.72,8.72,0,0,0,1.892,2.593,1.548,1.548,0,0,1,.056,2.138h0a2.617,2.617,0,0,1-4.29-.606,3.38,3.38,0,0,0,1.914,2.076c1.786.724,3.542-.281,4.721-1.675A1.527,1.527,0,0,0,269.364,342.549Z" transform="translate(-232.691 -294.956)"/><path class="bn" d="M293.037,305.9c-.438-.511-1.127-1.154-2.021-2.172a13,13,0,0,1-2.27-3.857,11.792,11.792,0,0,1-.423-1.295l-.359.879.919,2.179a15.087,15.087,0,0,0,2.121,3.671,2.408,2.408,0,0,1,.369,2.427l-.562,1.382a5.941,5.941,0,0,1,.11,1.088,1.526,1.526,0,0,1,.511,1.529,6.987,6.987,0,0,0,1.135-1.844l.9-2.214A1.491,1.491,0,0,0,293.037,305.9Z" transform="translate(-254.25 -262.609)"/><path class="bn" d="M307.4,268.9c-.438-.511-1.125-1.151-2.021-2.172a13.061,13.061,0,0,1-2.276-3.862,12.131,12.131,0,0,1-.423-1.284l-.459,1.127.919,2.179a15.085,15.085,0,0,0,2.121,3.671,2.407,2.407,0,0,1,.369,2.427l-.408,1a6.074,6.074,0,0,1,.243,1.654,1.491,1.491,0,0,1,.432,1.774l1.932-4.743,0,0A1.492,1.492,0,0,0,307.4,268.9Z" transform="translate(-266.684 -230.353)"/><path class="bn" d="M322.034,237.238c-.439-.511-1.125-1.151-2.021-2.172a11.923,11.923,0,0,1-2.258-3.854,7.271,7.271,0,0,1-.252-.853l-.012-.01a7.382,7.382,0,0,0-.552.772l.862,2.043a15.087,15.087,0,0,0,2.122,3.671,2.407,2.407,0,0,1,.369,2.427l-.3.748a6.073,6.073,0,0,1,.246,1.656,1.491,1.491,0,0,1,.428,1.773l0,0,1.8-4.431A1.5,1.5,0,0,0,322.034,237.238Z" transform="translate(-279.513 -203.118)"/><path class="bn" d="M345.907,215.124a3.216,3.216,0,0,0-1.861-.176,2.76,2.76,0,0,1,1.922,1.152,4.217,4.217,0,0,1,.479,4.126l-.922,2.266a6.011,6.011,0,0,1,.144,1.262,1.5,1.5,0,0,1,.431,1.771l1.544-3.794a6.619,6.619,0,0,0,.1-4.743,3.334,3.334,0,0,0-1.835-1.864Z" transform="translate(-303.149 -189.634)"/><path class="bo" d="M292.77,215.134a3.189,3.189,0,0,0-1.423-.232,3.211,3.211,0,0,1,.658.183,3.332,3.332,0,0,1,1.835,1.864,6.618,6.618,0,0,1-.1,4.743l-.968,2.38-.575,1.414-1.225,3.015-.575,1.416-1.355,3.327-.576,1.416-.9,2.214a6.485,6.485,0,0,1-.474.93,7.3,7.3,0,0,1-.661.913,4.934,4.934,0,0,1-3.326,1.908,4.5,4.5,0,0,0,4.091-1.859,6.988,6.988,0,0,0,1.135-1.844l.9-2.214,1.932-4.743,1.8-4.431,1.544-3.794a6.619,6.619,0,0,0,.1-4.743,3.333,3.333,0,0,0-1.835-1.863Z" transform="translate(-250.013 -189.644)"/><path class="bp" d="M288.352,359.569a.211.211,0,0,0,.071.179.423.423,0,0,0,.177.09.874.874,0,0,0,.4.017.284.284,0,0,0,.179-.091.339.339,0,0,0,.049-.2.309.309,0,0,0-.029-.179C289.055,359.165,288.39,359.311,288.352,359.569Z" transform="translate(-254.586 -315.538)"/><path class="bp" d="M284.627,352.44a.169.169,0,0,1,.1-.017.134.134,0,0,1,.09.173.192.192,0,0,1-.253.1C284.45,352.622,284.534,352.481,284.627,352.44Z" transform="translate(-251.235 -309.559)"/><path class="bp" d="M300.475,373.864a.181.181,0,0,0-.095.058.09.09,0,0,0-.006.105.1.1,0,0,0,.043.03.225.225,0,0,0,.146.006.19.19,0,0,0,.107-.07C300.775,373.841,300.568,373.836,300.475,373.864Z" transform="translate(-265.057 -328.244)"/><path class="bp" d="M303.005,376.192a.154.154,0,0,0-.086.1.071.071,0,0,0,0,.045c.014.033.056.041.092.043a.282.282,0,0,0,.129-.014.115.115,0,0,0,.074-.1C303.217,376.123,303.1,376.148,303.005,376.192Z" transform="translate(-267.287 -330.256)"/><path class="bp" d="M293.735,364.74a.4.4,0,0,0-.214.219c-.04.137.136.187.24.177a.768.768,0,0,0,.166-.035.2.2,0,0,0,.083-.045.234.234,0,0,0,.041-.062.255.255,0,0,0,.04-.186.163.163,0,0,0-.1-.1A.332.332,0,0,0,293.735,364.74Z" transform="translate(-259.088 -320.263)"/><path class="bp" d="M298.125,369.037a.085.085,0,0,0,.038.017.383.383,0,0,0,.313-.07c.1-.074-.054-.206-.143-.183C298.271,368.818,298.039,368.962,298.125,369.037Z" transform="translate(-263.092 -323.839)"/><path class="bp" d="M287.565,356.6a.107.107,0,0,0-.012.115.116.116,0,0,0,.094.036c.111,0,.533-.1.377-.292C287.919,356.327,287.628,356.5,287.565,356.6Z" transform="translate(-253.881 -313.036)"/><path class="bp" d="M334.65,255.8a.211.211,0,0,0,.071.179.424.424,0,0,0,.177.09.874.874,0,0,0,.4.017.285.285,0,0,0,.179-.091.34.34,0,0,0,.049-.2.31.31,0,0,0-.029-.179C335.354,255.4,334.689,255.545,334.65,255.8Z" transform="translate(-294.956 -225.06)"/><path class="bp" d="M330.925,248.677a.169.169,0,0,1,.1-.017.134.134,0,0,1,.09.173.192.192,0,0,1-.253.1C330.748,248.859,330.832,248.718,330.925,248.677Z" transform="translate(-291.604 -219.084)"/><path class="bp" d="M346.774,270.1a.181.181,0,0,0-.095.058.09.09,0,0,0-.006.1.1.1,0,0,0,.043.03.225.225,0,0,0,.146.006.19.19,0,0,0,.107-.07C347.074,270.075,346.868,270.07,346.774,270.1Z" transform="translate(-305.428 -237.766)"/><path class="bp" d="M349.3,272.426a.154.154,0,0,0-.085.1.071.071,0,0,0,0,.045c.014.033.056.041.092.043a.282.282,0,0,0,.129-.014.115.115,0,0,0,.074-.1C349.513,272.357,349.391,272.382,349.3,272.426Z" transform="translate(-307.654 -239.777)"/><path class="bp" d="M340.033,260.974a.4.4,0,0,0-.215.219c-.04.137.136.187.24.177a.771.771,0,0,0,.166-.035.207.207,0,0,0,.083-.045.238.238,0,0,0,.04-.062.256.256,0,0,0,.04-.186.164.164,0,0,0-.1-.1A.333.333,0,0,0,340.033,260.974Z" transform="translate(-299.458 -229.785)"/><path class="bp" d="M344.424,265.276a.085.085,0,0,0,.038.017.382.382,0,0,0,.313-.07c.1-.074-.054-.206-.143-.183C344.57,265.056,344.338,265.2,344.424,265.276Z" transform="translate(-303.462 -233.365)"/><path class="bp" d="M333.864,252.829a.107.107,0,0,0-.012.115.115.115,0,0,0,.094.036c.111,0,.533-.1.377-.292C334.218,252.56,333.927,252.728,333.864,252.829Z" transform="translate(-294.251 -222.557)"/><path class="bp" d="M304.728,325.912a.211.211,0,0,0-.114.156.424.424,0,0,0,.018.2.871.871,0,0,0,.2.345.285.285,0,0,0,.172.1.34.34,0,0,0,.192-.062.31.31,0,0,0,.137-.119C305.444,326.295,304.967,325.808,304.728,325.912Z" transform="translate(-268.763 -286.432)"/><path class="bp" d="M320.326,345.159a.181.181,0,0,0-.095.058.09.09,0,0,0-.006.105.1.1,0,0,0,.043.03.225.225,0,0,0,.146.006.191.191,0,0,0,.107-.07C320.626,345.136,320.419,345.131,320.326,345.159Z" transform="translate(-282.366 -303.215)"/><path class="bp" d="M301.486,321.148a.182.182,0,0,0-.095.058.09.09,0,0,0-.006.105.1.1,0,0,0,.043.03.224.224,0,0,0,.146.006.19.19,0,0,0,.107-.07C301.786,321.126,301.58,321.121,301.486,321.148Z" transform="translate(-265.939 -282.279)"/><path class="bp" d="M317.27,341.128a.154.154,0,0,0-.086.1.071.071,0,0,0,0,.045c.014.033.056.041.092.043a.282.282,0,0,0,.129-.014.115.115,0,0,0,.074-.1C317.481,341.059,317.36,341.084,317.27,341.128Z" transform="translate(-279.725 -299.682)"/><path class="bp" d="M311.505,331.1a.4.4,0,0,0-.215.219c-.04.137.136.187.24.177a.783.783,0,0,0,.166-.035.205.205,0,0,0,.083-.045.233.233,0,0,0,.04-.062.256.256,0,0,0,.04-.186.163.163,0,0,0-.1-.1A.332.332,0,0,0,311.505,331.1Z" transform="translate(-274.583 -290.932)"/><path class="bp" d="M316.935,337.866a.087.087,0,0,0,.038.017.382.382,0,0,0,.313-.07c.1-.074-.054-.206-.143-.183C317.08,337.647,316.849,337.79,316.935,337.866Z" transform="translate(-279.493 -296.66)"/><path class="bp" d="M313.157,337.56a.1.1,0,0,0,0,.064c.016.034.061.04.1.038a.574.574,0,0,0,.174-.037.067.067,0,0,0,.038-.028.056.056,0,0,0,0-.027.171.171,0,0,0-.069-.135C313.273,337.339,313.181,337.426,313.157,337.56Z" transform="translate(-276.212 -296.457)"/><path class="bp" d="M305.4,322.839a.107.107,0,0,0-.095.066.115.115,0,0,0,.034.1c.07.086.424.339.467.1C305.831,322.932,305.514,322.821,305.4,322.839Z" transform="translate(-269.365 -283.763)"/><path class="bp" d="M319.379,284.875a.211.211,0,0,0-.114.156.423.423,0,0,0,.018.2.873.873,0,0,0,.2.346.284.284,0,0,0,.172.1.34.34,0,0,0,.192-.062.309.309,0,0,0,.137-.119C320.095,285.257,319.618,284.77,319.379,284.875Z" transform="translate(-281.537 -250.65)"/><path class="bp" d="M333.55,307.629a.182.182,0,0,0-.095.058.09.09,0,0,0-.006.105.1.1,0,0,0,.043.03.225.225,0,0,0,.146.006.191.191,0,0,0,.107-.07C333.85,307.606,333.643,307.6,333.55,307.629Z" transform="translate(-293.897 -270.491)"/><path class="bp" d="M317.177,282.578a.18.18,0,0,0-.095.058.09.09,0,0,0-.006.1.1.1,0,0,0,.043.03.226.226,0,0,0,.146.006.19.19,0,0,0,.107-.07C317.477,282.555,317.271,282.55,317.177,282.578Z" transform="translate(-279.621 -248.648)"/><path class="bp" d="M331.92,300.091a.153.153,0,0,0-.085.1.072.072,0,0,0,0,.045c.014.033.056.041.092.043a.283.283,0,0,0,.129-.014.115.115,0,0,0,.074-.1C332.132,300.022,332.01,300.047,331.92,300.091Z" transform="translate(-292.499 -263.9)"/><path class="bp" d="M325.769,296.038a.4.4,0,0,0-.215.219c-.04.137.136.187.24.177a.772.772,0,0,0,.166-.035.206.206,0,0,0,.083-.045.235.235,0,0,0,.04-.062.257.257,0,0,0,.04-.186.163.163,0,0,0-.1-.1A.332.332,0,0,0,325.769,296.038Z" transform="translate(-287.021 -260.359)"/><path class="bp" d="M331.2,302.8a.085.085,0,0,0,.038.017.383.383,0,0,0,.313-.07c.1-.074-.054-.206-.143-.183C331.345,302.582,331.113,302.726,331.2,302.8Z" transform="translate(-291.931 -266.085)"/><path class="bp" d="M328.848,298.99a.1.1,0,0,0,0,.064c.016.034.061.04.1.038a.566.566,0,0,0,.174-.037.066.066,0,0,0,.038-.028.06.06,0,0,0,0-.027.171.171,0,0,0-.069-.134C328.963,298.769,328.872,298.855,328.848,298.99Z" transform="translate(-289.893 -262.826)"/><path class="bp" d="M324.206,291.667a.108.108,0,0,0-.095.066.116.116,0,0,0,.034.1c.07.086.424.339.467.1C324.641,291.76,324.324,291.649,324.206,291.667Z" transform="translate(-285.767 -256.583)"/><path class="bq" d="M327.683,219.729a2.242,2.242,0,0,0-.576.828.447.447,0,0,0-.029.264c.049.178.264.249.451.271a4.808,4.808,0,0,0,.815,0,5.2,5.2,0,0,0,1.3-.184,1.446,1.446,0,0,0,.526-.278.746.746,0,0,0,.265-.513.76.76,0,0,0-.254-.558,2.133,2.133,0,0,0-.978-.5,1.5,1.5,0,0,0-.963.243A2.877,2.877,0,0,0,327.683,219.729Z" transform="translate(-288.346 -193.259)"/><path class="bq" d="M351.611,233.566a1.866,1.866,0,0,0-.019.854,1.185,1.185,0,0,0,.339.655.576.576,0,0,0,.665.1.629.629,0,0,0,.226-.283,1.3,1.3,0,0,0,.028-.92c-.084-.26-.288-.668-.562-.766A.569.569,0,0,0,351.611,233.566Z" transform="translate(-309.693 -205.595)"/><path class="bq" d="M309.059,250.142a4.062,4.062,0,0,0-.276.708,1.019,1.019,0,0,0-.017.533.447.447,0,0,0,.764.23,1.493,1.493,0,0,0,.269-.346l.411-.653a1.057,1.057,0,0,0,.176-.388,1.091,1.091,0,0,0-.117-.563.6.6,0,0,0-.243-.338.381.381,0,0,0-.388.061,2.305,2.305,0,0,0-.578.757Z" transform="translate(-272.363 -219.639)"/><path class="bq" d="M294.795,285.205a4.058,4.058,0,0,0-.276.708,1.02,1.02,0,0,0-.017.533.447.447,0,0,0,.764.23,1.494,1.494,0,0,0,.269-.346l.411-.653a1.06,1.06,0,0,0,.176-.388,1.092,1.092,0,0,0-.117-.562.6.6,0,0,0-.243-.338.381.381,0,0,0-.388.061,2.306,2.306,0,0,0-.578.756Z" transform="translate(-259.926 -250.214)"/><path class="bq" d="M280.53,320.27a4.051,4.051,0,0,0-.276.708,1.018,1.018,0,0,0-.017.533.447.447,0,0,0,.764.23,1.49,1.49,0,0,0,.269-.346l.411-.653a1.056,1.056,0,0,0,.176-.388,1.092,1.092,0,0,0-.117-.562.6.6,0,0,0-.243-.338.381.381,0,0,0-.388.061A2.3,2.3,0,0,0,280.53,320.27Z" transform="translate(-247.488 -280.788)"/><path class="bq" d="M263.909,362.435a4.52,4.52,0,0,0-.217,2.034,1.038,1.038,0,0,0,.229.556.584.584,0,0,0,.6.16.691.691,0,0,0,.4-.43,2.75,2.75,0,0,0,.1-.557c.08-.562.339-1.105.471-1.663a1.048,1.048,0,0,0-.082-.875.7.7,0,0,0-.528-.259C264.243,361.376,264.05,361.979,263.909,362.435Z" transform="translate(-233.049 -317.388)"/><path class="bq" d="M277.124,376.228a1.537,1.537,0,0,0,.356.7.684.684,0,0,0,.758.15.67.67,0,0,0,.338-.55,1.437,1.437,0,0,0-.131-.63,1.62,1.62,0,0,0-.257-.467.735.735,0,0,0-.466-.265C277.04,375.086,277,375.8,277.124,376.228Z" transform="translate(-244.749 -329.384)"/><path class="br" d="M248.5,296.8a4.8,4.8,0,0,1-9.149,2.906c-.707-2.226.972-4.039,3.5-4.841S247.789,294.572,248.5,296.8Z" transform="translate(-211.715 -259.06)"/><path class="av" d="M260.131,280.991a2.193,2.193,0,0,0,.213.172.455.455,0,0,1-.3.574l-.243.078a.45.45,0,0,1-.463-.114,2.129,2.129,0,0,1-.286-.389c-.366-.615-.642-1.544-.347-1.787l.762-.242A1.95,1.95,0,0,0,260.131,280.991Z" transform="translate(-228.63 -245.787)"/><path class="au" d="M246.26,290.542a1.883,1.883,0,0,1,1.445.021c.607.455,1.324-.152,1.375-.194-.178.949-2.039,1.125-2.039,1.125a1.9,1.9,0,0,1,.266,1.594c-.653.207-1.722-.892-1.722-.892a4.8,4.8,0,0,0-.674,1.653c-1.065-.333-.851-1.169-.851-1.169a1.816,1.816,0,0,1-1.8-.387c1.089-.346.876-.261,1.456-.7a2.772,2.772,0,0,1,1.02-.563l.085-.049a2.123,2.123,0,0,0,.286.389.449.449,0,0,0,.463.114l.243-.078a.455.455,0,0,0,.3-.574,2.194,2.194,0,0,1-.213-.172Z" transform="translate(-214.396 -255.452)"/><path class="bs" d="M248.5,296.8a4.8,4.8,0,0,1-9.149,2.906c-.707-2.226.972-4.039,3.5-4.841S247.789,294.572,248.5,296.8Z" transform="translate(-211.715 -259.06)"/><path class="bt" d="M239.871,315.02a3.193,3.193,0,0,1-.133-1.381,3.071,3.071,0,0,0-.392,2.747,4.784,4.784,0,0,0,9.216-.617,4.777,4.777,0,0,1-2.7,2.253A4.9,4.9,0,0,1,239.871,315.02Z" transform="translate(-211.714 -275.743)"/><path class="ax" d="M260.131,280.991a2.193,2.193,0,0,0,.213.172.455.455,0,0,1-.3.574l-.243.078a.45.45,0,0,1-.463-.114,2.129,2.129,0,0,1-.286-.389c-.366-.615-.642-1.544-.347-1.787l.762-.242A1.95,1.95,0,0,0,260.131,280.991Z" transform="translate(-228.63 -245.787)"/><path class="ay" d="M246.26,290.542a1.883,1.883,0,0,1,1.445.021c.607.455,1.324-.152,1.375-.194-.178.949-2.039,1.125-2.039,1.125a1.9,1.9,0,0,1,.266,1.594c-.653.207-1.722-.892-1.722-.892a4.8,4.8,0,0,0-.674,1.653c-1.065-.333-.851-1.169-.851-1.169a1.816,1.816,0,0,1-1.8-.387c1.089-.346.876-.261,1.456-.7a2.772,2.772,0,0,1,1.02-.563l.085-.049a2.123,2.123,0,0,0,.286.389.449.449,0,0,0,.463.114l.243-.078a.455.455,0,0,0,.3-.574,2.194,2.194,0,0,1-.213-.172Z" transform="translate(-214.396 -255.452)"/><path class="bt" d="M247.111,298.869a3.7,3.7,0,0,1,.633-1.64s1.153,1.073,1.891.838a2.3,2.3,0,0,0-.246-1.84,4.269,4.269,0,0,0,1.942-.47,3.857,3.857,0,0,0-.415-.13,1.129,1.129,0,0,1-.342.016,4.233,4.233,0,0,1-1.472.435,1.9,1.9,0,0,1,.266,1.594c-.653.207-1.722-.892-1.722-.892a4.8,4.8,0,0,0-.674,1.653c-1.065-.333-.851-1.169-.851-1.169a1.81,1.81,0,0,1-1.088.017,4.232,4.232,0,0,0-.411.448,2.335,2.335,0,0,0,1.132-.11A1.741,1.741,0,0,0,247.111,298.869Z" transform="translate(-216.458 -260.038)"/><path class="av" d="M289.423,293.085l.076-.01Z" transform="translate(-255.521 -257.812)"/><path class="av" d="M293.918,291.312l.047-.03Z" transform="translate(-259.44 -256.249)"/><path class="av" d="M290.242,292.9c.027-.005.054-.013.081-.02C290.3,292.886,290.27,292.893,290.242,292.9Z" transform="translate(-256.235 -257.642)"/><path class="av" d="M293.243,291.638l.068-.038Z" transform="translate(-258.852 -256.526)"/><path class="av" d="M291.784,292.017a1.576,1.576,0,0,0,.18-.083A1.563,1.563,0,0,1,291.784,292.017Z" transform="translate(-257.579 -256.818)"/><path class="av" d="M287.714,293.116c.024,0,.048.007.071.008C287.762,293.122,287.738,293.12,287.714,293.116Z" transform="translate(-254.031 -257.848)"/><path class="av" d="M272.353,294.041a.414.414,0,0,0-.016-.074A.456.456,0,0,1,272.353,294.041Z" transform="translate(-240.623 -258.59)"/><path class="av" d="M279.617,299.18l-.016-.03c.006.01.009.02.015.03Z" transform="translate(-246.957 -263.109)"/><path class="av" d="M285.919,292.56a.82.82,0,0,0,.077.033A.765.765,0,0,1,285.919,292.56Z" transform="translate(-252.466 -257.363)"/><path class="av" d="M294.457,291.015l.032-.022Z" transform="translate(-259.91 -255.997)"/><path class="av" d="M286.833,292.917c.024.007.048.014.072.019C286.881,292.931,286.857,292.924,286.833,292.917Z" transform="translate(-253.263 -257.675)"/><path class="av" d="M288.58,293.179c.024,0,.048,0,.072,0Z" transform="translate(-254.786 -257.901)"/><path class="av" d="M291.126,292.588q-.046.017-.094.032Q291.08,292.606,291.126,292.588Z" transform="translate(-256.924 -257.388)"/><path class="av" d="M284.9,291.956a.9.9,0,0,1-.11-.07A.9.9,0,0,0,284.9,291.956Z" transform="translate(-251.477 -256.776)"/><path class="av" d="M294.9,290.766l.017-.013Z" transform="translate(-260.296 -255.788)"/><path class="bf" d="M288.271,293.178l.04,0Z" transform="translate(-254.516 -257.902)"/><path class="bf" d="M287.394,293.064l.041.007Z" transform="translate(-253.752 -257.803)"/><path class="bf" d="M272.463,294.61a.453.453,0,0,0,0-.066A.535.535,0,0,1,272.463,294.61Z" transform="translate(-240.729 -259.093)"/><path class="bf" d="M289.145,293.159l.036,0Z" transform="translate(-255.278 -257.883)"/><path class="bf" d="M286.515,292.82l.041.013Z" transform="translate(-252.985 -257.59)"/><path class="bf" d="M290.013,293.038l.029-.005Z" transform="translate(-256.035 -257.776)"/><path class="bf" d="M293.774,291.522l.018-.011Z" transform="translate(-259.315 -256.449)"/><path class="bf" d="M293.191,291.909l.007,0Z" transform="translate(-258.806 -256.792)"/><path class="bf" d="M295.055,290.6l-.027.021.027-.021Z" transform="translate(-260.408 -255.654)"/><path class="bf" d="M294.705,290.871l.025-.018Z" transform="translate(-260.126 -255.875)"/><path class="bf" d="M291.767,292.583h0Z" transform="translate(-257.565 -257.383)"/><path class="bf" d="M290.894,292.837l-.02.005Z" transform="translate(-256.786 -257.605)"/><path class="bf" d="M294.283,291.179l.022-.015Z" transform="translate(-259.759 -256.146)"/><path class="bf" d="M285.679,292.449l-.035-.016Z" transform="translate(-252.226 -257.253)"/><path class="av" d="M271.121,295.581l0,0a.449.449,0,0,1-.192.309A.452.452,0,0,0,271.121,295.581Z" transform="translate(-239.392 -259.996)"/><path class="bh" d="M273.563,300.9a1.979,1.979,0,0,0-.268-1.517,7.228,7.228,0,0,1-.943.044Z" transform="translate(-240.636 -263.311)"/><path class="av" d="M262.256,295.127c.035.059.071.111.107.162C262.327,295.237,262.291,295.185,262.256,295.127Z" transform="translate(-231.833 -259.602)"/><path class="bu" d="M263.088,296.391c.026.037.051.071.078.1C263.14,296.462,263.114,296.427,263.088,296.391Z" transform="translate(-232.558 -260.704)"/><path class="bh" d="M262.139,298.817a.457.457,0,0,1-.36-.035,2.19,2.19,0,0,0-.293,2.382,4.6,4.6,0,0,1,.669-1.633l.01-.723Z" transform="translate(-230.966 -262.789)"/><ellipse class="bv" cx="0.377" cy="0.525" rx="0.377" ry="0.525" transform="translate(33.945 36.957) rotate(-62.639)"/><path class="bv" d="M300.554,303.595c.109.091.13.22.047.289a.291.291,0,0,1-.349-.039c-.109-.091-.13-.22-.047-.289A.29.29,0,0,1,300.554,303.595Z" transform="translate(-264.878 -266.915)"/><path class="bv" d="M297.139,310.366c.055.045.065.11.023.145a.145.145,0,0,1-.174-.02c-.055-.045-.065-.11-.023-.145A.145.145,0,0,1,297.139,310.366Z" transform="translate(-262.074 -272.854)"/><path class="bw" d="M174.342,251.07s-.174-1.573.855-2.015.822,1.08.822,1.08.7-.874,1.029-.442-.535,1.09-.535,1.09a.532.532,0,0,1,.761.1c.329.432-1.019,1.8-1.019,1.8l-.432.329Z" transform="translate(-155.167 -219.359)"/><path class="bw" d="M155.016,266.586s-1.47-.587-2.17.287.822,1.08.822,1.08-1.029.442-.7.874,1.193-.225,1.193-.225a.532.532,0,0,0-.1.761c.329.432,2.005-.5,2.005-.5l.432-.329Z" transform="translate(-136.273 -234.547)"/><path class="bx" d="M160.672,256.5s-.648.493.009,1.357c0,0-.6.113-.648.493s1.686.423,1.686.423-1.573.174-1.08.822,2.067.474,2.067.474l.432-.329Z" transform="translate(-142.699 -225.921)"/><path class="by" d="M165.028,255.546s.648-.493,1.306.371c0,0,.268-.545.648-.493s-.042,1.738-.042,1.738.587-1.47,1.08-.822-.094,2.118-.094,2.118l-.432.329Z" transform="translate(-147.055 -224.967)"/><path class="bz" d="M183.953,286.4h0a1.975,1.975,0,0,1-2.72-.316l-6.22-7.552a2.351,2.351,0,0,1,.391-3.366h0a2.351,2.351,0,0,1,3.348.52l5.622,8.008A1.975,1.975,0,0,1,183.953,286.4Z" transform="translate(-155.294 -241.774)"/><path class="ca" d="M181.446,293.362l-6.22-7.552a2.336,2.336,0,0,1-.489-1.031,2.349,2.349,0,0,0,.282,2.553l6.22,7.552a1.974,1.974,0,0,0,3.429-1.77,1.975,1.975,0,0,1-3.223.248Z" transform="translate(-155.3 -250.579)"/><path class="cb" d="M206.592,292.737a.407.407,0,0,1-.571-.077l-.253-.333a.407.407,0,1,1,.648-.493l.253.333A.407.407,0,0,1,206.592,292.737Z" transform="translate(-182.505 -256.59)"/><path class="cb" d="M188.971,279.646a.407.407,0,0,1-.571-.077l-.281-.369c-.146-.192-.411-.424-1.029-.228a.407.407,0,1,1-.247-.776,1.635,1.635,0,0,1,1.924.511l.281.369A.407.407,0,0,1,188.971,279.646Z" transform="translate(-165.83 -244.741)"/><rect class="cc" width="2.715" height="0.814" rx="0.407" transform="translate(20.519 37.511) rotate(-37.271)"/><rect class="cc" width="2.715" height="0.814" rx="0.407" transform="translate(23.295 38.469) rotate(-37.271)"/><rect class="cc" width="2.715" height="0.814" rx="0.407" transform="translate(25.075 41.223) rotate(-37.282)"/><rect class="cc" width="1.9" height="0.543" rx="0.271" transform="translate(23.366 40.803) rotate(-37.271)"/><rect class="cc" width="0.814" height="0.543" rx="0.271" transform="translate(25.094 39.488) rotate(-37.271)"/><rect class="cc" width="0.814" height="0.543" rx="0.271" transform="translate(27.715 41.587) rotate(-37.271)"/><rect class="cc" width="0.814" height="0.543" rx="0.271" transform="translate(26.47 42.193) rotate(-37.271)"/><path class="f" d="M191.913,322.989h20.633v21.749a.512.512,0,0,1-.512.512h-20.12Z" transform="translate(-170.498 -283.896)"/><path class="am" d="M170.734,412.193s-.87-1.74-2.03-1.74a4.382,4.382,0,0,1-2.61-1.16c-.29-.29-1.486.072-.6,1.051a4.658,4.658,0,0,0,1.758,1.269l-2.32-.29s-.58,0-.58.87l.58.58s-.58.29-.58.58,0,1.16.58,1.16c0,0-.29,0-.29.87l.29.29v.87c0,.58,1.16.87,1.16.87l2.587.259a1.085,1.085,0,0,0,.594-.109l1.459-.73Z" transform="translate(-146.468 -359.064)"/><path class="cd" d="M170.849,460.79h1.357a.136.136,0,0,1,0,.271h-1.357a.136.136,0,1,1,0-.271Z" transform="translate(-152.012 -404.05)"/><path class="cd" d="M168.729,448.07h1.629a.136.136,0,0,1,0,.271h-1.629a.136.136,0,1,1,0-.271Z" transform="translate(-150.164 -392.959)"/><path class="cd" d="M170.849,437.47h1.357a.136.136,0,1,1,0,.271h-1.357a.136.136,0,1,1,0-.271Z" transform="translate(-152.012 -383.717)"/><path class="y" d="M202.4,437.794l-.351-4.348s-.037-.458-1.39-.348-1.549,1.046-1.549,1.046l.294,3.636a.984.984,0,0,0,1.02.832c.2,0,.424,0,.68-.022A1.355,1.355,0,0,0,202.4,437.794Z" transform="translate(-176.774 -379.889)"/><path class="ce" d="M200.415,436.8a2.242,2.242,0,0,0,1.35,1.625,1.152,1.152,0,0,0,.637-.634l-.351-4.348s-.037-.458-1.39-.348-1.549,1.046-1.549,1.046l.055.686C200.249,434.743,200.286,435.2,200.415,436.8Z" transform="translate(-176.774 -379.889)"/><path class="cf" d="M204.528,464.053a.138.138,0,0,1,.13.059.109.109,0,0,1-.059.156,6.8,6.8,0,0,1-2.054.521.116.116,0,1,1-.018-.229,6.587,6.587,0,0,0,1.949-.494A.154.154,0,0,1,204.528,464.053Z" transform="translate(-179.641 -406.895)"/><path class="cf" d="M201.8,458.093l1.759-.142a.116.116,0,1,1,.018.229l-1.759.142a.116.116,0,1,1-.018-.229Z" transform="translate(-179.012 -401.572)"/><path class="cf" d="M201.083,449.381l1.353-.109a.116.116,0,1,1,.018.229l-1.353.109a.116.116,0,1,1-.018-.229Z" transform="translate(-178.383 -394.004)"/><path class="cf" d="M203.633,439.827a2.986,2.986,0,0,1,.625.018.115.115,0,0,1,.11.131.138.138,0,0,1-.157.1,1.8,1.8,0,0,0-1.48.32.154.154,0,0,1-.191.014.1.1,0,0,1-.013-.161A1.818,1.818,0,0,1,203.633,439.827Z" transform="translate(-179.723 -385.765)"/><path class="ap" d="M244,371.853a9.872,9.872,0,0,0-5,.361c-4.508,1.5-17.025,5.9-17.4,8.592a.86.86,0,0,0-.008.118v2.986s0,1.629,2.986,1.629c2.715,0,18.626-1.342,22.738-8.115a3.5,3.5,0,0,0-.99-4.712A6.515,6.515,0,0,0,244,371.853Z" transform="translate(-196.378 -326.356)"/><path class="aq" d="M224.313,391.7a1.524,1.524,0,0,1,1.4-1.521c5.342-.437,13.535-3.108,13.535-5.1,0-1.587-1.3-3.607-2.006-4.581-5.366,1.856-15.3,5.6-15.632,7.992a.855.855,0,0,0-.008.118V391.6s0,1.629,2.986,1.629c.228,0,.55-.01.948-.031A1.528,1.528,0,0,1,224.313,391.7Z" transform="translate(-196.382 -334.041)"/><path class="ai" d="M314.875,352.836s.87-1.74,2.03-1.74a4.382,4.382,0,0,0,2.61-1.16c.29-.29,1.486.073.6,1.051a4.652,4.652,0,0,1-1.758,1.269l2.32-.29s.58,0,.58.87l-.58.58s.58.29.58.58,0,1.16-.58,1.16c0,0,.29,0,.29.87l-.29.29v.87c0,.58-1.16.87-1.16.87l-2.587.259a1.085,1.085,0,0,1-.594-.109l-1.459-.73Z" transform="translate(-277.714 -307.307)"/><path class="am" d="M316.232,376.064a5.685,5.685,0,0,0-1.295-3.725c-.04.071-.063.115-.063.115v4.64l1.459.73a1.086,1.086,0,0,0,.594.109l2.587-.259s1.079-.271,1.152-.813a3.452,3.452,0,0,1-.92.241C318.3,377.273,316.232,377.3,316.232,376.064Z" transform="translate(-277.714 -326.926)"/><path class="cd" d="M347.108,377.32h-1.357a.136.136,0,1,1,0-.271h1.357a.136.136,0,0,1,0,.271Z" transform="translate(-304.517 -331.033)"/><path class="cd" d="M347.385,390.04h-1.629a.136.136,0,1,1,0-.271h1.629a.136.136,0,1,1,0,.271Z" transform="translate(-304.521 -342.124)"/><path class="cd" d="M347.108,400.641h-1.357a.136.136,0,1,1,0-.272h1.357a.136.136,0,0,1,0,.272Z" transform="translate(-304.517 -351.367)"/><path class="ap" d="M99.916,375.069s2.51-2.654,9.794-3.514,12.513-.193,14.743.444,2.624,5.508,1.022,5.91-11.229,3.362-18.562,2.86C101.435,380.394,100.069,376.963,99.916,375.069Z" transform="translate(-90.281 -325.886)"/><path class="aq" d="M135.884,374.854a17.717,17.717,0,0,0-2.058-.433,4.068,4.068,0,0,1,1.735,3.183c-.069,2.3-16.277,5.423-22.536,3.924a7.989,7.989,0,0,0,5.318,2.1c7.333.5,16.961-2.459,18.562-2.86S138.114,375.491,135.884,374.854Z" transform="translate(-101.712 -328.742)"/><path class="y" d="M293.813,373.341l.415,5.141s.044.541,1.4.432a1.579,1.579,0,0,0,1.537-1.213l-.347-4.3a1.082,1.082,0,0,0-1.033-1,5.771,5.771,0,0,0-.68.016A1.355,1.355,0,0,0,293.813,373.341Z" transform="translate(-259.349 -326.98)"/><path class="ce" d="M295.816,375.914a2.665,2.665,0,0,0-1.375-1.939,1.262,1.262,0,0,0-.628.739l.415,5.141s.044.541,1.4.432a1.579,1.579,0,0,0,1.537-1.213l-.066-.812C296.013,378.35,295.969,377.809,295.816,375.914Z" transform="translate(-259.349 -328.353)"/><path class="cf" d="M298.7,380.993a.136.136,0,0,1-.074-.255,5.884,5.884,0,0,1,2.049-.585.136.136,0,0,1,.022.271,5.7,5.7,0,0,0-1.945.555A.135.135,0,0,1,298.7,380.993Z" transform="translate(-263.478 -333.739)"/><path class="cf" d="M303.161,390.989l-1.759.142a.136.136,0,1,1-.022-.271l1.759-.142a.136.136,0,0,1,.022.271Z" transform="translate(-265.838 -342.951)"/><path class="cf" d="M306.78,401.555l-1.353.109a.136.136,0,1,1-.022-.271l1.353-.109a.136.136,0,1,1,.022.271Z" transform="translate(-269.348 -352.164)"/><path class="cf" d="M302.647,410.607a2.557,2.557,0,0,1-.626-.03.136.136,0,1,1,.044-.268,1.59,1.59,0,0,0,1.477-.356.136.136,0,0,1,.206.176A1.645,1.645,0,0,1,302.647,410.607Z" transform="translate(-266.406 -359.682)"/><path class="cg" d="M371.889,371.349a.135.135,0,0,1-.057-.013,8.833,8.833,0,0,0-5.1-.392.136.136,0,0,1-.057-.265,8.933,8.933,0,0,1,5.272.411.136.136,0,0,1-.057.259Z" transform="translate(-322.79 -325.295)"/><path class="cg" d="M129.732,372.214a.136.136,0,0,1-.042-.265,42.448,42.448,0,0,1,9.508-1.661,46.827,46.827,0,0,1,11.368.818.136.136,0,1,1-.06.265,46.485,46.485,0,0,0-11.295-.811,42.137,42.137,0,0,0-9.439,1.648A.133.133,0,0,1,129.732,372.214Z" transform="translate(-116.161 -325.087)"/><path class="cg" d="M203.424,425.511a.136.136,0,0,1-.01-.271c4.645-.342,12.19-2.615,12.265-2.638a.136.136,0,1,1,.079.26c-.076.023-7.649,2.3-12.324,2.648Z" transform="translate(-180.417 -370.748)"/></g><g class="ck" transform="matrix(1, 0, 0, 1, 0, 0)"><g class="ch"><circle class="ci" cx="20" cy="20" r="20"/><circle class="cj" cx="20" cy="20" r="19"/></g></g></g></svg>