<svg xmlns="http://www.w3.org/2000/svg" width="24" height="24" viewBox="0 0 24 24"><defs><style>.a{fill:#687c97;}</style></defs><path class="a" d="M15.5,18H2.5A2.5,2.5,0,0,1,0,15.5V2.5A2.5,2.5,0,0,1,2.5,0h13A2.5,2.5,0,0,1,18,2.5v13A2.5,2.5,0,0,1,15.5,18ZM1,4V15.5A1.5,1.5,0,0,0,2.5,17h13A1.5,1.5,0,0,0,17,15.5V4ZM2.5,1A1.5,1.5,0,0,0,1,2.5V3H17V2.5A1.5,1.5,0,0,0,15.5,1Zm11,14h-3a.5.5,0,1,1,0-1h3a.5.5,0,1,1,0,1Zm-7,0h-3a.5.5,0,1,1,0-1h3a.5.5,0,1,1,0,1Zm8-2h-4a.5.5,0,1,1,0-1h4a.5.5,0,1,1,0,1Zm-7,0h-4a.5.5,0,1,1,0-1h4a.5.5,0,1,1,0,1Zm6-3h-2A1.5,1.5,0,0,1,10,8.5v-1A1.5,1.5,0,0,1,11.5,6h2A1.5,1.5,0,0,1,15,7.5v1A1.5,1.5,0,0,1,13.5,10Zm-2-3a.5.5,0,0,0-.5.5v1a.5.5,0,0,0,.5.5h2a.5.5,0,0,0,.5-.5v-1a.5.5,0,0,0-.5-.5Zm-5,3h-2A1.5,1.5,0,0,1,3,8.5v-1A1.5,1.5,0,0,1,4.5,6h2A1.5,1.5,0,0,1,8,7.5v1A1.5,1.5,0,0,1,6.5,10Zm-2-3a.5.5,0,0,0-.5.5v1a.5.5,0,0,0,.5.5h2A.5.5,0,0,0,7,8.5v-1A.5.5,0,0,0,6.5,7Z" transform="translate(3 3)"/></svg>