<svg xmlns="http://www.w3.org/2000/svg" width="15.79" height="16" viewBox="0 0 15.79 16"><defs><style>.a{fill:#f6b504;}</style></defs><path class="a" d="M12.69,16H6.5a2.481,2.481,0,0,1-1.732-.7A1.5,1.5,0,0,1,3.5,16h-2A1.5,1.5,0,0,1,0,14.5v-7A1.5,1.5,0,0,1,1.5,6h2a1.494,1.494,0,0,1,1,.382l.882-1.764A5.89,5.89,0,0,0,6,2V1.75A1.752,1.752,0,0,1,7.75,0,1.875,1.875,0,0,1,9.622,1.694L9.952,5H13.29a2.5,2.5,0,0,1,2.488,2.749l-.6,6A2.492,2.492,0,0,1,12.69,16ZM7.75,1A.751.751,0,0,0,7,1.75V2a6.89,6.89,0,0,1-.725,3.065L5,7.618V13.5A1.5,1.5,0,0,0,6.5,15h6.19a1.5,1.5,0,0,0,1.493-1.35l.6-6A1.5,1.5,0,0,0,13.29,6H9.5A.5.5,0,0,1,9,5.55L8.627,1.794A.879.879,0,0,0,7.75,1ZM1.5,7a.5.5,0,0,0-.5.5v7a.5.5,0,0,0,.5.5h2a.5.5,0,0,0,.5-.5v-7A.5.5,0,0,0,3.5,7Z"/></svg>