<svg xmlns="http://www.w3.org/2000/svg" width="164.024" height="36.138" viewBox="0 0 164.024 36.138"><defs><style>.a{fill:#fff;}.b{opacity:0.6;}</style></defs><g transform="translate(142.856 27.394)"><path class="a" d="M505.055,105.2a1.25,1.25,0,0,1-.255-.877v-.34l.708-6.933a.213.213,0,0,1,.141-.2,1.056,1.056,0,0,1,.34-.057h.057q.467,0,.424.255l-.736,7.16c-.028.34.057.481.311.481a.783.783,0,0,0,.255-.028.5.5,0,0,1,.17-.028c.057,0,.057.028.057.085a2.947,2.947,0,0,1-.057.424.369.369,0,0,1-.255.283,1.136,1.136,0,0,1-.424.085A1.042,1.042,0,0,1,505.055,105.2Z" transform="translate(-504.8 -96.8)"/><path class="a" d="M516.655,106.739a1.067,1.067,0,0,1-.255-.792v-.255l.453-4.528a.213.213,0,0,1,.142-.2,1.055,1.055,0,0,1,.34-.057h.057a.813.813,0,0,1,.34.057.173.173,0,0,1,.085.2l-.453,4.556v.141a.71.71,0,0,0,.057.283.279.279,0,0,0,.226.085.784.784,0,0,0,.255-.028.5.5,0,0,1,.17-.028c.057,0,.057.028.057.085a2.941,2.941,0,0,1-.057.424.362.362,0,0,1-.283.283,1.6,1.6,0,0,1-.509.085A1.186,1.186,0,0,1,516.655,106.739Zm.283-6.905.057-.679c.028-.17.2-.255.538-.255a.983.983,0,0,1,.368.057.146.146,0,0,1,.085.2l-.057.679c-.028.17-.2.255-.538.255S516.909,100,516.938,99.834Z" transform="translate(-513.117 -98.306)"/><path class="a" d="M534.774,111.149a2.932,2.932,0,0,1-.057.424.369.369,0,0,1-.255.283,1.136,1.136,0,0,1-.425.085,1.038,1.038,0,0,1-.764-.255,1.066,1.066,0,0,1-.255-.792v-.311l.311-2.83v-.2a.932.932,0,0,0-.226-.679.905.905,0,0,0-.651-.226,1.5,1.5,0,0,0-.906.4,3.253,3.253,0,0,0-.821,1.33l-.34,3.254c0,.085-.057.142-.141.2a1.055,1.055,0,0,1-.339.057h-.057q-.467,0-.424-.255l.424-3.99v-.17a.834.834,0,0,0-.226-.623.9.9,0,0,0-.651-.2,1.5,1.5,0,0,0-.906.4,3.057,3.057,0,0,0-.792,1.33l-.34,3.283c-.028.17-.17.255-.481.255H526.4a1.056,1.056,0,0,1-.34-.057.146.146,0,0,1-.085-.2l.085-.792c.283-2.462.424-3.877.424-4.217v-.4c0-.113.085-.17.226-.226a2.185,2.185,0,0,1,.424-.057c.113,0,.17.085.226.226a1.653,1.653,0,0,1,.057.538v.226a2.594,2.594,0,0,1,.877-.877,2.011,2.011,0,0,1,1.047-.283,1.532,1.532,0,0,1,1.075.34,1.307,1.307,0,0,1,.424.906,2.555,2.555,0,0,1,.877-.934,2.145,2.145,0,0,1,1.075-.311,1.517,1.517,0,0,1,1.132.368,1.42,1.42,0,0,1,.368,1.075v.283l-.311,3.113c-.028.34.057.481.311.481a.783.783,0,0,0,.255-.028.5.5,0,0,1,.17-.028C534.746,111.064,534.774,111.092,534.774,111.149Z" transform="translate(-519.974 -103.253)"/><path class="a" d="M561.547,111.786a1.752,1.752,0,0,1-.736-.764,3.074,3.074,0,0,1-.311-1.472,4.927,4.927,0,0,1,.34-1.9,2.914,2.914,0,0,1,.99-1.3,2.393,2.393,0,0,1,1.472-.453,1.975,1.975,0,0,1,1.443.623,2.37,2.37,0,0,1,.2-.453.365.365,0,0,1,.311-.141h.057c.113,0,.2.028.226.085a.411.411,0,0,1,.028.283l-.453,4.443c-.028.34.057.481.311.481a.784.784,0,0,0,.255-.028.5.5,0,0,1,.17-.028c.057,0,.057.028.057.085a2.94,2.94,0,0,1-.057.424.369.369,0,0,1-.255.283,1.136,1.136,0,0,1-.424.085.981.981,0,0,1-.792-.311,1.277,1.277,0,0,1-.226-.934,2.4,2.4,0,0,1-.792.934,1.856,1.856,0,0,1-.99.311A2.481,2.481,0,0,1,561.547,111.786Zm2.009-1.075a3.669,3.669,0,0,0,.792-1.5l.17-1.5c.028-.226.057-.424.085-.566a2,2,0,0,0-1.33-.453,1.3,1.3,0,0,0-.962.4,2.555,2.555,0,0,0-.594,1.019,4.208,4.208,0,0,0-.2,1.33,2.136,2.136,0,0,0,.311,1.3,1.006,1.006,0,0,0,.821.4A1.168,1.168,0,0,0,563.556,110.711Z" transform="translate(-544.737 -103.325)"/></g><path class="a" d="M32.035,12.225h-4.16V8.065a1.105,1.105,0,0,0-1.1-1.1H8.15V4.7A4.729,4.729,0,0,0,3.424,0H1.1A1.124,1.124,0,0,0,0,1.1V3.424a4.7,4.7,0,0,0,4.7,4.7H6.962v4.16a1.105,1.105,0,0,0,1.1,1.1h4.16v4.075H8.065a1.105,1.105,0,0,0-1.1,1.1v4.16a1.105,1.105,0,0,0,1.1,1.1h4.16V27.9H8.065a1.105,1.105,0,0,0-1.1,1.1v5.349H12.31a1.105,1.105,0,0,0,1.1-1.1v-4.1h4.047a1.105,1.105,0,0,0,1.1-1.1v-4.16h8.122V27.96H22.555a1.105,1.105,0,0,0-1.1,1.1v5.349H26.8a1.105,1.105,0,0,0,1.1-1.1v-4.16h4.16a1.105,1.105,0,0,0,1.1-1.1V13.329A1.149,1.149,0,0,0,32.035,12.225ZM1.189,3.424V1.16H3.453A3.539,3.539,0,0,1,6.99,4.7V6.962H4.726A3.539,3.539,0,0,1,1.189,3.424ZM12.225,33.252H8.15v-4.1h4.075v4.1Zm14.461,0H22.611v-4.1h4.075Zm5.292-5.264h-4.1v-4.16a1.105,1.105,0,0,0-1.1-1.1H18.508a1.105,1.105,0,0,0-1.1,1.1v4.16h-3.99v-4.16a1.105,1.105,0,0,0-1.1-1.1H8.15V18.678h4.16a1.105,1.105,0,0,0,1.1-1.1V13.329a1.105,1.105,0,0,0-1.1-1.1H8.15V8.15H26.715v4.16a1.105,1.105,0,0,0,1.1,1.1h4.16Z"/><g transform="translate(43.1 9.877)"><path class="a" d="M154.422,60.063a6.006,6.006,0,0,1-2.122-1.387l1.358-1.443a4.168,4.168,0,0,0,1.528,1.075,4.68,4.68,0,0,0,1.868.368,2.3,2.3,0,0,0,1.1-.226.719.719,0,0,0,.4-.651,1.007,1.007,0,0,0-.141-.538,1.458,1.458,0,0,0-.623-.424c-.311-.141-.792-.311-1.443-.538a8.08,8.08,0,0,1-2.773-1.358,2.42,2.42,0,0,1-.821-1.9,2.336,2.336,0,0,1,1.019-2.009,4.94,4.94,0,0,1,2.887-.736,6.4,6.4,0,0,1,3.707,1.16l-.821,1.585a8.171,8.171,0,0,0-1.472-.679,4.624,4.624,0,0,0-1.415-.2,2.265,2.265,0,0,0-1.132.226.694.694,0,0,0-.368.651.7.7,0,0,0,.2.538,1.715,1.715,0,0,0,.651.4c.283.113.736.283,1.358.481a13.856,13.856,0,0,1,2.122.877,2.774,2.774,0,0,1,1.1,1.019,2.9,2.9,0,0,1,.368,1.472,2.356,2.356,0,0,1-1.019,1.981,4.808,4.808,0,0,1-2.83.736A7.449,7.449,0,0,1,154.422,60.063Z" transform="translate(-152.3 -45.942)"/><path class="a" d="M199.114,57.913V54.4a2.818,2.818,0,0,0-.368-1.641,1.37,1.37,0,0,0-1.189-.538,1.624,1.624,0,0,0-1.358.594,2.541,2.541,0,0,0-.453,1.613v5.915h-2.321V54.375a2.718,2.718,0,0,0-.368-1.613,1.333,1.333,0,0,0-1.132-.538,1.651,1.651,0,0,0-1.443.707A3.528,3.528,0,0,0,190,54.913v5.433h-2.349V53.158a5.822,5.822,0,0,0-.085-1.1,2.572,2.572,0,0,0-.368-.934l2.009-.821q.17.34.34.764a2.242,2.242,0,0,1,.17.821,3.079,3.079,0,0,1,2.66-1.585,2.56,2.56,0,0,1,2.462,1.613A3.655,3.655,0,0,1,196.2,50.7a3.978,3.978,0,0,1,1.811-.4,3.267,3.267,0,0,1,2.547.962,3.648,3.648,0,0,1,.877,2.575v4.019a4.07,4.07,0,0,0,.424,1.9l-2.122.792A5.322,5.322,0,0,1,199.114,57.913Z" transform="translate(-177.323 -45.942)"/><path class="a" d="M244.866,59.85a4.134,4.134,0,0,1-1.528-1.726,5.909,5.909,0,0,1-.538-2.632,6.6,6.6,0,0,1,.566-2.8,4.215,4.215,0,0,1,1.585-1.839,4.528,4.528,0,0,1,2.434-.651,3.525,3.525,0,0,1,2.858,1.358V50.426h2.264v7.16a5.084,5.084,0,0,0,.113,1.217,4.264,4.264,0,0,0,.368.934l-1.9.764a2.682,2.682,0,0,1-.651-1.585h-.057a3.969,3.969,0,0,1-3.226,1.585A4.351,4.351,0,0,1,244.866,59.85Zm4.669-2.066a3.212,3.212,0,0,0,.679-2.151V55.1A3.478,3.478,0,0,0,249.564,53a2.208,2.208,0,0,0-1.868-.877,2.144,2.144,0,0,0-1.839.906,4.206,4.206,0,0,0-.651,2.49,3.589,3.589,0,0,0,.623,2.264,2.171,2.171,0,0,0,1.811.821A2.472,2.472,0,0,0,249.535,57.784Z" transform="translate(-217.189 -45.87)"/><path class="a" d="M284.753,53.158a6.25,6.25,0,0,0-.085-1.1,2.572,2.572,0,0,0-.368-.934l2.094-.821a5.043,5.043,0,0,1,.34.764,2.51,2.51,0,0,1,.17.849,4.306,4.306,0,0,1,1.132-1.217,2.688,2.688,0,0,1,1.443-.4,3.482,3.482,0,0,1,.99.141,3.09,3.09,0,0,1,.934.509l-.906,1.641a2.183,2.183,0,0,0-1.217-.368,1.935,1.935,0,0,0-1.641.736,3.385,3.385,0,0,0-.538,2.066v5.32h-2.349Z" transform="translate(-246.945 -45.942)"/><path class="a" d="M313.59,52.18A3.018,3.018,0,0,1,312.883,50V44.822H311.1l.509-1.9h1.33V40.747L315.2,39.7v3.2h2.6l-.453,1.9H315.26v5.235a1.069,1.069,0,0,0,.226.764.96.96,0,0,0,.707.226,2.06,2.06,0,0,0,.99-.2l.538,1.7a3.542,3.542,0,0,1-.877.283,5.219,5.219,0,0,1-1.1.113A2.909,2.909,0,0,1,313.59,52.18Z" transform="translate(-266.16 -38.342)"/><g class="b" transform="translate(52.524)"><path class="a" d="M339.315,59.186a4.992,4.992,0,0,1-1.415-3.764,5.02,5.02,0,0,1,1.387-3.764,5.255,5.255,0,0,1,3.82-1.358,5.574,5.574,0,0,1,2.066.368,4.358,4.358,0,0,1,1.585.934l-.821,1.585a4.3,4.3,0,0,0-1.217-.707,4.234,4.234,0,0,0-1.472-.255,2.884,2.884,0,0,0-2.151.792,3.368,3.368,0,0,0-.792,2.405A3.219,3.219,0,0,0,341.1,57.8a2.991,2.991,0,0,0,2.207.821,3.348,3.348,0,0,0,2.49-.962l1.245,1.3a4.526,4.526,0,0,1-1.67,1.16,5.6,5.6,0,0,1-2.151.424A5.376,5.376,0,0,1,339.315,59.186Z" transform="translate(-337.9 -45.942)"/><path class="a" d="M374.492,59.994a4.37,4.37,0,0,1-1.7-1.811,6.251,6.251,0,0,1,0-5.32,4.37,4.37,0,0,1,1.7-1.811,5.646,5.646,0,0,1,5.264,0,4.37,4.37,0,0,1,1.7,1.811,6.251,6.251,0,0,1,0,5.32,4.37,4.37,0,0,1-1.7,1.811,5.646,5.646,0,0,1-5.264,0Zm4.5-2.151a4.564,4.564,0,0,0,0-4.7,2.189,2.189,0,0,0-1.868-.849,2.28,2.28,0,0,0-1.9.849,3.859,3.859,0,0,0-.651,2.349,3.918,3.918,0,0,0,.651,2.349,2.208,2.208,0,0,0,1.9.849A2.155,2.155,0,0,0,378.992,57.843Z" transform="translate(-362.493 -46.014)"/><path class="a" d="M422.414,57.913V54.4a2.818,2.818,0,0,0-.368-1.641,1.37,1.37,0,0,0-1.189-.538,1.624,1.624,0,0,0-1.358.594,2.541,2.541,0,0,0-.453,1.613v5.915h-2.321V54.375a2.717,2.717,0,0,0-.368-1.613,1.334,1.334,0,0,0-1.132-.538,1.651,1.651,0,0,0-1.443.707,3.528,3.528,0,0,0-.481,1.981v5.433h-2.349V53.158a5.822,5.822,0,0,0-.085-1.1,2.573,2.573,0,0,0-.368-.934l2.009-.821q.17.34.34.764a2.243,2.243,0,0,1,.17.821,3.079,3.079,0,0,1,2.66-1.585,2.56,2.56,0,0,1,2.462,1.613A3.656,3.656,0,0,1,419.5,50.7a3.978,3.978,0,0,1,1.811-.4,3.267,3.267,0,0,1,2.547.962,3.648,3.648,0,0,1,.877,2.575v4.019a4.07,4.07,0,0,0,.424,1.9l-2.122.792A5.322,5.322,0,0,1,422.414,57.913Z" transform="translate(-389.955 -45.942)"/><path class="a" d="M468.505,59.922a4.434,4.434,0,0,1-1.783-1.755,5.358,5.358,0,0,1-.623-2.66,6.208,6.208,0,0,1,.538-2.66,4.212,4.212,0,0,1,1.641-1.868,5.549,5.549,0,0,1,5.32,0,4.141,4.141,0,0,1,1.641,1.783,5.232,5.232,0,0,1,.538,2.377,1.2,1.2,0,0,1-.4.934,1.573,1.573,0,0,1-1.075.311h-5.858A2.01,2.01,0,0,0,469.213,58a3.21,3.21,0,0,0,2.009.623,3.779,3.779,0,0,0,2.8-1.047l1.188,1.273a4.392,4.392,0,0,1-1.67,1.245,5.437,5.437,0,0,1-2.292.453A5.544,5.544,0,0,1,468.505,59.922Zm4.952-5.377a2.122,2.122,0,0,0-.707-1.67,2.5,2.5,0,0,0-1.839-.679,2.411,2.411,0,0,0-1.783.679,2.285,2.285,0,0,0-.679,1.67Z" transform="translate(-429.82 -45.942)"/><path class="a" d="M505.453,53.158a6.25,6.25,0,0,0-.085-1.1,2.571,2.571,0,0,0-.368-.934l2.094-.821a5.032,5.032,0,0,1,.34.764,2.508,2.508,0,0,1,.17.849,4.306,4.306,0,0,1,1.132-1.217,2.688,2.688,0,0,1,1.443-.4,3.482,3.482,0,0,1,.99.141,3.089,3.089,0,0,1,.934.509l-.906,1.641a2.183,2.183,0,0,0-1.217-.368,1.934,1.934,0,0,0-1.641.736,3.385,3.385,0,0,0-.538,2.066v5.32h-2.349Z" transform="translate(-457.711 -45.942)"/><path class="a" d="M532.515,59.186a4.992,4.992,0,0,1-1.415-3.764,5.02,5.02,0,0,1,1.387-3.764,5.255,5.255,0,0,1,3.82-1.358,5.575,5.575,0,0,1,2.066.368,4.357,4.357,0,0,1,1.585.934l-.821,1.585a4.294,4.294,0,0,0-1.217-.707,4.233,4.233,0,0,0-1.472-.255,2.883,2.883,0,0,0-2.151.792,3.368,3.368,0,0,0-.792,2.405A3.219,3.219,0,0,0,534.3,57.8a2.99,2.99,0,0,0,2.207.821,3.348,3.348,0,0,0,2.49-.962l1.245,1.3a4.525,4.525,0,0,1-1.67,1.16,5.605,5.605,0,0,1-2.151.424A5.376,5.376,0,0,1,532.515,59.186Z" transform="translate(-476.425 -45.942)"/><path class="a" d="M567.853,37.56a1.411,1.411,0,0,1-.453-1.1,1.515,1.515,0,0,1,.453-1.132,1.876,1.876,0,0,1,2.377,0,1.472,1.472,0,0,1,.453,1.132,1.411,1.411,0,0,1-.453,1.1,1.7,1.7,0,0,1-1.189.424A1.58,1.58,0,0,1,567.853,37.56Zm0,1.9H570.2V49.3h-2.349Z" transform="translate(-502.453 -34.9)"/></g></g></svg>