<svg xmlns="http://www.w3.org/2000/svg" width="19.685" height="17.873" viewBox="0 0 19.685 17.873"><defs><style>.a{fill:#687c97;}</style></defs><path class="a" d="M1.455,8.776a.447.447,0,0,1,.447,0l.054.031c.116-.895.255-1.83.425-2.733A1.709,1.709,0,0,1,4.059,4.691h.747a2.237,2.237,0,0,1,2,1.253l.51-1.4a.447.447,0,0,1,.174-.219V2.9a.447.447,0,0,1,.447-.447h4.026a.447.447,0,0,1,.447.447V4.32a.447.447,0,0,1,.174.219l1.141,3.132a.362.362,0,0,1,.027.152V8.9l.255-.121a.418.418,0,0,1,.64.389v.895h2.237a4.026,4.026,0,0,1,4.026,4.026V18.56a.447.447,0,0,1-.447.447H18.613a1.79,1.79,0,0,1-3.454,0H7.875a1.79,1.79,0,0,1-3.454,0H1.675a.447.447,0,0,1-.447-.447V9.165A.447.447,0,0,1,1.455,8.776Zm15.43,2.179h-.447v3.132h3.579a3.132,3.132,0,0,0-3.132-3.132Zm0,8.5a.895.895,0,1,0-.895-.895A.895.895,0,0,0,16.886,19.455Zm-2.237-1.342h.51a1.79,1.79,0,0,1,3.454,0h1.4V14.981H15.991a.447.447,0,0,1-.447-.447V10.955h-.895ZM6.148,6.928A1.342,1.342,0,0,0,4.806,5.586H4.059a.81.81,0,0,0-.8.662c-.192,1.011-.349,2.04-.447,3.064l.832.5a.447.447,0,0,0,.5-.027L4.9,9.21a1.342,1.342,0,0,1,1.253-.188Zm5.369-3.579H8.385v.895h3.132Zm.336,1.79H8.05L7.236,7.376h5.431Zm1.007,4.026V8.27H7.043V9.613h0l.233.174a.447.447,0,0,0,.5.027l1.2-.725a1.342,1.342,0,0,1,1.5.081l.823.617a.447.447,0,0,0,.537,0l1.047-.5A.421.421,0,0,1,12.859,9.165ZM6.148,19.455a.895.895,0,1,0-.895-.895A.895.895,0,0,0,6.148,19.455ZM2.122,18.113h2.3a1.79,1.79,0,0,1,3.454,0h5.879V9.872l-1.49.711a1.342,1.342,0,0,1-1.5-.076L9.942,9.89a.447.447,0,0,0-.5-.027l-1.2.725a1.342,1.342,0,0,1-1.5-.081L5.97,9.926a.447.447,0,0,0-.537,0l-.769.582a1.342,1.342,0,0,1-1.5.081L2.3,10.06H2.252a.447.447,0,0,1-.13-.045Z" transform="translate(-1.227 -2.455)"/></svg>