<svg xmlns="http://www.w3.org/2000/svg" width="34" height="20" viewBox="0 0 34 20"><defs><style>.a{fill:#f6b504;}.b{fill:#fffbf2;}</style></defs><g transform="translate(-818 -264.5)"><g transform="translate(816 262.5)"><path class="a" d="M10,20A10,10,0,1,1,20,10,10.011,10.011,0,0,1,10,20ZM10,1a9,9,0,1,0,7.794,4.5A9.01,9.01,0,0,0,10,1Zm1.5,16h-3A5.506,5.506,0,0,1,3,11.5a.5.5,0,0,1,.5-.5h13a.5.5,0,0,1,.5.5A5.506,5.506,0,0,1,11.5,17ZM9,15a.994.994,0,0,0-1,.973A4.6,4.6,0,0,0,8.5,16h3a4.4,4.4,0,0,0,.524-.031.994.994,0,0,0-1-.969H9ZM4.027,12a4.53,4.53,0,0,0,2.99,3.75A2,2,0,0,1,9,14h2.025a2,2,0,0,1,1.983,1.741A4.531,4.531,0,0,0,15.973,12H4.027ZM13,9a1,1,0,1,1,1-1A1,1,0,0,1,13,9ZM7,9A1,1,0,1,1,8,8,1,1,0,0,1,7,9Z" transform="translate(2 2)"/></g><circle class="b" cx="8" cy="8" r="8" transform="translate(836 267)"/><path class="a" d="M3.48,3.48V.58a.58.58,0,0,1,1.16,0v2.9h2.9a.58.58,0,0,1,0,1.16h-2.9v2.9a.58.58,0,0,1-1.16,0v-2.9H.58a.58.58,0,0,1,0-1.16Z" transform="translate(837.619 270.939)"/></g></svg>