<svg xmlns="http://www.w3.org/2000/svg" width="14" height="18" viewBox="0 0 14 18"><defs><style>.a{fill:#f6b504;}</style></defs><g transform="translate(-5 -3)"><path class="a" d="M2.5,18A2.5,2.5,0,0,1,0,15.5V3.5A2.5,2.5,0,0,1,2.5,1a.5.5,0,0,1,0,1A1.5,1.5,0,0,0,1,3.5v12A1.5,1.5,0,0,0,2.5,17h9A1.5,1.5,0,0,0,13,15.5V3.5A1.5,1.5,0,0,0,11.5,2a.5.5,0,1,1,0-1A2.5,2.5,0,0,1,14,3.5v12A2.5,2.5,0,0,1,11.5,18Zm1-5a.5.5,0,1,1,0-1h5a.5.5,0,1,1,0,1Zm0-3a.5.5,0,1,1,0-1h7a.5.5,0,1,1,0,1Zm0-3a.5.5,0,1,1,0-1h7a.5.5,0,1,1,0,1ZM9,1.5A.5.5,0,0,0,8.5,1h-3a.5.5,0,0,0-.5.5.5.5,0,0,1-1,0A1.5,1.5,0,0,1,5.5,0h3A1.5,1.5,0,0,1,10,1.5a.5.5,0,0,1-1,0Z" transform="translate(5 3)"/></g></svg>