<svg xmlns="http://www.w3.org/2000/svg" width="20" height="16" viewBox="0 0 20 16"><defs><style>.a{fill:#687c97;}</style></defs><g transform="translate(-2 -4)"><path class="a" d="M17.5,16H2.5a.5.5,0,0,1-.5-.5V5.6L.036.686A.5.5,0,0,1,.5,0h10a.5.5,0,0,1,.464.314L12.5,4.154,14.035.314A.5.5,0,0,1,14.5,0h5a.5.5,0,0,1,.464.686L18,5.6v9.9A.5.5,0,0,1,17.5,16ZM13,6v9h4V6ZM3,6v9h9V6ZM14.84,1l-1.6,4h3.922l1.6-4ZM1.242,1l1.6,4h8.922l-1.6-4ZM10.5,14h-3a.5.5,0,0,1-.5-.5v-2a.5.5,0,0,1,.5-.5h3a.5.5,0,0,1,.5.5v2A.5.5,0,0,1,10.5,14ZM8,12v1h2V12Z" transform="translate(2 4)"/></g></svg>