<svg xmlns="http://www.w3.org/2000/svg" width="17.999" height="15.149" viewBox="0 0 17.999 15.149"><defs><style>.a{fill:#687c97;}</style></defs><path class="a" d="M4.512,15.149a1.7,1.7,0,0,1-1.431-.872C2.381,13.227,2.027,11.445,2,8.83A3,3,0,0,1,3,3H7.5C9.4,3,12,2.014,15.241.071A.5.5,0,0,1,16,.5V3.05A2.509,2.509,0,0,1,18,5.5v1a2.509,2.509,0,0,1-2,2.451V11.5a.5.5,0,0,1-.5.5.5.5,0,0,1-.257-.071C12,9.986,9.4,9,7.5,9H6.218A.829.829,0,0,0,6,9.494c0-.025.007-.033.02-.033a.512.512,0,0,1,.14.06l.064.032c.573.285.776.471.776.947a1.088,1.088,0,0,1-.36.823l-.023.027c-.1.107-.116.13-.116.213,0-.016,0-.023.016-.023a.786.786,0,0,1,.167.058l.04.014c.527.208.778.394.778.888a1.921,1.921,0,0,1-.646,1.354A3.6,3.6,0,0,1,4.512,15.149ZM3,9c.04,2.285.347,3.874.913,4.723a.785.785,0,0,0,.659.416c.4,0,.895-.316,1.571-.993A1.023,1.023,0,0,0,6.5,12.53c-.006.033-.017.045-.038.045a.364.364,0,0,1-.1-.032l-.04-.015c-.53-.208-.817-.422-.817-.957a1.188,1.188,0,0,1,.383-.9l.025-.027c.074-.077.088-.095.09-.124,0,.017-.007.023-.019.023a.5.5,0,0,1-.139-.059l-.066-.033C5.2,10.16,5,9.974,5,9.5A1.518,1.518,0,0,1,5.082,9ZM15,1.372h0A17.715,17.715,0,0,1,8,3.981V8.018a17.7,17.7,0,0,1,7,2.61V1.373ZM3,4A2,2,0,1,0,3,8H7V4Zm13,.085v3.83A1.5,1.5,0,0,0,17,6.5v-1A1.5,1.5,0,0,0,16,4.085Z" transform="translate(0 0)"/></svg>