<svg xmlns="http://www.w3.org/2000/svg" width="23.531" height="21.365" viewBox="0 0 23.531 21.365"><defs><style>.a{fill:#f6b504;}</style></defs><path class="a" d="M1.5,10.011a.535.535,0,0,1,.535,0l.064.037c.139-1.07.3-2.187.508-3.268A2.043,2.043,0,0,1,4.612,5.128h.893a2.674,2.674,0,0,1,2.39,1.5l.61-1.679a.535.535,0,0,1,.209-.262v-1.7a.535.535,0,0,1,.535-.535h4.813a.535.535,0,0,1,.535.535v1.7a.535.535,0,0,1,.209.262L16.169,8.69a.433.433,0,0,1,.032.182v1.283l.3-.144a.5.5,0,0,1,.765.465v1.07h2.674a4.813,4.813,0,0,1,4.813,4.813v5.348a.535.535,0,0,1-.535.535H22.009a2.139,2.139,0,0,1-4.129,0H9.174a2.139,2.139,0,0,1-4.129,0H1.762a.535.535,0,0,1-.535-.535V10.476A.535.535,0,0,1,1.5,10.011Zm18.445,2.6H19.41v3.743h4.278a3.743,3.743,0,0,0-3.744-3.743Zm0,10.161a1.07,1.07,0,1,0-1.07-1.07A1.07,1.07,0,0,0,19.945,22.776Zm-2.674-1.6h.61a2.139,2.139,0,0,1,4.129,0h1.679V17.428H18.875a.535.535,0,0,1-.535-.535V12.615h-1.07ZM7.11,7.8a1.6,1.6,0,0,0-1.6-1.6H4.612a.968.968,0,0,0-.952.792c-.23,1.208-.417,2.438-.535,3.663l.995.6a.535.535,0,0,0,.6-.032l.893-.69a1.6,1.6,0,0,1,1.5-.225Zm6.417-4.278H9.784v1.07h3.744Zm.4,2.139H9.383L8.409,8.337H14.9Zm1.2,4.813V9.407H8.18v1.6h0l.278.209a.535.535,0,0,0,.6.032l1.439-.866a1.6,1.6,0,0,1,1.792.1l.984.738a.535.535,0,0,0,.642,0l1.251-.6A.5.5,0,0,1,15.132,10.476ZM7.11,22.776a1.07,1.07,0,1,0-1.07-1.07A1.07,1.07,0,0,0,7.11,22.776ZM2.3,21.172H5.046a2.139,2.139,0,0,1,4.129,0H16.2V11.321l-1.781.85a1.6,1.6,0,0,1-1.792-.091l-.984-.738a.535.535,0,0,0-.6-.032l-1.439.866a1.6,1.6,0,0,1-1.792-.1l-.92-.7a.535.535,0,0,0-.642,0l-.92.7a1.6,1.6,0,0,1-1.792.1l-1.037-.631H2.452a.535.535,0,0,1-.155-.053Z" transform="translate(-1.227 -2.455)"/></svg>