<svg xmlns="http://www.w3.org/2000/svg" width="24" height="26.259" viewBox="0 0 24 26.259"><defs><style>.a{fill:#f6b504;}</style></defs><g transform="translate(-849 -371.741)"><path class="a" d="M8.607,9.957c.153-.089-.171-.584-.018-.5l.06.035c.129-.992.283-2.028.471-3.03a1.894,1.894,0,0,1,1.859-1.532h.828a2.479,2.479,0,0,1,2.216,1.388l.565-1.557a.5.5,0,0,1,.193-.243V2.95a.5.5,0,0,1,.5-.5h4.463a.5.5,0,0,1,.5.5V4.522a.5.5,0,0,1,.193.243l1.264,3.471a.4.4,0,0,1,.03.169l-.03,1.651.283-.134a.463.463,0,0,1,.709.431c4.944.992-8.177.268-14.333.035A.5.5,0,0,1,8.607,9.957Zm4.688-2.544a1.488,1.488,0,0,0-1.488-1.488h-.828a.9.9,0,0,0-.883.734c-.213,1.121-.387,2.261-.5,3.4l.922.555a.5.5,0,0,0,.555-.03l.88-.193c.4-.3.867-.822,1.336-.655Zm5.95-3.967H15.774v.992h3.471Zm.372,1.984H15.4l-.9,2.479h6.02Zm1.116,4.463V8.9H14.286v1.488h0l.258.193a.5.5,0,0,0,.555.03l1.346-.42a1.322,1.322,0,0,1,1.558,0l1,.39a.5.5,0,0,0,.6,0l1.16-.555A.466.466,0,0,1,20.733,9.893Z" transform="translate(846.458 369.286)"/><g transform="translate(-51 355)"><g transform="translate(900 19)"><path class="a" d="M15,18a2,2,0,1,1,2-2A2,2,0,0,1,15,18Zm0-3a1,1,0,1,0,1,1A1,1,0,0,0,15,15ZM6,18a2,2,0,1,1,2-2A2,2,0,0,1,6,18Zm0-3a1,1,0,1,0,1,1A1,1,0,0,0,6,15Zm11.5-2H6.194a2.492,2.492,0,0,1-2.466-2.089l-.22-1.319s0-.007,0-.01l0-.007L2.285,2.254A1.5,1.5,0,0,0,.8,1H.5a.5.5,0,1,1,0-1H.806a2.509,2.509,0,0,1,2.45,2H19.5a.5.5,0,0,1,.48.637l-2,7A.5.5,0,0,1,17.5,10H4.59l.125.747A1.494,1.494,0,0,0,6.193,12H17.5a.5.5,0,1,1,0,1ZM3.424,3l1,6h12.7l1.714-6Z" transform="translate(2 3)"/></g></g></g></svg>