<svg xmlns="http://www.w3.org/2000/svg" width="17.691" height="23" viewBox="0 0 17.691 23"><defs><style>.a{fill:#687c97;}</style></defs><g transform="translate(-2.078 2)"><path class="a" d="M8.843,23a3.84,3.84,0,0,1-3.616-2.559H3.195a3.194,3.194,0,0,1-2.92-4.491l.9-2.032v-3.7A7.683,7.683,0,0,1,6.288,2.991V2.555a2.555,2.555,0,0,1,5.11,0v.436a7.682,7.682,0,0,1,5.11,7.231v3.7l.9,2.031A3.194,3.194,0,0,1,14.5,20.442H12.459A3.84,3.84,0,0,1,8.843,23ZM6.629,20.442a2.558,2.558,0,0,0,4.428,0ZM8.843,3.833a6.4,6.4,0,0,0-6.388,6.388v3.832l-.055.26L1.442,16.47a1.917,1.917,0,0,0,1.751,2.695h11.3a1.916,1.916,0,0,0,1.751-2.7l-.958-2.155-.055-.26V10.221A6.4,6.4,0,0,0,8.843,3.833Zm0-1.278a7.72,7.72,0,0,1,1.277.107V2.555a1.278,1.278,0,0,0-2.555,0v.106A7.736,7.736,0,0,1,8.843,2.555Z" transform="translate(2.079 -2)"/></g></svg>