<svg xmlns="http://www.w3.org/2000/svg" width="221.386" height="46.521" viewBox="0 0 221.386 46.521"><defs><style>.a,.b{fill:#fff;}.b{opacity:0.696;}</style></defs><g transform="translate(-0.48 -7.3)"><path class="a" d="M43.764,23.827H38.146V18.21a1.5,1.5,0,0,0-1.5-1.5H11.478V13.664A6.369,6.369,0,0,0,5.114,7.3H1.98A1.5,1.5,0,0,0,.48,8.8v3.134A6.369,6.369,0,0,0,6.844,18.3H9.889v5.617a1.5,1.5,0,0,0,1.5,1.5h5.617v5.521H11.39a1.5,1.5,0,0,0-1.5,1.5V38.07a1.5,1.5,0,0,0,1.5,1.5h5.617V45.1H11.39a1.5,1.5,0,0,0-1.5,1.5v7.214H17.1a1.5,1.5,0,0,0,1.5-1.5V46.7h5.484a1.5,1.5,0,0,0,1.5-1.5V39.578H36.565v5.529H30.947a1.5,1.5,0,0,0-1.5,1.5v7.214h7.214a1.5,1.5,0,0,0,1.5-1.5V46.7h5.617a1.5,1.5,0,0,0,1.5-1.5V25.328A1.524,1.524,0,0,0,43.764,23.827ZM2.069,11.934V8.889H5.114a4.782,4.782,0,0,1,4.775,4.775v3.045H6.844A4.782,4.782,0,0,1,2.069,11.934Zm14.938,40.29H11.486V46.7h5.521Zm19.55,0H31.029V46.7h5.529Zm7.118-7.118H38.154V39.489a1.5,1.5,0,0,0-1.5-1.5H25.492a1.5,1.5,0,0,0-1.5,1.5v5.617H18.6V39.489a1.5,1.5,0,0,0-1.5-1.5H11.486V32.542H17.1a1.5,1.5,0,0,0,1.5-1.5V25.328a1.5,1.5,0,0,0-1.5-1.5H11.486V18.3H36.557v5.617a1.5,1.5,0,0,0,1.5,1.5h5.617V45.107Z" transform="translate(0 0)"/><g transform="translate(58.739 20.634)"><path class="a" d="M82.153,46.5A8.235,8.235,0,0,1,79.3,44.6l1.833-1.944a5.839,5.839,0,0,0,2.07,1.463,6.33,6.33,0,0,0,2.506.51,2.9,2.9,0,0,0,1.508-.318.986.986,0,0,0,.517-.894,1.2,1.2,0,0,0-.207-.724,2.163,2.163,0,0,0-.82-.577,18.44,18.44,0,0,0-1.959-.724,10.8,10.8,0,0,1-3.755-1.826A3.257,3.257,0,0,1,79.9,37.006a3.167,3.167,0,0,1,1.367-2.713,6.585,6.585,0,0,1,3.888-.983,8.549,8.549,0,0,1,5.011,1.56l-1.123,2.136a8.512,8.512,0,0,0-2-.917,7.059,7.059,0,0,0-1.922-.259,2.922,2.922,0,0,0-1.545.318.965.965,0,0,0-.51.865.993.993,0,0,0,.273.724,2.561,2.561,0,0,0,.865.532c.392.163,1.013.384,1.848.658a15.542,15.542,0,0,1,2.86,1.19A4.058,4.058,0,0,1,90.417,41.5a3.789,3.789,0,0,1,.48,1.974,3.121,3.121,0,0,1-1.382,2.668,6.43,6.43,0,0,1-3.821,1A9.081,9.081,0,0,1,82.153,46.5Z" transform="translate(-79.3 -27.419)"/><path class="a" d="M113.419,43.594V38.856a3.907,3.907,0,0,0-.5-2.217,1.793,1.793,0,0,0-1.589-.71,2.169,2.169,0,0,0-1.826.8,3.491,3.491,0,0,0-.613,2.2V46.9h-3.127V38.841a3.89,3.89,0,0,0-.5-2.2,1.74,1.74,0,0,0-1.537-.71,2.183,2.183,0,0,0-1.929.946,4.724,4.724,0,0,0-.643,2.676v7.347H97.986v-9.72a7.712,7.712,0,0,0-.126-1.508,4.722,4.722,0,0,0-.48-1.264l2.713-1.094a6.382,6.382,0,0,1,.451,1.027,4.038,4.038,0,0,1,.237,1.109,3.939,3.939,0,0,1,1.537-1.574,4.125,4.125,0,0,1,2.084-.562,3.433,3.433,0,0,1,3.319,2.2,5.154,5.154,0,0,1,1.833-1.656,5.3,5.3,0,0,1,2.439-.532,4.338,4.338,0,0,1,3.422,1.316,5.039,5.039,0,0,1,1.175,3.481V43.55a5.406,5.406,0,0,0,.577,2.55l-2.875,1.072A7.224,7.224,0,0,1,113.419,43.594Z" transform="translate(-84.016 -27.422)"/><path class="a" d="M128.889,46.334a5.523,5.523,0,0,1-2.07-2.343,7.986,7.986,0,0,1-.739-3.548,8.8,8.8,0,0,1,.754-3.77,5.752,5.752,0,0,1,2.151-2.483,6.058,6.058,0,0,1,3.289-.88,4.786,4.786,0,0,1,3.866,1.833v-1.56h3.067v9.675a7.652,7.652,0,0,0,.148,1.633,4.2,4.2,0,0,0,.51,1.249l-2.572,1.013a3.56,3.56,0,0,1-.88-2.136h-.081a5.268,5.268,0,0,1-1.877,1.574,5.479,5.479,0,0,1-2.483.562A5.752,5.752,0,0,1,128.889,46.334Zm6.29-2.824a4.405,4.405,0,0,0,.9-2.9V39.9a4.636,4.636,0,0,0-.887-2.838,2.985,2.985,0,0,0-2.535-1.19,2.887,2.887,0,0,0-2.491,1.2,5.657,5.657,0,0,0-.88,3.37,4.884,4.884,0,0,0,.85,3.067,2.905,2.905,0,0,0,2.439,1.094A3.16,3.16,0,0,0,135.179,43.51Z" transform="translate(-91.503 -27.419)"/><path class="a" d="M148.146,37.188a7.821,7.821,0,0,0-.126-1.493,4.5,4.5,0,0,0-.48-1.271l2.824-1.094a5.009,5.009,0,0,1,.451,1.027,4.745,4.745,0,0,1,.237,1.138,5.415,5.415,0,0,1,1.545-1.633,3.5,3.5,0,0,1,1.929-.532,4.341,4.341,0,0,1,1.345.192,4.7,4.7,0,0,1,1.264.687l-1.2,2.217a3.054,3.054,0,0,0-1.641-.5,2.588,2.588,0,0,0-2.217.983,4.57,4.57,0,0,0-.739,2.794v7.177h-3.178v-9.7Z" transform="translate(-97.101 -27.424)"/><path class="a" d="M164.8,44.664a4.1,4.1,0,0,1-.976-2.957V34.723h-2.41l.687-2.58h1.781V29.187l3.067-1.427v4.383h3.511l-.628,2.58h-2.824V41.8a1.489,1.489,0,0,0,.288,1.042,1.274,1.274,0,0,0,.946.3,2.97,2.97,0,0,0,1.345-.273l.739,2.3a4.455,4.455,0,0,1-1.19.37,7.651,7.651,0,0,1-1.493.155A3.784,3.784,0,0,1,164.8,44.664Z" transform="translate(-100.719 -25.971)"/><path class="b" d="M177.194,45.324a6.686,6.686,0,0,1-1.914-5.07,6.824,6.824,0,0,1,1.877-5.085,7.028,7.028,0,0,1,5.167-1.848,8.014,8.014,0,0,1,2.779.48,6.029,6.029,0,0,1,2.121,1.271L186.1,37.208a5.448,5.448,0,0,0-1.641-.946,5.729,5.729,0,0,0-2-.34A3.858,3.858,0,0,0,179.567,37a4.488,4.488,0,0,0-1.057,3.245,4.4,4.4,0,0,0,1.072,3.208,3.969,3.969,0,0,0,2.986,1.094,4.562,4.562,0,0,0,3.37-1.316l1.7,1.752a6.2,6.2,0,0,1-2.262,1.574,7.388,7.388,0,0,1-2.92.591A7.255,7.255,0,0,1,177.194,45.324Z" transform="translate(-104.338 -27.422)"/><path class="b" d="M196.117,46.314a5.759,5.759,0,0,1-2.3-2.454,8.531,8.531,0,0,1,0-7.207,5.8,5.8,0,0,1,2.3-2.454,6.977,6.977,0,0,1,3.563-.88,6.9,6.9,0,0,1,3.548.88,5.832,5.832,0,0,1,2.291,2.454,8.6,8.6,0,0,1,0,7.207,5.832,5.832,0,0,1-2.291,2.454,6.9,6.9,0,0,1-3.548.88A7.127,7.127,0,0,1,196.117,46.314Zm6.1-2.9a5.2,5.2,0,0,0,.865-3.164,5.187,5.187,0,0,0-.865-3.178,2.969,2.969,0,0,0-2.535-1.153,3.006,3.006,0,0,0-2.55,1.153,5.139,5.139,0,0,0-.88,3.178,5.1,5.1,0,0,0,.88,3.164,2.992,2.992,0,0,0,2.55,1.16A2.937,2.937,0,0,0,202.215,43.417Z" transform="translate(-108.965 -27.422)"/><path class="b" d="M228.939,43.594V38.856a3.907,3.907,0,0,0-.5-2.217,1.793,1.793,0,0,0-1.589-.71,2.169,2.169,0,0,0-1.826.8,3.491,3.491,0,0,0-.613,2.2V46.9h-3.127V38.841a3.89,3.89,0,0,0-.5-2.2,1.748,1.748,0,0,0-1.537-.71,2.183,2.183,0,0,0-1.929.946,4.724,4.724,0,0,0-.643,2.676v7.347h-3.178v-9.72a7.714,7.714,0,0,0-.126-1.508,4.722,4.722,0,0,0-.48-1.264l2.713-1.094a6.387,6.387,0,0,1,.451,1.027,4.037,4.037,0,0,1,.237,1.109,3.939,3.939,0,0,1,1.537-1.574,4.125,4.125,0,0,1,2.084-.562,3.433,3.433,0,0,1,3.319,2.2,5.153,5.153,0,0,1,1.833-1.656,5.3,5.3,0,0,1,2.439-.532,4.338,4.338,0,0,1,3.422,1.316,5.039,5.039,0,0,1,1.175,3.481V43.55a5.406,5.406,0,0,0,.577,2.55l-2.875,1.072A7.223,7.223,0,0,1,228.939,43.594Z" transform="translate(-114.151 -27.422)"/><path class="b" d="M244.86,46.321a5.72,5.72,0,0,1-2.395-2.38,7.512,7.512,0,0,1-.835-3.607,8.638,8.638,0,0,1,.724-3.592,5.661,5.661,0,0,1,2.2-2.506,7.512,7.512,0,0,1,7.192,0,5.822,5.822,0,0,1,2.232,2.41,7.139,7.139,0,0,1,.739,3.223,1.553,1.553,0,0,1-.532,1.264,2.216,2.216,0,0,1-1.464.436H244.8a2.632,2.632,0,0,0,1.027,2.166,4.253,4.253,0,0,0,2.727.82,5.235,5.235,0,0,0,3.784-1.4l1.589,1.73a5.916,5.916,0,0,1-2.262,1.67,8.418,8.418,0,0,1-6.807-.237Zm6.711-7.273a3.028,3.028,0,0,0-.946-2.277,3.422,3.422,0,0,0-2.483-.9,3.272,3.272,0,0,0-2.41.917,3.056,3.056,0,0,0-.931,2.262Z" transform="translate(-121.646 -27.422)"/><path class="b" d="M262.316,37.188a7.819,7.819,0,0,0-.126-1.493,4.5,4.5,0,0,0-.48-1.271l2.823-1.094a5.011,5.011,0,0,1,.451,1.027,4.408,4.408,0,0,1,.236,1.138,5.416,5.416,0,0,1,1.545-1.633,3.5,3.5,0,0,1,1.929-.532,4.342,4.342,0,0,1,1.345.192,4.7,4.7,0,0,1,1.264.687l-1.2,2.217a3.054,3.054,0,0,0-1.641-.5,2.579,2.579,0,0,0-2.217.983,4.57,4.57,0,0,0-.739,2.794v7.177h-3.178v-9.7Z" transform="translate(-126.884 -27.424)"/><path class="b" d="M277.134,45.324a6.686,6.686,0,0,1-1.914-5.07,6.823,6.823,0,0,1,1.877-5.085,7.028,7.028,0,0,1,5.167-1.848,8.016,8.016,0,0,1,2.779.48,6.029,6.029,0,0,1,2.121,1.271l-1.123,2.136a5.4,5.4,0,0,0-1.648-.946,5.729,5.729,0,0,0-2-.34A3.858,3.858,0,0,0,279.5,37a4.488,4.488,0,0,0-1.057,3.245,4.4,4.4,0,0,0,1.072,3.208,3.968,3.968,0,0,0,2.986,1.094,4.561,4.561,0,0,0,3.37-1.316l1.7,1.752a6.2,6.2,0,0,1-2.262,1.574,7.388,7.388,0,0,1-2.92.591A7.236,7.236,0,0,1,277.134,45.324Z" transform="translate(-130.408 -27.422)"/><path class="b" d="M294.628,28.947A1.943,1.943,0,0,1,294,27.454a1.985,1.985,0,0,1,.628-1.523,2.431,2.431,0,0,1,3.178,0,1.985,1.985,0,0,1,.628,1.523,1.943,1.943,0,0,1-.628,1.493,2.25,2.25,0,0,1-1.589.591A2.194,2.194,0,0,1,294.628,28.947Zm0,2.565h3.178V44.8h-3.178Z" transform="translate(-135.307 -25.34)"/></g></g></svg>