<svg id="_01" data-name="01" xmlns="http://www.w3.org/2000/svg" width="211.611" height="205.252" viewBox="0 0 211.611 205.252">
  <g id="BACKGROUND" transform="translate(0 16.348)">
    <path id="Caminho_3007" data-name="Caminho 3007" d="M197.445,88.562H169.428a24.954,24.954,0,0,0,1.222-7.72h0a24.975,24.975,0,0,0-24.975-24.975H49.407A24.975,24.975,0,0,0,24.432,80.842h0a24.975,24.975,0,0,0,24.975,24.975h32.3a32.09,32.09,0,0,0-3.7,14.985h0a32.241,32.241,0,0,0,32.241,32.241h87.189A32.241,32.241,0,0,0,229.686,120.8h0a32.241,32.241,0,0,0-32.241-32.241Z" transform="translate(-18.075 -55.867)" fill="#bee3cc"/>
    <path id="Caminho_3008" data-name="Caminho 3008" d="M188.052,313.888H151.057a32.088,32.088,0,0,0,.214-3.633h0a31.786,31.786,0,0,0-31.786-31.787H41.379A31.787,31.787,0,0,0,9.592,310.256h0a31.787,31.787,0,0,0,31.787,31.787H97.131a24.068,24.068,0,0,0,23.714,19.98h67.207a24.067,24.067,0,0,0,24.067-24.067h0a24.067,24.067,0,0,0-24.067-24.067Z" transform="translate(-9.592 -183.109)" fill="#bee3cc"/>
  </g>
  <g id="OBJECTS" transform="translate(6.463 0)">
    <circle id="Elipse_39" data-name="Elipse 39" cx="13.623" cy="13.623" r="13.623" transform="matrix(0.272, -0.962, 0.962, 0.272, 39.404, 74.829)" fill="#ff827d"/>
    <path id="Caminho_3009" data-name="Caminho 3009" d="M145.709,154.323c-1.714.979-2.135,2.518-1.863,4.7-1.741-1.344-3.28-1.765-4.995-.786a3.878,3.878,0,0,0-1.414,5.483c3.159,5.535,10.82,4.734,11.555,4.315,1.224-.7,5.32-6.608,2.16-12.144a3.878,3.878,0,0,0-5.444-1.569Z" transform="translate(-88.787 -95.484)" fill="#fff"/>
    <path id="Caminho_3010" data-name="Caminho 3010" d="M394.494,86.626c-.312,0-.619-.01-.921-.031-3.588-.255-5.646-1.958-5.646-4.672a4,4,0,0,1,1.78-3.648c4.118-2.6,14.188,2.168,14.615,2.371l.444.214-.069.488C404.255,84.442,398.98,86.626,394.494,86.626Zm-1.505-7.794a4.845,4.845,0,0,0-2.566.579,2.713,2.713,0,0,0-1.153,2.512c0,2.628,2.756,3.216,4.4,3.333,4,.282,8.68-1.556,9.566-3.634-2.34-1.056-6.966-2.789-10.247-2.789Z" transform="translate(-232.315 -51.887)" fill="#9ec8da"/>
    <path id="Caminho_3011" data-name="Caminho 3011" d="M413.4,85.4l.465,7.1a1.258,1.258,0,0,0,.426.864l10.956,9.609a2.515,2.515,0,0,0,3.55-.233l4.976-5.674a2.516,2.516,0,0,0-.232-3.55l-10.956-9.609a1.257,1.257,0,0,0-.912-.31l-7.1.465A1.258,1.258,0,0,0,413.4,85.4Z" transform="translate(-246.872 -55.371)" fill="#ffc171"/>
    <path id="Caminho_3012" data-name="Caminho 3012" d="M436.3,104.715h0a1.068,1.068,0,0,1-1.12-1.012l-.433-8.529a1.067,1.067,0,0,1,1.012-1.12h0a1.067,1.067,0,0,1,1.12,1.012l.432,8.529a1.068,1.068,0,0,1-1.012,1.12Z" transform="translate(-259.08 -61.347)" fill="#423e35"/>
    <path id="Caminho_3013" data-name="Caminho 3013" d="M427.9,105.279a1.226,1.226,0,1,1-1.285-1.162A1.226,1.226,0,0,1,427.9,105.279Z" transform="translate(-253.765 -67.099)" fill="#423e35"/>
    <path id="Caminho_3014" data-name="Caminho 3014" d="M446.768,104.323a1.226,1.226,0,1,1-1.285-1.163A1.226,1.226,0,0,1,446.768,104.323Z" transform="translate(-264.548 -66.551)" fill="#423e35"/>
    <path id="Caminho_3015" data-name="Caminho 3015" d="M389.112,62.226A18.128,18.128,0,0,0,372.163,86.88a14.171,14.171,0,1,0,8.306,9.489,18.164,18.164,0,1,0,8.642-34.143Z" transform="translate(-212.119 -43.154)" fill="none" stroke="#abdffb" stroke-miterlimit="10" stroke-width="1"/>
    <path id="Caminho_3016" data-name="Caminho 3016" d="M382.967,146.148v6.429a1.428,1.428,0,0,1-1.429,1.429H365.11a1.428,1.428,0,0,1-1.429-1.429v-6.429Zm-1.429,5.357a2.395,2.395,0,0,1-3.213-1.071,106307.5,106307.5,0,0,1,2.142,2.142A1.071,1.071,0,0,0,381.538,151.505Zm-12.858-1.786v-2.142h-2.857v2.142Z" transform="translate(-218.456 -91.125)" fill="#65afa5"/>
    <rect id="Retângulo_424" data-name="Retângulo 424" width="19.287" height="1.429" transform="translate(145.225 53.595)" fill="#f4ebe2"/>
    <path id="Caminho_3017" data-name="Caminho 3017" d="M382.967,139.239v.715H363.681v-.715a1.428,1.428,0,0,1,1.429-1.428h16.43A1.428,1.428,0,0,1,382.967,139.239Z" transform="translate(-218.456 -86.359)" fill="#65afa5"/>
    <circle id="Elipse_40" data-name="Elipse 40" cx="1.071" cy="1.071" r="1.071" transform="translate(160.941 59.309)" fill="#ff9f08"/>
    <circle id="Elipse_41" data-name="Elipse 41" cx="1.071" cy="1.071" r="1.071" transform="translate(158.798 59.309)" fill="#ff8993"/>
    <rect id="Retângulo_425" data-name="Retângulo 425" width="2.857" height="2.143" transform="translate(147.369 56.452)" fill="#eee9d5"/>
    <rect id="Retângulo_426" data-name="Retângulo 426" width="6.429" height="0.714" transform="translate(157.012 56.095)" fill="#eee9d5"/>
    <rect id="Retângulo_427" data-name="Retângulo 427" width="1.786" height="0.714" transform="translate(161.655 57.523)" fill="#eee9d5"/>
    <path id="Caminho_3018" data-name="Caminho 3018" d="M412.716,50.477s-.908,5.45-5.449,5.45c4.541,0,5.449,5.449,5.449,5.449s.908-5.449,5.449-5.449C413.624,55.927,412.716,50.477,412.716,50.477Z" transform="translate(-243.37 -36.438)" fill="#fcce7a"/>
    <circle id="Elipse_42" data-name="Elipse 42" cx="16.801" cy="16.801" r="16.801" transform="translate(0.803 69.931)" fill="none" stroke="#abdffb" stroke-miterlimit="10" stroke-width="1"/>
    <path id="Caminho_3019" data-name="Caminho 3019" d="M31.392,190.247l2.086-1.378a6.03,6.03,0,0,0,1.254,4.166A6.03,6.03,0,0,0,31.392,190.247Z" transform="translate(-28.516 -115.545)" fill="#008a47"/>
    <path id="Caminho_3020" data-name="Caminho 3020" d="M48.462,237.678a6.39,6.39,0,0,1,7.972.728C53.79,240.152,50.489,240.006,48.462,237.678Z" transform="translate(-38.273 -142.835)" fill="#008a47"/>
    <path id="Caminho_3021" data-name="Caminho 3021" d="M46.575,234.521a6.39,6.39,0,0,0-7.972-.728l-3.623.436a3.132,3.132,0,0,1-3-1.385l-.767-1.161A11.258,11.258,0,0,1,46.575,234.521Z" transform="translate(-28.415 -138.95)" fill="#00743a"/>
    <path id="Caminho_3022" data-name="Caminho 3022" d="M44.36,229.382l.533.807a11.258,11.258,0,0,0-15.36-2.838l-.662-1c-.428-.646-.939-2.556-.293-2.983a.91.91,0,0,0,.454-1.014l.7-.059A15.922,15.922,0,0,1,44.36,229.382Z" transform="translate(-26.732 -134.618)" fill="#008a47"/>
    <path id="Caminho_3023" data-name="Caminho 3023" d="M38.317,218.159l4.061,6.147a15.922,15.922,0,0,0-14.627-7.089l-.7.059a.926.926,0,0,0-.116-.243,1.262,1.262,0,0,0-.3-.309l-.848-.618a2.494,2.494,0,0,1-.978-1.5C29.211,211.9,35.45,213.82,38.317,218.159Z" transform="translate(-24.751 -129.542)" fill="#00743a"/>
    <path id="Caminho_3024" data-name="Caminho 3024" d="M35.488,210.334l2.756,4.172c-2.867-4.339-9.106-6.261-13.512-3.549a2.517,2.517,0,0,1,.113-1.423l.308-.8a2.2,2.2,0,0,0,.139-.651A7.5,7.5,0,0,1,35.488,210.334Z" transform="translate(-24.678 -125.89)" fill="#008a47"/>
    <path id="Caminho_3025" data-name="Caminho 3025" d="M33.226,202.994l2.757,4.172a7.5,7.5,0,0,0-10.2-2.249,2.592,2.592,0,0,0-.12-.96,2.865,2.865,0,0,1-.065-1.421l.23-.152S31.159,199.865,33.226,202.994Z" transform="translate(-25.172 -122.722)" fill="#00743a"/>
    <path id="Caminho_3026" data-name="Caminho 3026" d="M33.944,194.874l.23.347a2.826,2.826,0,0,0-3.813-.478l-.347.23a.836.836,0,0,0,.236-1.154,1.253,1.253,0,0,1,.354-1.732A6.03,6.03,0,0,1,33.944,194.874Z" transform="translate(-27.728 -117.383)" fill="#00743a"/>
    <path id="Caminho_3027" data-name="Caminho 3027" d="M31.7,198.079l1.608,2.434c-2.067-3.127-7.394-.609-7.394-.609l-.23.152a2.861,2.861,0,0,1,1.223-1.807l.633-.418.347-.23A2.825,2.825,0,0,1,31.7,198.079Z" transform="translate(-25.251 -120.241)" fill="#008a47"/>
    <path id="Caminho_3028" data-name="Caminho 3028" d="M39.1,189.182l-.348.23a2.825,2.825,0,0,0-1.056,3.694l-.23-.347a6.03,6.03,0,0,1-1.254-4.166,1.249,1.249,0,0,1,1.732.354.84.84,0,0,0,1.157.236Z" transform="translate(-31.254 -115.267)" fill="#1e9151"/>
    <path id="Caminho_3029" data-name="Caminho 3029" d="M46.642,188.973a2.465,2.465,0,0,0,.795.439A7.5,7.5,0,0,0,45.5,199.678l-2.757-4.172c-2.067-3.127,2.341-7.041,2.341-7.041l.214-.14A3.042,3.042,0,0,1,46.642,188.973Z" transform="translate(-34.688 -115.234)" fill="#1e9151"/>
    <path id="Caminho_3030" data-name="Caminho 3030" d="M68.968,223.016a5.462,5.462,0,0,1,.264,4.2,6.731,6.731,0,0,1-2.723,3.422,6.389,6.389,0,0,1,2.459-7.618Z" transform="translate(-48.349 -135.063)" fill="#66a029"/>
    <path id="Caminho_3031" data-name="Caminho 3031" d="M68.3,205.219l.767,1.161a3.131,3.131,0,0,1,.1,3.3l-1.822,3.162a6.389,6.389,0,0,0-2.459,7.618A11.258,11.258,0,0,1,68.3,205.219Z" transform="translate(-46.723 -124.89)" fill="#1e9151"/>
    <path id="Caminho_3032" data-name="Caminho 3032" d="M65.595,200.842l.661,1a11.258,11.258,0,0,0-3.416,15.242l-.533-.807a15.921,15.921,0,0,1-.783-16.235l.329-.622a.91.91,0,0,0,1.111-.02c.323-.214.873-.017,1.4.316A4.658,4.658,0,0,1,65.595,200.842Z" transform="translate(-44.68 -121.514)" fill="#0f8749"/>
    <path id="Caminho_3033" data-name="Caminho 3033" d="M56.064,192.3a2.492,2.492,0,0,1,.992,1.487l.236,1.023a1.089,1.089,0,0,0,.343.6l-.329.622a15.921,15.921,0,0,0,.781,16.236l-4.061-6.147C51.161,201.783,51.841,195.291,56.064,192.3Z" transform="translate(-40.461 -117.506)" fill="#1e9151"/>
    <path id="Caminho_3034" data-name="Caminho 3034" d="M51.693,191.025a2.519,2.519,0,0,1,1.354.454c-4.223,2.99-4.9,9.482-2.037,13.822l-2.756-4.172a7.5,7.5,0,0,1,1.938-10.266A2.379,2.379,0,0,0,50.9,191Z" transform="translate(-37.443 -116.684)" fill="#0f8749"/>
    <path id="Caminho_3035" data-name="Caminho 3035" d="M43.44,188.246l-.214.14s-4.409,3.911-2.341,7.041l-1.608-2.434a2.825,2.825,0,0,1,1.056-3.694l.348-.23.633-.418A2.822,2.822,0,0,1,43.44,188.246Z" transform="translate(-32.833 -115.154)" fill="#0f8749"/>
    <path id="Caminho_3036" data-name="Caminho 3036" d="M80.656,224.431a8.325,8.325,0,0,1-16.65,0c0-4.6,3.727-6.66,8.325-6.66S80.656,219.833,80.656,224.431Z" transform="translate(-47.158 -132.065)" fill="#e54655"/>
    <path id="Caminho_3037" data-name="Caminho 3037" d="M68.166,225.259A3.818,3.818,0,0,1,69.631,222a4.019,4.019,0,0,1,3.894-.42,2.79,2.79,0,0,0,3.813-2.731,10.915,10.915,0,0,0-5.012-1.078c-4.6,0-8.325,2.062-8.325,6.66a8.317,8.317,0,0,0,14.045,6.04C71.942,231.744,68.166,230.013,68.166,225.259Z" transform="translate(-47.155 -132.061)" fill="#c13b48"/>
    <path id="Caminho_3038" data-name="Caminho 3038" d="M89.9,223.782a1.648,1.648,0,0,0-.673.719,7.8,7.8,0,0,1-.379.861c-.4.612-1.221.7-1.881,1.028a2.7,2.7,0,0,0-1.56,1.863,1.874,1.874,0,0,0,.8,1.8,1.971,1.971,0,0,0,1.1.208,4.67,4.67,0,0,0,1.475-.234,4.364,4.364,0,0,0,2-1.233l.055-.068a4.225,4.225,0,0,0,1.042-3.933c-.222-.658-.79-1.43-1.735-1.12A1.452,1.452,0,0,0,89.9,223.782Z" transform="translate(-59.382 -135.4)" fill="#fd838d"/>
    <path id="Caminho_3039" data-name="Caminho 3039" d="M74.835,209.441a17.837,17.837,0,0,0-5,.832l3.33.832s-1.665,2.5-1.665,4.163c0,0,1.665-2.5,4.162-2.5s4.163,2.5,4.163,2.5c0-1.665-1.665-4.163-1.665-4.163l3.33-.832a17.833,17.833,0,0,0-4.995-.832l.832-3.33H74Z" transform="translate(-50.493 -125.4)" fill="#658d41"/>
    <path id="Caminho_3040" data-name="Caminho 3040" d="M74,206.111l.832,3.33a17.837,17.837,0,0,0-5,.832l3.33.832s-1.665,2.5-1.665,4.163c0,0,1.665-2.5,4.162-2.5v-6.66Z" transform="translate(-50.491 -125.4)" fill="#537134"/>
    <path id="Caminho_3041" data-name="Caminho 3041" d="M75.629,173.439s-.908,5.449-5.449,5.449c4.541,0,5.449,5.449,5.449,5.449s.908-5.449,5.449-5.449C76.539,178.888,75.629,173.439,75.629,173.439Z" transform="translate(-50.687 -106.725)" fill="#fcce7a"/>
    <path id="Caminho_3042" data-name="Caminho 3042" d="M385.156,175.559s-.908,5.449-5.449,5.449c4.541,0,5.449,5.449,5.449,5.449s.908-5.449,5.449-5.449C386.064,181.008,385.156,175.559,385.156,175.559Z" transform="translate(-227.616 -107.936)" fill="#fcce7a"/>
    <circle id="Elipse_43" data-name="Elipse 43" cx="14.077" cy="14.077" r="14.077" transform="translate(160.476 118.029) rotate(-76.525)" fill="none" stroke="#abdffb" stroke-miterlimit="10" stroke-width="1"/>
    <path id="Caminho_3043" data-name="Caminho 3043" d="M428.76,281.989v3.033a.908.908,0,0,1-.908.908h-6.063a.908.908,0,0,1-.908-.908v-3.033Z" transform="translate(-251.151 -168.773)" fill="#65afa5"/>
    <rect id="Retângulo_428" data-name="Retângulo 428" width="7.882" height="10.509" transform="translate(169.727 102.707)" fill="#ecf5ff"/>
    <path id="Caminho_3044" data-name="Caminho 3044" d="M428.756,247.351V249.1h-7.882v-1.751a3.161,3.161,0,0,1,1.257-2.492,2.593,2.593,0,0,0,.933-2.019v.131h3.5v-.131a2.593,2.593,0,0,0,.933,2.019A3.161,3.161,0,0,1,428.756,247.351Z" transform="translate(-251.148 -146.395)" fill="#65afa5"/>
    <path id="Caminho_3045" data-name="Caminho 3045" d="M429.489,240.679v.131h-3.5v-1.751h3.5Z" transform="translate(-254.07 -144.234)" fill="#423e35"/>
    <path id="Caminho_3046" data-name="Caminho 3046" d="M429.489,234.386v1.752h-3.5v-1.752a.439.439,0,0,1,.438-.438h2.627A.439.439,0,0,1,429.489,234.386Z" transform="translate(-254.07 -141.312)" fill="#ecf5ff"/>
    <path id="Caminho_3047" data-name="Caminho 3047" d="M429.051,233.948h-2.627a.439.439,0,0,0-.438.438v.876a.439.439,0,0,1,.438-.438h2.627a.439.439,0,0,1,.438.438v-.876A.439.439,0,0,0,429.051,233.948Z" transform="translate(-254.07 -141.312)" fill="#99c5ff"/>
    <rect id="Retângulo_429" data-name="Retângulo 429" width="7.882" height="0.876" transform="translate(169.727 102.707)" fill="#99c5ff"/>
    <rect id="Retângulo_430" data-name="Retângulo 430" width="7.882" height="0.876" transform="translate(169.727 112.34)" fill="#99c5ff"/>
    <path id="Caminho_3048" data-name="Caminho 3048" d="M422.627,282.832v-.843h-1.751v3.033a.908.908,0,0,0,.908.908h6.065a.908.908,0,0,0,.908-.908v-.876h-4.816A1.314,1.314,0,0,1,422.627,282.832Z" transform="translate(-251.149 -168.773)" fill="#5b9e97"/>
    <rect id="Retângulo_431" data-name="Retângulo 431" width="1.752" height="8.758" transform="translate(169.727 103.583)" fill="#d2dae0"/>
    <path id="Caminho_3049" data-name="Caminho 3049" d="M422.627,247.351a3.161,3.161,0,0,1,1.257-2.492,2.581,2.581,0,0,0,.926-1.887h-1.745v-.131a2.593,2.593,0,0,1-.933,2.019,3.161,3.161,0,0,0-1.256,2.491V249.1h1.751Z" transform="translate(-251.149 -146.395)" fill="#5b9e97"/>
    <path id="Caminho_3050" data-name="Caminho 3050" d="M427.731,240.81c0-.043.007-.086.007-.131v-1.62h-1.752v1.751Z" transform="translate(-254.07 -144.234)" fill="#2c2c2c"/>
    <path id="Caminho_3051" data-name="Caminho 3051" d="M426.424,235.992a.439.439,0,0,0-.438.438v.876h1.752v-1.314h-1.314Z" transform="translate(-254.07 -142.481)" fill="#d2dae0"/>
    <path id="Caminho_3052" data-name="Caminho 3052" d="M428.179,233.948h-1.751a.439.439,0,0,0-.438.438v.876a.439.439,0,0,1,.438-.438h1.313v-.438A.439.439,0,0,1,428.179,233.948Z" transform="translate(-254.072 -141.312)" fill="#7191bc"/>
    <rect id="Retângulo_432" data-name="Retângulo 432" width="1.752" height="0.876" transform="translate(169.727 112.34)" fill="#7191bc"/>
    <rect id="Retângulo_433" data-name="Retângulo 433" width="1.752" height="0.876" transform="translate(169.727 102.707)" fill="#7191bc"/>
    <path id="Caminho_3053" data-name="Caminho 3053" d="M441.9,257.019h7.882v14.209a.428.428,0,0,1-.428.428h-7.026a.428.428,0,0,1-.428-.428Z" transform="translate(-263.166 -154.5)" fill="#65afa5"/>
    <path id="Caminho_3054" data-name="Caminho 3054" d="M444.155,271.828v-9.443a1.126,1.126,0,0,0-1.126-1.126h0a1.126,1.126,0,0,0-1.126,1.126v10.787a.908.908,0,0,0,.908.908h5.847a1.126,1.126,0,0,0,1.126-1.126h-4.5A1.126,1.126,0,0,1,444.155,271.828Z" transform="translate(-263.168 -156.923)" fill="#5b9e97"/>
    <ellipse id="Elipse_44" data-name="Elipse 44" cx="3.941" cy="1.126" rx="3.941" ry="1.126" transform="translate(178.735 101.393)" fill="#ecf5ff"/>
    <circle id="Elipse_45" data-name="Elipse 45" cx="12.715" cy="12.715" r="12.715" transform="translate(15.334 104.442)" fill="none" stroke="#abdffb" stroke-miterlimit="10" stroke-width="1"/>
    <path id="Caminho_3055" data-name="Caminho 3055" d="M70.024,277.962l6.9,11.163c.715,1.157,3.793.548,6.876-1.358s5-4.388,4.288-5.544l-6.9-11.164Z" transform="translate(-50.598 -162.526)" fill="#e6e6e6"/>
    <path id="Caminho_3056" data-name="Caminho 3056" d="M80.988,270.279c.715,1.157-1.205,3.638-4.288,5.544s-6.161,2.514-6.876,1.358,1.205-3.638,4.288-5.544S80.274,269.123,80.988,270.279Z" transform="translate(-50.399 -161.744)" fill="#f1f1f1"/>
    <path id="Caminho_3057" data-name="Caminho 3057" d="M82.295,275.864c.239.386-.506,1.277-1.662,1.992s-2.286.981-2.525.6.506-1.277,1.662-1.992S82.057,275.479,82.295,275.864Z" transform="translate(-55.194 -165.171)" fill="#c2c2c2"/>
    <path id="Caminho_3058" data-name="Caminho 3058" d="M475.844,40.909a.908.908,0,1,1-.908.908A.908.908,0,0,1,475.844,40.909Z" transform="translate(-282.05 -30.969)" fill="#ffc171"/>
    <path id="Caminho_3059" data-name="Caminho 3059" d="M465.244,28.189a.908.908,0,1,1-.908.908A.908.908,0,0,1,465.244,28.189Z" transform="translate(-275.991 -23.698)" fill="#ffc171"/>
    <path id="Caminho_3060" data-name="Caminho 3060" d="M444.044,38.789a.908.908,0,1,1-.908.908A.908.908,0,0,1,444.044,38.789Z" transform="translate(-263.873 -29.757)" fill="#ffc171"/>
    <path id="Caminho_3061" data-name="Caminho 3061" d="M465.849,53.474a.454.454,0,0,1-.394-.679l3.633-6.357a.454.454,0,1,1,.788.451l-3.633,6.357A.452.452,0,0,1,465.849,53.474Z" transform="translate(-276.597 -33.998)" fill="#abdffb"/>
    <path id="Caminho_3062" data-name="Caminho 3062" d="M445.912,51.657a.455.455,0,0,1-.449-.39l-.643-4.541a.454.454,0,1,1,.9-.129l.645,4.541a.455.455,0,0,1-.386.514A.466.466,0,0,1,445.912,51.657Z" transform="translate(-264.833 -33.998)" fill="#abdffb"/>
    <path id="Caminho_3063" data-name="Caminho 3063" d="M453.13,34.394a.454.454,0,0,1-.454-.454V27.583a.454.454,0,0,1,.908,0V33.94a.454.454,0,0,1-.454.454Z" transform="translate(-269.326 -23.092)" fill="#abdffb"/>
    <path id="Caminho_3064" data-name="Caminho 3064" d="M457.371,46.508a.441.441,0,0,1-.12-.016.454.454,0,0,1-.319-.557l2.724-9.99a.454.454,0,0,1,.877.239l-2.724,9.99a.454.454,0,0,1-.438.335Z" transform="translate(-271.75 -27.94)" fill="#abdffb"/>
    <path id="Caminho_3065" data-name="Caminho 3065" d="M108.826,123.38a.908.908,0,1,0,1.1.655A.908.908,0,0,0,108.826,123.38Z" transform="translate(-72.387 -78.094)" fill="#ffc171"/>
    <path id="Caminho_3066" data-name="Caminho 3066" d="M115.947,108.433a.908.908,0,1,0,1.1.655.908.908,0,0,0-1.1-.655Z" transform="translate(-76.457 -69.55)" fill="#ffc171"/>
    <path id="Caminho_3067" data-name="Caminho 3067" d="M139.112,113.455a.908.908,0,1,0,1.1.655A.908.908,0,0,0,139.112,113.455Z" transform="translate(-89.699 -72.421)" fill="#ffc171"/>
    <path id="Caminho_3068" data-name="Caminho 3068" d="M117.968,134.15a.454.454,0,0,0,.214-.756l-5.094-5.26a.454.454,0,0,0-.652.631l5.093,5.261A.454.454,0,0,0,117.968,134.15Z" transform="translate(-74.769 -80.749)" fill="#abdffb"/>
    <path id="Caminho_3069" data-name="Caminho 3069" d="M141.533,126.253a.455.455,0,0,0,.338-.489l-.5-4.559a.454.454,0,0,0-.9.1l.5,4.559a.454.454,0,0,0,.5.4A.437.437,0,0,0,141.533,126.253Z" transform="translate(-90.864 -76.636)" fill="#abdffb"/>
    <path id="Caminho_3070" data-name="Caminho 3070" d="M130.264,111.314a.454.454,0,0,0,.328-.552l-1.573-6.159a.454.454,0,1,0-.88.224l1.573,6.16a.454.454,0,0,0,.552.327Z" transform="translate(-83.809 -67.182)" fill="#abdffb"/>
    <path id="Caminho_3071" data-name="Caminho 3071" d="M125.632,125a.443.443,0,0,0,.112-.043.454.454,0,0,0,.171-.619l-5.112-9a.454.454,0,1,0-.79.448l5.112,9A.453.453,0,0,0,125.632,125Z" transform="translate(-79.139 -73.381)" fill="#abdffb"/>
    <path id="Caminho_3072" data-name="Caminho 3072" d="M408.9,229.287l1.816.908-1.816.908L408,232.92l-.908-1.816-1.816-.908,1.816-.908.908-1.816Z" transform="translate(-242.23 -137.61)" fill="#fcce7a"/>
    <path id="Caminho_3073" data-name="Caminho 3073" d="M107.862,252.607l1.816.908-1.816.908-.908,1.816-.908-1.816-1.816-.908,1.816-.908.908-1.816Z" transform="translate(-70.15 -150.94)" fill="#fcce7a"/>
    <path id="Caminho_3074" data-name="Caminho 3074" d="M254.777,203.713a12.715,12.715,0,0,1-7.454-11.575v-2.711h-19.98v2.711a12.714,12.714,0,0,1-7.454,11.575l-2.537,1.153a23.765,23.765,0,0,0,39.961,0Z" transform="translate(-134.813 -115.864)" fill="#ffceca"/>
    <path id="Caminho_3075" data-name="Caminho 3075" d="M254.962,197.258a12.689,12.689,0,0,1-1.08-5.115v-2.711H233.9v2.711a12.716,12.716,0,0,1-5.075,10.164C233.57,203.536,243.322,204.543,254.962,197.258Z" transform="translate(-141.372 -115.866)" fill="#ff8981"/>
    <path id="Caminho_3076" data-name="Caminho 3076" d="M204.329,96.146a26.844,26.844,0,0,0-1.816,8.174c0,3.633,2.725,7.266,2.725,7.266h3.633V96.146Z" transform="translate(-126.33 -62.543)" fill="#8f3526"/>
    <path id="Caminho_3077" data-name="Caminho 3077" d="M198.959,54.942s-10.9-.908-10.9-9.082c0-7.265,2.725-8.174,2.725-8.174s-6.733-.091-5.449-9.082c.908-6.357,4.541-10.9,14.531-10.9,19.072,0,22.7,12.715,29.062,11.806s4.541-2.725,9.991-2.725,11.806,5.449,11.806,19.98c0,9.082-9.082,20.889-9.082,20.889H198.959Z" transform="translate(-116.419 -17.706)" fill="#bb4935"/>
    <path id="Caminho_3078" data-name="Caminho 3078" d="M210.082,93.72v9.99h-1.816a3.633,3.633,0,0,0-3.633,3.633v1.816c0,3.009,2.44,7.266,5.45,7.266,0,11.035,12.715,19.98,19.98,19.98,8.174,0,19.98-8.945,19.98-19.98,3.009,0,5.449-4.256,5.449-7.265v-1.816a3.633,3.633,0,0,0-3.633-3.633h-1.816V96.444S249.134,91,246.41,91,242.777,93.72,234.6,93.72s-6.357-8.174-12.715-8.174S217.348,93.72,210.082,93.72Z" transform="translate(-127.542 -56.484)" fill="#ffceca"/>
    <path id="Caminho_3079" data-name="Caminho 3079" d="M229.16,88.271c6.357,0,4.541,8.174,12.715,8.174s9.082-2.725,11.806-2.725,3.633,5.449,3.633,5.449V96.444S256.406,91,253.681,91s-3.633,2.725-11.806,2.725-6.357-8.174-12.715-8.174-4.541,8.174-11.806,8.174v2.725C224.619,96.444,222.8,88.271,229.16,88.271Z" transform="translate(-134.814 -56.484)" fill="#ff8981"/>
    <path id="Caminho_3080" data-name="Caminho 3080" d="M310.635,141.269v-9.082h1.816A1.816,1.816,0,0,1,314.268,134h0A9.082,9.082,0,0,1,310.635,141.269Z" transform="translate(-188.134 -83.144)" fill="#faaba5"/>
    <path id="Caminho_3081" data-name="Caminho 3081" d="M212.506,141.269v-9.082H210.69A1.816,1.816,0,0,0,208.873,134h0a9.082,9.082,0,0,0,3.633,7.265Z" transform="translate(-129.966 -83.144)" fill="#faaba5"/>
    <rect id="Retângulo_434" data-name="Retângulo 434" width="3.633" height="14.531" rx="1.816" transform="translate(100.704 48.134)" fill="#faaba5"/>
    <path id="Caminho_3082" data-name="Caminho 3082" d="M273.534,117.948a.9.9,0,0,1,.577-.811,22.8,22.8,0,0,1,8.747-1.911h.653a2.8,2.8,0,0,1,2.537,1.346,1.842,1.842,0,0,1,.2.834c0,1.453-2.543,1.453-2.543,1.453H274.6A1,1,0,0,1,273.534,117.948Z" transform="translate(-166.927 -73.449)" fill="#bb4935"/>
    <path id="Caminho_3083" data-name="Caminho 3083" d="M237.489,117.948a.9.9,0,0,0-.578-.811,22.8,22.8,0,0,0-8.747-1.911h-.653a2.8,2.8,0,0,0-2.537,1.346,1.843,1.843,0,0,0-.2.834c0,1.453,2.543,1.453,2.543,1.453h9.108A1,1,0,0,0,237.489,117.948Z" transform="translate(-139.055 -73.449)" fill="#bb4935"/>
    <path id="Caminho_3084" data-name="Caminho 3084" d="M286.707,132.488c0,2.508-.814,4.541-1.816,4.541s-1.816-2.033-1.816-4.541.814-4.541,1.816-4.541S286.707,129.98,286.707,132.488Z" transform="translate(-172.38 -80.721)" fill="#08e"/>
    <path id="Caminho_3085" data-name="Caminho 3085" d="M240.067,132.488c0,2.508-.814,4.541-1.816,4.541s-1.816-2.033-1.816-4.541.814-4.541,1.816-4.541S240.067,129.98,240.067,132.488Z" transform="translate(-145.72 -80.721)" fill="#08e"/>
    <path id="Caminho_3086" data-name="Caminho 3086" d="M288.193,153.387a7.265,7.265,0,1,0-.041,14.529,19.089,19.089,0,0,0,5.469-12.081A7.24,7.24,0,0,0,288.193,153.387Z" transform="translate(-171.142 -95.263)" fill="#faaba5"/>
    <path id="Caminho_3087" data-name="Caminho 3087" d="M230.1,160.652a7.259,7.259,0,0,0-12.692-4.819c.2,4.577,2.553,8.768,5.747,12.069A7.26,7.26,0,0,0,230.1,160.652Z" transform="translate(-134.843 -95.263)" fill="#faaba5"/>
    <path id="Caminho_3088" data-name="Caminho 3088" d="M252.186,171.4a4.361,4.361,0,0,1-4.039-2.067.454.454,0,0,1,.811-.408,3.492,3.492,0,0,0,3.228,1.567c5.195,0,10.524-5.263,10.577-5.316a.454.454,0,0,1,.643.643C263.178,166.05,257.76,171.4,252.186,171.4Z" transform="translate(-152.391 -101.928)" fill="#bb4935"/>
    <path id="Caminho_3089" data-name="Caminho 3089" d="M256.909,124.512a.456.456,0,0,0-.61.2l-2.031,4.062a7.714,7.714,0,0,0-15.013-.363,3.226,3.226,0,0,0-5.061,0,7.714,7.714,0,0,0-15.013.363l-2.031-4.062a.455.455,0,0,0-.814.407l2.683,5.365a7.717,7.717,0,1,0,15.433-.119c0-.245-.015-.486-.037-.725a2.5,2.5,0,0,1,4.615,0c-.022.239-.037.48-.037.725a7.717,7.717,0,1,0,15.433.119l2.683-5.365A.455.455,0,0,0,256.909,124.512ZM226.736,137.18a6.811,6.811,0,1,1,6.811-6.811,6.811,6.811,0,0,1-6.811,6.811Zm19.98,0a6.811,6.811,0,1,1,6.811-6.811,6.811,6.811,0,0,1-6.811,6.811Z" transform="translate(-134.205 -77.692)" fill="#002a63"/>
    <path id="Caminho_3090" data-name="Caminho 3090" d="M305.787,103.715v7.266H307.6a3.6,3.6,0,0,1,1.9.55,15.771,15.771,0,0,0,.823-5.091c0-7.265-5.45-8.174-8.174-8.174C304.878,98.266,305.787,103.715,305.787,103.715Z" transform="translate(-183.286 -63.755)" fill="#8f3526"/>
    <path id="Caminho_3091" data-name="Caminho 3091" d="M293.369,93.715a.455.455,0,0,1-.407-.251c-.915-1.83-2.618-5.236-8.739-6.111a9.479,9.479,0,0,0-7.609,2.17,5.77,5.77,0,0,1-3.225,1.467,4.363,4.363,0,0,1-4.039-2.067.454.454,0,0,1,.811-.408,3.491,3.491,0,0,0,3.228,1.567,5.112,5.112,0,0,0,2.7-1.3,10.4,10.4,0,0,1,8.265-2.329c6.592.942,8.5,4.766,9.425,6.6a.454.454,0,0,1-.406.657Z" transform="translate(-164.51 -56.934)" fill="#8f3526"/>
    <path id="Caminho_3092" data-name="Caminho 3092" d="M240.515,77.059a.454.454,0,0,1-.431-.31c-.071-.21-1.787-5.141-6.835-5.141-5.171,0-8.693,4.327-8.727,4.37a.454.454,0,1,1-.71-.568c.154-.193,3.834-4.712,9.437-4.712,5.71,0,7.677,5.7,7.7,5.76a.453.453,0,0,1-.287.574.443.443,0,0,1-.144.027Z" transform="translate(-138.448 -47.997)" fill="#8f3526"/>
    <path id="Caminho_3093" data-name="Caminho 3093" d="M237.791,40.115c-8.425,0-10.552-1.852-13.245-4.2a24.83,24.83,0,0,0-4.236-3.127c-6.255-3.573-7.909-3.573-13.4-3.573a10.183,10.183,0,0,0-7.811,3.452.454.454,0,0,1-.726-.545,10.9,10.9,0,0,1,8.537-3.813c5.526,0,7.386,0,13.848,3.692a25.608,25.608,0,0,1,4.382,3.232c2.65,2.307,4.564,3.974,12.649,3.974a.454.454,0,0,1,0,.908Z" transform="translate(-123.918 -23.767)" fill="#8f3526"/>
    <path id="Caminho_3094" data-name="Caminho 3094" d="M292.617,61.92a.455.455,0,0,1-.451-.4c-.033-.28-.879-6.864-6.814-6.864a6.491,6.491,0,0,0-4.953,1.658,8.353,8.353,0,0,1-4.04,1.965c-4.618.922-11.754-1.723-12.055-1.836a.455.455,0,0,1,.319-.851c.072.027,7.2,2.667,11.558,1.8a7.479,7.479,0,0,0,3.65-1.784,7.4,7.4,0,0,1,5.522-1.858c6.748,0,7.708,7.591,7.716,7.668a.454.454,0,0,1-.4.5Z" transform="translate(-161.489 -38.307)" fill="#8f3526"/>
    <path id="Caminho_3095" data-name="Caminho 3095" d="M221.567,221.228s-8.174,9.99-18.164,9.99-18.164-9.99-18.164-9.99c-11.807,6.357-27.246,9.99-27.246,9.99v70.839h90.821V231.218S233.374,227.585,221.567,221.228Z" transform="translate(-100.883 -134.041)" fill="#00af8f"/>
    <path id="Caminho_3096" data-name="Caminho 3096" d="M236.341,233.943c14.531,0,19.714-9.475,20.7-11.417-.857-.419-1.708-.851-2.538-1.3,0,0-8.174,9.99-18.164,9.99s-18.164-9.99-18.164-9.99c-.837.451-1.694.886-2.56,1.309C216.547,224.676,221.81,233.943,236.341,233.943Z" transform="translate(-133.821 -134.041)" fill="#00947a"/>
    <path id="Caminho_3097" data-name="Caminho 3097" d="M127.694,244.548h-3.633s-23.613,32.7-25.43,62.665v2.27a11.352,11.352,0,0,0,11.352,11.352h17.71Z" transform="translate(-66.951 -147.371)" fill="#00af8f"/>
    <path id="Caminho_3098" data-name="Caminho 3098" d="M361.515,244.548h3.635s23.613,32.7,25.43,62.665v2.27a11.352,11.352,0,0,1-11.352,11.352h-17.71Z" transform="translate(-217.217 -147.371)" fill="#00af8f"/>
    <path id="Caminho_3099" data-name="Caminho 3099" d="M151.449,336s-3.633,12.715-17.256,12.715c-12.747,0,12.715-42.685,17.256-42.685Z" transform="translate(-85.256 -182.514)" fill="#00947a"/>
    <path id="Caminho_3100" data-name="Caminho 3100" d="M350.915,337.2l19.98-8.174s-3.633-39.961-19.98-39.961Z" transform="translate(-211.158 -172.819)" fill="#00947a"/>
    <path id="Caminho_3101" data-name="Caminho 3101" d="M182.218,312.082l-7.265-7.265,65.39-.909,10.9,8.174Z" transform="translate(-110.577 -181.302)" fill="#af824b"/>
    <path id="Caminho_3102" data-name="Caminho 3102" d="M174.953,306.029V380.5l3.633,1.816V309.662Z" transform="translate(-110.577 -182.514)" fill="#e2aa63"/>
    <path id="Caminho_3103" data-name="Caminho 3103" d="M183.433,314.509v72.655l3.633,5.449V318.142Z" transform="translate(-115.424 -187.362)" fill="#ca9658"/>
    <path id="Caminho_3104" data-name="Caminho 3104" d="M201.55,274.814c1,2.676,2,3.816,2.975,4.26l-.015.033s-6.365,1.036-7.7-2.516A76.79,76.79,0,0,1,192,267.212C192.99,269.312,196.074,274.693,201.55,274.814Z" transform="translate(-120.321 -160.326)" fill="#037701"/>
    <path id="Caminho_3105" data-name="Caminho 3105" d="M214.826,311.572a6.739,6.739,0,0,0,.546,1.132l-.1.052s-3.553,1.332-4.884-2.22-4.144-3.849-6.661-6.957a27.091,27.091,0,0,1-3.849-6.661s-2.516-3.108-5.328-3.4l-3.4-5.477s2.664-3.7,5.181-.592c1.332,3.552,7.7,2.516,7.7,2.516l.015-.033a5.39,5.39,0,0,0,2.8.18v.148l3.552,9.473Z" transform="translate(-119.832 -171.181)" fill="#06aa0e"/>
    <path id="Caminho_3106" data-name="Caminho 3106" d="M231.023,296.932c2.961,4.292,3.256,1.48,9.473,7.253s6.216,16.579,6.216,16.579l-1.184.444a7.585,7.585,0,0,1-9.223-3.308,6.736,6.736,0,0,1-.546-1.132l-4.441-11.842-3.552-9.473V295.3A3.23,3.23,0,0,1,231.023,296.932Z" transform="translate(-140.766 -176.375)" fill="#aaefb8"/>
    <path id="Caminho_3107" data-name="Caminho 3107" d="M263.188,232.546c.679.191,1.356.842,2.356,3.506,1.776,4.737-.3,13.618,1.924,19.538,1.945,5.186.141,8.659-.335,9.445a34.343,34.343,0,0,0-2.056-4.47l.169-.09c.3-2.812-3.256-12.285-3.256-12.285-.5-1.328-.937-2.5-1.344-3.548l.012,0c-1.962-5.234-.9-10.468,2.369-11.7Z" transform="translate(-159.004 -140.511)" fill="#06aa0e"/>
    <path id="Caminho_3108" data-name="Caminho 3108" d="M190.242,249.943c.361,1.431,2.422,8.546,7.484,9.079l2.22,5.921c-5.475-.122-8.56-5.5-9.551-7.6-.009-.024-.03-.043-.038-.067-.268-.643-.529-1.3-.771-1.952A5.719,5.719,0,0,1,190.242,249.943Z" transform="translate(-118.717 -150.455)" fill="#006e24"/>
    <path id="Caminho_3109" data-name="Caminho 3109" d="M257.824,227.765a8.189,8.189,0,0,0,1.789.343l-.161.4c-3.268,1.226-4.331,6.459-2.369,11.7l-.012,0a68.842,68.842,0,0,0-2.876-6.985l.224-.124c-1.186-3.162-1.69-7.173.637-8.315C256.375,225.594,256.815,227.306,257.824,227.765Z" transform="translate(-155.429 -136.072)" fill="#06aa0e"/>
    <path id="Caminho_3110" data-name="Caminho 3110" d="M247.019,224.208c-2.327,1.142-1.822,5.154-.637,8.315l-.224.124c-1.346-2.507-2.207-2.211-5.105-3.529a5.148,5.148,0,0,1-1.695-1.242c.015-.789.517-2.368,3.915-3.641C245.074,223.559,246.2,223.718,247.019,224.208Z" transform="translate(-147.392 -135.502)" fill="#037701"/>
    <path id="Caminho_3111" data-name="Caminho 3111" d="M198.679,237.155s.287-2.728,4.812-4.493a7.062,7.062,0,0,0-.371,5.528c-7.1,2.665-4,10.953-4,10.953-5.062-.533-7.123-7.648-7.484-9.079C193.507,237.3,197.328,235.892,198.679,237.155Z" transform="translate(-120.115 -140.578)" fill="#00822d"/>
    <path id="Caminho_3112" data-name="Caminho 3112" d="M221.169,227.692a5.148,5.148,0,0,0,1.695,1.242c2.9,1.317,3.76,1.021,5.105,3.529a68.9,68.9,0,0,1,2.876,6.985c.407,1.049.847,2.222,1.344,3.548,0,0,3.553,9.473,3.256,12.285l-.169.09a34.341,34.341,0,0,1,2.056,4.47,25.839,25.839,0,0,1,.779,2.545c2.368,9.917.592,15.986.592,15.986L235.15,279.7s0-10.805-6.216-16.579-6.512-2.96-9.473-7.253a3.23,3.23,0,0,0-3.256-1.628,5.39,5.39,0,0,1-2.8-.18c-.977-.444-1.971-1.585-2.975-4.26l-2.22-5.921s-3.108-8.289,4-10.953a7.057,7.057,0,0,1,.371-5.526,6.118,6.118,0,0,1,3.329-2.613l3.552-1.332A7.337,7.337,0,0,0,221.169,227.692Z" transform="translate(-129.202 -135.317)" fill="#55e072"/>
    <path id="Caminho_3113" data-name="Caminho 3113" d="M201.55,274.814c1,2.676,2,3.816,2.975,4.26l-.015.033s-6.365,1.036-7.7-2.516A76.79,76.79,0,0,1,192,267.212C192.99,269.312,196.074,274.693,201.55,274.814Z" transform="translate(-120.321 -160.326)" fill="#00822d"/>
    <path id="Caminho_3114" data-name="Caminho 3114" d="M214.826,311.572a6.739,6.739,0,0,0,.546,1.132l-.1.052s-3.553,1.332-4.884-2.22-4.144-3.849-6.661-6.957a27.091,27.091,0,0,1-3.849-6.661s-2.516-3.108-5.328-3.4l-3.4-5.477s2.664-3.7,5.181-.592c1.332,3.552,7.7,2.516,7.7,2.516l.015-.033a5.39,5.39,0,0,0,2.8.18v.148l3.552,9.473Z" transform="translate(-119.832 -171.181)" fill="#00b040"/>
    <path id="Caminho_3115" data-name="Caminho 3115" d="M231.023,296.932c2.961,4.292,3.256,1.48,9.473,7.253s6.216,16.579,6.216,16.579l-1.184.444a7.585,7.585,0,0,1-9.223-3.308,6.736,6.736,0,0,1-.546-1.132l-4.441-11.842-3.552-9.473V295.3A3.23,3.23,0,0,1,231.023,296.932Z" transform="translate(-140.766 -176.375)" fill="#9dde98"/>
    <path id="Caminho_3116" data-name="Caminho 3116" d="M263.188,232.546c.679.191,1.356.842,2.356,3.506,1.776,4.737-.3,13.618,1.924,19.538,1.945,5.186.141,8.659-.335,9.445a34.343,34.343,0,0,0-2.056-4.47l.169-.09c.3-2.812-3.256-12.285-3.256-12.285-.5-1.328-.937-2.5-1.344-3.548l.012,0c-1.962-5.234-.9-10.468,2.369-11.7Z" transform="translate(-159.004 -140.511)" fill="#00822d"/>
    <path id="Caminho_3117" data-name="Caminho 3117" d="M257.824,227.765a8.189,8.189,0,0,0,1.789.343l-.161.4c-3.268,1.226-4.331,6.459-2.369,11.7l-.012,0a68.842,68.842,0,0,0-2.876-6.985l.224-.124c-1.186-3.162-1.69-7.173.637-8.315C256.375,225.594,256.815,227.306,257.824,227.765Z" transform="translate(-155.429 -136.072)" fill="#009435"/>
    <path id="Caminho_3118" data-name="Caminho 3118" d="M247.019,224.208c-2.327,1.142-1.822,5.154-.637,8.315l-.224.124c-1.346-2.507-2.207-2.211-5.105-3.529a5.148,5.148,0,0,1-1.695-1.242c.015-.789.517-2.368,3.915-3.641C245.074,223.559,246.2,223.718,247.019,224.208Z" transform="translate(-147.392 -135.502)" fill="#00822d"/>
    <path id="Caminho_3119" data-name="Caminho 3119" d="M221.169,227.692a5.148,5.148,0,0,0,1.695,1.242c2.9,1.317,3.76,1.021,5.105,3.529a68.9,68.9,0,0,1,2.876,6.985c.407,1.049.847,2.222,1.344,3.548,0,0,3.553,9.473,3.256,12.285l-.169.09a34.341,34.341,0,0,1,2.056,4.47,25.839,25.839,0,0,1,.779,2.545c2.368,9.917.592,15.986.592,15.986L235.15,279.7s0-10.805-6.216-16.579-6.512-2.96-9.473-7.253a3.23,3.23,0,0,0-3.256-1.628,5.39,5.39,0,0,1-2.8-.18c-.977-.444-1.971-1.585-2.975-4.26l-2.22-5.921s-3.108-8.289,4-10.953a7.057,7.057,0,0,1,.371-5.526,6.118,6.118,0,0,1,3.329-2.613l3.552-1.332A7.337,7.337,0,0,0,221.169,227.692Z" transform="translate(-129.202 -135.317)" fill="#55e072"/>
    <path id="Caminho_3120" data-name="Caminho 3120" d="M202.867,268.756c-.135-.086-.262-.179-.39-.272C202.606,268.577,202.733,268.672,202.867,268.756Z" transform="translate(-126.31 -161.053)" fill="#037701"/>
    <path id="Caminho_3121" data-name="Caminho 3121" d="M198.468,264.531q-.227-.269-.436-.551C198.172,264.168,198.318,264.352,198.468,264.531Z" transform="translate(-123.769 -158.479)" fill="#037701"/>
    <path id="Caminho_3122" data-name="Caminho 3122" d="M204.654,269.805c-.125-.056-.242-.125-.362-.189C204.412,269.681,204.53,269.75,204.654,269.805Z" transform="translate(-127.347 -161.701)" fill="#037701"/>
    <path id="Caminho_3123" data-name="Caminho 3123" d="M201.247,267.5c-.141-.114-.276-.237-.41-.361C200.971,267.26,201.105,267.383,201.247,267.5Z" transform="translate(-125.372 -160.283)" fill="#037701"/>
    <path id="Caminho_3124" data-name="Caminho 3124" d="M199.781,266.072c-.147-.146-.287-.3-.425-.454C199.494,265.774,199.635,265.926,199.781,266.072Z" transform="translate(-124.526 -159.415)" fill="#037701"/>
    <path id="Caminho_3125" data-name="Caminho 3125" d="M206.636,270.6c-.105-.029-.2-.072-.305-.107C206.433,270.529,206.532,270.572,206.636,270.6Z" transform="translate(-128.513 -162.202)" fill="#037701"/>
    <path id="Caminho_3126" data-name="Caminho 3126" d="M197.3,262.92c-.154-.214-.3-.428-.441-.647Q197.067,262.6,197.3,262.92Z" transform="translate(-123.098 -157.503)" fill="#037701"/>
    <path id="Caminho_3127" data-name="Caminho 3127" d="M203.778,269.331c-.129-.069-.262-.135-.386-.214C203.515,269.2,203.647,269.262,203.778,269.331Z" transform="translate(-126.833 -161.415)" fill="#026600"/>
    <path id="Caminho_3128" data-name="Caminho 3128" d="M207.929,270.912a5.611,5.611,0,0,1-.885-.168A5.566,5.566,0,0,0,207.929,270.912Z" transform="translate(-128.92 -162.345)" fill="#026600"/>
    <path id="Caminho_3129" data-name="Caminho 3129" d="M217.693,242.43h0a7.325,7.325,0,0,0,.319,1.344A7.327,7.327,0,0,1,217.693,242.43Z" transform="translate(-135.007 -146.161)" fill="#026600"/>
    <path id="Caminho_3130" data-name="Caminho 3130" d="M205.649,270.244c-.171-.058-.347-.114-.511-.187C205.3,270.13,205.476,270.186,205.649,270.244Z" transform="translate(-127.831 -161.952)" fill="#026600"/>
    <path id="Caminho_3131" data-name="Caminho 3131" d="M196.857,262.271h0Z" transform="translate(-123.097 -157.502)" fill="#026600"/>
    <path id="Caminho_3132" data-name="Caminho 3132" d="M197.949,263.866l-.062-.086Z" transform="translate(-123.686 -158.364)" fill="#026600"/>
    <path id="Caminho_3133" data-name="Caminho 3133" d="M200.557,266.874c-.07-.065-.141-.128-.21-.2C200.416,266.746,200.487,266.809,200.557,266.874Z" transform="translate(-125.093 -160.021)" fill="#026600"/>
    <path id="Caminho_3134" data-name="Caminho 3134" d="M199.181,265.417c-.043-.05-.089-.1-.132-.151C199.092,265.317,199.137,265.366,199.181,265.417Z" transform="translate(-124.35 -159.214)" fill="#026600"/>
    <path id="Caminho_3135" data-name="Caminho 3135" d="M202.087,268.2c-.1-.071-.2-.14-.293-.214C201.889,268.058,201.988,268.127,202.087,268.2Z" transform="translate(-125.919 -160.767)" fill="#026600"/>
    <path id="Caminho_3136" data-name="Caminho 3136" d="M198.958,303.06l.056.09c2.812.3,5.328,3.4,5.328,3.4a27.093,27.093,0,0,0,3.849,6.661c2.516,3.108,5.329,3.4,6.661,6.957l-5.02-13.387a26.5,26.5,0,0,0-10.874-3.725Z" transform="translate(-124.298 -180.817)" fill="#009435"/>
    <path id="Caminho_3137" data-name="Caminho 3137" d="M276.1,306.031c-.214-.59-.471-1.178-.735-1.766C275.631,304.853,275.89,305.442,276.1,306.031Z" transform="translate(-167.976 -181.506)" fill="#06aa0e"/>
    <path id="Caminho_3138" data-name="Caminho 3138" d="M277.248,307.7c-.059.11-.12.224-.162.293C277.13,307.922,277.187,307.819,277.248,307.7Z" transform="translate(-168.957 -183.47)" fill="#06aa0e"/>
    <path id="Caminho_3139" data-name="Caminho 3139" d="M274.22,301.787c.171.353.332.707.493,1.062C274.555,302.493,274.392,302.141,274.22,301.787Z" transform="translate(-167.319 -180.09)" fill="#55e072"/>
    <path id="Caminho_3140" data-name="Caminho 3140" d="M227.067,281.25c2.723-1.021,5.776.214,8.222,1.775a62.5,62.5,0,0,0-4.736-6.706c-1.527-.774-7.026-3.2-12.515-1.137a1.265,1.265,0,0,1-1.628-.74,1.23,1.23,0,0,1-.048-.631,50.877,50.877,0,0,0-5.1,1.322l1.3,3.454c1,2.676,2,3.816,2.975,4.26a5.388,5.388,0,0,0,2.8.18,5.726,5.726,0,0,1,.574-.007,23.969,23.969,0,0,1,7.523-1.207A1.238,1.238,0,0,1,227.067,281.25Z" transform="translate(-131.333 -164.098)" fill="#55e072"/>
    <path id="Caminho_3141" data-name="Caminho 3141" d="M215.021,256.8a16.912,16.912,0,0,1,10.028-.416c-.622-.67-1-1.054-1.008-1.06-1.87-2.05-4.884-5.077-5.842-5.513a1.265,1.265,0,0,1-.628-1.675c.006-.012.017-.019.023-.031a25.622,25.622,0,0,0-5.592-2.31c-6.815,2.753-3.789,10.858-3.789,10.858l.925,2.467a50.877,50.877,0,0,1,5.1-1.322A1.249,1.249,0,0,1,215.021,256.8Z" transform="translate(-129.206 -148.082)" fill="#80e895"/>
    <path id="Caminho_3142" data-name="Caminho 3142" d="M243.223,299.594a1.247,1.247,0,0,1,1.434-.758,8.814,8.814,0,0,1,4.46,2.97c-.174-.659-.381-1.34-.647-2.079-.06-.163-.129-.332-.195-.5-.026-.023-.057-.037-.082-.063-1.7-1.766-6.8-6.083-10.04-4.872a1.264,1.264,0,0,1-1.628-.74,1.242,1.242,0,0,1,.1-1.066A23.971,23.971,0,0,0,229.1,293.7a3.194,3.194,0,0,1,2.683,1.636,8.208,8.208,0,0,0,2.274,2.432A18.65,18.65,0,0,1,243.223,299.594Z" transform="translate(-141.531 -174.775)" fill="#0bcc23"/>
    <path id="Caminho_3143" data-name="Caminho 3143" d="M256.878,315.575c-.716-1.855-3.127-6.566-6.177-7.277a1.263,1.263,0,0,1-.942-1.519,1.2,1.2,0,0,1,.086-.186,18.65,18.65,0,0,0-9.161-1.831c1.461.94,2.942.868,7.2,4.821,6.216,5.773,6.216,16.579,6.216,16.579l2.389-.9a1.231,1.231,0,0,1-.049-.791A27.681,27.681,0,0,0,256.878,315.575Z" transform="translate(-148.149 -181.773)" fill="#006e24"/>
    <path id="Caminho_3144" data-name="Caminho 3144" d="M241.145,254.724c0-.111-.017-.235-.028-.357-.008-.094-.014-.185-.026-.284-.021-.179-.049-.368-.081-.564-.007-.043-.013-.086-.021-.132-.04-.233-.086-.475-.138-.726h0c-.159-.765-.365-1.6-.6-2.452-.969-3.476-2.37-7.213-2.37-7.213-.5-1.328-.937-2.5-1.344-3.548a68.847,68.847,0,0,0-2.876-6.985c-1.346-2.507-2.207-2.211-5.105-3.529a5.148,5.148,0,0,1-1.695-1.242,7.337,7.337,0,0,1-1.71-4.235l-3.552,1.332a6.117,6.117,0,0,0-3.329,2.613,7.062,7.062,0,0,0-.371,5.528c-.076.028-.134.066-.207.1a25.626,25.626,0,0,1,5.592,2.31,38.976,38.976,0,0,1,12.107,11,57.122,57.122,0,0,1,5.46,9.053l.287-.108A4.146,4.146,0,0,0,241.145,254.724Z" transform="translate(-134.89 -135.315)" fill="#55e072"/>
    <path id="Caminho_3145" data-name="Caminho 3145" d="M246.992,275.9a25.817,25.817,0,0,0-.779-2.545,34.342,34.342,0,0,0-2.056-4.47l.169-.09a9.669,9.669,0,0,0-.283-2.621,66.1,66.1,0,0,0-4.926-6.91l-.006-.007c-.587-.72-1.129-1.36-1.633-1.95a48.209,48.209,0,0,0-2.329-9.382,1.265,1.265,0,1,0-2.368.888,39.272,39.272,0,0,1,1.457,4.954c-1.376-1.477-4.587-4.819-6.113-5.513a1.265,1.265,0,0,0-1.047,2.3c.959.436,3.972,3.463,5.842,5.513.006.006.386.389,1.008,1.06a16.912,16.912,0,0,0-10.028.416,1.265,1.265,0,1,0,.888,2.369c5.488-2.056,10.988.363,12.515,1.137a62.493,62.493,0,0,1,4.736,6.706c-2.446-1.562-5.5-2.8-8.222-1.775a1.265,1.265,0,1,0,.888,2.368c3.236-1.213,8.345,3.105,10.04,4.872.025.026.056.04.082.063.065.166.135.335.195.5.266.739.473,1.42.647,2.079a8.811,8.811,0,0,0-4.46-2.97,1.265,1.265,0,1,0-.574,2.463c3.05.711,5.462,5.422,6.177,7.277a27.551,27.551,0,0,1-.443,8.9,1.231,1.231,0,0,0,.049.791l1.164-.436S249.362,285.822,246.992,275.9Z" transform="translate(-138.086 -148.835)" fill="#9dde98"/>
    <path id="Caminho_3146" data-name="Caminho 3146" d="M229.1,295.306h0Z" transform="translate(-141.529 -176.385)" fill="#55e072"/>
    <path id="Caminho_3147" data-name="Caminho 3147" d="M240,230.983Z" transform="translate(-147.758 -139.617)" fill="#026600"/>
    <path id="Caminho_3148" data-name="Caminho 3148" d="M211.268,275.137l1.3,3.454c.113.3.225.577.338.84.034.08.068.155.1.231q.123.275.246.523c.035.07.069.142.1.209.11.214.22.413.33.6a7.252,7.252,0,0,0,.432.636c.043.055.083.1.124.153.1.126.2.243.307.348.048.048.1.1.143.139a3.532,3.532,0,0,0,.3.251c.043.032.086.067.129.1a2.937,2.937,0,0,0,.42.24,5.389,5.389,0,0,0,2.8.18,5.558,5.558,0,0,1,.574-.007h0a23.969,23.969,0,0,1,7.523-1.207h0a1.248,1.248,0,0,1,.257-.326,1.15,1.15,0,0,1,.379-.236c2.723-1.021,5.776.214,8.222,1.775a62.5,62.5,0,0,0-4.736-6.706c-1.527-.774-7.026-3.2-12.515-1.137a1.265,1.265,0,0,1-1.628-.74,1.085,1.085,0,0,1-.062-.383,1.234,1.234,0,0,1,.014-.248A50.871,50.871,0,0,0,211.268,275.137Z" transform="translate(-131.335 -164.101)" fill="#2b9e36"/>
    <path id="Caminho_3149" data-name="Caminho 3149" d="M208.216,256.652l.925,2.467a50.847,50.847,0,0,1,5.1-1.322,1.236,1.236,0,0,1,.186-.485,1.211,1.211,0,0,1,.119-.167,1.336,1.336,0,0,1,.482-.343,16.912,16.912,0,0,1,10.028-.416c-.622-.67-1-1.054-1.008-1.06-1.87-2.05-4.884-5.077-5.842-5.513a1.265,1.265,0,0,1-.628-1.675c.006-.012.017-.019.023-.031a25.621,25.621,0,0,0-5.592-2.31C205.19,248.548,208.216,256.652,208.216,256.652Z" transform="translate(-129.208 -148.085)" fill="#31b03c"/>
    <path id="Caminho_3150" data-name="Caminho 3150" d="M229.1,293.688h0c.111,0,.223.012.334.026h.008a2.894,2.894,0,0,1,.6.145c.021.008.043.012.063.02.064.024.128.058.191.088s.126.06.189.1.114.071.171.109.143.1.214.157l.156.128c.082.073.164.156.246.243.043.043.086.086.129.135a5.663,5.663,0,0,1,.376.482c.214.31.411.574.6.814.058.074.112.138.168.206.131.159.257.308.38.439.056.061.112.12.167.175.125.128.246.24.365.343.04.035.081.074.121.106a5.175,5.175,0,0,0,.471.346h0a18.65,18.65,0,0,1,9.161,1.831h0a1.229,1.229,0,0,1,.56-.632,1.127,1.127,0,0,1,.126-.048,1.1,1.1,0,0,1,.749-.078,8.814,8.814,0,0,1,4.46,2.97c-.174-.659-.381-1.34-.647-2.079-.059-.163-.128-.332-.194-.5-.026-.023-.057-.037-.082-.063-1.7-1.766-6.8-6.083-10.04-4.872a1.264,1.264,0,0,1-1.628-.74,1.243,1.243,0,0,1-.068-.547.167.167,0,0,1,.007-.028,1.239,1.239,0,0,1,.164-.491h0a23.963,23.963,0,0,0-7.518,1.211Z" transform="translate(-141.528 -174.767)" fill="#00822d"/>
    <path id="Caminho_3151" data-name="Caminho 3151" d="M217.929,228.1c-.048.117-.094.235-.133.353-.022.068-.043.136-.061.2-.031.11-.061.219-.086.328-.015.069-.03.137-.043.205-.021.11-.039.219-.053.327-.009.063-.018.126-.024.188-.012.121-.021.24-.027.358,0,.045-.006.092-.008.137a7.84,7.84,0,0,0,.082,1.39,7.324,7.324,0,0,0,.319,1.344c-.076.028-.134.066-.207.1a25.623,25.623,0,0,1,5.592,2.31h0a1.254,1.254,0,0,1,.7-.632c.024-.009.051-.005.075-.012a1.16,1.16,0,0,1,.873.048c1.526.694,4.737,4.035,6.113,5.513a39.258,39.258,0,0,0-1.457-4.954,1.265,1.265,0,0,1,2.368-.888,48.209,48.209,0,0,1,2.329,9.382c.5.59,1.047,1.23,1.633,1.95l.006.007c1.114,1.381,2.13,2.742,3.064,4.083q.2.285.391.567c.517.76,1.015,1.515,1.471,2.258h0c-.077-.37-.166-.757-.263-1.153-.005-.021-.01-.043-.015-.064-.1-.4-.207-.811-.323-1.227l0-.009c-.021-.076-.043-.152-.065-.228q-.1-.343-.2-.685-.043-.153-.09-.305-.121-.4-.245-.8l-.1-.308q-.1-.307-.194-.607c-.028-.086-.057-.177-.086-.263-.081-.249-.161-.49-.24-.726l-.1-.312c-.066-.2-.132-.389-.194-.572l-.1-.279c-.057-.165-.112-.323-.165-.471-.027-.077-.054-.154-.079-.226-.061-.171-.12-.339-.171-.485l-.053-.147c-.043-.12-.086-.233-.118-.327l-.028-.078-.1-.263-.018-.05-.028-.075c-.5-1.328-.937-2.5-1.344-3.548a68.848,68.848,0,0,0-2.876-6.985c-1.346-2.507-2.207-2.211-5.105-3.529a5.148,5.148,0,0,1-1.695-1.242,7.337,7.337,0,0,1-1.71-4.235l-3.552,1.332a6.117,6.117,0,0,0-3.329,2.613,5.211,5.211,0,0,0-.269.52C217.973,227.979,217.953,228.038,217.929,228.1Z" transform="translate(-134.892 -135.315)" fill="#2b9e36"/>
    <path id="Caminho_3152" data-name="Caminho 3152" d="M272.024,291.626h0Z" transform="translate(-166.063 -174.28)" fill="#80e895"/>
    <rect id="Retângulo_435" data-name="Retângulo 435" width="16.347" height="8.174" transform="translate(107.061 126.239)" fill="#0094ff"/>
    <rect id="Retângulo_436" data-name="Retângulo 436" width="16.347" height="21.797" transform="translate(107.061 104.442)" fill="#ecf5ff"/>
    <path id="Caminho_3153" data-name="Caminho 3153" d="M290.942,240.546v3.633H274.594v-3.633a6.554,6.554,0,0,1,2.607-5.168,5.378,5.378,0,0,0,1.934-4.187v.272H286.4v-.272a5.377,5.377,0,0,0,1.935,4.187,6.557,6.557,0,0,1,2.607,5.168Z" transform="translate(-167.533 -139.737)" fill="#0094ff"/>
    <path id="Caminho_3154" data-name="Caminho 3154" d="M292.459,226.708v.273h-7.266v-3.633h7.266Z" transform="translate(-173.592 -135.253)" fill="#423e35"/>
    <path id="Caminho_3155" data-name="Caminho 3155" d="M292.459,213.656v3.633h-7.266v-3.633a.911.911,0,0,1,.908-.908h5.449A.911.911,0,0,1,292.459,213.656Z" transform="translate(-173.592 -129.194)" fill="#ecf5ff"/>
    <path id="Caminho_3156" data-name="Caminho 3156" d="M291.551,212.748H286.1a.911.911,0,0,0-.908.908v1.816a.911.911,0,0,1,.908-.908h5.449a.911.911,0,0,1,.908.908v-1.816A.911.911,0,0,0,291.551,212.748Z" transform="translate(-173.592 -129.194)" fill="#99c5ff"/>
    <rect id="Retângulo_437" data-name="Retângulo 437" width="16.347" height="1.816" transform="translate(107.061 104.442)" fill="#99c5ff"/>
    <rect id="Retângulo_438" data-name="Retângulo 438" width="16.347" height="1.816" transform="translate(107.061 124.423)" fill="#99c5ff"/>
    <path id="Caminho_3157" data-name="Caminho 3157" d="M278.227,316.022v-3.633h-3.633v8.174h16.348v-1.816h-9.991a2.725,2.725,0,0,1-2.725-2.724Z" transform="translate(-167.533 -186.15)" fill="#0070ff"/>
    <rect id="Retângulo_439" data-name="Retângulo 439" width="3.633" height="18.164" transform="translate(107.061 106.259)" fill="#d2dae0"/>
    <path id="Caminho_3158" data-name="Caminho 3158" d="M278.227,240.546a6.554,6.554,0,0,1,2.607-5.168,5.35,5.35,0,0,0,1.92-3.914h-3.619v-.272a5.378,5.378,0,0,1-1.934,4.187,6.554,6.554,0,0,0-2.607,5.168v3.633h3.633Z" transform="translate(-167.533 -139.737)" fill="#0070ff"/>
    <path id="Caminho_3159" data-name="Caminho 3159" d="M288.813,226.981c0-.091.014-.181.014-.273v-3.36h-3.633v3.633Z" transform="translate(-173.592 -135.253)" fill="#2c2c2c"/>
    <path id="Caminho_3160" data-name="Caminho 3160" d="M286.1,216.988a.911.911,0,0,0-.908.908v1.816h3.633v-2.725Z" transform="translate(-173.592 -131.618)" fill="#d2dae0"/>
    <path id="Caminho_3161" data-name="Caminho 3161" d="M289.735,212.748H286.1a.911.911,0,0,0-.908.908v1.816a.911.911,0,0,1,.908-.908h2.725v-.908A.911.911,0,0,1,289.735,212.748Z" transform="translate(-173.592 -129.194)" fill="#7191bc"/>
    <rect id="Retângulo_440" data-name="Retângulo 440" width="3.633" height="1.816" transform="translate(107.061 124.423)" fill="#7191bc"/>
    <rect id="Retângulo_441" data-name="Retângulo 441" width="3.633" height="1.816" transform="translate(107.061 104.442)" fill="#7191bc"/>
    <path id="Caminho_3162" data-name="Caminho 3162" d="M287.356,349.914a19.709,19.709,0,0,1,4.614,12.565c-1.467-1.708-3.77-3.862-6.765-7.277a39.711,39.711,0,0,1-7.544-12.872,34.148,34.148,0,0,1,9.694,7.585Z" transform="translate(-169.286 -203.264)" fill="#fdcb8c"/>
    <path id="Caminho_3163" data-name="Caminho 3163" d="M303.82,316.3a19.6,19.6,0,0,1,4.6,12.559c-1.467-1.709-3.77-3.862-6.76-7.267a43.5,43.5,0,0,1-7.593-12.9,34.262,34.262,0,0,1,9.755,7.609Z" transform="translate(-178.662 -184.033)" fill="#fdcb8c"/>
    <path id="Caminho_3164" data-name="Caminho 3164" d="M318.872,279.239a19.59,19.59,0,0,1,4.609,12.554c-1.467-1.708-3.764-3.851-6.76-7.267a43.682,43.682,0,0,1-7.612-12.918A34.179,34.179,0,0,1,318.872,279.239Z" transform="translate(-187.262 -162.839)" fill="#fdcb8c"/>
    <path id="Caminho_3165" data-name="Caminho 3165" d="M333.022,244.683a19.688,19.688,0,0,1,4.6,12.569c-1.467-1.708-3.764-3.851-6.76-7.267a39.882,39.882,0,0,1-7.552-12.895,34.535,34.535,0,0,1,9.71,7.592Z" transform="translate(-195.38 -143.109)" fill="#fdcb8c"/>
    <path id="Caminho_3166" data-name="Caminho 3166" d="M268,338.522a39.712,39.712,0,0,0,7.544,12.872c3,3.416,5.3,5.569,6.765,7.277,1.611,1.872,2.238,3.213,1.709,5.116-3.945,4.663-9.821,8.024-15.795,5.6-8.461-3.451-8.664-15.088-5.811-22.1l4.734-11.616A28.816,28.816,0,0,0,268,338.522Z" transform="translate(-159.627 -199.457)" fill="#e38b1f"/>
    <path id="Caminho_3167" data-name="Caminho 3167" d="M297.9,323.077c1.846,2.134,2.4,3.578,1.445,5.936l-3.012,7.405a23.377,23.377,0,0,1-3.8,6.169c.529-1.9-.1-3.244-1.709-5.116a19.709,19.709,0,0,0-4.614-12.565,34.148,34.148,0,0,0-9.694-7.585,28.8,28.8,0,0,1-.854-2.851.036.036,0,0,0,0-.026l6.464-15.867a39.483,39.483,0,0,0,1.414,4.331,43.494,43.494,0,0,0,7.6,12.9C294.134,319.215,296.436,321.368,297.9,323.077Z" transform="translate(-168.147 -178.255)" fill="#e38b1f"/>
    <path id="Caminho_3168" data-name="Caminho 3168" d="M313,286.063c1.835,2.138,2.39,3.572,1.43,5.93l.015.006-6.464,15.867c.96-2.356.4-3.8-1.445-5.936a19.6,19.6,0,0,0-4.6-12.559,34.263,34.263,0,0,0-9.755-7.609,39.488,39.488,0,0,1-1.414-4.331l6.447-15.847a40.527,40.527,0,0,0,1.414,4.3,43.689,43.689,0,0,0,7.612,12.918C309.231,282.212,311.528,284.354,313,286.063Z" transform="translate(-176.776 -157.109)" fill="#e38b1f"/>
    <path id="Caminho_3169" data-name="Caminho 3169" d="M329.062,259.325l-6.021,14.822-.014-.007c.96-2.356.4-3.792-1.43-5.93a19.586,19.586,0,0,0-4.609-12.554,34.18,34.18,0,0,0-9.763-7.63,40.537,40.537,0,0,1-1.414-4.3.035.035,0,0,0,0-.026l3.013-7.405a23.46,23.46,0,0,1,3.6-5.949l.039.033a24.342,24.342,0,0,0,.843,2.855,39.882,39.882,0,0,0,7.552,12.895c3,3.415,5.293,5.558,6.76,7.267C329.456,255.537,330.01,256.971,329.062,259.325Z" transform="translate(-185.377 -139.255)" fill="#e38b1f"/>
    <path id="Caminho_3170" data-name="Caminho 3170" d="M337.242,215.679a11.151,11.151,0,0,1,6.138,6.235c2.081,4.934,1.505,11.362-.328,15.868l-5.164,12.693c.949-2.354.394-3.787-1.441-5.926a19.688,19.688,0,0,0-4.6-12.569,34.533,34.533,0,0,0-9.71-7.591,24.34,24.34,0,0,1-.843-2.855l-.039-.033C325.2,216.723,331.174,213.211,337.242,215.679Z" transform="translate(-194.204 -130.406)" fill="#e38b1f"/>
    <path id="Caminho_3171" data-name="Caminho 3171" d="M287.356,349.914a34.16,34.16,0,0,0-9.694-7.586c.242.689.553,1.489.924,2.356a34.261,34.261,0,0,1,8.159,6.732,19.2,19.2,0,0,1,4.451,10.2c.277.3.54.589.774.862A19.71,19.71,0,0,0,287.356,349.914Z" transform="translate(-169.286 -203.263)" fill="#a47033"/>
    <path id="Caminho_3172" data-name="Caminho 3172" d="M294.065,308.686c.28.733.619,1.542,1,2.392a34.486,34.486,0,0,1,8.146,6.72,19.106,19.106,0,0,1,4.442,10.2c.274.3.535.584.768.857a19.6,19.6,0,0,0-4.6-12.559A34.256,34.256,0,0,0,294.065,308.686Z" transform="translate(-178.662 -184.033)" fill="#a47033"/>
    <path id="Caminho_3173" data-name="Caminho 3173" d="M309.107,271.609c.283.733.624,1.546,1,2.4a34.343,34.343,0,0,1,8.148,6.736,19.094,19.094,0,0,1,4.451,10.2c.275.3.537.585.771.857a19.585,19.585,0,0,0-4.609-12.554A34.175,34.175,0,0,0,309.107,271.609Z" transform="translate(-187.261 -162.84)" fill="#a47033"/>
    <path id="Caminho_3174" data-name="Caminho 3174" d="M333.021,244.684a34.528,34.528,0,0,0-9.709-7.591c.243.69.557,1.492.927,2.36a34.48,34.48,0,0,1,8.172,6.733,19.158,19.158,0,0,1,4.442,10.209c.275.3.538.586.771.857A19.677,19.677,0,0,0,333.021,244.684Z" transform="translate(-195.38 -143.11)" fill="#a47033"/>
    <path id="Caminho_3175" data-name="Caminho 3175" d="M283.726,358.675c-1.467-1.709-3.77-3.862-6.765-7.278a39.707,39.707,0,0,1-7.544-12.873,28.814,28.814,0,0,1-.854-2.85l-1.456,3.572,3.966,9.4a29.171,29.171,0,0,0,6.331,8.674,5.179,5.179,0,0,1,.187,7.152h0a8.753,8.753,0,0,1-14.351-2.027,11.305,11.305,0,0,0,6.4,6.944c5.974,2.422,11.849-.939,15.795-5.6C285.965,361.887,285.337,360.547,283.726,358.675Z" transform="translate(-161.043 -199.46)" fill="#c76b1c"/>
    <path id="Caminho_3176" data-name="Caminho 3176" d="M304.931,323.076c-1.467-1.709-3.77-3.862-6.76-7.267a43.5,43.5,0,0,1-7.593-12.9,39.481,39.481,0,0,1-1.414-4.331l-1.2,2.942,3.074,7.29a50.468,50.468,0,0,0,7.1,12.279,8.054,8.054,0,0,1,1.235,8.121l-1.882,4.622a19.866,19.866,0,0,1,.369,3.641c1.611,1.872,2.238,3.213,1.709,5.116a23.378,23.378,0,0,0,3.8-6.169l3.012-7.405C307.336,326.654,306.777,325.209,304.931,323.076Z" transform="translate(-175.176 -178.254)" fill="#c76b1c"/>
    <path id="Caminho_3177" data-name="Caminho 3177" d="M319.547,286.063c-1.467-1.708-3.764-3.851-6.76-7.267a43.693,43.693,0,0,1-7.613-12.918,40.587,40.587,0,0,1-1.414-4.3l-1.534,3.77,3.073,7.29a50.467,50.467,0,0,0,7.1,12.279,8.054,8.054,0,0,1,1.235,8.121l-1.365,3.356a20.321,20.321,0,0,1,.814,5.533c1.846,2.134,2.4,3.578,1.445,5.936L320.99,292l-.012-.007C321.937,289.635,321.382,288.2,319.547,286.063Z" transform="translate(-183.327 -157.109)" fill="#c76b1c"/>
    <path id="Caminho_3178" data-name="Caminho 3178" d="M333.982,253.4c-1.467-1.708-3.764-3.851-6.76-7.267a39.886,39.886,0,0,1-7.553-12.895,24.335,24.335,0,0,1-.843-2.855l-.039-.033a24.68,24.68,0,0,0-1.848,2.582l2.882,6.835a50.463,50.463,0,0,0,7.1,12.279,8.054,8.054,0,0,1,1.236,8.121l-1.019,2.5a20.314,20.314,0,0,1,.821,5.539c1.835,2.139,2.39,3.572,1.43,5.93l.015.006,6.021-14.822C336.371,256.97,335.817,255.536,333.982,253.4Z" transform="translate(-191.737 -139.254)" fill="#c76b1c"/>
    <path id="Caminho_3179" data-name="Caminho 3179" d="M350.271,215.688a10.757,10.757,0,0,0-6.224-.589,9.232,9.232,0,0,1,6.428,3.856,14.106,14.106,0,0,1,1.6,13.8L349,240.337a20.1,20.1,0,0,1,.482,4.223c1.835,2.138,2.389,3.572,1.441,5.925l5.164-12.693c1.833-4.506,2.408-10.934.328-15.868a11.151,11.151,0,0,0-6.139-6.236Z" transform="translate(-207.232 -130.415)" fill="#c76b1c"/>
    <path id="Caminho_3180" data-name="Caminho 3180" d="M315.436,215.695a10.666,10.666,0,0,0-4.761-.776,10.737,10.737,0,0,1,2.2.611,11.148,11.148,0,0,1,6.138,6.235c2.081,4.934,1.505,11.361-.328,15.868l-3.239,7.962-1.924,4.731-4.1,10.085-1.924,4.737-4.534,11.131-1.928,4.736-3.013,7.406a21.71,21.71,0,0,1-1.585,3.112,24.4,24.4,0,0,1-2.211,3.056c-2.906,3.434-6.859,6.153-11.127,6.383,5.226.985,10.207-2.107,13.686-6.219a23.373,23.373,0,0,0,3.8-6.169l3.012-7.405,6.464-15.867,6.021-14.822,5.164-12.693c1.833-4.506,2.408-10.934.328-15.868a11.151,11.151,0,0,0-6.139-6.232Z" transform="translate(-172.398 -130.421)" fill="#844921"/>
    <path id="Caminho_3181" data-name="Caminho 3181" d="M288.354,360.25a.708.708,0,0,0,.239.6,1.415,1.415,0,0,0,.593.3,2.923,2.923,0,0,0,1.328.057.953.953,0,0,0,.6-.305,1.134,1.134,0,0,0,.163-.653,1.033,1.033,0,0,0-.1-.6C290.709,358.9,288.481,359.386,288.354,360.25Z" transform="translate(-175.396 -212.952)" fill="#f2b574"/>
    <path id="Caminho_3182" data-name="Caminho 3182" d="M284.905,352.482a.565.565,0,0,1,.326-.056.447.447,0,0,1,.3.579.642.642,0,0,1-.847.34C284.314,353.091,284.595,352.619,284.905,352.482Z" transform="translate(-173.199 -209.033)" fill="#f2b574"/>
    <path id="Caminho_3183" data-name="Caminho 3183" d="M300.745,373.9a.6.6,0,0,0-.317.194.3.3,0,0,0-.021.351.34.34,0,0,0,.143.1.752.752,0,0,0,.488.02.637.637,0,0,0,.359-.235C301.748,373.819,301.057,373.8,300.745,373.9Z" transform="translate(-182.261 -221.282)" fill="#f2b574"/>
    <path id="Caminho_3184" data-name="Caminho 3184" d="M303.212,376.273a.514.514,0,0,0-.286.322.237.237,0,0,0,.007.15c.048.109.188.137.307.144a.946.946,0,0,0,.431-.048.386.386,0,0,0,.248-.331C303.92,376.043,303.513,376.126,303.212,376.273Z" transform="translate(-183.722 -222.601)" fill="#f2b574"/>
    <path id="Caminho_3185" data-name="Caminho 3185" d="M294.252,364.839a1.344,1.344,0,0,0-.718.733c-.134.46.455.626.8.592a2.571,2.571,0,0,0,.554-.117.683.683,0,0,0,.278-.15.781.781,0,0,0,.136-.209.853.853,0,0,0,.134-.621.544.544,0,0,0-.325-.324A1.109,1.109,0,0,0,294.252,364.839Z" transform="translate(-178.348 -216.05)" fill="#f2b574"/>
    <path id="Caminho_3186" data-name="Caminho 3186" d="M298.169,369.6a.285.285,0,0,0,.128.055,1.282,1.282,0,0,0,1.049-.233c.318-.246-.179-.69-.478-.611C298.657,368.864,297.881,369.345,298.169,369.6Z" transform="translate(-180.972 -218.394)" fill="#f2b574"/>
    <path id="Caminho_3187" data-name="Caminho 3187" d="M287.619,357.036a.359.359,0,0,0-.039.386.389.389,0,0,0,.315.121c.371.011,1.783-.339,1.26-.978C288.8,356.134,287.83,356.7,287.619,357.036Z" transform="translate(-174.934 -211.312)" fill="#f2b574"/>
    <path id="Caminho_3188" data-name="Caminho 3188" d="M334.653,256.483a.705.705,0,0,0,.239.6,1.419,1.419,0,0,0,.593.3,2.923,2.923,0,0,0,1.328.057.953.953,0,0,0,.6-.3,1.138,1.138,0,0,0,.163-.654,1.036,1.036,0,0,0-.1-.6C337.007,255.132,334.78,255.62,334.653,256.483Z" transform="translate(-201.861 -153.639)" fill="#f2b574"/>
    <path id="Caminho_3189" data-name="Caminho 3189" d="M331.2,248.72a.566.566,0,0,1,.326-.056.448.448,0,0,1,.3.579.643.643,0,0,1-.848.34C330.612,249.327,330.893,248.855,331.2,248.72Z" transform="translate(-199.664 -149.721)" fill="#f2b574"/>
    <path id="Caminho_3190" data-name="Caminho 3190" d="M347.044,270.129a.6.6,0,0,0-.317.194.3.3,0,0,0-.021.351.338.338,0,0,0,.143.1.754.754,0,0,0,.488.02.636.636,0,0,0,.359-.235C348.047,270.053,347.356,270.035,347.044,270.129Z" transform="translate(-208.726 -161.968)" fill="#f2b574"/>
    <path id="Caminho_3191" data-name="Caminho 3191" d="M349.507,272.507a.514.514,0,0,0-.286.322.237.237,0,0,0,.007.15c.048.109.188.137.307.144a.944.944,0,0,0,.431-.048.386.386,0,0,0,.248-.331C350.217,272.276,349.809,272.36,349.507,272.507Z" transform="translate(-210.185 -163.287)" fill="#f2b574"/>
    <path id="Caminho_3192" data-name="Caminho 3192" d="M340.55,261.073a1.344,1.344,0,0,0-.718.733c-.134.46.455.626.8.592a2.573,2.573,0,0,0,.554-.117.692.692,0,0,0,.278-.15.8.8,0,0,0,.135-.209.856.856,0,0,0,.134-.621.547.547,0,0,0-.325-.324A1.114,1.114,0,0,0,340.55,261.073Z" transform="translate(-204.812 -156.736)" fill="#f2b574"/>
    <path id="Caminho_3193" data-name="Caminho 3193" d="M344.468,265.835a.283.283,0,0,0,.128.056,1.28,1.28,0,0,0,1.048-.233c.318-.246-.179-.69-.477-.611C344.956,265.1,344.18,265.582,344.468,265.835Z" transform="translate(-207.437 -159.083)" fill="#f2b574"/>
    <path id="Caminho_3194" data-name="Caminho 3194" d="M333.918,253.269a.358.358,0,0,0-.038.386.386.386,0,0,0,.315.121c.371.012,1.783-.339,1.26-.977C335.1,252.367,334.129,252.931,333.918,253.269Z" transform="translate(-201.399 -151.998)" fill="#f2b574"/>
    <path id="Caminho_3195" data-name="Caminho 3195" d="M305.007,325.946a.706.706,0,0,0-.382.521,1.419,1.419,0,0,0,.059.663,2.915,2.915,0,0,0,.656,1.155.955.955,0,0,0,.577.347,1.136,1.136,0,0,0,.643-.209,1.036,1.036,0,0,0,.458-.4C307.4,327.227,305.8,325.6,305.007,325.946Z" transform="translate(-184.69 -193.872)" fill="#f2b574"/>
    <path id="Caminho_3196" data-name="Caminho 3196" d="M320.6,345.19a.6.6,0,0,0-.317.194.3.3,0,0,0-.021.351.338.338,0,0,0,.143.1.751.751,0,0,0,.488.02.636.636,0,0,0,.359-.235C321.6,345.114,320.908,345.1,320.6,345.19Z" transform="translate(-193.608 -204.874)" fill="#f2b574"/>
    <path id="Caminho_3197" data-name="Caminho 3197" d="M301.756,321.179a.609.609,0,0,0-.317.194.3.3,0,0,0-.021.351.343.343,0,0,0,.143.1.75.75,0,0,0,.487.019.636.636,0,0,0,.359-.235C302.759,321.1,302.069,321.086,301.756,321.179Z" transform="translate(-182.839 -191.149)" fill="#f2b574"/>
    <path id="Caminho_3198" data-name="Caminho 3198" d="M317.476,341.209a.514.514,0,0,0-.286.322.24.24,0,0,0,.007.15c.048.109.188.137.307.144a.943.943,0,0,0,.432-.048.386.386,0,0,0,.248-.33C318.184,340.978,317.777,341.062,317.476,341.209Z" transform="translate(-191.876 -202.558)" fill="#f2b574"/>
    <path id="Caminho_3199" data-name="Caminho 3199" d="M312.022,331.2a1.346,1.346,0,0,0-.718.733c-.134.46.455.626.8.592a2.607,2.607,0,0,0,.554-.117.686.686,0,0,0,.278-.15.781.781,0,0,0,.135-.209.857.857,0,0,0,.135-.621.545.545,0,0,0-.325-.324A1.11,1.11,0,0,0,312.022,331.2Z" transform="translate(-188.505 -196.822)" fill="#f2b574"/>
    <path id="Caminho_3200" data-name="Caminho 3200" d="M316.979,338.425a.291.291,0,0,0,.129.056,1.28,1.28,0,0,0,1.048-.233c.318-.246-.179-.69-.478-.611C317.466,337.692,316.692,338.172,316.979,338.425Z" transform="translate(-191.724 -200.576)" fill="#f2b574"/>
    <path id="Caminho_3201" data-name="Caminho 3201" d="M313.166,337.947a.351.351,0,0,0,.006.214c.054.113.2.134.329.129a1.917,1.917,0,0,0,.581-.124.224.224,0,0,0,.129-.092.188.188,0,0,0,.016-.09.572.572,0,0,0-.23-.45C313.554,337.208,313.247,337.5,313.166,337.947Z" transform="translate(-189.573 -200.443)" fill="#f2b574"/>
    <path id="Caminho_3202" data-name="Caminho 3202" d="M305.62,322.844a.359.359,0,0,0-.317.221.385.385,0,0,0,.113.318c.233.289,1.418,1.134,1.562.321C307.075,323.156,306.014,322.784,305.62,322.844Z" transform="translate(-185.085 -192.122)" fill="#f2b574"/>
    <path id="Caminho_3203" data-name="Caminho 3203" d="M319.657,284.909a.707.707,0,0,0-.382.521,1.413,1.413,0,0,0,.059.662,2.918,2.918,0,0,0,.656,1.157.951.951,0,0,0,.577.346,1.137,1.137,0,0,0,.643-.208,1.035,1.035,0,0,0,.457-.4C322.052,286.188,320.457,284.559,319.657,284.909Z" transform="translate(-193.064 -170.414)" fill="#f2b574"/>
    <path id="Caminho_3204" data-name="Caminho 3204" d="M333.82,307.659a.607.607,0,0,0-.317.194.3.3,0,0,0-.021.351.343.343,0,0,0,.143.1.753.753,0,0,0,.487.019.637.637,0,0,0,.359-.235C334.823,307.584,334.132,307.566,333.82,307.659Z" transform="translate(-201.167 -183.421)" fill="#f2b574"/>
    <path id="Caminho_3205" data-name="Caminho 3205" d="M317.447,282.609a.6.6,0,0,0-.317.194.3.3,0,0,0-.021.351.334.334,0,0,0,.143.1.754.754,0,0,0,.488.02.636.636,0,0,0,.359-.235C318.449,282.533,317.759,282.515,317.447,282.609Z" transform="translate(-191.808 -169.102)" fill="#f2b574"/>
    <path id="Caminho_3206" data-name="Caminho 3206" d="M332.127,300.172a.514.514,0,0,0-.286.322.241.241,0,0,0,.007.15c.048.109.188.137.307.144a.944.944,0,0,0,.431-.048.386.386,0,0,0,.248-.331C332.835,299.941,332.427,300.025,332.127,300.172Z" transform="translate(-200.25 -179.1)" fill="#f2b574"/>
    <path id="Caminho_3207" data-name="Caminho 3207" d="M326.286,296.137a1.344,1.344,0,0,0-.718.733c-.134.46.455.626.8.592a2.576,2.576,0,0,0,.554-.117.691.691,0,0,0,.278-.15.786.786,0,0,0,.135-.209.857.857,0,0,0,.135-.621.545.545,0,0,0-.325-.324A1.109,1.109,0,0,0,326.286,296.137Z" transform="translate(-196.659 -176.779)" fill="#f2b574"/>
    <path id="Caminho_3208" data-name="Caminho 3208" d="M331.243,303.361a.287.287,0,0,0,.129.055,1.281,1.281,0,0,0,1.048-.233c.318-.246-.179-.69-.478-.611C331.732,302.628,330.956,303.109,331.243,303.361Z" transform="translate(-199.878 -180.533)" fill="#f2b574"/>
    <path id="Caminho_3209" data-name="Caminho 3209" d="M328.857,299.377a.349.349,0,0,0,.006.214c.053.113.2.134.328.128a1.891,1.891,0,0,0,.581-.124.223.223,0,0,0,.129-.092.2.2,0,0,0,.016-.09.571.571,0,0,0-.231-.45C329.245,298.638,328.938,298.927,328.857,299.377Z" transform="translate(-198.542 -178.396)" fill="#f2b574"/>
    <path id="Caminho_3210" data-name="Caminho 3210" d="M324.43,291.671a.36.36,0,0,0-.317.221.389.389,0,0,0,.114.318c.233.289,1.418,1.133,1.562.32C325.886,291.984,324.825,291.611,324.43,291.671Z" transform="translate(-195.837 -174.304)" fill="#f2b574"/>
    <path id="Caminho_3211" data-name="Caminho 3211" d="M329.123,221.343a7.5,7.5,0,0,0-1.928,2.769,1.5,1.5,0,0,0-.1.885c.164.6.883.834,1.509.906a16.087,16.087,0,0,0,2.726,0,17.383,17.383,0,0,0,4.355-.616,4.839,4.839,0,0,0,1.76-.93,2.5,2.5,0,0,0,.887-1.717,2.541,2.541,0,0,0-.851-1.868,7.135,7.135,0,0,0-3.27-1.682,5.03,5.03,0,0,0-3.221.814A9.628,9.628,0,0,0,329.123,221.343Z" transform="translate(-197.528 -132.791)" fill="#f5b44e"/>
    <path id="Caminho_3212" data-name="Caminho 3212" d="M351.75,234.45a6.243,6.243,0,0,0-.063,2.857,3.964,3.964,0,0,0,1.136,2.191,1.928,1.928,0,0,0,2.224.34,2.1,2.1,0,0,0,.757-.947,4.348,4.348,0,0,0,.093-3.077c-.282-.869-.963-2.235-1.88-2.563A1.9,1.9,0,0,0,351.75,234.45Z" transform="translate(-211.522 -140.878)" fill="#f5b44e"/>
    <path id="Caminho_3213" data-name="Caminho 3213" d="M309.809,252.125a13.577,13.577,0,0,0-.922,2.369,3.41,3.41,0,0,0-.056,1.783,1.495,1.495,0,0,0,2.557.768,5,5,0,0,0,.9-1.159l1.374-2.185a3.535,3.535,0,0,0,.587-1.3,3.651,3.651,0,0,0-.392-1.882,1.993,1.993,0,0,0-.814-1.132,1.274,1.274,0,0,0-1.3.2,7.711,7.711,0,0,0-1.935,2.531Z" transform="translate(-187.05 -150.085)" fill="#f5b44e"/>
    <path id="Caminho_3214" data-name="Caminho 3214" d="M295.545,287.187a13.57,13.57,0,0,0-.922,2.369,3.41,3.41,0,0,0-.056,1.783,1.495,1.495,0,0,0,2.557.768,5,5,0,0,0,.9-1.157l1.374-2.185a3.545,3.545,0,0,0,.587-1.3,3.654,3.654,0,0,0-.392-1.882,2,2,0,0,0-.814-1.132,1.275,1.275,0,0,0-1.3.2,7.711,7.711,0,0,0-1.935,2.529Z" transform="translate(-178.897 -170.128)" fill="#f5b44e"/>
    <path id="Caminho_3215" data-name="Caminho 3215" d="M281.281,322.252a13.563,13.563,0,0,0-.922,2.369,3.406,3.406,0,0,0-.056,1.782,1.495,1.495,0,0,0,2.557.768,4.984,4.984,0,0,0,.9-1.157l1.374-2.185a3.534,3.534,0,0,0,.587-1.3,3.655,3.655,0,0,0-.392-1.882,2,2,0,0,0-.814-1.132,1.275,1.275,0,0,0-1.3.2A7.708,7.708,0,0,0,281.281,322.252Z" transform="translate(-170.743 -190.171)" fill="#f5b44e"/>
    <path id="Caminho_3216" data-name="Caminho 3216" d="M264.512,364.861a15.121,15.121,0,0,0-.725,6.8,3.472,3.472,0,0,0,.766,1.861,1.954,1.954,0,0,0,2.013.537,2.313,2.313,0,0,0,1.34-1.438,9.2,9.2,0,0,0,.328-1.864c.266-1.879,1.135-3.7,1.577-5.565a3.506,3.506,0,0,0-.273-2.927,2.327,2.327,0,0,0-1.765-.867C265.631,361.32,264.984,363.337,264.512,364.861Z" transform="translate(-161.277 -214.165)" fill="#f5b44e"/>
    <path id="Caminho_3217" data-name="Caminho 3217" d="M277.254,378.737a5.14,5.14,0,0,0,1.191,2.332,2.289,2.289,0,0,0,2.537.5,2.241,2.241,0,0,0,1.131-1.839,4.809,4.809,0,0,0-.438-2.106,5.426,5.426,0,0,0-.861-1.561,2.459,2.459,0,0,0-1.558-.885C276.972,374.916,276.838,377.308,277.254,378.737Z" transform="translate(-168.947 -222.029)" fill="#f5b44e"/>
    <path id="Caminho_3218" data-name="Caminho 3218" d="M270.335,302.172c2.365,7.445-2.119,17.077-10.571,19.761s-17.671-2.595-20.036-10.04,3.252-13.51,11.7-16.193S267.97,294.726,270.335,302.172Z" transform="translate(-147.292 -175.928)" fill="#fc1f1f"/>
    <path id="Caminho_3219" data-name="Caminho 3219" d="M263.762,285a7.335,7.335,0,0,0,.712.576,1.524,1.524,0,0,1-.995,1.92l-.814.259a1.5,1.5,0,0,1-1.549-.383,7.122,7.122,0,0,1-.958-1.3c-1.223-2.056-2.146-5.166-1.16-5.977l2.551-.81A6.524,6.524,0,0,0,263.762,285Z" transform="translate(-158.38 -167.226)" fill="#06aa0e"/>
    <path id="Caminho_3220" data-name="Caminho 3220" d="M255.642,290.949c1.307-.455,3.73-.759,4.835.069,2.031,1.521,4.428-.508,4.6-.65-.6,3.174-6.82,3.762-6.82,3.762,1.81,3.17.891,5.333.891,5.333-2.185.694-5.761-2.984-5.761-2.984-1.242,1.141-2.255,5.53-2.255,5.53-3.563-1.114-2.846-3.909-2.846-3.909a6.074,6.074,0,0,1-6.027-1.3c3.644-1.157,2.932-.875,4.87-2.349a9.278,9.278,0,0,1,3.412-1.885l.285-.163a7.112,7.112,0,0,0,.958,1.3,1.5,1.5,0,0,0,1.55.383l.814-.259a1.524,1.524,0,0,0,.995-1.92,7.322,7.322,0,0,1-.712-.576Z" transform="translate(-149.049 -173.562)" fill="#037701"/>
    <path id="Caminho_3221" data-name="Caminho 3221" d="M270.335,302.172c2.365,7.445-2.119,17.077-10.571,19.761s-17.671-2.595-20.036-10.04,3.252-13.51,11.7-16.193S267.97,294.726,270.335,302.172Z" transform="translate(-147.292 -175.928)" fill="#ff3f28"/>
    <path id="Caminho_3222" data-name="Caminho 3222" d="M241.485,318.26a10.681,10.681,0,0,1-.445-4.621,10.274,10.274,0,0,0-1.313,9.19c2.365,7.445,11.584,12.723,20.036,10.04a16.468,16.468,0,0,0,10.8-12.106,15.979,15.979,0,0,1-9.039,7.536C253.07,330.984,243.85,325.705,241.485,318.26Z" transform="translate(-147.291 -186.864)" fill="#c82919"/>
    <path id="Caminho_3223" data-name="Caminho 3223" d="M263.762,285a7.335,7.335,0,0,0,.712.576,1.524,1.524,0,0,1-.995,1.92l-.814.259a1.5,1.5,0,0,1-1.549-.383,7.122,7.122,0,0,1-.958-1.3c-1.223-2.056-2.146-5.166-1.16-5.977l2.551-.81A6.524,6.524,0,0,0,263.762,285Z" transform="translate(-158.38 -167.226)" fill="#006e24"/>
    <path id="Caminho_3224" data-name="Caminho 3224" d="M255.642,290.949c1.307-.455,3.73-.759,4.835.069,2.031,1.521,4.428-.508,4.6-.65-.6,3.174-6.82,3.762-6.82,3.762,1.81,3.17.891,5.333.891,5.333-2.185.694-5.761-2.984-5.761-2.984-1.242,1.141-2.255,5.53-2.255,5.53-3.563-1.114-2.846-3.909-2.846-3.909a6.074,6.074,0,0,1-6.027-1.3c3.644-1.157,2.932-.875,4.87-2.349a9.278,9.278,0,0,1,3.412-1.885l.285-.163a7.112,7.112,0,0,0,.958,1.3,1.5,1.5,0,0,0,1.55.383l.814-.259a1.524,1.524,0,0,0,.995-1.92,7.322,7.322,0,0,1-.712-.576Z" transform="translate(-149.049 -173.562)" fill="#00822d"/>
    <path id="Caminho_3225" data-name="Caminho 3225" d="M252.946,306.472s.685-4.284,2.118-5.486c0,0,3.858,3.588,6.327,2.8a7.679,7.679,0,0,0-.822-6.157s4.25-.028,6.5-1.572a12.924,12.924,0,0,0-1.389-.435,3.785,3.785,0,0,1-1.145.053,14.162,14.162,0,0,1-4.924,1.457c1.81,3.17.891,5.333.891,5.333-2.185.694-5.761-2.984-5.761-2.984-1.242,1.141-2.255,5.53-2.255,5.53-3.563-1.114-2.846-3.91-2.846-3.91a6.056,6.056,0,0,1-3.639.057,14.162,14.162,0,0,0-1.375,1.5,7.815,7.815,0,0,0,3.787-.367A5.825,5.825,0,0,0,252.946,306.472Z" transform="translate(-150.401 -176.568)" fill="#c82919"/>
    <path id="Caminho_3226" data-name="Caminho 3226" d="M289.423,293.109c.086-.009.169-.021.253-.035C289.592,293.089,289.508,293.1,289.423,293.109Z" transform="translate(-176.009 -175.109)" fill="#06aa0e"/>
    <path id="Caminho_3227" data-name="Caminho 3227" d="M293.918,291.381l.156-.1Z" transform="translate(-178.578 -174.085)" fill="#06aa0e"/>
    <path id="Caminho_3228" data-name="Caminho 3228" d="M290.242,292.945c.092-.018.182-.043.271-.066C290.424,292.9,290.334,292.926,290.242,292.945Z" transform="translate(-176.477 -174.998)" fill="#06aa0e"/>
    <path id="Caminho_3229" data-name="Caminho 3229" d="M293.243,291.729q.119-.065.227-.129Q293.362,291.666,293.243,291.729Z" transform="translate(-178.193 -174.267)" fill="#06aa0e"/>
    <path id="Caminho_3230" data-name="Caminho 3230" d="M291.784,292.212a5.321,5.321,0,0,0,.6-.278A5.244,5.244,0,0,1,291.784,292.212Z" transform="translate(-177.359 -174.458)" fill="#06aa0e"/>
    <path id="Caminho_3231" data-name="Caminho 3231" d="M287.714,293.116c.08.012.159.022.239.027C287.873,293.138,287.794,293.128,287.714,293.116Z" transform="translate(-175.032 -175.133)" fill="#06aa0e"/>
    <path id="Caminho_3232" data-name="Caminho 3232" d="M272.389,294.214a1.379,1.379,0,0,0-.052-.247A1.543,1.543,0,0,1,272.389,294.214Z" transform="translate(-166.242 -175.62)" fill="#06aa0e"/>
    <path id="Caminho_3233" data-name="Caminho 3233" d="M279.654,299.249c-.018-.033-.033-.065-.052-.1.019.034.03.065.049.1Z" transform="translate(-170.395 -178.582)" fill="#06aa0e"/>
    <path id="Caminho_3234" data-name="Caminho 3234" d="M285.919,292.56a2.7,2.7,0,0,0,.257.111A2.584,2.584,0,0,1,285.919,292.56Z" transform="translate(-174.006 -174.815)" fill="#06aa0e"/>
    <path id="Caminho_3235" data-name="Caminho 3235" d="M294.457,291.066l.106-.073Z" transform="translate(-178.886 -173.92)" fill="#06aa0e"/>
    <path id="Caminho_3236" data-name="Caminho 3236" d="M286.833,292.917c.08.024.16.047.24.063C286.993,292.964,286.913,292.941,286.833,292.917Z" transform="translate(-174.529 -175.019)" fill="#06aa0e"/>
    <path id="Caminho_3237" data-name="Caminho 3237" d="M288.58,293.183c.081,0,.162,0,.242-.006C288.742,293.182,288.661,293.184,288.58,293.183Z" transform="translate(-175.527 -175.168)" fill="#06aa0e"/>
    <path id="Caminho_3238" data-name="Caminho 3238" d="M291.347,292.588c-.1.039-.207.075-.315.107Q291.194,292.647,291.347,292.588Z" transform="translate(-176.929 -174.831)" fill="#06aa0e"/>
    <path id="Caminho_3239" data-name="Caminho 3239" d="M285.153,292.12a3.015,3.015,0,0,1-.368-.234A3.015,3.015,0,0,0,285.153,292.12Z" transform="translate(-173.358 -174.43)" fill="#06aa0e"/>
    <path id="Caminho_3240" data-name="Caminho 3240" d="M294.9,290.8l.055-.043Z" transform="translate(-179.14 -173.782)" fill="#06aa0e"/>
    <path id="Caminho_3241" data-name="Caminho 3241" d="M288.271,293.178c.043,0,.088,0,.132.005C288.359,293.182,288.315,293.181,288.271,293.178Z" transform="translate(-175.35 -175.169)" fill="#0bcc23"/>
    <path id="Caminho_3242" data-name="Caminho 3242" d="M287.394,293.064c.046.009.091.015.137.022C287.485,293.079,287.439,293.073,287.394,293.064Z" transform="translate(-174.849 -175.103)" fill="#0bcc23"/>
    <path id="Caminho_3243" data-name="Caminho 3243" d="M272.472,294.763a1.519,1.519,0,0,0-.013-.219A1.792,1.792,0,0,1,272.472,294.763Z" transform="translate(-166.312 -175.95)" fill="#0bcc23"/>
    <path id="Caminho_3244" data-name="Caminho 3244" d="M289.145,293.165c.04,0,.08,0,.119-.009C289.225,293.16,289.185,293.163,289.145,293.165Z" transform="translate(-175.85 -175.156)" fill="#0bcc23"/>
    <path id="Caminho_3245" data-name="Caminho 3245" d="M286.515,292.82c.045.016.091.028.136.043C286.606,292.848,286.56,292.836,286.515,292.82Z" transform="translate(-174.347 -174.964)" fill="#0bcc23"/>
    <path id="Caminho_3246" data-name="Caminho 3246" d="M290.013,293.051c.033-.006.066-.011.1-.017C290.079,293.04,290.046,293.045,290.013,293.051Z" transform="translate(-176.346 -175.086)" fill="#0bcc23"/>
    <path id="Caminho_3247" data-name="Caminho 3247" d="M293.774,291.549l.062-.038Z" transform="translate(-178.496 -174.216)" fill="#0bcc23"/>
    <path id="Caminho_3248" data-name="Caminho 3248" d="M293.191,291.917l.022-.012Z" transform="translate(-178.163 -174.441)" fill="#0bcc23"/>
    <path id="Caminho_3249" data-name="Caminho 3249" d="M295.118,290.6c-.025.02-.057.043-.09.069l.09-.069Z" transform="translate(-179.213 -173.695)" fill="#0bcc23"/>
    <path id="Caminho_3250" data-name="Caminho 3250" d="M294.7,290.913l.083-.06C294.762,290.873,294.734,290.892,294.7,290.913Z" transform="translate(-179.028 -173.84)" fill="#0bcc23"/>
    <path id="Caminho_3251" data-name="Caminho 3251" d="M291.767,292.585l.007,0Z" transform="translate(-177.349 -174.828)" fill="#0bcc23"/>
    <path id="Caminho_3252" data-name="Caminho 3252" d="M290.942,292.837l-.068.018Z" transform="translate(-176.838 -174.974)" fill="#0bcc23"/>
    <path id="Caminho_3253" data-name="Caminho 3253" d="M294.283,291.215l.074-.051C294.333,291.179,294.309,291.2,294.283,291.215Z" transform="translate(-178.787 -174.017)" fill="#0bcc23"/>
    <path id="Caminho_3254" data-name="Caminho 3254" d="M285.762,292.487c-.039-.019-.079-.033-.118-.054C285.683,292.454,285.722,292.469,285.762,292.487Z" transform="translate(-173.849 -174.743)" fill="#0bcc23"/>
    <path id="Caminho_3255" data-name="Caminho 3255" d="M271.58,295.585l-.011-.006a1.5,1.5,0,0,1-.643,1.034A1.513,1.513,0,0,0,271.58,295.585Z" transform="translate(-165.436 -176.541)" fill="#06aa0e"/>
    <path id="Caminho_3256" data-name="Caminho 3256" d="M276.4,304.457a6.619,6.619,0,0,0-.9-5.076,24.2,24.2,0,0,1-3.155.148Z" transform="translate(-166.251 -178.714)" fill="#31b03c"/>
    <path id="Caminho_3257" data-name="Caminho 3257" d="M262.256,295.127c.117.2.236.373.356.541C262.492,295.5,262.372,295.322,262.256,295.127Z" transform="translate(-160.48 -176.283)" fill="#06aa0e"/>
    <path id="Caminho_3258" data-name="Caminho 3258" d="M263.088,296.391c.086.125.171.238.26.349C263.261,296.63,263.174,296.512,263.088,296.391Z" transform="translate(-160.955 -177.005)" fill="#078706"/>
    <path id="Caminho_3259" data-name="Caminho 3259" d="M264.2,298.9a1.528,1.528,0,0,1-1.205-.117,7.325,7.325,0,0,0-.981,7.968c.128-.542,1.085-4.4,2.239-5.461l.034-2.417Z" transform="translate(-159.912 -178.372)" fill="#31b03c"/>
    <ellipse id="Elipse_46" data-name="Elipse 46" cx="1.262" cy="1.756" rx="1.262" ry="1.756" transform="translate(113.558 123.634) rotate(-62.639)" fill="#ff8173"/>
    <path id="Caminho_3260" data-name="Caminho 3260" d="M301.491,303.782c.365.3.435.736.156.967a.972.972,0,0,1-1.166-.132c-.365-.3-.435-.737-.156-.968A.972.972,0,0,1,301.491,303.782Z" transform="translate(-182.143 -181.077)" fill="#ff8173"/>
    <path id="Caminho_3261" data-name="Caminho 3261" d="M297.608,310.46c.182.152.217.368.078.484a.487.487,0,0,1-.583-.066c-.183-.152-.218-.368-.078-.484A.486.486,0,0,1,297.608,310.46Z" transform="translate(-180.305 -184.971)" fill="#ff8173"/>
    <path id="Caminho_3262" data-name="Caminho 3262" d="M174.368,255.984s-.582-5.264,2.859-6.741,2.75,3.613,2.75,3.613,2.341-2.922,3.441-1.477-1.791,3.646-1.791,3.646a1.779,1.779,0,0,1,2.546.345c1.1,1.445-3.409,6.018-3.409,6.018l-1.445,1.1Z" transform="translate(-110.221 -149.901)" fill="#86c42b"/>
    <path id="Caminho_3263" data-name="Caminho 3263" d="M160.537,267.039s-4.918-1.964-7.259.959,2.75,3.613,2.75,3.613-3.441,1.477-2.341,2.922,3.991-.754,3.991-.754a1.779,1.779,0,0,0-.345,2.545c1.1,1.445,6.709-1.682,6.709-1.682l1.445-1.1Z" transform="translate(-97.835 -159.858)" fill="#86c42b"/>
    <path id="Caminho_3264" data-name="Caminho 3264" d="M162.172,256.5s-2.168,1.65.032,4.541c0,0-2,.377-2.168,1.65s5.641,1.414,5.641,1.414-5.264.582-3.614,2.75,6.914,1.585,6.914,1.585l1.445-1.1Z" transform="translate(-102.048 -154.203)" fill="#a7e340"/>
    <path id="Caminho_3265" data-name="Caminho 3265" d="M165.028,255.875s2.169-1.65,4.37,1.242c0,0,.9-1.822,2.168-1.65s-.141,5.814-.141,5.814,1.964-4.918,3.613-2.75-.314,7.086-.314,7.086l-1.445,1.1Z" transform="translate(-104.903 -153.578)" fill="#bdf052"/>
    <path id="Caminho_3266" data-name="Caminho 3266" d="M206.178,313.869h0a6.606,6.606,0,0,1-9.1-1.057L176.27,287.547a7.866,7.866,0,0,1,1.308-11.259h0a7.866,7.866,0,0,1,11.2,1.74l18.806,26.788A6.607,6.607,0,0,1,206.178,313.869Z" transform="translate(-110.304 -164.595)" fill="#fd922b"/>
    <path id="Caminho_3267" data-name="Caminho 3267" d="M197.773,313.493l-20.807-25.265a7.815,7.815,0,0,1-1.635-3.449,7.859,7.859,0,0,0,.942,8.54l20.807,25.265a6.6,6.6,0,0,0,11.472-5.919,6.607,6.607,0,0,1-10.781.828Z" transform="translate(-110.309 -170.368)" fill="#fc792c"/>
    <path id="Caminho_3268" data-name="Caminho 3268" d="M208.719,295.231a1.363,1.363,0,0,1-1.909-.257l-.847-1.114a1.362,1.362,0,1,1,2.168-1.65l.848,1.114A1.363,1.363,0,0,1,208.719,295.231Z" transform="translate(-128.143 -174.309)" fill="#fdb645"/>
    <path id="Caminho_3269" data-name="Caminho 3269" d="M194.625,283.308a1.362,1.362,0,0,1-1.909-.257l-.939-1.234c-.488-.643-1.376-1.419-3.441-.763a1.362,1.362,0,0,1-.825-2.6c2.666-.847,4.952-.24,6.435,1.709l.939,1.234a1.362,1.362,0,0,1-.259,1.907Z" transform="translate(-117.211 -166.541)" fill="#fdb645"/>
    <rect id="Retângulo_442" data-name="Retângulo 442" width="9.082" height="2.725" rx="1.362" transform="translate(68.643 125.487) rotate(-37.271)" fill="#e46718"/>
    <rect id="Retângulo_443" data-name="Retângulo 443" width="9.082" height="2.725" rx="1.362" transform="translate(77.929 128.691) rotate(-37.271)" fill="#e46718"/>
    <rect id="Retângulo_444" data-name="Retângulo 444" width="9.082" height="2.725" rx="1.362" transform="translate(83.886 137.906) rotate(-37.282)" fill="#e46718"/>
    <rect id="Retângulo_445" data-name="Retângulo 445" width="6.357" height="1.816" rx="0.908" transform="translate(78.166 136.5) rotate(-37.271)" fill="#e46718"/>
    <rect id="Retângulo_446" data-name="Retângulo 446" width="2.725" height="1.816" rx="0.908" transform="translate(83.948 132.099) rotate(-37.271)" fill="#e46718"/>
    <rect id="Retângulo_447" data-name="Retângulo 447" width="2.725" height="1.816" rx="0.908" transform="translate(92.716 139.122) rotate(-37.271)" fill="#e46718"/>
    <rect id="Retângulo_448" data-name="Retângulo 448" width="2.725" height="1.816" rx="0.908" transform="translate(88.552 141.149) rotate(-37.271)" fill="#e46718"/>
    <path id="Caminho_3270" data-name="Caminho 3270" d="M191.913,322.989h69.023v72.758a1.714,1.714,0,0,1-1.714,1.714H191.913Z" transform="translate(-120.271 -192.209)" fill="#ffc171"/>
    <path id="Caminho_3271" data-name="Caminho 3271" d="M185.7,419.222s-2.91-5.821-6.791-5.821-7.761-2.91-8.731-3.88-4.972.242-2,3.517a15.581,15.581,0,0,0,5.882,4.246l-7.761-.97s-1.94,0-1.94,2.91l1.94,1.94s-1.94.97-1.94,1.94,0,3.88,1.94,3.88c0,0-.97,0-.97,2.91l.97.97v2.91c0,1.94,3.88,2.911,3.88,2.911l8.653.865a3.631,3.631,0,0,0,1.986-.365l4.88-2.442Z" transform="translate(-104.518 -241.486)" fill="#faaba5"/>
    <path id="Caminho_3272" data-name="Caminho 3272" d="M171.167,460.79h4.541a.454.454,0,0,1,0,.908h-4.541a.454.454,0,0,1,0-.908Z" transform="translate(-108.153 -270.977)" fill="#ff9c94"/>
    <path id="Caminho_3273" data-name="Caminho 3273" d="M169.047,448.07H174.5a.454.454,0,0,1,0,.908h-5.449a.454.454,0,0,1,0-.908Z" transform="translate(-106.941 -263.706)" fill="#ff9c94"/>
    <path id="Caminho_3274" data-name="Caminho 3274" d="M171.167,437.47h4.541a.454.454,0,1,1,0,.908h-4.541a.454.454,0,1,1,0-.908Z" transform="translate(-108.153 -257.647)" fill="#ff9c94"/>
    <path id="Caminho_3275" data-name="Caminho 3275" d="M210.119,448.848,208.944,434.3s-.123-1.531-4.65-1.166-5.184,3.5-5.184,3.5l.982,12.163a3.291,3.291,0,0,0,3.412,2.785c.659.012,1.417-.006,2.273-.075C209.4,451.218,210.119,448.848,210.119,448.848Z" transform="translate(-124.386 -255.138)" fill="#ecf5ff"/>
    <path id="Caminho_3276" data-name="Caminho 3276" d="M203.473,445.532c.24,2.964,2.949,4.546,4.516,5.436a3.855,3.855,0,0,0,2.13-2.12L208.944,434.3s-.123-1.531-4.65-1.166-5.184,3.5-5.184,3.5l.186,2.3C202.919,438.642,203.04,440.173,203.473,445.532Z" transform="translate(-124.386 -255.138)" fill="#d6e5f5"/>
    <path id="Caminho_3277" data-name="Caminho 3277" d="M209.519,464.055a.462.462,0,0,1,.434.2.364.364,0,0,1-.2.521,22.751,22.751,0,0,1-6.872,1.742.389.389,0,1,1-.062-.766,22.032,22.032,0,0,0,6.521-1.651A.518.518,0,0,1,209.519,464.055Z" transform="translate(-126.265 -272.842)" fill="#9ad0ee"/>
    <path id="Caminho_3278" data-name="Caminho 3278" d="M202.1,458.434l5.884-.475a.389.389,0,1,1,.062.766l-5.884.475a.389.389,0,1,1-.062-.765Z" transform="translate(-125.853 -269.352)" fill="#9ad0ee"/>
    <path id="Caminho_3279" data-name="Caminho 3279" d="M201.38,449.645l4.526-.365a.389.389,0,1,1,.062.766l-4.526.365a.389.389,0,1,1-.062-.766Z" transform="translate(-125.441 -264.391)" fill="#9ad0ee"/>
    <path id="Caminho_3280" data-name="Caminho 3280" d="M206.305,439.847a10.016,10.016,0,0,1,2.091.06.385.385,0,0,1,.367.437.463.463,0,0,1-.526.323c-3.361-.431-4.887,1.009-4.95,1.071a.514.514,0,0,1-.64.047.343.343,0,0,1-.043-.538A6.081,6.081,0,0,1,206.305,439.847Z" transform="translate(-126.319 -258.99)" fill="#9ad0ee"/>
    <path id="Caminho_3281" data-name="Caminho 3281" d="M296.546,372.245a33.025,33.025,0,0,0-16.723,1.209c-15.079,5.023-56.954,19.746-58.2,28.742a2.86,2.86,0,0,0-.027.394v9.99s0,5.449,9.99,5.449c9.082,0,62.309-4.489,76.068-27.148a11.713,11.713,0,0,0-3.313-15.762A21.8,21.8,0,0,0,296.546,372.245Z" transform="translate(-137.237 -220.044)" fill="#00af8f"/>
    <path id="Caminho_3282" data-name="Caminho 3282" d="M230.679,417.96a5.1,5.1,0,0,1,4.675-5.087c17.872-1.462,45.278-10.4,45.278-17.049,0-5.308-4.359-12.065-6.71-15.324-17.952,6.209-51.184,18.736-52.295,26.736a2.862,2.862,0,0,0-.027.394v9.99s0,5.449,9.99,5.449c.761,0,1.84-.033,3.172-.1A5.111,5.111,0,0,1,230.679,417.96Z" transform="translate(-137.24 -225.082)" fill="#00947a"/>
    <path id="Caminho_3283" data-name="Caminho 3283" d="M314.875,359.865s2.91-5.821,6.79-5.821,7.761-2.91,8.731-3.881,4.971.242,2,3.517a15.563,15.563,0,0,1-5.881,4.244l7.761-.97s1.94,0,1.94,2.91l-1.94,1.94s1.94.97,1.94,1.94,0,3.88-1.94,3.88c0,0,.97,0,.97,2.911l-.97.97v2.91c0,1.94-3.88,2.91-3.88,2.91l-8.654.865a3.63,3.63,0,0,1-1.986-.365l-4.88-2.442Z" transform="translate(-190.558 -207.557)" fill="#ffceca"/>
    <path id="Caminho_3284" data-name="Caminho 3284" d="M319.416,384.8a19.017,19.017,0,0,0-4.331-12.462c-.132.236-.21.386-.21.386v15.522l4.88,2.442a3.63,3.63,0,0,0,1.986.365l8.654-.865s3.611-.908,3.855-2.719a11.543,11.543,0,0,1-3.076.8C326.342,388.844,319.416,388.939,319.416,384.8Z" transform="translate(-190.558 -220.418)" fill="#faaba5"/>
    <path id="Caminho_3285" data-name="Caminho 3285" d="M350.61,377.957h-4.541a.454.454,0,1,1,0-.908h4.541a.454.454,0,1,1,0,.908Z" transform="translate(-208.129 -223.11)" fill="#ff9c94"/>
    <path id="Caminho_3286" data-name="Caminho 3286" d="M351.523,390.677h-5.449a.454.454,0,0,1,0-.908h5.449a.454.454,0,0,1,0,.908Z" transform="translate(-208.132 -230.381)" fill="#ff9c94"/>
    <path id="Caminho_3287" data-name="Caminho 3287" d="M350.61,401.277h-4.541a.454.454,0,1,1,0-.908h4.541a.454.454,0,1,1,0,.908Z" transform="translate(-208.129 -236.44)" fill="#ff9c94"/>
    <path id="Caminho_3288" data-name="Caminho 3288" d="M99.916,384.27s8.4-8.878,32.763-11.756S174.54,371.868,182,374s8.777,18.426,3.419,19.769-37.566,11.248-62.1,9.569C105,402.083,100.427,390.607,99.916,384.27Z" transform="translate(-67.685 -219.736)" fill="#00af8f"/>
    <path id="Caminho_3289" data-name="Caminho 3289" d="M189.494,375.871a59.291,59.291,0,0,0-6.884-1.45c2.689,2.155,5.951,5.783,5.8,10.649-.231,7.69-54.453,18.142-75.39,13.127,3.539,3.54,9.125,6.42,17.791,7.013,24.531,1.679,56.738-8.225,62.1-9.569S196.955,378,189.494,375.871Z" transform="translate(-75.178 -221.608)" fill="#00947a"/>
    <path id="Caminho_3290" data-name="Caminho 3290" d="M293.813,375.548l1.389,17.2s.146,1.81,4.672,1.445,5.141-4.059,5.141-4.059l-1.161-14.382a3.619,3.619,0,0,0-3.457-3.339,19.311,19.311,0,0,0-2.275.055A4.532,4.532,0,0,0,293.813,375.548Z" transform="translate(-178.518 -220.453)" fill="#ecf5ff"/>
    <path id="Caminho_3291" data-name="Caminho 3291" d="M300.515,380.463c-.283-3.5-3.019-5.413-4.6-6.488a4.222,4.222,0,0,0-2.1,2.473l1.389,17.2s.146,1.81,4.672,1.445,5.141-4.059,5.141-4.059l-.219-2.716C301.173,388.61,301.027,386.8,300.515,380.463Z" transform="translate(-178.518 -221.353)" fill="#d6e5f5"/>
    <path id="Caminho_3292" data-name="Caminho 3292" d="M299.039,382.965a.454.454,0,0,1-.248-.854,19.68,19.68,0,0,1,6.854-1.957.454.454,0,0,1,.073.905,19.055,19.055,0,0,0-6.505,1.855A.451.451,0,0,1,299.039,382.965Z" transform="translate(-181.225 -224.884)" fill="#9ad0ee"/>
    <path id="Caminho_3293" data-name="Caminho 3293" d="M307.631,391.624l-5.886.475a.454.454,0,1,1-.073-.905l5.884-.475a.454.454,0,1,1,.073.905Z" transform="translate(-182.772 -230.923)" fill="#9ad0ee"/>
    <path id="Caminho_3294" data-name="Caminho 3294" d="M310.3,402.19l-4.526.365a.454.454,0,1,1-.073-.905l4.526-.365a.454.454,0,1,1,.073.905Z" transform="translate(-185.073 -236.963)" fill="#9ad0ee"/>
    <path id="Caminho_3295" data-name="Caminho 3295" d="M304.382,412.253a8.562,8.562,0,0,1-2.095-.1.454.454,0,1,1,.149-.9c3.371.557,4.878-1.12,4.94-1.192a.454.454,0,0,1,.69.59A5.5,5.5,0,0,1,304.382,412.253Z" transform="translate(-183.145 -241.891)" fill="#9ad0ee"/>
    <path id="Caminho_3296" data-name="Caminho 3296" d="M384.362,373.415a.449.449,0,0,1-.19-.043,29.552,29.552,0,0,0-17.062-1.311.454.454,0,0,1-.191-.888,29.884,29.884,0,0,1,17.635,1.375.454.454,0,0,1-.192.866Z" transform="translate(-220.108 -219.348)" fill="#00715c"/>
    <path id="Caminho_3297" data-name="Caminho 3297" d="M130.051,376.87a.454.454,0,0,1-.139-.886,142.009,142.009,0,0,1,31.806-5.557,156.646,156.646,0,0,1,38.031,2.735.454.454,0,1,1-.2.886,155.506,155.506,0,0,0-37.784-2.714,140.966,140.966,0,0,0-31.576,5.515A.446.446,0,0,1,130.051,376.87Z" transform="translate(-84.651 -219.212)" fill="#00715c"/>
    <path id="Caminho_3298" data-name="Caminho 3298" d="M203.742,432.347a.454.454,0,0,1-.033-.907c15.539-1.145,40.779-8.746,41.032-8.825a.454.454,0,0,1,.263.869c-.254.077-25.589,7.708-41.229,8.86A.19.19,0,0,1,203.742,432.347Z" transform="translate(-126.774 -249.145)" fill="#00715c"/>
  </g>
</svg>
