<svg xmlns="http://www.w3.org/2000/svg" width="37.285" height="42.396" viewBox="0 0 37.285 42.396">
  <g id="Artboard_24" data-name="Artboard 24" transform="translate(-4.75 -2.751)">
    <g id="CLEANING_PRODUCTS" data-name="CLEANING PRODUCTS" transform="translate(-15.629 -11.603)">
      <path id="Subtração_4" data-name="Subtração 4" d="M16853.588-4667H16820.1a.98.98,0,0,1-.7-.288.97.97,0,0,1-.293-.7v-18.418a4.3,4.3,0,0,1,4.287-4.285h2.432v-1.434a4.3,4.3,0,0,1,1.4-3.16v-4.746a.994.994,0,0,1,.99-.994h.254v-.7h-1.871v2.627a3.549,3.549,0,0,1-3.531,3.537,1.008,1.008,0,0,1-.707-.292,1,1,0,0,1-.287-.7v-6.291h-2.449a.974.974,0,0,1-.7-.292.982.982,0,0,1-.291-.7v-3.443a1,1,0,0,1,.994-.994h2.449v-.131a.994.994,0,0,1,.994-.99h12.145a3.83,3.83,0,0,1,2.594,1,3.819,3.819,0,0,1,1.23,2.488,3.865,3.865,0,0,1-.77,2.669,3.847,3.847,0,0,1-2.166,1.4v.8h.25a.982.982,0,0,1,.7.292.983.983,0,0,1,.293.7v5.131a4.309,4.309,0,0,1,1.02,2.775v13.85h1.75v-8.994a1,1,0,0,1,.5-.859l.283-.165-.283-.165a1,1,0,0,1-.5-.858v-2.048a.994.994,0,0,1,.5-.858l.287-.169-.287-.165a1,1,0,0,1-.5-.859v-3.469a7.341,7.341,0,0,1,3.52-6.206v-3.659a2.061,2.061,0,0,1,2.049-2.047h3.332a2.054,2.054,0,0,1,2.045,2.047v3.659a7.327,7.327,0,0,1,3.52,6.21v3.464a1,1,0,0,1-.5.859l-.287.165.287.169a.991.991,0,0,1,.5.858v2.048a1,1,0,0,1-.5.858l-.283.165.283.165a1,1,0,0,1,.5.859v9.662a3.367,3.367,0,0,1,1.336,2.674,3.34,3.34,0,0,1-1.336,2.673v4.272A.992.992,0,0,1,16853.588-4667Zm-2.564-3.816a.994.994,0,0,1,.99.994v.842h.58l0-2.623c-1.035.005-5.051.008-10.74.008-5.936,0-9.752,0-10.742-.008v2.623h.766v-.842a.994.994,0,0,1,.99-.994,1,1,0,0,1,.994.994v.842h1.012v-.842a.994.994,0,0,1,.99-.994,1,1,0,0,1,.994.994v.842h1.006v-.842a1,1,0,0,1,.994-.994.994.994,0,0,1,.99.994v.842h1.012v-.842a1,1,0,0,1,.994-.994.994.994,0,0,1,.99.994v.842h1.2v-.842a.994.994,0,0,1,.99-.994,1,1,0,0,1,.994.994v.842h1.012v-.842a.994.994,0,0,1,.99-.994,1,1,0,0,1,.994.994v.842h1.006v-.842A1,1,0,0,1,16851.023-4670.816Zm-27.631-17.894a2.31,2.31,0,0,0-2.3,2.3v17.429h8.043v-.469a15.373,15.373,0,0,0,.018-1.989l-.008,0-.006,0a.3.3,0,0,0-.02-.034h.016v-.757a3.292,3.292,0,0,1-1.189-1.57,3.272,3.272,0,0,1-.062-2.1,3.34,3.34,0,0,1,1.205-1.722,3.315,3.315,0,0,1,1.992-.66h5.3v-13.85a2.314,2.314,0,0,0-.674-1.625,2.254,2.254,0,0,0-1.619-.672h-3.977a2.29,2.29,0,0,0-1.193.338.952.952,0,0,1-.287.2,2.261,2.261,0,0,0-.82,1.756v2.428a.992.992,0,0,1-.99.99Zm7.686,12.416a1.33,1.33,0,0,0-.957.4,1.378,1.378,0,0,0-.4.96,1.4,1.4,0,0,0,.418.969,1.371,1.371,0,0,0,.955.39h21.479a1.36,1.36,0,0,0,1.357-1.358,1.36,1.36,0,0,0-1.357-1.358Zm19.8-2.974a.994.994,0,0,1,.994.99l.2,0h.521v-8.423l-1.277-.736a1,1,0,0,1-.5-.859,1,1,0,0,1,.5-.863l1.273-.732v-.905l-1.277-.736a1,1,0,0,1-.5-.858.992.992,0,0,1,.5-.859l1.281-.745v-2.889a5.256,5.256,0,0,0-5.25-5.25,5.2,5.2,0,0,0-3.709,1.536,5.234,5.234,0,0,0-1.541,3.714v2.894l1.277.736a1,1,0,0,1,.5.859,1,1,0,0,1-.5.859l-1.277.74v.905l1.277.732a1.006,1.006,0,0,1,.5.863,1,1,0,0,1-.5.859l-1.277.736v8.423h.725a.992.992,0,0,1,.988-.99.987.987,0,0,1,.7.288,1,1,0,0,1,.291.7h1.549a1,1,0,0,1,.994-.99.992.992,0,0,1,.99.99h1.553A.992.992,0,0,1,16850.881-4679.268Zm-20.775-17.141h3.977a4.221,4.221,0,0,1,1.277.195v-2.83h-6.15v2.733A4.211,4.211,0,0,1,16830.105-4696.409Zm-6.049-5.318h0v3.82a1.544,1.544,0,0,0,.557-1.193v-2.627h-.557Zm6.395,0h0v.7h3.66v-.7h-3.66Zm-6.395-5.686h0v3.7h11.154a1.854,1.854,0,0,0,1.854-1.853,1.837,1.837,0,0,0-.543-1.307,1.835,1.835,0,0,0-1.311-.542h-11.154Zm23.291,3.309a7.236,7.236,0,0,1,1.73.211v-1.946h-3.461v1.946A7.235,7.235,0,0,1,16847.348-4704.1Zm-26.734-2.187h0v1.459h1.459v-1.459h-1.459Zm25.068-.52a.061.061,0,0,0-.064.06v.871h3.461v-.253h0v-.618a.061.061,0,0,0-.064-.06Z" transform="translate(-16798.25 4723.75)" fill="#8897ad"/>
    </g>
  </g>
</svg>
