<svg xmlns="http://www.w3.org/2000/svg" width="43.005" height="44" viewBox="0 0 43.005 44">
  <path id="Artboard_22" data-name="Artboard 22" d="M45,31.5A3.5,3.5,0,0,0,41.5,28H37V18.72l1.86.27a1,1,0,0,0,.87-1.65L34.17,11A1,1,0,1,0,34,9H32.91A2.45,2.45,0,0,0,33,8.37V4.63A2.63,2.63,0,0,0,30.37,2H11.63A2.63,2.63,0,0,0,9,4.63V8.37A2,2,0,0,0,9.1,9H8a1,1,0,1,0-.17,2L2.25,17.34A1,1,0,0,0,2.88,19L5,19.26V38.87A5.13,5.13,0,0,0,10.13,44H29v1a1,1,0,0,0,1,1H41a1,1,0,0,0,1-1V35A3.63,3.63,0,0,0,45,31.5ZM11,4.63A.63.63,0,0,1,11.63,4H30.37a.63.63,0,0,1,.63.63V8.37a.63.63,0,0,1-.63.63H11.63A.63.63,0,0,1,11,8.37ZM5,17.24,10.45,11h21.1l4.92,5.63-1.64-.24a13.82,13.82,0,0,0-5.72.39,12.39,12.39,0,0,1-7.34.26,13.61,13.61,0,0,0-7.54,0,13.1,13.1,0,0,1-5.69.65ZM29,42H10.13A3.13,3.13,0,0,1,7,38.87V19.51l1.3.16A15,15,0,0,0,14.77,19a11.82,11.82,0,0,1,6.46,0,14.45,14.45,0,0,0,8.43-.25,11.71,11.71,0,0,1,4.89-.34l.45.07V28H29.5a3.31,3.31,0,0,0-.95.15A8.12,8.12,0,0,0,25,23.79c-1.14-.66-2.14.18-3.05,1V23a1,1,0,0,0-2,0v1.81c-.92-.85-1.9-1.68-3-1a8.08,8.08,0,0,0,1.62,14.72c1,.33,1.94-.33,2.42-.33a12.38,12.38,0,0,0,1.82.43c1.15,0,3.81-1.31,5.25-4A3.55,3.55,0,0,0,29,35Zm-2.52-8.77h0a6.11,6.11,0,0,1-3.71,3.34,9.88,9.88,0,0,0-1.89-.42,8.55,8.55,0,0,0-1.77.42,6.19,6.19,0,0,1-4.26-5.81,6.12,6.12,0,0,1,2.92-5.2c.69.4,1.74,1.94,3.17,1.94s2.41-1.5,3.14-1.9a6.28,6.28,0,0,1,2.73,3.69A3.45,3.45,0,0,0,26,31.5,3.4,3.4,0,0,0,26.48,33.23Zm15-.23H41a1,1,0,0,0-1,1V44H31c0-10.52,0-10.07-.05-10.25A1,1,0,0,0,30,33h-.5a1.5,1.5,0,0,1,0-3h12a1.5,1.5,0,0,1,0,3Z" transform="translate(-1.995 -2)" fill="#8897ad"/>
</svg>
