<svg xmlns="http://www.w3.org/2000/svg" width="41.931" height="44.829" viewBox="0 0 41.931 44.829">
  <g id="Artboard_14" data-name="Artboard 14" transform="translate(-3.034 -1.172)">
    <path id="Caminho_6257" data-name="Caminho 6257" d="M15,30a1,1,0,0,0-1,1V41a1,1,0,0,0,2,0V31A1,1,0,0,0,15,30Z" fill="#8897ad"/>
    <path id="Caminho_6258" data-name="Caminho 6258" d="M21,30a1,1,0,0,0-1,1V41a1,1,0,0,0,2,0V31A1,1,0,0,0,21,30Z" fill="#8897ad"/>
    <path id="Caminho_6259" data-name="Caminho 6259" d="M27,30a1,1,0,0,0-1,1V41a1,1,0,0,0,2,0V31A1,1,0,0,0,27,30Z" fill="#8897ad"/>
    <path id="Caminho_6260" data-name="Caminho 6260" d="M33,30a1,1,0,0,0-1,1V41a1,1,0,0,0,2,0V31A1,1,0,0,0,33,30Z" fill="#8897ad"/>
    <path id="Caminho_6261" data-name="Caminho 6261" d="M41.38,34.21l1.54-7.72a4,4,0,0,0-1.16-7.41,13.36,13.36,0,0,0-5.51-8.61,3.3,3.3,0,0,0,.13-4.78,3.34,3.34,0,0,0-3.13-.86V4.29a3.3,3.3,0,0,0-6.59,0v.5A3.29,3.29,0,0,0,24,5.47V3a1,1,0,0,0-1-1H11a1,1,0,0,0-1,1V6.8C6.8,14.27,7,13.66,7,14v5a4,4,0,0,0-1.92,7.49l1.54,7.72L4.09,39.57a1,1,0,0,0,.48,1.34A1.11,1.11,0,0,0,5,41a1,1,0,0,0,.91-.57L7.28,37.5,9,45.2a1,1,0,0,0,1,.8H38a1,1,0,0,0,1-.8l1.74-7.7,1.37,2.93A1,1,0,0,0,43,41a1.11,1.11,0,0,0,.43-.09,1,1,0,0,0,.48-1.34ZM40,31.16,38,27h2.79ZM39.72,19H27V14c0-.38-.06-.26-1.45-3.56a11.67,11.67,0,0,1,8.94,1.27A11.45,11.45,0,0,1,39.72,19ZM25.13,7.11a1.31,1.31,0,0,1,1.82,0,.983.983,0,0,0,1.67-.71V4.29a1.3,1.3,0,0,1,2.59,0V6.58a1,1,0,0,0,.61.93,1.12,1.12,0,0,0,1.28-.4,1.31,1.31,0,0,1,1.82,0,1.24,1.24,0,0,1,.38.91c0,.81-.63,1.09-.87,1.38a13.69,13.69,0,0,0-9.62-.89,1.28,1.28,0,0,1,.32-1.4ZM12,4H22V6H12Zm-.34,4H22.34l2.14,5h-15ZM9,15H25v4H9ZM7,21H41a2,2,0,0,1,0,4H37l-1.14-2.43a1.006,1.006,0,0,0-1.82.86l.8,1.57H13.16l.75-1.57a1.006,1.006,0,1,0-1.82-.86L11,25H7a2,2,0,0,1,0-4Zm.22,6H10L8,31.16Zm30,17H10.82L8.71,34.46,12.22,27H35.78l3.51,7.46Z" fill="#8897ad"/>
  </g>
</svg>
