<svg xmlns="http://www.w3.org/2000/svg" width="30.004" height="44" viewBox="0 0 30.004 44">
  <g id="Artboard_15" data-name="Artboard 15" transform="translate(-8.998 -2)">
    <path id="Caminho_6238" data-name="Caminho 6238" d="M39,6a4,4,0,0,0-4-4H13a4,4,0,0,0-1,7.86L9,44.92a1.05,1.05,0,0,0,.26.76A1,1,0,0,0,10,46H38a1,1,0,0,0,.74-.32,1.05,1.05,0,0,0,.26-.76L36,9.86A4,4,0,0,0,39,6ZM13.44,16H34.56l1.63,20H11.82Zm21-2H13.61l.4-4H34ZM11,6a2,2,0,0,1,2-2H35a2,2,0,0,1,0,4H13a2,2,0,0,1-2-2Zm.08,38,.57-6h24.7l.57,6Z" fill="#8897ad"/>
    <path id="Caminho_6239" data-name="Caminho 6239" d="M19.2,31.3A5.28,5.28,0,0,0,23,32.79a8.26,8.26,0,0,0,5.74-2.55c2.69-2.69,3.61-7,1.06-9.54-2.34-2.34-6.62-1.87-9.54,1.06S16.86,29,19.2,31.3Zm8.13-2.47a5.67,5.67,0,0,1-5.52,1.77,9.2,9.2,0,0,0,3.61-4.21,7.77,7.77,0,0,1,3.43-3.67c1.09,1.87.09,4.49-1.52,6.11Zm-5.66-5.66a6.34,6.34,0,0,1,4.32-2,3.7,3.7,0,0,1,1.21.2,9.24,9.24,0,0,0-3.62,4.22,7.83,7.83,0,0,1-3.43,3.67c-.96-1.63-.37-4.2,1.52-6.09Z" fill="#8897ad"/>
  </g>
</svg>
