<svg xmlns="http://www.w3.org/2000/svg" width="43.589" height="37.398" viewBox="0 0 43.589 37.398">
  <path id="Artboard_2" data-name="Artboard 2" d="M38.27,21.84l6.26-6.26a4.08,4.08,0,0,0,.58-5.19h0A4,4,0,0,0,39,9.82l-2.06,2.06-.75-1a4.92,4.92,0,0,0-3.45-2c-2.89-2.61-4.67-1.79-6.24-1.07a4.71,4.71,0,0,1-5,0c-1.57-.72-3.35-1.55-6.24,1.07a4.94,4.94,0,0,0-3.43,2l-.75,1L9,9.82a4,4,0,0,0-6.13.57,4.08,4.08,0,0,0,.58,5.19l6.26,6.26a3,3,0,0,0,2,.88,30.411,30.411,0,0,0,.55,3,5,5,0,0,0-4.61,5.86,17.83,17.83,0,0,0,2.17,5.17c1.27,2.11,2.53,3.23,3.74,3.39l.56,2.09-1,.25a1.008,1.008,0,0,0,.26,2,37.64,37.64,0,0,0,4.12-1.07,1,1,0,0,0-.51-1.93l-1,.26-.56-2.11a8,8,0,0,0,2.77-3.19c1.27,2.18,2.45,3.84,5.69,3.89,2.76,0,3.91-1.63,4.88-3.65a9.75,9.75,0,0,0,2.57,3.22L31,41.71l-1-.26a1,1,0,1,0-.52,1.93l3.86,1a1,1,0,1,0,.52-1.93l-1-.26.45-1.66c1.24-.11,2.52-1.24,3.82-3.39A17.87,17.87,0,0,0,39.32,32a5,5,0,0,0-4-5.78,32.491,32.491,0,0,0,.72-3.5A3,3,0,0,0,38.27,21.84Zm-4.1-.5A29.45,29.45,0,0,1,33,26.87a1,1,0,0,0,1.06,1.29,3.3,3.3,0,0,1,.84,0,3,3,0,0,1,2.43,3.48,16.18,16.18,0,0,1-1.91,4.49c-1.28,2.11-2.16,2.48-2.36,2.44-.69-.12-2.8-2.52-3.09-4.71a1,1,0,0,0-.83-.86,1.22,1.22,0,0,0-1.06.56c-.19.4-.37.8-.54,1.18-1.13,2.51-1.69,3.65-3.55,3.59-2.34,0-2.9-1-4.27-3.36-.27-.47-.56-1-.89-1.51a1,1,0,0,0-1.84.42c-.24,2.1-2.19,4.16-3.09,4.32-.21,0-1.08-.34-2.36-2.45a16.18,16.18,0,0,1-1.91-4.49,2.978,2.978,0,0,1,3.7-3.42,1,1,0,0,0,1.22-1.23,29.2,29.2,0,0,1-1-5.15,1,1,0,0,0-1.38-.83,1,1,0,0,1-1.09-.22L4.89,14.16a2.08,2.08,0,0,1-.35-2.63,2,2,0,0,1,3.07-.3l2.88,2.89A1,1,0,0,0,12,14l1.43-1.95a3,3,0,0,1,2.29-1.21,1,1,0,0,0,.64-.28c2.07-2,2.86-1.6,4.29-.94a6.66,6.66,0,0,0,6.66,0c1.43-.66,2.22-1,4.29.94a1,1,0,0,0,.65.28,2.93,2.93,0,0,1,2.3,1.21L36,14a1,1,0,0,0,1.52.12l2.88-2.89a2,2,0,0,1,3.07.3,2.08,2.08,0,0,1-.35,2.63l-6.26,6.26a1,1,0,0,1-1.19.16,1,1,0,0,0-1.5.76Z" transform="translate(-2.195 -7.091)" fill="#8897ad"/>
</svg>
