<svg xmlns="http://www.w3.org/2000/svg" width="42.995" height="43.742" viewBox="0 0 42.995 43.742">
  <g id="Artboard_5" data-name="Artboard 5" transform="translate(-2.995 -2.256)">
    <path id="Caminho_6233" data-name="Caminho 6233" d="M41.74,6A12.77,12.77,0,0,0,21.62,8.69a2.74,2.74,0,0,1-2.12,1.37A18,18,0,1,0,33.72,40.73c3.82-3.82,8.87-9.88,11.27-17.07a19.79,19.79,0,0,0,1-6.21A15.972,15.972,0,0,0,41.74,6Zm1.35,17C40.82,29.85,36,35.65,32.31,39.31A16,16,0,1,1,19.67,12.05a4.72,4.72,0,0,0,3.69-2.37,10.78,10.78,0,0,1,17-2.26,13.986,13.986,0,0,1,3.63,10,17.87,17.87,0,0,1-.9,5.58Z" fill="#8897ad"/>
    <path id="Caminho_6234" data-name="Caminho 6234" d="M25.2,12.55a3.39,3.39,0,0,1-3.35,2.37A13,13,0,1,0,30.3,37.11c2.78-2.78,7.78-8.43,10-15,1.28-3.81,1-9.51-2.06-12.56a7.88,7.88,0,0,0-13.04,3Zm13.16,9c-1.52,4.55-4.88,9.59-9.47,14.18a11.08,11.08,0,0,1-8.41,3.21,11.013,11.013,0,1,1,1.27-21.99,5.38,5.38,0,0,0,5.36-3.71A5.87,5.87,0,0,1,36.78,11c2.39,2.39,2.68,7.23,1.58,10.52Z" fill="#8897ad"/>
    <path id="Caminho_6235" data-name="Caminho 6235" d="M18,23a4,4,0,1,0,4,4A4,4,0,0,0,18,23Zm0,6a2,2,0,1,1,2-2A2,2,0,0,1,18,29Z" fill="#8897ad"/>
  </g>
</svg>
