<svg xmlns="http://www.w3.org/2000/svg" width="44.259" height="29.009" viewBox="0 0 44.259 29.009">
  <path id="Artboard_8" data-name="Artboard 8" d="M42.9,26.58l-.9-.15V16h.5a3.5,3.5,0,1,0,0-7H5.5A3.509,3.509,0,1,0,5,16V26.61a3.82,3.82,0,0,0-3,3.72V33a5,5,0,0,0,5,5H41a5,5,0,0,0,5-5V30.33a3.82,3.82,0,0,0-3.1-3.75ZM44,12.5A1.5,1.5,0,0,1,42.5,14H41a1,1,0,0,0-1,1V26.1a100.189,100.189,0,0,0-16-1.31V16h.5A3.5,3.5,0,0,0,28,12.5a3.45,3.45,0,0,0-.35-1.5H42.5A1.5,1.5,0,0,1,44,12.5Zm-40,0A1.5,1.5,0,0,1,5.5,11h19a1.5,1.5,0,0,1,0,3H23a1,1,0,0,0-1,1v9.84A99.8,99.8,0,0,0,7,26.27V15a1,1,0,0,0-1-1H5.5A1.5,1.5,0,0,1,4,12.5ZM44,33a3,3,0,0,1-3,3H7a3,3,0,0,1-3-3V30.33a1.81,1.81,0,0,1,1.48-1.78c2.21-.42,4.42-.74,6.64-1l4.17,4.17a1,1,0,1,0,1.42-1.42l-3.06-3.05c1.94-.19,3.87-.3,5.81-.37l4.83,4.84a1,1,0,1,0,1.42-1.42l-3.49-3.48c.41,0,1.46-.09,5.26.09l4.81,4.81a1,1,0,1,0,1.42-1.42l-3.19-3.2a100.063,100.063,0,0,1,11,1.45A1.81,1.81,0,0,1,44,30.33Z" transform="translate(-1.741 -8.991)" fill="#8897ad"/>
</svg>
