<svg xmlns="http://www.w3.org/2000/svg" width="22.195" height="20.153" viewBox="0 0 22.195 20.153">
  <path id="Artboard_30" data-name="Artboard 30" d="M1.485,9.582a.5.5,0,0,1,.5,0l.061.035c.131-1.009.288-2.063.479-3.082A1.927,1.927,0,0,1,4.42,4.977h.842A2.522,2.522,0,0,1,7.518,6.389l.575-1.584a.5.5,0,0,1,.2-.247v-1.6a.5.5,0,0,1,.5-.5h4.54a.5.5,0,0,1,.5.5v1.6a.5.5,0,0,1,.2.247l1.286,3.531a.409.409,0,0,1,.03.172V9.719l.288-.136a.471.471,0,0,1,.721.439V11.03h2.522a4.54,4.54,0,0,1,4.54,4.54v5.044a.5.5,0,0,1-.5.5H20.83a2.018,2.018,0,0,1-3.894,0H8.723a2.018,2.018,0,0,1-3.894,0h-3.1a.5.5,0,0,1-.5-.5V10.021A.5.5,0,0,1,1.485,9.582Zm17.4,2.457h-.5V15.57h4.036a3.531,3.531,0,0,0-3.531-3.531Zm0,9.584a1.009,1.009,0,1,0-1.009-1.009A1.009,1.009,0,0,0,18.883,21.623ZM16.361,20.11h.575a2.018,2.018,0,0,1,3.894,0h1.584V16.579h-4.54a.5.5,0,0,1-.5-.5V12.039H16.361ZM6.776,7.5A1.513,1.513,0,0,0,5.263,5.986H4.42a.913.913,0,0,0-.9.747c-.217,1.14-.393,2.3-.5,3.455l.938.565a.5.5,0,0,0,.565-.03l.842-.651A1.513,1.513,0,0,1,6.776,9.86Zm6.053-4.036H9.3V4.472h3.531Zm.378,2.018H8.92L8,8h6.124Zm1.135,4.54V9.012H7.785v1.513h0l.262.2a.5.5,0,0,0,.565.03l1.357-.817a1.513,1.513,0,0,1,1.69.091l.928.7a.5.5,0,0,0,.605,0l1.18-.565A.474.474,0,0,1,14.343,10.021Zm-7.567,11.6a1.009,1.009,0,1,0-1.009-1.009A1.009,1.009,0,0,0,6.776,21.623ZM2.236,20.11H4.829a2.018,2.018,0,0,1,3.894,0h6.628V10.818l-1.68.8a1.513,1.513,0,0,1-1.69-.086l-.928-.7a.5.5,0,0,0-.565-.03l-1.357.817a1.513,1.513,0,0,1-1.69-.091l-.868-.656a.5.5,0,0,0-.605,0l-.868.656a1.513,1.513,0,0,1-1.69.091l-.979-.6h-.05a.5.5,0,0,1-.146-.05Z" transform="translate(-1.227 -2.455)" fill="#687c96"/>
</svg>
