<svg xmlns="http://www.w3.org/2000/svg" width="98.097" height="101.869" viewBox="0 0 98.097 101.869">
  <path id="Caminho_6285" data-name="Caminho 6285" d="M95.26,43.49h-12.3v-12.3A3.288,3.288,0,0,0,79.673,27.9H24.563V21.235A13.946,13.946,0,0,0,10.628,7.3H3.766A3.288,3.288,0,0,0,.48,10.586v6.862A13.946,13.946,0,0,0,14.415,31.383h6.668v12.3a3.288,3.288,0,0,0,3.286,3.286h12.3V59.06h-12.3a3.288,3.288,0,0,0-3.286,3.286V74.678a3.288,3.288,0,0,0,3.286,3.286h12.3V90.07h-12.3a3.288,3.288,0,0,0-3.286,3.286v15.8h15.8a3.288,3.288,0,0,0,3.286-3.286v-12.3H52.175a3.288,3.288,0,0,0,3.286-3.286V77.98H79.5V90.086h-12.3a3.288,3.288,0,0,0-3.286,3.286v15.8h15.8a3.288,3.288,0,0,0,3.286-3.286v-12.3h12.3A3.288,3.288,0,0,0,98.577,90.3V46.775A3.337,3.337,0,0,0,95.26,43.49ZM3.96,17.448V10.78h6.668A10.472,10.472,0,0,1,21.084,21.235V27.9H14.415A10.472,10.472,0,0,1,3.96,17.448Zm32.71,88.225H24.58V93.566H36.67Zm42.809,0H67.373V93.566H79.479ZM95.065,90.086H82.975v-12.3A3.288,3.288,0,0,0,79.69,74.5H55.25a3.288,3.288,0,0,0-3.286,3.286v12.3h-11.8v-12.3A3.288,3.288,0,0,0,36.88,74.5H24.58V62.572h12.3a3.288,3.288,0,0,0,3.286-3.286V46.775A3.288,3.288,0,0,0,36.88,43.49H24.58V31.383h54.9v12.3a3.288,3.288,0,0,0,3.286,3.286h12.3V90.086Z" transform="translate(-0.48 -7.3)" fill="#fff"/>
</svg>
