<svg xmlns="http://www.w3.org/2000/svg" width="16.755" height="19.487" viewBox="0 0 16.755 19.487">
  <g id="Grupo_7227" data-name="Grupo 7227" transform="translate(-1.676)">
    <path id="Artboard_30" data-name="Artboard 30" d="M8.566,8.74c.129-.074-.143-.49-.015-.415l.05.029c.108-.831.237-1.7.395-2.538a1.587,1.587,0,0,1,1.558-1.284h.694A2.077,2.077,0,0,1,13.1,5.7l.474-1.3a.415.415,0,0,1,.162-.2V2.87a.415.415,0,0,1,.415-.415h3.739a.415.415,0,0,1,.415.415V4.187a.415.415,0,0,1,.162.2L19.531,7.3a.337.337,0,0,1,.025.141l-.025,1.383.237-.112a.388.388,0,0,1,.594.361C24.5,9.9,13.511,9.3,8.354,9.1A.415.415,0,0,1,8.566,8.74Zm3.928-2.131a1.246,1.246,0,0,0-1.246-1.246h-.694a.752.752,0,0,0-.739.615c-.179.939-.324,1.894-.415,2.846l.773.465a.415.415,0,0,0,.465-.025l.738-.162c.334-.249.727-.688,1.119-.548Zm4.985-3.324H14.57v.831h2.908Zm.312,1.662H14.259L13.5,7.025h5.043Zm.935,3.739V7.855h-5.4V9.1h0l.216.162a.415.415,0,0,0,.465.025l1.128-.352a1.107,1.107,0,0,1,1.305,0l.841.327a.415.415,0,0,0,.5,0L18.75,8.8A.391.391,0,0,1,18.725,8.686Z" transform="translate(-3.485 -2.455)" fill="#fff"/>
    <g id="Grupo_3002" data-name="Grupo 3002" transform="translate(0 1.893)">
      <g id="_01_Icons_Line_shopping-cart" data-name="01) Icons / Line /  shopping-cart" transform="translate(1.676 2.513)">
        <path id="shopping-cart" d="M12.567,15.08A1.675,1.675,0,1,1,14.243,13.4,1.678,1.678,0,0,1,12.567,15.08Zm0-2.513a.838.838,0,1,0,.838.838A.839.839,0,0,0,12.567,12.567ZM5.027,15.08A1.675,1.675,0,1,1,6.7,13.4,1.678,1.678,0,0,1,5.027,15.08Zm0-2.513a.838.838,0,1,0,.838.838A.839.839,0,0,0,5.027,12.567Zm9.634-1.676H5.189a2.087,2.087,0,0,1-2.066-1.75L2.939,8.036l0-.008V8.021L1.914,1.888A1.253,1.253,0,0,0,.674.838H.419A.419.419,0,1,1,.419,0H.676A2.1,2.1,0,0,1,2.728,1.675H16.337a.419.419,0,0,1,.4.534L15.064,8.074a.421.421,0,0,1-.4.3H3.845L3.95,9a1.252,1.252,0,0,0,1.238,1.05h9.473a.419.419,0,1,1,0,.838ZM2.868,2.513,3.707,7.54H14.346l1.436-5.027Z" fill="#fff"/>
      </g>
    </g>
  </g>
</svg>
