<?xml version="1.0" encoding="utf-8"?>
<!-- Generator: Adobe Illustrator 26.0.3, SVG Export Plug-In . SVG Version: 6.00 Build 0)  -->
<svg version="1.0" id="OUTLINE" xmlns="http://www.w3.org/2000/svg" xmlns:xlink="http://www.w3.org/1999/xlink" x="0px" y="0px"
	 viewBox="0 0 128 128" style="enable-background:new 0 0 128 128;" xml:space="preserve">
<style type="text/css">
	.st0{fill:#999797;}
</style>
<g>
	<path class="st0" d="M121.81,31.48c0-15.28-10.45-27.71-23.29-27.71c-6.59,0-12.88,3.37-17.27,9.12C76.99,7.29,70.84,3.77,64,3.77
		c-6.84,0-12.99,3.52-17.26,9.12c-4.39-5.75-10.68-9.12-17.27-9.12C16.63,3.77,6.19,16.2,6.19,31.48c0,14.7,9.67,26.75,21.83,27.65
		c1.16,4.57,6.63,18.49,31.05,30.1c-0.71,0.47-1.35,1.04-1.91,1.69l-11.67-5.84c-0.55-0.28-1.2-0.24-1.73,0.08
		c-0.52,0.32-0.84,0.89-0.84,1.51v20.13c0,0.61,0.32,1.19,0.84,1.51c0.28,0.18,0.61,0.26,0.93,0.26c0.27,0,0.54-0.06,0.79-0.19
		l8.45-4.23l-6.2,13.21c-0.31,0.66-0.18,1.45,0.33,1.98c0.51,0.53,1.29,0.69,1.97,0.41l5.21-2.19l1.64,5.41
		c0.21,0.7,0.84,1.2,1.57,1.25c0.04,0,0.09,0,0.13,0c0.68,0,1.31-0.39,1.6-1.02l3.82-8.13l3.82,8.13c0.29,0.63,0.92,1.02,1.6,1.02
		c0.04,0,0.09,0,0.13,0c0.73-0.05,1.36-0.55,1.57-1.25l1.64-5.41l5.21,2.19c0.68,0.28,1.46,0.12,1.97-0.41
		c0.51-0.53,0.64-1.32,0.33-1.98l-6.2-13.21l8.45,4.23c0.25,0.13,0.52,0.19,0.79,0.19c0.32,0,0.65-0.09,0.93-0.26
		c0.52-0.32,0.84-0.89,0.84-1.51V86.67c0-0.61-0.32-1.19-0.84-1.51c-0.52-0.32-1.18-0.35-1.73-0.08l-11.67,5.84
		c-0.55-0.65-1.19-1.22-1.91-1.69c24.41-11.6,29.88-25.52,31.05-30.1C112.15,58.23,121.81,46.18,121.81,31.48z M64,7.31
		c10.89,0,19.74,10.84,19.74,24.17c0,13.33-8.86,24.17-19.74,24.17c-10.89,0-19.74-10.84-19.74-24.17
		C44.26,18.16,53.11,7.31,64,7.31z M69.44,96.74c0,3-2.44,5.44-5.44,5.44c-3,0-5.44-2.44-5.44-5.44c0-3,2.44-5.44,5.44-5.44
		C67,91.29,69.44,93.73,69.44,96.74z M9.73,31.48c0-13.33,8.86-24.17,19.74-24.17c5.93,0,11.41,3.18,15.18,8.75
		c-2.49,4.41-3.95,9.72-3.95,15.42c0,5.7,1.46,11.01,3.95,15.42c-3.77,5.57-9.25,8.75-15.19,8.75C18.59,55.65,9.73,44.81,9.73,31.48
		z M36.17,67.49c-2.66-3.61-3.91-6.62-4.48-8.44c5.77-0.66,11.16-3.88,15.05-8.99c3.89,5.11,9.36,8.48,15.48,9.04v27.68
		C47.63,80.15,40.01,72.7,36.17,67.49z M46.46,89.54l8.97,4.48c-0.27,0.86-0.42,1.77-0.42,2.71c0,0.95,0.15,1.86,0.42,2.71
		l-8.97,4.48V89.54z M58.93,117.53l-0.87-2.87c-0.15-0.48-0.49-0.88-0.94-1.09c-0.45-0.21-0.98-0.22-1.44-0.03l-2.77,1.16
		l5.24-11.15c1.57,1.36,3.62,2.18,5.85,2.18c0.17,0,0.33-0.02,0.49-0.02L58.93,117.53z M72.32,113.54
		c-0.46-0.19-0.99-0.18-1.44,0.03c-0.45,0.21-0.8,0.61-0.94,1.09l-0.87,2.87l-3.11-6.62l3.21-6.84c0.24-0.17,0.46-0.34,0.68-0.53
		l5.24,11.15L72.32,113.54z M81.54,89.54v14.39l-8.97-4.48c0.27-0.86,0.42-1.77,0.42-2.71c0-0.95-0.15-1.86-0.42-2.71L81.54,89.54z
		 M65.77,86.79V59.11c6.12-0.55,11.59-3.92,15.48-9.04c3.89,5.1,9.28,8.32,15.05,8.99c-0.57,1.81-1.82,4.83-4.48,8.44
		C87.99,72.7,80.37,80.15,65.77,86.79z M98.52,55.65c-5.93,0-11.41-3.18-15.19-8.75c2.49-4.41,3.95-9.72,3.95-15.42
		c0-5.7-1.46-11.01-3.95-15.42c3.77-5.57,9.25-8.75,15.18-8.75c10.89,0,19.74,10.84,19.74,24.17
		C118.27,44.81,109.41,55.65,98.52,55.65z"/>
	<path class="st0" d="M75.16,29.1c0.02,0.09,2.22,9.26-4.91,15.48c-0.74,0.64-0.81,1.76-0.17,2.5c0.35,0.4,0.84,0.61,1.34,0.61
		c0.41,0,0.83-0.14,1.17-0.44c8.74-7.63,6.13-18.55,6.02-19.01c-0.24-0.95-1.2-1.53-2.15-1.29C75.5,27.18,74.92,28.15,75.16,29.1z"
		/>
	<path class="st0" d="M69.89,18.06c2.01,1.12,2.79,2.83,2.82,2.89c0.29,0.68,0.94,1.08,1.63,1.08c0.23,0,0.45-0.04,0.67-0.13
		c0.91-0.37,1.34-1.41,0.96-2.31c-0.12-0.29-1.26-2.89-4.37-4.62c-0.86-0.48-1.94-0.17-2.41,0.69
		C68.72,16.5,69.03,17.58,69.89,18.06z"/>
</g>
</svg>
