<?xml version="1.0" encoding="utf-8"?>
<!-- Generator: Adobe Illustrator 26.0.3, SVG Export Plug-In . SVG Version: 6.00 Build 0)  -->
<svg version="1.0" id="OUTLINE" xmlns="http://www.w3.org/2000/svg" xmlns:xlink="http://www.w3.org/1999/xlink" x="0px" y="0px"
	 viewBox="0 0 128 128" style="enable-background:new 0 0 128 128;" xml:space="preserve">
<style type="text/css">
	.st0{fill:#999797;}
</style>
<g>
	<path class="st0" d="M104.76,36.19l-8.74-14.74V12c0-1.26-1.02-2.27-2.27-2.27H34.26c-1.26,0-2.28,1.02-2.28,2.27v9.45l-8.78,14.8
		C23,36.6,22.89,37,22.89,37.41V116c0,1.26,1.02,2.28,2.27,2.28c29.02,0,48.63,0,77.68,0c1.26,0,2.28-1.02,2.28-2.28V37.41
		C105.11,37.01,104.96,36.54,104.76,36.19z M91.46,19.8H72.61v-5.52h18.85V19.8z M59.52,24.35h6.83l-7.06,11.9
		c-0.21,0.35-0.32,0.76-0.32,1.17v17.81H51.4V38.04L59.52,24.35z M60.5,19.8v-5.52h7.57v5.52H60.5z M36.54,14.28h19.41v5.52H36.54
		V14.28z M27.44,38.04l8.12-13.69h18.67l-7.06,11.9c-0.21,0.35-0.32,0.76-0.32,1.17V57.5c0,1.26,1.02,2.27,2.28,2.27h12.12
		c1.26,0,2.28-1.02,2.28-2.27V38.04l8.12-13.69h18.11l-6.84,11.52c-0.34,0.4-0.55,0.91-0.55,1.48v76.37H27.44V38.04z M100.56,113.72
		H86.91V38.04l6.82-11.51l6.82,11.51V113.72z"/>
	<path class="st0" d="M74.56,77.33c-0.03-0.03-0.06-0.05-0.09-0.08c-4.48-4.29-11.89-1.87-16.38,2.63
		c-4.71,4.71-6.86,12.16-2.52,16.51c4.39,4.39,11.87,2.12,16.51-2.52c5.33-5.33,6.44-12.58,2.52-16.51
		C74.58,77.35,74.57,77.34,74.56,77.33z M67.28,79.71c0.08-0.01,0.18-0.03,0.26-0.04c-2.58,2.19-3.7,4.58-4.65,6.63
		c-1.11,2.4-1.97,4.22-4.86,5.65C56.57,87.91,61.42,80.83,67.28,79.71z M63.13,94c2.04-1.8,3-3.87,3.89-5.77
		c1.1-2.36,2.07-4.45,5.16-6.28C73.44,85.93,68.88,92.69,63.13,94z"/>
	<path class="st0" d="M54.52,75.05c-1.5-6.37-6.69-12.25-12.71-10.83c-6.09,1.43-8.02,9.08-6.55,15.36
		c1.52,6.46,6.82,12.4,12.93,10.76c0.02-0.01,0.05-0.01,0.07-0.02C54.13,88.68,55.97,81.25,54.52,75.05z M49.82,82.96
		c-0.02,0.05-0.04,0.1-0.06,0.15c-0.45-3.11-1.73-5.13-2.92-6.98c-1.32-2.06-2.47-3.89-2.4-7.44C48.69,69.84,51.9,77.55,49.82,82.96
		z M39.96,71.67c0.02-0.06,0.06-0.13,0.08-0.2c0.45,3.19,1.76,5.24,2.96,7.12c1.36,2.12,2.46,3.88,2.35,7.35
		C41.07,84.81,37.89,77.06,39.96,71.67z"/>
</g>
</svg>
