<?xml version="1.0" encoding="utf-8"?>
<!-- Generator: Adobe Illustrator 26.0.3, SVG Export Plug-In . SVG Version: 6.00 Build 0)  -->
<svg version="1.0" id="OUTLINE" xmlns="http://www.w3.org/2000/svg" xmlns:xlink="http://www.w3.org/1999/xlink" x="0px" y="0px"
	 viewBox="0 0 128 128" style="enable-background:new 0 0 128 128;" xml:space="preserve">
<style type="text/css">
	.st0{fill:#999797;}
</style>
<path class="st0" d="M101.21,23.7h-4.13l-8.42-10.22c-0.43-0.52-1.08-0.83-1.76-0.83H41.09c-0.68,0-1.32,0.3-1.76,0.83L30.91,23.7
	h-4.13c-1.26,0-2.27,1.02-2.27,2.27v11.05c0,1.26,1.02,2.27,2.27,2.27h3.15l2.05,20.06c0,0,0,0,0,0l3.28,31.89l2.26,22.06
	c0.12,1.16,1.1,2.04,2.26,2.04h48.43c1.17,0,2.14-0.88,2.26-2.04l2.26-22.06l3.28-31.89c0,0,0,0,0,0l2.05-20.06h3.15
	c1.26,0,2.28-1.02,2.28-2.27V25.98C103.49,24.72,102.47,23.7,101.21,23.7z M42.16,17.2h43.68l5.35,6.5H36.81L42.16,17.2z
	 M88.42,88.74H39.58L36.77,61.4h54.46L88.42,88.74z M41.84,110.8l-1.8-17.51h47.91l-1.8,17.51H41.84z M91.7,56.85H36.3l-1.8-17.55
	h58.99L91.7,56.85z M98.94,34.75H29.06v-6.5h69.88V34.75z"/>
</svg>
