<?xml version="1.0" encoding="utf-8"?>
<!-- Generator: Adobe Illustrator 26.0.3, SVG Export Plug-In . SVG Version: 6.00 Build 0)  -->
<svg version="1.0" id="OUTLINE" xmlns="http://www.w3.org/2000/svg" xmlns:xlink="http://www.w3.org/1999/xlink" x="0px" y="0px"
	 viewBox="0 0 128 128" style="enable-background:new 0 0 128 128;" xml:space="preserve">
<style type="text/css">
	.st0{fill:#999797;}
</style>
<g>
	<path class="st0" d="M48.95,19.94c0.45,0,0.89-0.16,1.24-0.5c1.66-1.58,3.37-2.9,5.09-3.92c0.85-0.51,1.13-1.61,0.63-2.46
		c-0.51-0.85-1.61-1.13-2.46-0.63c-1.95,1.16-3.88,2.64-5.73,4.41c-0.72,0.68-0.75,1.82-0.06,2.54
		C48.01,19.76,48.48,19.94,48.95,19.94z"/>
	<path class="st0" d="M123.89,65.04c-0.35-2.3-0.81-4.57-1.36-6.75c-4.39-17.55-13.82-28.92-25.21-30.4
		c-0.49-0.06-0.99-0.1-1.49-0.13C87.46,12.13,75.88,3.16,64,3.16c-12.02,0-23.74,9.17-32.15,25.16c-1.08,2.09-2.08,4.2-2.97,6.29
		c-0.16,0.39-0.32,0.77-0.48,1.16C13.59,41.23,3.16,64.45,3.16,85.49c0,23.54,12.78,39.35,31.79,39.35c4.97,0,9.5-1.09,13.5-3.1
		c4.84,2.05,10.06,3.1,15.54,3.1c4.59,0,9.02-0.75,13.19-2.2c2.38,0.92,4.89,1.57,7.52,1.92c1.48,0.19,2.94,0.29,4.38,0.29
		c10.85,0,20.55-5.37,27.09-15.16c1.27-1.9,2.43-3.97,3.45-6.18c2.17-4.74,3.68-10.1,4.48-15.86c0.05-0.26,0.08-0.52,0.12-0.78
		c0.24-1.85,0.41-3.75,0.53-5.83C125.01,75.68,124.72,70.29,123.89,65.04z M116.12,80.45c-1.79-2.19-3.47-4.26-7.34-4.76
		c-3.86-0.51-6.02,1.05-8.32,2.7c-2.48,1.79-5.29,3.81-10.15,3.18c-4.86-0.63-7.05-3.31-8.99-5.67c-1.78-2.18-3.46-4.23-7.34-4.74
		c-3.83-0.5-5.98,1.02-8.26,2.66c-0.16-0.92-0.34-1.84-0.53-2.76c2.22-1.55,4.85-3,9.11-2.44c4.9,0.64,7.07,3.31,8.99,5.66
		c1.8,2.18,3.49,4.24,7.34,4.75c3.86,0.5,5.93-0.98,8.33-2.71c2.46-1.78,5.24-3.8,10.14-3.16c4.86,0.64,7.05,3.31,9,5.69
		c0.93,1.12,1.82,2.19,2.98,3.04c-0.07,0.99-0.15,1.94-0.24,2.87C118.75,83.6,117.36,81.96,116.12,80.45z M113.9,106.58
		c-2.74-1.03-4.21-3.23-5.42-5.05c-1.52-2.26-2.72-4.05-5.7-4.45c-2.98-0.38-4.59,1.04-6.64,2.84c-2.01,1.78-4.51,3.99-8.67,3.44
		c-4.16-0.54-6.01-3.32-7.5-5.55c-1.52-2.27-2.71-4.07-5.68-4.45c-2.98-0.39-4.6,1.03-6.65,2.84c-0.68,0.6-1.41,1.23-2.23,1.79
		c0.29-1.26,0.53-2.55,0.72-3.88c2.08-1.83,4.46-3.82,8.48-3.3c4.15,0.54,6.01,3.33,7.51,5.57c1.45,2.17,2.69,4.05,5.68,4.43
		c2.99,0.4,4.69-1.09,6.66-2.83c2.01-1.78,4.5-4,8.66-3.45c4.12,0.54,5.9,3.2,7.5,5.57c1.26,1.88,2.37,3.54,4.59,4.2
		C114.78,105.09,114.35,105.85,113.9,106.58z M58.09,51.77c1.51-0.83,2.55-2.42,2.55-4.26c0-2.69-2.19-4.88-4.88-4.88
		c-1.21,0-2.34,0.46-3.2,1.22c-2.48-2.83-5.21-5.14-8.15-6.74h30.83c-3.64,3.62-7.05,8.22-10.07,13.69
		c-1.13,2.03-2.17,4.11-3.06,6.17c-0.24,0.55-0.46,1.12-0.7,1.68C60.43,56.24,59.31,53.94,58.09,51.77z M56.22,48.7
		c-0.46-0.7-0.93-1.37-1.41-2.03c0.24-0.27,0.57-0.45,0.95-0.45c0.71,0,1.28,0.58,1.28,1.28C57.05,48.05,56.7,48.51,56.22,48.7z
		 M34.56,30.95h48.7c-1.31,0.74-2.62,1.59-3.9,2.57H33.31C33.71,32.66,34.13,31.8,34.56,30.95z M119.21,59.87
		c0.25,1.04,0.48,2.1,0.68,3.17c-2.89-0.97-4.39-3.15-5.72-5.15c-1.51-2.26-2.71-4.05-5.69-4.44c-2.98-0.39-4.6,1.03-6.64,2.83
		c-2.12,1.87-4.52,3.99-8.66,3.46c-4.15-0.54-6.01-3.33-7.5-5.57c-1.51-2.26-2.71-4.05-5.69-4.44c-3-0.39-4.6,1.03-6.64,2.83
		c-1.79,1.58-3.79,3.33-6.85,3.51c0.47-0.97,0.97-1.94,1.49-2.9c1.25-0.46,2.31-1.34,3.67-2.54c2.01-1.78,4.52-3.98,8.66-3.45
		c4.14,0.54,5.92,3.2,7.5,5.55c1.45,2.18,2.7,4.06,5.69,4.45c2.98,0.39,4.68-1.11,6.64-2.84c2.01-1.78,4.51-3.99,8.66-3.45
		c4.14,0.54,5.92,3.21,7.5,5.56C117.22,57.84,118.04,59.05,119.21,59.87z M120.87,76.53c-2.12-2.58-5.02-6.12-11.29-6.95
		c-6.31-0.81-10.01,1.86-12.71,3.81c-2.14,1.53-3.31,2.38-5.76,2.06c-2.44-0.32-3.36-1.44-5.02-3.46c-2.11-2.58-4.99-6.12-11.3-6.95
		c-4.72-0.62-8.03,0.78-10.46,2.29c-0.31-1.18-0.66-2.35-1.03-3.51c0.48-1.39,1.02-2.78,1.6-4.16c5.35,0.43,8.63-2.45,10.83-4.39
		c2-1.76,2.54-2.13,3.8-1.96c1.25,0.16,1.69,0.65,3.17,2.87c1.69,2.54,4.26,6.38,10.02,7.14c5.76,0.75,9.22-2.3,11.51-4.32
		c2-1.76,2.55-2.13,3.8-1.96c1.25,0.16,1.69,0.65,3.19,2.89c1.63,2.43,4.06,6.04,9.32,7c0.46,3.32,0.72,6.69,0.73,10.06
		C121.12,76.82,121,76.69,120.87,76.53z M116.3,50.7c-1.63-1.57-3.84-2.93-7.03-3.35c-5.76-0.75-9.22,2.3-11.51,4.31
		c-2.01,1.77-2.56,2.13-3.8,1.97c-1.19-0.16-1.61-0.53-3.17-2.89c-1.7-2.53-4.27-6.37-10.02-7.12c-3.18-0.41-5.66,0.33-7.62,1.42
		C80.34,35.52,89,30.43,96.86,31.46C104.73,32.48,111.79,39.63,116.3,50.7z M64,6.76c10,0,19.92,7.48,27.51,20.6H36.49
		C44.09,14.22,54.01,6.76,64,6.76z M6.76,85.49c0-24.32,13.7-47.31,28.2-47.31c10.05,0,19.71,11.05,24.7,25.92
		c0.03,0.13,0.07,0.25,0.12,0.37c2.13,6.49,3.38,13.69,3.38,21.01c0,21.39-11.33,35.75-28.2,35.75
		C18.09,121.24,6.76,106.88,6.76,85.49z M64,121.24c-4.07,0-7.97-0.64-11.65-1.88c3.6-2.62,6.61-6.11,8.94-10.34
		c2.81,4.75,6.61,8.57,11.11,11.27C69.69,120.92,66.88,121.24,64,121.24z M85.17,120.99c-9.77-1.28-17.53-6.95-21.96-15.97
		c0.31-0.75,0.59-1.53,0.86-2.32c2.64-0.89,4.53-2.55,5.94-3.8c2.01-1.77,2.56-2.13,3.81-1.97c1.24,0.16,1.67,0.65,3.16,2.88
		c1.69,2.53,4.25,6.36,10.02,7.12c5.79,0.76,9.38-2.42,11.51-4.31c2.01-1.77,2.55-2.13,3.79-1.97c1.25,0.17,1.69,0.66,3.18,2.88
		c1.26,1.88,3.06,4.54,6.33,6.06C105.2,118.21,95.61,122.35,85.17,120.99z M116.8,100.99c-0.01,0-0.01,0-0.02,0
		c-1.26-0.17-1.7-0.66-3.2-2.9c-1.7-2.53-4.26-6.36-10-7.11c-5.76-0.75-9.22,2.3-11.5,4.32c-2.09,1.84-2.62,2.12-3.81,1.96
		c-1.18-0.15-1.62-0.55-3.16-2.86c-1.7-2.54-4.26-6.39-10.03-7.14c-3.64-0.48-6.36,0.58-8.44,1.92c0.07-1.21,0.12-2.44,0.12-3.69
		c0-2.54-0.16-5.12-0.46-7.69c0.53-0.35,1.03-0.7,1.48-1.03c2.13-1.53,3.29-2.37,5.75-2.05c2.46,0.32,3.37,1.43,5.02,3.45
		c2.12,2.59,5.03,6.15,11.3,6.96c6.26,0.82,9.99-1.86,12.71-3.82c2.13-1.53,3.3-2.37,5.75-2.05c2.45,0.32,3.37,1.44,5.04,3.49
		c1.52,1.85,3.55,4.29,6.98,5.77C119.6,93.03,118.41,97.22,116.8,100.99z"/>
	<path class="st0" d="M34.96,50.44c-2.69,0-4.88,2.19-4.88,4.88s2.19,4.88,4.88,4.88s4.88-2.19,4.88-4.88S37.64,50.44,34.96,50.44z
		 M34.96,56.6c-0.71,0-1.28-0.58-1.28-1.28c0-0.71,0.58-1.28,1.28-1.28s1.28,0.58,1.28,1.28C36.24,56.02,35.66,56.6,34.96,56.6z"/>
	<path class="st0" d="M54.86,67.08c0-2.69-2.19-4.88-4.88-4.88s-4.88,2.19-4.88,4.88c0,2.69,2.19,4.88,4.88,4.88
		S54.86,69.77,54.86,67.08z M48.7,67.08c0-0.71,0.58-1.28,1.28-1.28c0.71,0,1.28,0.58,1.28,1.28c0,0.71-0.58,1.28-1.28,1.28
		C49.27,68.36,48.7,67.79,48.7,67.08z"/>
	<path class="st0" d="M57.56,90.42c0-2.69-2.19-4.88-4.88-4.88c-2.69,0-4.88,2.19-4.88,4.88s2.19,4.88,4.88,4.88
		C55.37,95.3,57.56,93.11,57.56,90.42z M52.68,91.7c-0.71,0-1.28-0.58-1.28-1.28c0-0.71,0.58-1.28,1.28-1.28
		c0.71,0,1.28,0.58,1.28,1.28C53.97,91.13,53.39,91.7,52.68,91.7z"/>
	<path class="st0" d="M19.93,62.2c-2.69,0-4.88,2.19-4.88,4.88c0,2.69,2.19,4.88,4.88,4.88c2.69,0,4.88-2.19,4.88-4.88
		C24.81,64.39,22.62,62.2,19.93,62.2z M19.93,68.36c-0.71,0-1.28-0.58-1.28-1.28c0-0.71,0.58-1.28,1.28-1.28
		c0.71,0,1.28,0.58,1.28,1.28C21.21,67.79,20.64,68.36,19.93,68.36z"/>
	<path class="st0" d="M17.23,85.54c-2.69,0-4.88,2.19-4.88,4.88s2.19,4.88,4.88,4.88c2.69,0,4.88-2.19,4.88-4.88
		S19.92,85.54,17.23,85.54z M17.23,91.7c-0.71,0-1.28-0.58-1.28-1.28c0-0.71,0.58-1.28,1.28-1.28c0.71,0,1.28,0.58,1.28,1.28
		C18.51,91.13,17.93,91.7,17.23,91.7z"/>
	<path class="st0" d="M34.96,100c-2.69,0-4.88,2.19-4.88,4.88c0,2.69,2.19,4.88,4.88,4.88s4.88-2.19,4.88-4.88
		C39.83,102.19,37.64,100,34.96,100z M34.96,106.16c-0.71,0-1.28-0.58-1.28-1.28c0-0.71,0.58-1.28,1.28-1.28s1.28,0.58,1.28,1.28
		C36.24,105.58,35.66,106.16,34.96,106.16z"/>
	<path class="st0" d="M34.96,76.3c-2.69,0-4.88,2.19-4.88,4.88s2.19,4.88,4.88,4.88s4.88-2.19,4.88-4.88S37.64,76.3,34.96,76.3z
		 M34.96,82.46c-0.71,0-1.28-0.58-1.28-1.28s0.58-1.28,1.28-1.28s1.28,0.58,1.28,1.28S35.66,82.46,34.96,82.46z"/>
</g>
</svg>
