<?xml version="1.0" encoding="utf-8"?>
<!-- Generator: Adobe Illustrator 26.0.3, SVG Export Plug-In . SVG Version: 6.00 Build 0)  -->
<svg version="1.0" id="OUTLINE" xmlns="http://www.w3.org/2000/svg" xmlns:xlink="http://www.w3.org/1999/xlink" x="0px" y="0px"
	 viewBox="0 0 128 128" style="enable-background:new 0 0 128 128;" xml:space="preserve">
<style type="text/css">
	.st0{fill:#999797;}
</style>
<path class="st0" d="M114.95,31.01H13.05c-1.11,0-2.23,0.94-2.25,2.22c0,0.02-0.01,0.04-0.01,0.06v61.4c0,0,0,0,0,0.01
	c0,0,0,0,0,0.01c0,1.26,1.02,2.28,2.28,2.28h101.88c1.21,0,2.27-1.01,2.27-2.28V33.3v-0.01C117.22,32.03,116.2,31.01,114.95,31.01z
	 M15.34,37.69l37.34,26.32L15.34,90.31V37.69z M20.24,35.58h87.51L64,66.42L20.24,35.58z M112.67,37.68v52.65L75.32,64.01
	L112.67,37.68z M20.22,92.44l36.4-25.65l6.06,4.27c0.39,0.28,0.85,0.42,1.31,0.42s0.92-0.14,1.31-0.42l6.06-4.27l36.4,25.65H20.22z"
	/>
</svg>
