<svg xmlns="http://www.w3.org/2000/svg" width="51.404" height="47.349" viewBox="0 0 51.404 47.349">
  <g id="KITCHEN_TOOLS" data-name="KITCHEN TOOLS" transform="translate(-15.664 -19.497)">
    <path id="União_8" data-name="União 8" d="M16750.336-4655.842a3.166,3.166,0,0,1-.937-2.263v-19.043c-3.357-1.931-5.516-6.659-5.516-12.1,0-7.29,3.828-13,8.717-13s8.719,5.708,8.719,13c0,5.443-2.162,10.171-5.518,12.1v18.731h0v.312a3.207,3.207,0,0,1-3.205,3.2A3.178,3.178,0,0,1,16750.336-4655.842Zm1.414-2.263a.851.851,0,0,0,.854.85.846.846,0,0,0,.6-.248.858.858,0,0,0,.252-.6v-13.251h-1.7Zm0-15.606h1.7v-2.608a5.785,5.785,0,0,1-.85.063,5.779,5.779,0,0,1-.854-.063Zm-.787-19.943a41.407,41.407,0,0,0-.223,4.4,29.705,29.705,0,0,0,1.219,9.267,4.619,4.619,0,0,0,.627,1.245,3.654,3.654,0,0,0,.652-1.232l0-.013a29.7,29.7,0,0,0,1.221-9.267,50.878,50.878,0,0,0-.463-5.889c-.488-3.483-1.082-4.442-1.4-4.7C16751.871-4699.207,16751.2-4695.851,16750.963-4693.655Zm-3.627-1.485a15.8,15.8,0,0,0-1.1,5.889c0,3.845,1.25,7.353,3.238,9.242a34.5,34.5,0,0,1-1.088-9.242,36.463,36.463,0,0,1,1.076-9.2A9.824,9.824,0,0,0,16747.336-4695.14Zm9.479,5.889a35.934,35.934,0,0,1-1.086,9.238c1.99-1.889,3.238-5.4,3.238-9.238,0-3.87-1.252-7.391-3.246-9.271A36.319,36.319,0,0,1,16756.814-4689.25Zm-25.361,31.146v-42.97a1.175,1.175,0,0,1,1.178-1.174,10.013,10.013,0,0,1,7.121,2.953,10.023,10.023,0,0,1,2.957,7.125v14.74a1.177,1.177,0,0,1-1.178,1.174h-3.676v18.151a3.2,3.2,0,0,1-3.2,3.2A3.2,3.2,0,0,1,16731.453-4658.1Zm2.352,0a.85.85,0,0,0,.85.85.847.847,0,0,0,.85-.85v-13.251h-1.7Zm0-15.606h1.7v-2.545h-1.7Zm0-4.9h6.549v-13.562a7.748,7.748,0,0,0-6.549-7.639Zm-15.986,22.766a3.173,3.173,0,0,1-.937-2.263v-26.762h-1.295a1.18,1.18,0,0,1-1.127-.841l-4.5-15.03a1.189,1.189,0,0,1,.186-1.039,1.185,1.185,0,0,1,.941-.471l17.988,0a1.189,1.189,0,0,1,.941.476,1.177,1.177,0,0,1,.182,1.039l-4.488,15.03a1.191,1.191,0,0,1-1.127.841h-1.3v26.762a3.2,3.2,0,0,1-3.2,3.2A3.185,3.185,0,0,1,16717.818-4655.842Zm1.414-2.263a.85.85,0,0,0,.85.85.849.849,0,0,0,.6-.248.846.846,0,0,0,.248-.6v-13.251h-1.7Zm0-15.606h1.7v-11.156h-1.7Zm-2.771-13.507h7.244l3.789-12.678h-14.824Zm5.977-3.411a1.173,1.173,0,0,1-.711-.551,1.167,1.167,0,0,1-.113-.892l1.283-4.716a1.177,1.177,0,0,1,.828-.85,1.3,1.3,0,0,1,.313-.042,1.187,1.187,0,0,1,.84.357,1.177,1.177,0,0,1,.287,1.153l-1.283,4.711a1.183,1.183,0,0,1-.547.715,1.177,1.177,0,0,1-.584.156A1.32,1.32,0,0,1,16722.438-4690.63Zm-3.184-.3a1.172,1.172,0,0,1-.35-.833v-4.716a1.177,1.177,0,0,1,1.178-1.173,1.174,1.174,0,0,1,1.178,1.173v4.716a1.166,1.166,0,0,1-.344.833,1.171,1.171,0,0,1-.834.345A1.157,1.157,0,0,1,16719.254-4690.933Zm-2.971-.521v0l-1.277-4.711a1.171,1.171,0,0,1,.285-1.153,1.174,1.174,0,0,1,.842-.357,1.279,1.279,0,0,1,.311.042,1.19,1.19,0,0,1,.834.854l1.277,4.715a1.186,1.186,0,0,1-.832,1.417,1.32,1.32,0,0,1-.311.042A1.192,1.192,0,0,1,16716.283-4691.455Z" transform="translate(-16694.25 4721.75)" fill="#8897ad"/>
  </g>
</svg>
