<?xml version="1.0" encoding="utf-8"?>
<!-- Generator: Adobe Illustrator 26.0.3, SVG Export Plug-In . SVG Version: 6.00 Build 0)  -->
<svg version="1.0" id="OUTLINE" xmlns="http://www.w3.org/2000/svg" xmlns:xlink="http://www.w3.org/1999/xlink" x="0px" y="0px"
	 viewBox="0 0 128 128" style="enable-background:new 0 0 128 128;" xml:space="preserve">
<style type="text/css">
	.st0{fill:#999797;}
</style>
<g>
	<path class="st0" d="M73.81,41.62V31.34c0-1.09-0.88-1.97-1.97-1.97h-8.69v-4.99h2.55c1.09,0,1.97-0.88,1.97-1.97v-10.2
		c0-1.09-0.88-1.97-1.97-1.97H49.29c-1.09,0-1.97,0.88-1.97,1.97v10.2c0,1.09,0.88,1.97,1.97,1.97h2.55v4.99h-8.69
		c-1.09,0-1.97,0.88-1.97,1.97v10.29c-5.27,3.04-8.61,8.76-8.61,14.9v64.86c0,1.09,0.88,1.97,1.97,1.97h45.92
		c1.09,0,1.97-0.88,1.97-1.97V56.53C82.42,50.39,79.07,44.67,73.81,41.62z M51.25,14.18h12.48v6.27H51.25V14.18z M55.77,24.39h3.45
		v4.99h-3.45V24.39z M69.87,33.3v7.54H45.11V33.3H69.87z M78.49,119.42H36.5v-62.9c0-4.92,2.78-9.48,7.11-11.76h27.76
		c4.34,2.27,7.11,6.84,7.11,11.76V119.42z"/>
	<path class="st0" d="M71.84,56.12H43.16c-1.09,0-1.97,0.88-1.97,1.97v53.35c0,1.09,0.88,1.97,1.97,1.97h28.68
		c1.09,0,1.97-0.88,1.97-1.97V58.08C73.8,57,72.92,56.12,71.84,56.12z M69.87,109.47H45.12V60.05h24.75V109.47z"/>
	<circle class="st0" cx="73.92" cy="17.32" r="2.08"/>
	<circle class="st0" cx="82.76" cy="21.74" r="2.08"/>
	<circle class="st0" cx="82.76" cy="12.9" r="2.08"/>
	<circle class="st0" cx="91.6" cy="17.32" r="2.08"/>
	<circle class="st0" cx="91.6" cy="8.48" r="2.08"/>
	<circle class="st0" cx="91.6" cy="26.16" r="2.08"/>
</g>
</svg>
