<svg xmlns="http://www.w3.org/2000/svg" width="52.662" height="54.677" viewBox="0 0 52.662 54.677">
  <g id="BABY_PRODUCTS" data-name="BABY PRODUCTS" transform="translate(-14.378 -12.48)">
    <path id="Caminho_6269" data-name="Caminho 6269" d="M37.067,25.226H33.782a6.875,6.875,0,0,1-.849-2.547,7.373,7.373,0,0,1,.711-4.261,2.754,2.754,0,0,0,.265-1.2,2.876,2.876,0,0,0-5.752,0,2.831,2.831,0,0,0,.265,1.2,7.376,7.376,0,0,1,.716,4.261,6.875,6.875,0,0,1-.849,2.547H25c.467,0,1.868,0,2.3-2.828A5.54,5.54,0,0,0,26.74,19.2a4.673,4.673,0,0,1-.44-1.99,4.733,4.733,0,0,1,9.467,0,4.67,4.67,0,0,1-.435,1.99,5.54,5.54,0,0,0-.562,3.194C35.2,25.226,36.605,25.226,37.067,25.226Z" transform="translate(-4.986)" fill="#8897ad"/>
    <g id="Grupo_6720" data-name="Grupo 6720" transform="translate(14.378 22.795)">
      <path id="Caminho_6270" data-name="Caminho 6270" d="M37.722,40.114A3.622,3.622,0,0,0,34.1,36.5H17.993a3.612,3.612,0,0,0-1.226,7.01,47.184,47.184,0,0,0-2.388,14.826V73.183a5.258,5.258,0,0,0,5.253,5.248H32.468a5.257,5.257,0,0,0,5.248-5.248V58.336A47.032,47.032,0,0,0,35.329,43.51a3.608,3.608,0,0,0,2.393-3.4ZM35.859,58.336V73.183a3.4,3.4,0,0,1-3.391,3.391H19.632a3.4,3.4,0,0,1-3.4-3.391V58.336a45.085,45.085,0,0,1,2.42-14.608H33.445A45.08,45.08,0,0,1,35.859,58.336ZM34.1,41.87H17.993a1.756,1.756,0,1,1,0-3.513H34.1a1.756,1.756,0,0,1,0,3.513Z" transform="translate(-14.378 -34.069)" fill="#8897ad"/>
      <path id="Caminho_6271" data-name="Caminho 6271" d="M29.591,68.072H22.852a.929.929,0,0,0,0,1.857h6.739a.929.929,0,0,0,0-1.857Z" transform="translate(-17.919 -48.887)" fill="#8897ad"/>
      <path id="Caminho_6272" data-name="Caminho 6272" d="M22.853,77.757h3.369a.929.929,0,1,0,0-1.857H22.853a.929.929,0,0,0,0,1.857Z" transform="translate(-17.92 -52.561)" fill="#8897ad"/>
      <path id="Caminho_6273" data-name="Caminho 6273" d="M22.853,85.589h3.369a.929.929,0,0,0,0-1.857H22.853a.929.929,0,0,0,0,1.857Z" transform="translate(-17.92 -56.237)" fill="#8897ad"/>
      <path id="Caminho_6274" data-name="Caminho 6274" d="M29.591,91.563H22.852a.929.929,0,1,0,0,1.857h6.739a.929.929,0,1,0,0-1.857Z" transform="translate(-17.919 -59.913)" fill="#8897ad"/>
      <path id="Caminho_6275" data-name="Caminho 6275" d="M90.139,32.847a.928.928,0,0,0-.929-.929H64.519a.928.928,0,0,0-.929.929V48.714a.666.666,0,0,0,.011.08c0,.027.006.061.012.09a.791.791,0,0,0,.024.079,1,1,0,0,0,.032.095c.011.024.025.047.038.07a.982.982,0,0,0,.05.086c.016.023.036.043.053.065a.838.838,0,0,0,.064.072l.012.014,6.75,6.24a.972.972,0,0,0,.466.227h0a.969.969,0,0,0,.186.019H82.46a.93.93,0,0,0,.63-.247l6.744-6.23a.8.8,0,0,0,.053-.06l.017-.019a.94.94,0,0,0,.14-.209l0,0h0a.936.936,0,0,0,.034-.1.927.927,0,0,0,.053-.3V36.639ZM80.752,53.994H72.975a5.525,5.525,0,0,0-7.528-7.131V41.338h6.214a.928.928,0,0,0,.929-.929V37.567h8.549v2.842a.928.928,0,0,0,.929.929h6.214v5.531a5.519,5.519,0,0,0-7.528,7.124ZM65.447,37.567h5.285v1.913H65.447Zm22.833,0v1.913H83V37.567ZM65.447,33.775H88.282V35.71H65.447ZM67.9,48.146a3.67,3.67,0,0,1,3.242,5.394l-5.218-4.825a3.675,3.675,0,0,1,1.976-.569ZM82.587,53.54a3.67,3.67,0,0,1,3.242-5.394,3.631,3.631,0,0,1,1.978.573Z" transform="translate(-37.476 -31.918)" fill="#8897ad"/>
    </g>
  </g>
</svg>
