<svg xmlns="http://www.w3.org/2000/svg" width="44.61" height="37.986" viewBox="0 0 44.61 37.986">
  <g id="BAKERY" transform="translate(-10.787 -18.755)">
    <path id="Caminho_6276" data-name="Caminho 6276" d="M48.293,35.912l-.035-.021-.014-.008c-.2-.111-.4-.218-.605-.317l.117-.117c6.7-6.9,7.863-11.033,4.161-14.739-1.708-1.708-4.423-2.128-7.647-1.183a16.79,16.79,0,0,0-2.965,1.2l-.05.025A22.611,22.611,0,0,0,35.99,24.6c-.079.075-.158.154-.233.233l-.062.062c-.054.05-.1.1-.154.154a18.154,18.154,0,0,0-2.262.462c-.217.058-.437.125-.65.192-.025.008-.05.012-.075.021a24.436,24.436,0,0,0-3.819,1.541c-.021.012-.046.025-.062.037a32.222,32.222,0,0,0-7.863,5.656c-.108.1-.217.212-.325.321l-.1.1c-.762.762-1.483,1.549-2.153,2.349-.254.133-.5.275-.746.412-4.152,2.411-6.443,5.647-6.443,9.1a10.592,10.592,0,0,0,.966,4.769c2.107,4.252,7.971,6.243,19.012,6.455.666.012,1.362.021,2.074.021,16.076,0,22.053-3.049,22.053-11.245C55.148,41.66,52.716,38.34,48.293,35.912Zm-1.114,5.152a42.46,42.46,0,0,0-2.15-5.074h0c.367.142.725.3,1.075.454a.07.07,0,0,0,.021.008c.208.1.408.192.612.292.154.079.312.154.462.233h0A25.47,25.47,0,0,1,47.179,41.065ZM21.817,34.013a30.644,30.644,0,0,1,7.572-5.443.456.456,0,0,0,.062-.033,22.887,22.887,0,0,1,3.178-1.312c.129-.037.254-.079.379-.117.212-.067.425-.133.646-.187s.446-.117.671-.171c.383-.087.766-.162,1.149-.221.158-.025.321-.046.479-.067a.731.731,0,0,0,.483-.242c.092-.1.187-.2.287-.3l.071-.071c.058-.062.117-.121.2-.2a21.612,21.612,0,0,1,4.9-3.59.223.223,0,0,0,.046-.021,15.233,15.233,0,0,1,2.745-1.12c2.69-.787,4.894-.5,6.206.816,2.62,2.616,2.774,5.531-4.173,12.686-.137.142-.308.312-.475.483a24.993,24.993,0,0,0-2.532-.941.2.2,0,0,0-.046-.017l-.042-.012a35.267,35.267,0,0,0-9.866-1.536h-.054c-.862-.021-1.72,0-2.549.046-.638.033-1.221.075-1.785.132a.272.272,0,0,0-.061,0h0a33.063,33.063,0,0,0-7.751,1.691C21.634,34.192,21.717,34.1,21.817,34.013Zm11.45,7.221a29.762,29.762,0,0,0-1.511-4.95c-.286-.673-.675-1.458-1.155-2.338h0c.2-.017.408-.029.621-.037.612-.033,1.241-.05,1.874-.05h.071A16.2,16.2,0,0,1,33.266,41.234Zm-14.386-4.2c.042-.025.083-.046.129-.071a.083.083,0,0,1,.033-.017c.4-.212.833-.421,1.3-.625a19.192,19.192,0,0,1,.5,4.62,32.5,32.5,0,0,0-1.965-3.907Zm14.215,18c-.7,0-1.387-.008-2.045-.021-10.429-.2-15.9-1.941-17.734-5.647a9.153,9.153,0,0,1-.816-4.119c0-2.757,1.811-5.388,5.117-7.479a34.9,34.9,0,0,1,2.954,6.575.728.728,0,0,0,.7.516h.014a.73.73,0,0,0,.691-.541,20.433,20.433,0,0,0-.266-8.538h0a30.849,30.849,0,0,1,7.3-1.686,28.9,28.9,0,0,1,1.4,2.765,33.243,33.243,0,0,1,1.957,7.671.728.728,0,0,0,.6.639.7.7,0,0,0,.122.008.73.73,0,0,0,.658-.416,19.467,19.467,0,0,0,.93-10.861h0a33.233,33.233,0,0,1,8.275,1.374c.042.066.083.134.12.2a40.237,40.237,0,0,1,3.61,8.916.729.729,0,0,0,.685.553H47.4a.729.729,0,0,0,.7-.509,22.979,22.979,0,0,0,.622-6.574h0c3.219,2.07,4.973,4.66,4.973,7.388C53.69,51.443,50.321,55.033,33.1,55.033Z" fill="#8897ad" stroke="#8897ad" stroke-width="0.5"/>
    <path id="Caminho_6277" data-name="Caminho 6277" d="M68.977,40.9a.722.722,0,0,1-.421.77.685.685,0,0,1-.3.067.727.727,0,0,1-.558-.262,43.172,43.172,0,0,0-4.819-4.669c.129-.037.254-.079.379-.117.212-.067.425-.133.646-.187s.446-.117.671-.171c.758.662,1.474,1.329,2.1,1.945-.258-.666-.575-1.408-.954-2.166.158-.025.321-.046.479-.067a.731.731,0,0,0,.483-.242c.092-.1.187-.2.287-.3l.05-.05A21.529,21.529,0,0,1,68.977,40.9Z" transform="translate(-30.251 -9.585)" fill="#8897ad" stroke="#8897ad" stroke-width="0.5"/>
  </g>
</svg>
