<svg xmlns="http://www.w3.org/2000/svg" width="33.406" height="47.625" viewBox="0 0 33.406 47.625">
  <path id="União_10" data-name="União 10" d="M16945.607-4655.608a1.149,1.149,0,0,1-1.129-.979l-1.115-7.965c-1.15-8.225-1.844-13.157-2.262-16.122-.627-4.468-.627-4.468-.627-4.549v-3.488h-.732a1.137,1.137,0,0,1-1.137-1.137v-7.616a1.141,1.141,0,0,1,1.137-1.142h3.9l1.125-3.808a1.145,1.145,0,0,1,1.09-.818h18.895a1.154,1.154,0,0,1,1.1.818l1.129,3.808h3.9a1.114,1.114,0,0,1,.8.336,1.118,1.118,0,0,1,.336.805v7.616a1.117,1.117,0,0,1-.336.8,1.11,1.11,0,0,1-.8.333h-.736v3.488c0,.1-.068.588-.7,5.022-.443,3.173-1.115,7.965-2.193,15.649l-1.115,7.965a1.142,1.142,0,0,1-1.125.979Zm.992-2.279h17.422l.8-5.682h-19.02Zm-1.115-7.961h19.652l2.557-18.234h-24.764Zm-2.73-20.513h25.105v-2.351h-25.105Zm-1.873-4.625h28.852v-5.341h-28.852Zm5.137-7.62h18.588l-.7-2.347h-17.2Zm8.395,29.3a4.735,4.735,0,0,1-3.318-1.35c-.016-.013-.029-.025-.043-.038l0,0a.264.264,0,0,1-.033-.039,4.73,4.73,0,0,1-1.363-3.356,4.734,4.734,0,0,1,1.4-3.343l.018-.017a10.444,10.444,0,0,0,.945-.929c.98-1.048,2.088-2.232,4.191-2.232a4.752,4.752,0,0,1,4.4,2.939,4.764,4.764,0,0,1-1.031,5.192l-.021.017a9.078,9.078,0,0,0-.92.907,9.08,9.08,0,0,1-1.66,1.5,4.538,4.538,0,0,1-2.553.75Zm.3-5.056a1.131,1.131,0,0,1,.332.805,1.129,1.129,0,0,1-.332.8l-1.049,1.048a2.654,2.654,0,0,0,.754.124c1.121,0,1.721-.647,2.488-1.465a13.806,13.806,0,0,1,1.061-1.056,2.441,2.441,0,0,0,.6-2.5l-1.043,1.048a1.131,1.131,0,0,1-.809.336,1.137,1.137,0,0,1-.807-.336,1.145,1.145,0,0,1,0-1.61l1.049-1.043a2.376,2.376,0,0,0-.75-.124,3.276,3.276,0,0,0-2.479,1.457,13.27,13.27,0,0,1-1.064,1.052,2.492,2.492,0,0,0-.605,2.509l1.043-1.043a1.136,1.136,0,0,1,.811-.336A1.133,1.133,0,0,1,16954.711-4674.367Z" transform="translate(-16938.605 4703.233)" fill="#8897ad"/>
</svg>
