<?xml version="1.0" encoding="utf-8"?>
<!-- Generator: Adobe Illustrator 26.0.3, SVG Export Plug-In . SVG Version: 6.00 Build 0)  -->
<svg version="1.0" id="OUTLINE" xmlns="http://www.w3.org/2000/svg" xmlns:xlink="http://www.w3.org/1999/xlink" x="0px" y="0px"
	 viewBox="0 0 128 128" style="enable-background:new 0 0 128 128;" xml:space="preserve">
<style type="text/css">
	.st0{fill:#999797;}
</style>
<g>
	<path class="st0" d="M109.79,109.99l-2.92-9.72c-0.3-1.01-1.36-1.69-2.43-1.5c-1.41,0.25-2.76-0.69-3-2.09L88,20.5
		c-0.25-1.42,0.69-2.76,2.1-3.01c0.14-0.02,0.27-0.06,0.4-0.11c0.73-0.28,1.29-0.98,1.36-1.83c0.01-0.08,0.01-0.28,0.01-0.29
		L91.3,5.12c-0.05-0.81-0.55-1.53-1.3-1.85c-0.75-0.32-1.62-0.19-2.24,0.34l-5.98,5.11l-6.23-2.87c-0.82-0.38-1.78-0.21-2.42,0.43
		l-4.76,4.74L62.24,8.2c-0.81-0.38-1.78-0.2-2.41,0.43l-4.76,4.74l-6.13-2.82c-0.81-0.37-1.77-0.2-2.41,0.43l-4.79,4.75l-6.11-2.82
		c-0.81-0.38-1.78-0.21-2.41,0.42l-4.87,4.83l-7.32-2.76c-0.76-0.29-1.63-0.12-2.22,0.44c-0.6,0.56-0.83,1.41-0.59,2.19l2.92,9.72
		c0.01,0.02,0.02,0.03,0.03,0.05c0.34,1.03,1.39,1.62,2.4,1.45c1.4-0.25,2.76,0.69,3,2.09L40,107.5c0.12,0.68-0.03,1.37-0.43,1.94
		c-0.4,0.57-0.99,0.95-1.67,1.07c-0.99,0.18-1.78,1.07-1.77,2.14c0,0.03-0.01,0.06,0,0.09l0.58,10.14c0.05,0.82,0.55,1.53,1.3,1.85
		c0.76,0.32,1.63,0.18,2.24-0.35l5.94-5.1l6.22,2.87c0.81,0.37,1.78,0.2,2.41-0.43l4.77-4.74l6.12,2.82
		c0.81,0.37,1.77,0.21,2.41-0.42l4.8-4.75l6.09,2.82c0.81,0.38,1.78,0.21,2.41-0.42l4.8-4.75l6.09,2.82
		c0.81,0.38,1.78,0.21,2.42-0.42l4.87-4.83l7.37,2.76c0.77,0.29,1.62,0.11,2.22-0.44C109.79,111.62,110.02,110.77,109.79,109.99z
		 M28.13,22.65c0.79,0.3,1.67,0.11,2.27-0.48l4.79-4.75l6.11,2.82c0.81,0.38,1.78,0.21,2.41-0.42l4.79-4.75l6.14,2.82
		c0.82,0.38,1.78,0.2,2.41-0.43l4.76-4.74l6.13,2.82c0.82,0.38,1.78,0.2,2.41-0.43l4.76-4.74l6.12,2.82
		c0.76,0.35,1.66,0.23,2.29-0.32l3.74-3.19l0.23,3.91L24.7,24.67l-1.12-3.74L28.13,22.65z M44.23,106.75L30.8,30.58
		c-0.16-0.9-0.49-1.73-0.95-2.46l53.98-9.52c-0.18,0.86-0.21,1.75-0.05,2.64L97.2,97.42c0.16,0.9,0.5,1.72,0.96,2.45l-53.99,9.52
		C44.36,108.54,44.38,107.64,44.23,106.75z M99.82,105.36c-0.78-0.29-1.67-0.1-2.27,0.49l-4.78,4.74l-6.09-2.82
		c-0.81-0.38-1.78-0.21-2.41,0.42l-4.8,4.75l-6.09-2.82c-0.82-0.38-1.78-0.21-2.41,0.42l-4.8,4.75l-6.12-2.82
		c-0.82-0.38-1.78-0.21-2.41,0.43l-4.77,4.74l-6.12-2.82c-0.76-0.35-1.66-0.23-2.3,0.32l-3.69,3.17l-0.22-3.89l62.78-11.07
		l1.12,3.75L99.82,105.36z"/>
	<path class="st0" d="M53,72.1c2.94,1.44,6.64,1.24,9.65,0.04c4.41,2.16,10.02,1.47,13.34-2.44c2.58-3.05,3.69-6.82,2.98-10.1
		c-0.42-1.92-1.65-4.55-5.17-6.22c-7.21-3.4-10.08,6.08-12.96,6.74c-3.25,0.74-4.52-2.39-9.5,0.22c-0.01,0-0.02,0-0.02,0.01
		C46.62,62.54,48.26,69.78,53,72.1z M54.89,68.24c-2.04-1-2.36-3.59-1.88-3.92c1.24-0.37,3.56,2.14,5.58,4.44
		C57.3,68.88,55.96,68.76,54.89,68.24z M71.96,57.27c1.56,0.74,2.5,1.83,2.81,3.24c0.42,1.95-0.37,4.41-2.06,6.41
		c-2.26,2.67-6.33,2.61-8.81,1.02v0c-1.09-0.7-1.22-1.14-3.35-3.44C67.19,63.87,68.08,55.44,71.96,57.27z"/>
	<path class="st0" d="M68.22,87.91C81.43,85.58,90.24,73,87.91,59.78C85.58,46.57,73,37.76,59.78,40.09
		C46.57,42.42,37.76,55,40.09,68.22C42.42,81.43,55,90.24,68.22,87.91z M60.53,44.32c10.86-1.91,21.23,5.31,23.15,16.21
		c1.92,10.87-5.33,21.23-16.21,23.15c-10.87,1.92-21.23-5.33-23.15-16.21C42.4,56.59,49.65,46.24,60.53,44.32z"/>
</g>
</svg>
