<?xml version="1.0" encoding="utf-8"?>
<!-- Generator: Adobe Illustrator 26.0.3, SVG Export Plug-In . SVG Version: 6.00 Build 0)  -->
<svg version="1.0" id="OUTLINE" xmlns="http://www.w3.org/2000/svg" xmlns:xlink="http://www.w3.org/1999/xlink" x="0px" y="0px"
	 viewBox="0 0 128 128" style="enable-background:new 0 0 128 128;" xml:space="preserve">
<style type="text/css">
	.st0{fill:#999797;}
</style>
<g>
	<path class="st0" d="M97.65,26.6c-0.36-0.72-1.1-1.17-1.9-1.17h-63.5c-0.8,0-1.54,0.45-1.9,1.17l-28,55.23c0,0.01,0,0.01-0.01,0.02
		c-0.43,0.88-0.14,0.16-0.23,18.59c0,1.18,0.95,2.13,2.13,2.13h119.5c1.18,0,2.13-0.95,2.13-2.13V82.79
		C125.88,81.49,125.63,82.14,97.65,26.6z M33.56,29.69h60.88l25.84,50.97H7.72L33.56,29.69z M70.56,84.92
		c-0.48,3.81-3.74,6.76-7.67,6.76c-3.94,0-7.19-2.96-7.67-6.76H70.56z M6.38,98.31V84.92h44.55c0.5,6.16,5.66,11.02,11.95,11.02
		c6.29,0,11.45-4.86,11.95-11.02h46.78v13.38H6.38z"/>
	<path class="st0" d="M68.86,31.84c-0.46-0.32-1.04-0.45-1.6-0.35c-0.56,0.1-1.05,0.42-1.37,0.88
		C27.38,88.01,40.48,69.09,37.68,73.13c-0.45,0.65-0.5,1.5-0.13,2.21c0.37,0.7,1.09,1.14,1.88,1.14c0,0,0.01,0,0.01,0
		c4.92-0.03-18.11,0.1,49.55-0.26c1.17-0.01,2.12-0.96,2.12-2.14C91.05,57.25,82.73,41.46,68.86,31.84z M43.52,72.19l20.85-30.1
		C73.7,49.31,79.46,60.24,80.13,72L43.52,72.19z M84.38,71.97c-0.68-13.14-7.12-25.36-17.6-33.38l1.38-2
		c11.12,8.48,17.95,21.44,18.63,35.36L84.38,71.97z"/>
	<path class="st0" d="M60.84,56.71c0,3.38,2.75,6.13,6.13,6.13s6.13-2.75,6.13-6.13c0-3.38-2.75-6.13-6.13-6.13
		S60.84,53.33,60.84,56.71z M68.83,56.71c0,1.03-0.84,1.87-1.87,1.87s-1.87-0.84-1.87-1.87c0-1.03,0.84-1.87,1.87-1.87
		S68.83,55.68,68.83,56.71z"/>
	<path class="st0" d="M57.61,59.5c-3.18,0-5.77,2.59-5.77,5.77c0,3.18,2.59,5.77,5.77,5.77c3.18,0,5.77-2.59,5.77-5.77
		C63.38,62.09,60.79,59.5,57.61,59.5z M57.61,66.79c-0.83,0-1.51-0.68-1.51-1.51c0-0.83,0.68-1.51,1.51-1.51
		c0.83,0,1.51,0.68,1.51,1.51C59.12,66.11,58.44,66.79,57.61,66.79z"/>
</g>
</svg>
