<svg xmlns="http://www.w3.org/2000/svg" width="12.137" height="19.108" viewBox="0 0 12.137 19.108">
  <path id="_105" data-name="105" d="M11.178-3.78c0-4.536-6.642-3.348-6.642-5.436,0-.576.522-.864,1.314-.864A9.811,9.811,0,0,1,9.918-8.73l1.242-2.61a9.319,9.319,0,0,0-3.942-1.35v-2.628H4.824v2.646c-2.3.378-3.744,1.764-3.744,3.762,0,4.464,6.642,3.168,6.642,5.31,0,.666-.612,1.026-1.584,1.026A8.056,8.056,0,0,1,1.566-4.482L.288-1.908A9.3,9.3,0,0,0,4.824.018V2.79H7.218V.036C9.486-.27,11.178-1.566,11.178-3.78Z" transform="translate(0.337 15.818)" fill="none" stroke="#687c96" stroke-width="1"/>
</svg>
