<svg id="_01_Icons_Line_upload" data-name="01) Icons / Line /  upload" xmlns="http://www.w3.org/2000/svg" width="25" height="27" viewBox="0 0 25 27">
  <path id="upload" d="M21.323,27H3.677A3.718,3.718,0,0,1,0,23.25v-4.5A.744.744,0,0,1,.736,18a.744.744,0,0,1,.735.751v4.5A2.231,2.231,0,0,0,3.677,25.5H21.323a2.231,2.231,0,0,0,2.206-2.25v-4.5a.735.735,0,1,1,1.47,0v4.5A3.718,3.718,0,0,1,21.323,27ZM12.5,19.5a.743.743,0,0,1-.735-.749V2.562L7.138,7.282a.729.729,0,0,1-.519.22.719.719,0,0,1-.191-.026.742.742,0,0,1-.52-.531A.758.758,0,0,1,6.1,6.22l5.882-6a.726.726,0,0,1,1.042,0l5.882,6a.758.758,0,0,1,.191.725.742.742,0,0,1-.52.531.72.72,0,0,1-.191.026.729.729,0,0,1-.519-.22L13.235,2.562V18.751A.743.743,0,0,1,12.5,19.5Z" fill="#f3b306"/>
</svg>
