<svg xmlns="http://www.w3.org/2000/svg" width="15.013" height="15.001" viewBox="0 0 15.013 15.001">
  <path id="edit-square" d="M12.929,15H2.083A2.086,2.086,0,0,1,0,12.917V2.084A2.086,2.086,0,0,1,2.083,0H7.928a.417.417,0,0,1,0,.833H2.083a1.252,1.252,0,0,0-1.25,1.25V12.917a1.252,1.252,0,0,0,1.25,1.25H12.929a1.251,1.251,0,0,0,1.25-1.25V7.084a.417.417,0,0,1,.834,0v5.833A2.086,2.086,0,0,1,12.929,15Zm-5-5.833H6.262a.417.417,0,0,1-.417-.416V7.084a.417.417,0,0,1,.122-.295L12.633.122a.417.417,0,0,1,.59,0L14.89,1.789a.416.416,0,0,1,0,.59L8.223,9.046A.414.414,0,0,1,7.928,9.167Zm5-8.161h0l-6.25,6.25V8.334H7.756l6.25-6.25L12.929,1.007Z" fill="#687c97"/>
</svg>
