<svg xmlns="http://www.w3.org/2000/svg" width="157.63" height="152.893" viewBox="0 0 157.63 152.893">
  <g id="Grupo_998" data-name="Grupo 998" transform="translate(-7709 2670.834)">
    <g id="_01" data-name="01" transform="translate(7709 -2670.834)">
      <g id="BACKGROUND" transform="translate(0 12.178)">
        <path id="Caminho_3007" data-name="Caminho 3007" d="M153.31,80.221H132.44a18.587,18.587,0,0,0,.91-5.75h0a18.6,18.6,0,0,0-18.6-18.6H43.036a18.6,18.6,0,0,0-18.6,18.6h0a18.6,18.6,0,0,0,18.6,18.6H67.1a23.9,23.9,0,0,0-2.753,11.162h0a24.016,24.016,0,0,0,24.016,24.016H153.31a24.016,24.016,0,0,0,24.016-24.016h0A24.016,24.016,0,0,0,153.31,80.221Z" transform="translate(-19.696 -55.867)" fill="#bee3cc"/>
        <path id="Caminho_3008" data-name="Caminho 3008" d="M142.528,304.853H114.97a23.9,23.9,0,0,0,.16-2.706h0a23.678,23.678,0,0,0-23.678-23.678H33.27A23.678,23.678,0,0,0,9.592,302.147h0A23.678,23.678,0,0,0,33.27,325.825H74.8a17.928,17.928,0,0,0,17.665,14.883h50.062a17.928,17.928,0,0,0,17.928-17.928h0a17.928,17.928,0,0,0-17.928-17.928Z" transform="translate(-9.592 -207.435)" fill="#bee3cc"/>
      </g>
      <g id="OBJECTS" transform="translate(4.814 0)">
        <circle id="Elipse_39" data-name="Elipse 39" cx="10.148" cy="10.148" r="10.148" transform="matrix(0.272, -0.962, 0.962, 0.272, 29.353, 55.74)" fill="#ff827d"/>
        <path id="Caminho_3009" data-name="Caminho 3009" d="M143.444,154.183c-1.276.729-1.59,1.875-1.388,3.5-1.3-1-2.443-1.314-3.72-.585a2.889,2.889,0,0,0-1.053,4.085c2.353,4.123,8.06,3.526,8.607,3.214.912-.521,3.963-4.923,1.609-9.046a2.889,2.889,0,0,0-4.055-1.169Z" transform="translate(-101.043 -110.354)" fill="#fff"/>
        <path id="Caminho_3010" data-name="Caminho 3010" d="M392.819,84.3c-.232,0-.461-.008-.686-.023-2.673-.19-4.206-1.459-4.206-3.48a2.982,2.982,0,0,1,1.326-2.717c3.067-1.934,10.569,1.615,10.887,1.766l.331.16-.052.363C400.089,82.672,396.16,84.3,392.819,84.3ZM391.7,78.494a3.609,3.609,0,0,0-1.912.431,2.021,2.021,0,0,0-.859,1.871c0,1.958,2.053,2.4,3.278,2.483,2.979.21,6.466-1.159,7.126-2.707-1.743-.787-5.189-2.078-7.633-2.078Z" transform="translate(-272.011 -58.421)" fill="#9ec8da"/>
        <path id="Caminho_3011" data-name="Caminho 3011" d="M413.4,84.944l.347,5.289a.937.937,0,0,0,.317.643l8.162,7.158a1.874,1.874,0,0,0,2.645-.173l3.707-4.227a1.874,1.874,0,0,0-.173-2.645l-8.161-7.158a.937.937,0,0,0-.679-.231l-5.289.347A.937.937,0,0,0,413.4,84.944Z" transform="translate(-289.351 -62.572)" fill="#ffc171"/>
        <path id="Caminho_3012" data-name="Caminho 3012" d="M435.908,102h0a.8.8,0,0,1-.834-.754l-.322-6.353a.8.8,0,0,1,.754-.834h0a.8.8,0,0,1,.834.754l.322,6.353a.8.8,0,0,1-.754.834Z" transform="translate(-303.893 -69.69)" fill="#423e35"/>
        <path id="Caminho_3013" data-name="Caminho 3013" d="M427.279,104.982a.913.913,0,1,1-.957-.866A.913.913,0,0,1,427.279,104.982Z" transform="translate(-297.563 -76.541)" fill="#423e35"/>
        <path id="Caminho_3014" data-name="Caminho 3014" d="M446.143,104.026a.913.913,0,1,1-.957-.866A.913.913,0,0,1,446.143,104.026Z" transform="translate(-310.407 -75.89)" fill="#423e35"/>
        <path id="Caminho_3015" data-name="Caminho 3015" d="M379.8,62.226a13.5,13.5,0,0,0-12.625,18.365,10.556,10.556,0,1,0,6.188,7.068A13.53,13.53,0,1,0,379.8,62.226Z" transform="translate(-247.955 -48.019)" fill="none" stroke="#abdffb" stroke-miterlimit="10" stroke-width="1"/>
        <path id="Caminho_3016" data-name="Caminho 3016" d="M378.047,146.148v4.789A1.064,1.064,0,0,1,376.983,152H364.745a1.064,1.064,0,0,1-1.064-1.064v-4.789Zm-1.064,3.991a1.784,1.784,0,0,1-2.393-.8,13108.487,13108.487,0,0,1,1.6,1.6A.8.8,0,0,0,376.983,150.139Zm-9.578-1.33v-1.6h-2.129v1.6Z" transform="translate(-255.502 -105.161)" fill="#65afa5"/>
        <rect id="Retângulo_424" data-name="Retângulo 424" width="14.367" height="1.064" transform="translate(108.179 39.923)" fill="#f4ebe2"/>
        <path id="Caminho_3017" data-name="Caminho 3017" d="M378.047,138.875v.532H363.681v-.532a1.064,1.064,0,0,1,1.064-1.064h12.238A1.064,1.064,0,0,1,378.047,138.875Z" transform="translate(-255.502 -99.484)" fill="#65afa5"/>
        <circle id="Elipse_40" data-name="Elipse 40" cx="0.798" cy="0.798" r="0.798" transform="translate(119.885 44.18)" fill="#ff9f08"/>
        <circle id="Elipse_41" data-name="Elipse 41" cx="0.798" cy="0.798" r="0.798" transform="translate(118.289 44.18)" fill="#ff8993"/>
        <rect id="Retângulo_425" data-name="Retângulo 425" width="2.128" height="1.596" transform="translate(109.775 42.051)" fill="#eee9d5"/>
        <rect id="Retângulo_426" data-name="Retângulo 426" width="4.789" height="0.532" transform="translate(116.958 41.785)" fill="#eee9d5"/>
        <rect id="Retângulo_427" data-name="Retângulo 427" width="1.33" height="0.532" transform="translate(120.417 42.849)" fill="#eee9d5"/>
        <path id="Caminho_3018" data-name="Caminho 3018" d="M411.326,50.477s-.677,4.06-4.059,4.06c3.383,0,4.059,4.059,4.059,4.059s.676-4.059,4.059-4.059C412,54.537,411.326,50.477,411.326,50.477Z" transform="translate(-285.18 -40.019)" fill="#fcce7a"/>
        <circle id="Elipse_42" data-name="Elipse 42" cx="12.515" cy="12.515" r="12.515" transform="translate(0.598 52.092)" fill="none" stroke="#abdffb" stroke-miterlimit="10" stroke-width="1"/>
        <path id="Caminho_3019" data-name="Caminho 3019" d="M31.392,189.9l1.554-1.027a4.492,4.492,0,0,0,.934,3.1A4.492,4.492,0,0,0,31.392,189.9Z" transform="translate(-29.25 -134.249)" fill="#008a47"/>
        <path id="Caminho_3020" data-name="Caminho 3020" d="M48.462,237.406a4.76,4.76,0,0,1,5.938.542A4.442,4.442,0,0,1,48.462,237.406Z" transform="translate(-40.872 -166.758)" fill="#008a47"/>
        <path id="Caminho_3021" data-name="Caminho 3021" d="M42.657,233.321a4.76,4.76,0,0,0-5.938-.542l-2.7.325a2.333,2.333,0,0,1-2.234-1.032l-.571-.865A8.386,8.386,0,0,1,42.657,233.321Z" transform="translate(-29.129 -162.13)" fill="#00743a"/>
        <path id="Caminho_3022" data-name="Caminho 3022" d="M40.256,227.559l.4.6a8.386,8.386,0,0,0-11.442-2.114l-.493-.746c-.319-.482-.7-1.9-.218-2.222a.678.678,0,0,0,.338-.755l.522-.044A11.86,11.86,0,0,1,40.256,227.559Z" transform="translate(-27.125 -156.969)" fill="#008a47"/>
        <path id="Caminho_3023" data-name="Caminho 3023" d="M34.87,216.934l3.025,4.579a11.86,11.86,0,0,0-10.9-5.28l-.522.044a.69.69,0,0,0-.086-.181.939.939,0,0,0-.227-.23l-.632-.46a1.858,1.858,0,0,1-.729-1.115C28.087,212.27,32.735,213.7,34.87,216.934Z" transform="translate(-24.764 -150.923)" fill="#00743a"/>
        <path id="Caminho_3024" data-name="Caminho 3024" d="M32.731,209.475l2.053,3.108c-2.135-3.232-6.783-4.664-10.065-2.644a1.875,1.875,0,0,1,.084-1.06l.229-.594a1.639,1.639,0,0,0,.1-.485A5.587,5.587,0,0,1,32.731,209.475Z" transform="translate(-24.678 -146.572)" fill="#008a47"/>
        <path id="Caminho_3025" data-name="Caminho 3025" d="M31.266,202.594l2.053,3.108a5.587,5.587,0,0,0-7.595-1.675,1.931,1.931,0,0,0-.089-.715,2.134,2.134,0,0,1-.048-1.058l.171-.113S29.726,200.263,31.266,202.594Z" transform="translate(-25.267 -142.799)" fill="#00743a"/>
        <path id="Caminho_3026" data-name="Caminho 3026" d="M32.942,194.163l.171.259a2.105,2.105,0,0,0-2.84-.356l-.259.171a.623.623,0,0,0,.176-.86.933.933,0,0,1,.264-1.29A4.492,4.492,0,0,1,32.942,194.163Z" transform="translate(-28.311 -136.44)" fill="#00743a"/>
        <path id="Caminho_3027" data-name="Caminho 3027" d="M30.163,197.825l1.2,1.813c-1.54-2.329-5.508-.453-5.508-.453l-.171.113a2.131,2.131,0,0,1,.911-1.346l.472-.311.259-.171A2.1,2.1,0,0,1,30.163,197.825Z" transform="translate(-25.361 -139.843)" fill="#008a47"/>
        <path id="Caminho_3028" data-name="Caminho 3028" d="M38.358,188.978l-.259.171a2.1,2.1,0,0,0-.786,2.752l-.171-.259a4.492,4.492,0,0,1-.934-3.1.93.93,0,0,1,1.29.264.626.626,0,0,0,.862.176Z" transform="translate(-32.512 -133.919)" fill="#1e9151"/>
        <path id="Caminho_3029" data-name="Caminho 3029" d="M45.507,188.808a1.836,1.836,0,0,0,.592.327,5.586,5.586,0,0,0-1.444,7.647L42.6,193.674c-1.54-2.329,1.744-5.245,1.744-5.245l.16-.1A2.266,2.266,0,0,1,45.507,188.808Z" transform="translate(-36.602 -133.879)" fill="#1e9151"/>
        <path id="Caminho_3030" data-name="Caminho 3030" d="M68.234,223.016a4.069,4.069,0,0,1,.2,3.125,5.014,5.014,0,0,1-2.029,2.549A4.76,4.76,0,0,1,68.234,223.016Z" transform="translate(-52.874 -157.5)" fill="#66a029"/>
        <path id="Caminho_3031" data-name="Caminho 3031" d="M67.01,205.219l.572.865a2.332,2.332,0,0,1,.073,2.459L66.3,210.9a4.76,4.76,0,0,0-1.832,5.675A8.386,8.386,0,0,1,67.01,205.219Z" transform="translate(-50.937 -145.382)" fill="#1e9151"/>
        <path id="Caminho_3032" data-name="Caminho 3032" d="M64.083,200.452l.493.746a8.386,8.386,0,0,0-2.544,11.354l-.4-.6a11.86,11.86,0,0,1-.583-12.094l.245-.463a.678.678,0,0,0,.827-.015c.241-.16.65-.013,1.041.235A3.47,3.47,0,0,1,64.083,200.452Z" transform="translate(-48.504 -141.36)" fill="#0f8749"/>
        <path id="Caminho_3033" data-name="Caminho 3033" d="M55.1,192.3a1.857,1.857,0,0,1,.739,1.108l.176.762a.811.811,0,0,0,.255.449l-.245.464a11.86,11.86,0,0,0,.582,12.094L53.583,202.6C51.449,199.364,51.955,194.528,55.1,192.3Z" transform="translate(-43.478 -136.586)" fill="#1e9151"/>
        <path id="Caminho_3034" data-name="Caminho 3034" d="M50.5,190.984a1.876,1.876,0,0,1,1.008.338c-3.146,2.227-3.653,7.063-1.517,10.3l-2.053-3.108a5.586,5.586,0,0,1,1.444-7.647,1.773,1.773,0,0,0,.531.1Z" transform="translate(-39.884 -135.607)" fill="#0f8749"/>
        <path id="Caminho_3035" data-name="Caminho 3035" d="M42.293,188.23l-.16.1s-3.284,2.913-1.744,5.245l-1.2-1.813a2.1,2.1,0,0,1,.786-2.752l.259-.171.471-.311A2.1,2.1,0,0,1,42.293,188.23Z" transform="translate(-34.392 -133.785)" fill="#0f8749"/>
        <path id="Caminho_3036" data-name="Caminho 3036" d="M76.408,222.732a6.2,6.2,0,1,1-12.4,0c0-3.425,2.776-4.961,6.2-4.961S76.408,219.307,76.408,222.732Z" transform="translate(-51.456 -153.929)" fill="#e54655"/>
        <path id="Caminho_3037" data-name="Caminho 3037" d="M67.1,223.347a2.844,2.844,0,0,1,1.091-2.431,2.994,2.994,0,0,1,2.9-.313,2.079,2.079,0,0,0,2.84-2.034,8.132,8.132,0,0,0-3.734-.8c-3.425,0-6.2,1.536-6.2,4.961a6.2,6.2,0,0,0,10.462,4.5C69.916,228.178,67.1,226.888,67.1,223.347Z" transform="translate(-51.453 -153.923)" fill="#c13b48"/>
        <path id="Caminho_3038" data-name="Caminho 3038" d="M88.751,223.737a1.228,1.228,0,0,0-.5.536,5.822,5.822,0,0,1-.282.641c-.3.456-.909.523-1.4.766a2.01,2.01,0,0,0-1.162,1.387,1.4,1.4,0,0,0,.6,1.343,1.468,1.468,0,0,0,.822.155,3.476,3.476,0,0,0,1.1-.174,3.251,3.251,0,0,0,1.491-.919l.041-.051a3.147,3.147,0,0,0,.776-2.93c-.166-.49-.588-1.065-1.292-.834A1.08,1.08,0,0,0,88.751,223.737Z" transform="translate(-66.017 -157.901)" fill="#fd838d"/>
        <path id="Caminho_3039" data-name="Caminho 3039" d="M73.561,208.592a13.288,13.288,0,0,0-3.721.62l2.48.62a7.63,7.63,0,0,0-1.24,3.1,4.276,4.276,0,0,1,3.1-1.86,4.277,4.277,0,0,1,3.1,1.86,7.629,7.629,0,0,0-1.24-3.1l2.48-.62a13.283,13.283,0,0,0-3.72-.62l.62-2.481H72.939Z" transform="translate(-55.428 -145.989)" fill="#658d41"/>
        <path id="Caminho_3040" data-name="Caminho 3040" d="M72.937,206.111l.62,2.481a13.288,13.288,0,0,0-3.721.62l2.48.62a7.63,7.63,0,0,0-1.24,3.1,4.276,4.276,0,0,1,3.1-1.86v-4.961Z" transform="translate(-55.426 -145.989)" fill="#537134"/>
        <path id="Caminho_3041" data-name="Caminho 3041" d="M74.239,173.439s-.677,4.059-4.059,4.059c3.383,0,4.059,4.059,4.059,4.059s.677-4.059,4.059-4.059C74.917,177.5,74.239,173.439,74.239,173.439Z" transform="translate(-55.66 -123.743)" fill="#fcce7a"/>
        <path id="Caminho_3042" data-name="Caminho 3042" d="M383.766,175.559s-.677,4.059-4.059,4.059c3.383,0,4.059,4.059,4.059,4.059s.676-4.059,4.059-4.059C384.443,179.618,383.766,175.559,383.766,175.559Z" transform="translate(-266.414 -125.187)" fill="#fcce7a"/>
        <circle id="Elipse_43" data-name="Elipse 43" cx="10.486" cy="10.486" r="10.486" transform="translate(119.539 87.92) rotate(-76.525)" fill="none" stroke="#abdffb" stroke-miterlimit="10" stroke-width="1"/>
        <path id="Caminho_3043" data-name="Caminho 3043" d="M426.75,281.989v2.259a.676.676,0,0,1-.676.676h-4.517a.676.676,0,0,1-.677-.676v-2.259Z" transform="translate(-294.449 -197.654)" fill="#65afa5"/>
        <rect id="Retângulo_428" data-name="Retângulo 428" width="5.871" height="7.828" transform="translate(126.43 76.507)" fill="#ecf5ff"/>
        <path id="Caminho_3044" data-name="Caminho 3044" d="M426.746,246.2v1.3h-5.872v-1.3a2.355,2.355,0,0,1,.936-1.856,1.931,1.931,0,0,0,.695-1.5v.1h2.61v-.1a1.931,1.931,0,0,0,.695,1.5A2.355,2.355,0,0,1,426.746,246.2Z" transform="translate(-294.445 -170.999)" fill="#65afa5"/>
        <path id="Caminho_3045" data-name="Caminho 3045" d="M428.6,240.266v.1h-2.61v-1.3h2.61Z" transform="translate(-297.925 -168.423)" fill="#423e35"/>
        <path id="Caminho_3046" data-name="Caminho 3046" d="M428.6,234.274v1.3h-2.61v-1.3a.327.327,0,0,1,.326-.326h1.957A.327.327,0,0,1,428.6,234.274Z" transform="translate(-297.925 -164.943)" fill="#ecf5ff"/>
        <path id="Caminho_3047" data-name="Caminho 3047" d="M428.269,233.948h-1.957a.327.327,0,0,0-.326.326v.652a.327.327,0,0,1,.326-.326h1.957a.327.327,0,0,1,.326.326v-.652A.327.327,0,0,0,428.269,233.948Z" transform="translate(-297.925 -164.943)" fill="#99c5ff"/>
        <rect id="Retângulo_429" data-name="Retângulo 429" width="5.871" height="0.652" transform="translate(126.43 76.507)" fill="#99c5ff"/>
        <rect id="Retângulo_430" data-name="Retângulo 430" width="5.871" height="0.652" transform="translate(126.43 83.683)" fill="#99c5ff"/>
        <path id="Caminho_3048" data-name="Caminho 3048" d="M422.181,282.617v-.628h-1.3v2.259a.676.676,0,0,0,.677.676h4.518a.676.676,0,0,0,.677-.676V283.6h-3.588A.979.979,0,0,1,422.181,282.617Z" transform="translate(-294.446 -197.654)" fill="#5b9e97"/>
        <rect id="Retângulo_431" data-name="Retângulo 431" width="1.305" height="6.524" transform="translate(126.43 77.159)" fill="#d2dae0"/>
        <path id="Caminho_3049" data-name="Caminho 3049" d="M422.181,246.2a2.354,2.354,0,0,1,.936-1.856,1.923,1.923,0,0,0,.69-1.406h-1.3v-.1a1.931,1.931,0,0,1-.695,1.5,2.355,2.355,0,0,0-.936,1.856v1.3h1.3Z" transform="translate(-294.446 -170.999)" fill="#5b9e97"/>
        <path id="Caminho_3050" data-name="Caminho 3050" d="M427.286,240.364c0-.032.005-.064.005-.1v-1.207h-1.3v1.3Z" transform="translate(-297.925 -168.423)" fill="#2c2c2c"/>
        <path id="Caminho_3051" data-name="Caminho 3051" d="M426.312,235.992a.327.327,0,0,0-.326.326v.653h1.3v-.979h-.978Z" transform="translate(-297.925 -166.335)" fill="#d2dae0"/>
        <path id="Caminho_3052" data-name="Caminho 3052" d="M427.62,233.948h-1.3a.327.327,0,0,0-.326.326v.652a.327.327,0,0,1,.326-.326h.978v-.326A.327.327,0,0,1,427.62,233.948Z" transform="translate(-297.927 -164.943)" fill="#7191bc"/>
        <rect id="Retângulo_432" data-name="Retângulo 432" width="1.305" height="0.652" transform="translate(126.43 83.683)" fill="#7191bc"/>
        <rect id="Retângulo_433" data-name="Retângulo 433" width="1.305" height="0.652" transform="translate(126.43 76.507)" fill="#7191bc"/>
        <path id="Caminho_3053" data-name="Caminho 3053" d="M441.9,257.019h5.872V267.6a.319.319,0,0,1-.319.319h-5.233a.319.319,0,0,1-.319-.319Z" transform="translate(-308.761 -180.652)" fill="#65afa5"/>
        <path id="Caminho_3054" data-name="Caminho 3054" d="M443.581,269.132V262.1a.839.839,0,0,0-.839-.839h0a.839.839,0,0,0-.839.839v8.035a.676.676,0,0,0,.676.677h4.356a.839.839,0,0,0,.839-.839h-3.355A.839.839,0,0,1,443.581,269.132Z" transform="translate(-308.763 -183.539)" fill="#5b9e97"/>
        <ellipse id="Elipse_44" data-name="Elipse 44" cx="2.935" cy="0.839" rx="2.935" ry="0.839" transform="translate(133.14 75.528)" fill="#ecf5ff"/>
        <circle id="Elipse_45" data-name="Elipse 45" cx="9.471" cy="9.471" r="9.471" transform="translate(11.422 77.799)" fill="none" stroke="#abdffb" stroke-miterlimit="10" stroke-width="1"/>
        <path id="Caminho_3055" data-name="Caminho 3055" d="M70.024,276.2l5.141,8.316c.533.862,2.826.409,5.122-1.011s3.726-3.269,3.194-4.13L78.34,271.06Z" transform="translate(-55.554 -190.213)" fill="#e6e6e6"/>
        <path id="Caminho_3056" data-name="Caminho 3056" d="M78.1,270.129c.532.862-.9,2.71-3.194,4.13s-4.589,1.873-5.122,1.012.9-2.71,3.194-4.13S77.57,269.268,78.1,270.129Z" transform="translate(-55.316 -189.282)" fill="#f1f1f1"/>
        <path id="Caminho_3057" data-name="Caminho 3057" d="M81.216,275.819c.178.287-.377.951-1.238,1.484s-1.7.731-1.881.444.377-.951,1.238-1.484S81.038,275.532,81.216,275.819Z" transform="translate(-61.028 -193.364)" fill="#c2c2c2"/>
        <path id="Caminho_3058" data-name="Caminho 3058" d="M475.612,40.909a.677.677,0,1,1-.676.677A.677.677,0,0,1,475.612,40.909Z" transform="translate(-331.255 -33.505)" fill="#ffc171"/>
        <path id="Caminho_3059" data-name="Caminho 3059" d="M465.012,28.189a.677.677,0,1,1-.677.677A.676.676,0,0,1,465.012,28.189Z" transform="translate(-324.037 -24.844)" fill="#ffc171"/>
        <path id="Caminho_3060" data-name="Caminho 3060" d="M443.813,38.789a.677.677,0,1,1-.677.677A.676.676,0,0,1,443.813,38.789Z" transform="translate(-309.602 -32.061)" fill="#ffc171"/>
        <path id="Caminho_3061" data-name="Caminho 3061" d="M465.734,51.621a.338.338,0,0,1-.293-.506l2.706-4.736a.338.338,0,1,1,.587.336l-2.706,4.736A.337.337,0,0,1,465.734,51.621Z" transform="translate(-324.759 -37.113)" fill="#abdffb"/>
        <path id="Caminho_3062" data-name="Caminho 3062" d="M445.632,50.267a.339.339,0,0,1-.335-.291l-.479-3.383a.338.338,0,0,1,.67-.1l.481,3.383a.339.339,0,0,1-.287.383A.346.346,0,0,1,445.632,50.267Z" transform="translate(-310.746 -37.112)" fill="#abdffb"/>
        <path id="Caminho_3063" data-name="Caminho 3063" d="M453.014,32.541a.338.338,0,0,1-.338-.338V27.467a.338.338,0,1,1,.676,0V32.2a.338.338,0,0,1-.338.338Z" transform="translate(-316.098 -24.122)" fill="#abdffb"/>
        <path id="Caminho_3064" data-name="Caminho 3064" d="M457.255,43.728a.329.329,0,0,1-.089-.012.338.338,0,0,1-.238-.415l2.029-7.442a.338.338,0,0,1,.653.178l-2.029,7.441a.338.338,0,0,1-.326.249Z" transform="translate(-318.985 -29.897)" fill="#abdffb"/>
        <path id="Caminho_3065" data-name="Caminho 3065" d="M108.652,123.373a.677.677,0,1,0,.823.488A.676.676,0,0,0,108.652,123.373Z" transform="translate(-81.508 -89.64)" fill="#ffc171"/>
        <path id="Caminho_3066" data-name="Caminho 3066" d="M115.772,108.426a.677.677,0,1,0,.823.488.677.677,0,0,0-.823-.488Z" transform="translate(-86.357 -79.462)" fill="#ffc171"/>
        <path id="Caminho_3067" data-name="Caminho 3067" d="M138.938,113.448a.677.677,0,1,0,.823.488.677.677,0,0,0-.823-.488Z" transform="translate(-102.13 -82.882)" fill="#ffc171"/>
        <path id="Caminho_3068" data-name="Caminho 3068" d="M116.524,132.58a.338.338,0,0,0,.16-.563L112.89,128.1a.338.338,0,0,0-.486.47l3.794,3.919A.338.338,0,0,0,116.524,132.58Z" transform="translate(-84.345 -92.801)" fill="#abdffb"/>
        <path id="Caminho_3069" data-name="Caminho 3069" d="M141.261,124.862a.339.339,0,0,0,.252-.364l-.372-3.4a.338.338,0,1,0-.673.074l.372,3.4a.338.338,0,0,0,.373.3A.325.325,0,0,0,141.261,124.862Z" transform="translate(-103.517 -87.902)" fill="#abdffb"/>
        <path id="Caminho_3070" data-name="Caminho 3070" d="M129.718,109.515a.338.338,0,0,0,.244-.411l-1.172-4.588a.338.338,0,1,0-.655.167l1.172,4.588a.338.338,0,0,0,.411.244Z" transform="translate(-95.113 -76.64)" fill="#abdffb"/>
        <path id="Caminho_3071" data-name="Caminho 3071" d="M124.183,122.478a.33.33,0,0,0,.084-.032.338.338,0,0,0,.128-.461l-3.808-6.708a.338.338,0,1,0-.588.334l3.808,6.708A.338.338,0,0,0,124.183,122.478Z" transform="translate(-89.55 -84.025)" fill="#abdffb"/>
        <path id="Caminho_3072" data-name="Caminho 3072" d="M407.978,228.824l1.353.676-1.353.677-.677,1.353-.676-1.353-1.353-.677,1.353-.676.676-1.353Z" transform="translate(-283.821 -160.533)" fill="#fcce7a"/>
        <path id="Caminho_3073" data-name="Caminho 3073" d="M106.935,252.144l1.353.677-1.353.677-.677,1.353-.676-1.353-1.353-.677,1.353-.677.676-1.353Z" transform="translate(-78.844 -176.412)" fill="#fcce7a"/>
        <path id="Caminho_3074" data-name="Caminho 3074" d="M245.23,200.069a9.471,9.471,0,0,1-5.553-8.622v-2.02H224.794v2.02a9.471,9.471,0,0,1-5.552,8.622l-1.89.859a17.7,17.7,0,0,0,29.767,0Z" transform="translate(-155.868 -134.629)" fill="#ffceca"/>
        <path id="Caminho_3075" data-name="Caminho 3075" d="M248.3,195.261a9.453,9.453,0,0,1-.8-3.81v-2.02H232.607v2.02a9.472,9.472,0,0,1-3.781,7.571C232.36,199.938,239.624,200.688,248.3,195.261Z" transform="translate(-163.681 -134.633)" fill="#ff8981"/>
        <path id="Caminho_3076" data-name="Caminho 3076" d="M203.866,96.146a20,20,0,0,0-1.353,6.089,10.676,10.676,0,0,0,2.03,5.412h2.706v-11.5Z" transform="translate(-145.764 -71.115)" fill="#8f3526"/>
        <path id="Caminho_3077" data-name="Caminho 3077" d="M195.442,45.443s-8.118-.677-8.118-6.765c0-5.412,2.03-6.089,2.03-6.089s-5.016-.068-4.059-6.765c.677-4.736,3.383-8.118,10.824-8.118,14.207,0,16.913,9.471,21.648,8.795s3.383-2.03,7.442-2.03S234,28.53,234,39.354c0,6.765-6.765,15.56-6.765,15.56h-31.8Z" transform="translate(-133.958 -17.706)" fill="#bb4935"/>
        <path id="Caminho_3078" data-name="Caminho 3078" d="M208.692,91.635v7.442h-1.353a2.706,2.706,0,0,0-2.706,2.706v1.353c0,2.242,1.817,5.412,4.059,5.412,0,8.22,9.471,14.883,14.883,14.883,6.089,0,14.883-6.663,14.883-14.883,2.242,0,4.059-3.17,4.059-5.412v-1.353a2.706,2.706,0,0,0-2.706-2.706h-1.353V93.664s-.677-4.059-2.706-4.059-2.706,2.03-8.795,2.03-4.736-6.089-9.471-6.089S214.1,91.635,208.692,91.635Z" transform="translate(-147.208 -63.898)" fill="#ffceca"/>
        <path id="Caminho_3079" data-name="Caminho 3079" d="M226.149,87.576c4.736,0,3.383,6.089,9.471,6.089s6.765-2.03,8.795-2.03,2.706,4.059,2.706,4.059v-2.03s-.677-4.059-2.706-4.059-2.706,2.03-8.795,2.03-4.736-6.089-9.471-6.089-3.383,6.089-8.795,6.089v2.03C222.766,93.664,221.413,87.576,226.149,87.576Z" transform="translate(-155.869 -63.898)" fill="#ff8981"/>
        <path id="Caminho_3080" data-name="Caminho 3080" d="M310.635,138.952v-6.765h1.353a1.353,1.353,0,0,1,1.353,1.353h0A6.765,6.765,0,0,1,310.635,138.952Z" transform="translate(-219.384 -95.655)" fill="#faaba5"/>
        <path id="Caminho_3081" data-name="Caminho 3081" d="M211.579,138.952v-6.765h-1.353a1.353,1.353,0,0,0-1.353,1.353h0a6.765,6.765,0,0,0,2.706,5.412Z" transform="translate(-150.095 -95.655)" fill="#faaba5"/>
        <rect id="Retângulo_434" data-name="Retângulo 434" width="2.706" height="10.824" rx="1.353" transform="translate(75.015 35.855)" fill="#faaba5"/>
        <path id="Caminho_3082" data-name="Caminho 3082" d="M273.534,117.253a.673.673,0,0,1,.43-.6,16.983,16.983,0,0,1,6.516-1.423h.486a2.088,2.088,0,0,1,1.89,1,1.371,1.371,0,0,1,.149.621c0,1.082-1.894,1.082-1.894,1.082h-6.785A.742.742,0,0,1,273.534,117.253Z" transform="translate(-194.122 -84.107)" fill="#bb4935"/>
        <path id="Caminho_3083" data-name="Caminho 3083" d="M234.245,117.253a.673.673,0,0,0-.43-.6,16.98,16.98,0,0,0-6.516-1.423h-.486a2.088,2.088,0,0,0-1.89,1,1.373,1.373,0,0,0-.149.621c0,1.082,1.894,1.082,1.894,1.082h6.785A.742.742,0,0,0,234.245,117.253Z" transform="translate(-160.922 -84.107)" fill="#bb4935"/>
        <path id="Caminho_3084" data-name="Caminho 3084" d="M285.78,131.33c0,1.868-.606,3.383-1.353,3.383s-1.353-1.515-1.353-3.383.606-3.383,1.353-3.383S285.78,129.461,285.78,131.33Z" transform="translate(-200.618 -92.768)" fill="#08e"/>
        <path id="Caminho_3085" data-name="Caminho 3085" d="M239.14,131.33c0,1.868-.606,3.383-1.353,3.383s-1.353-1.515-1.353-3.383.606-3.383,1.353-3.383S239.14,129.461,239.14,131.33Z" transform="translate(-168.861 -92.768)" fill="#08e"/>
        <path id="Caminho_3086" data-name="Caminho 3086" d="M286.335,153.387a5.411,5.411,0,1,0-.03,10.823,14.219,14.219,0,0,0,4.074-9A5.393,5.393,0,0,0,286.335,153.387Z" transform="translate(-199.143 -110.09)" fill="#faaba5"/>
        <path id="Caminho_3087" data-name="Caminho 3087" d="M226.861,158.8a5.407,5.407,0,0,0-9.454-3.59,14.1,14.1,0,0,0,4.281,8.99A5.408,5.408,0,0,0,226.861,158.8Z" transform="translate(-155.905 -110.09)" fill="#faaba5"/>
        <path id="Caminho_3088" data-name="Caminho 3088" d="M251.145,169.783a3.249,3.249,0,0,1-3.009-1.54.338.338,0,0,1,.6-.3,2.6,2.6,0,0,0,2.4,1.168c3.87,0,7.84-3.92,7.879-3.96a.338.338,0,1,1,.479.479C259.333,165.795,255.3,169.783,251.145,169.783Z" transform="translate(-176.807 -118.029)" fill="#bb4935"/>
        <path id="Caminho_3089" data-name="Caminho 3089" d="M246.547,124.037a.34.34,0,0,0-.454.151l-1.513,3.026a5.746,5.746,0,0,0-11.183-.27,2.4,2.4,0,0,0-3.77,0,5.746,5.746,0,0,0-11.183.27l-1.513-3.026a.339.339,0,1,0-.606.3l2,4a5.748,5.748,0,1,0,11.5-.089c0-.182-.011-.362-.028-.54a1.859,1.859,0,0,1,3.437,0c-.017.178-.027.358-.027.54a5.748,5.748,0,1,0,11.5.089l2-4A.339.339,0,0,0,246.547,124.037Zm-22.476,9.436a5.074,5.074,0,1,1,5.074-5.074,5.074,5.074,0,0,1-5.074,5.074Zm14.883,0a5.074,5.074,0,1,1,5.074-5.074,5.074,5.074,0,0,1-5.074,5.074Z" transform="translate(-155.145 -89.16)" fill="#002a63"/>
        <path id="Caminho_3090" data-name="Caminho 3090" d="M304.86,102.325v5.412h1.353a2.685,2.685,0,0,1,1.417.41,11.749,11.749,0,0,0,.613-3.793c0-5.412-4.059-6.089-6.089-6.089C304.183,98.266,304.86,102.325,304.86,102.325Z" transform="translate(-213.609 -72.559)" fill="#8f3526"/>
        <path id="Caminho_3091" data-name="Caminho 3091" d="M287.23,91.832a.339.339,0,0,1-.3-.187c-.681-1.363-1.95-3.9-6.51-4.552a7.061,7.061,0,0,0-5.668,1.617,4.3,4.3,0,0,1-2.4,1.093,3.25,3.25,0,0,1-3.009-1.54.338.338,0,0,1,.6-.3,2.6,2.6,0,0,0,2.4,1.168,3.808,3.808,0,0,0,2.01-.968,7.746,7.746,0,0,1,6.157-1.735c4.911.7,6.335,3.55,7.02,4.919a.338.338,0,0,1-.3.49Z" transform="translate(-191.243 -64.433)" fill="#8f3526"/>
        <path id="Caminho_3092" data-name="Caminho 3092" d="M236.228,75.436a.339.339,0,0,1-.321-.231c-.053-.156-1.331-3.829-5.091-3.829-3.852,0-6.475,3.223-6.5,3.255a.339.339,0,1,1-.529-.423c.115-.144,2.856-3.51,7.03-3.51,4.254,0,5.719,4.247,5.733,4.29a.338.338,0,0,1-.213.427.33.33,0,0,1-.107.02Z" transform="translate(-160.199 -53.788)" fill="#8f3526"/>
        <path id="Caminho_3093" data-name="Caminho 3093" d="M227.715,37.1c-6.276,0-7.86-1.38-9.866-3.127a18.5,18.5,0,0,0-3.155-2.329c-4.659-2.661-5.891-2.661-9.98-2.661a7.586,7.586,0,0,0-5.819,2.571.338.338,0,0,1-.541-.406,8.121,8.121,0,0,1,6.359-2.84c4.116,0,5.5,0,10.316,2.75a19.076,19.076,0,0,1,3.264,2.407c1.974,1.719,3.4,2.96,9.422,2.96a.338.338,0,1,1,0,.677Z" transform="translate(-142.891 -24.926)" fill="#8f3526"/>
        <path id="Caminho_3094" data-name="Caminho 3094" d="M285.322,59.835a.339.339,0,0,1-.336-.3c-.025-.209-.655-5.113-5.076-5.113a4.835,4.835,0,0,0-3.69,1.235,6.222,6.222,0,0,1-3.009,1.464c-3.44.687-8.755-1.284-8.98-1.368a.339.339,0,0,1,.238-.634c.053.02,5.365,1.987,8.61,1.338A5.571,5.571,0,0,0,275.8,55.13a5.512,5.512,0,0,1,4.113-1.384c5.027,0,5.741,5.654,5.748,5.712a.338.338,0,0,1-.3.375Z" transform="translate(-187.644 -42.245)" fill="#8f3526"/>
        <path id="Caminho_3095" data-name="Caminho 3095" d="M205.35,221.228s-6.089,7.442-13.53,7.442-13.53-7.442-13.53-7.442c-8.795,4.736-20.3,7.442-20.3,7.442v52.768h67.653V228.67S214.145,225.964,205.35,221.228Z" transform="translate(-115.452 -156.282)" fill="#00af8f"/>
        <path id="Caminho_3096" data-name="Caminho 3096" d="M231.055,230.7c10.824,0,14.685-7.058,15.421-8.5-.638-.312-1.272-.634-1.891-.967,0,0-6.089,7.442-13.53,7.442s-13.53-7.442-13.53-7.442c-.624.336-1.262.66-1.907.975C216.31,223.8,220.23,230.7,231.055,230.7Z" transform="translate(-154.687 -156.282)" fill="#00947a"/>
        <path id="Caminho_3097" data-name="Caminho 3097" d="M120.281,244.548h-2.706s-17.59,24.355-18.943,46.68v1.691a8.456,8.456,0,0,0,8.456,8.456H120.28Z" transform="translate(-75.033 -172.161)" fill="#00af8f"/>
        <path id="Caminho_3098" data-name="Caminho 3098" d="M361.515,244.548h2.708s17.59,24.355,18.943,46.68v1.691a8.456,8.456,0,0,1-8.456,8.456H361.517Z" transform="translate(-254.027 -172.161)" fill="#00af8f"/>
        <path id="Caminho_3099" data-name="Caminho 3099" d="M146.145,328.354s-2.706,9.471-12.854,9.471c-9.5,0,9.471-31.8,12.854-31.8Z" transform="translate(-96.838 -214.023)" fill="#00947a"/>
        <path id="Caminho_3100" data-name="Caminho 3100" d="M350.915,324.924l14.883-6.089s-2.706-29.767-14.883-29.767Z" transform="translate(-246.81 -202.474)" fill="#00947a"/>
        <path id="Caminho_3101" data-name="Caminho 3101" d="M180.365,310l-5.412-5.412,48.709-.677L231.78,310Z" transform="translate(-126.999 -212.578)" fill="#af824b"/>
        <path id="Caminho_3102" data-name="Caminho 3102" d="M174.953,306.029V361.5l2.706,1.353V308.735Z" transform="translate(-126.999 -214.023)" fill="#e2aa63"/>
        <path id="Caminho_3103" data-name="Caminho 3103" d="M183.433,314.509V368.63l2.706,4.059V317.215Z" transform="translate(-132.773 -219.797)" fill="#ca9658"/>
        <path id="Caminho_3104" data-name="Caminho 3104" d="M199.114,272.875c.747,1.993,1.488,2.842,2.216,3.173l-.011.024s-4.741.772-5.733-1.874A57.2,57.2,0,0,1,192,267.212C192.737,268.777,195.035,272.784,199.114,272.875Z" transform="translate(-138.606 -187.593)" fill="#037701"/>
        <path id="Caminho_3105" data-name="Caminho 3105" d="M208.785,305.1a5.023,5.023,0,0,0,.407.843l-.076.039a2.767,2.767,0,0,1-3.638-1.654c-.991-2.646-3.087-2.867-4.962-5.182a20.18,20.18,0,0,1-2.867-4.962s-1.874-2.315-3.969-2.536l-2.536-4.08s1.985-2.756,3.859-.441c.992,2.646,5.733,1.874,5.733,1.874l.011-.024a4.016,4.016,0,0,0,2.083.134v.11l2.646,7.057Z" transform="translate(-138.024 -200.523)" fill="#06aa0e"/>
        <path id="Caminho_3106" data-name="Caminho 3106" d="M230.193,296.513c2.205,3.2,2.425,1.1,7.057,5.4s4.631,12.35,4.631,12.35L241,314.6a5.65,5.65,0,0,1-6.87-2.464,5.022,5.022,0,0,1-.407-.843l-3.308-8.821-2.646-7.056v-.11A2.406,2.406,0,0,1,230.193,296.513Z" transform="translate(-162.96 -206.71)" fill="#aaefb8"/>
        <path id="Caminho_3107" data-name="Caminho 3107" d="M262.291,232.546c.506.142,1.01.627,1.755,2.612,1.323,3.528-.221,10.144,1.433,14.554a8.055,8.055,0,0,1-.249,7.035,25.577,25.577,0,0,0-1.532-3.33l.126-.067c.221-2.095-2.425-9.151-2.425-9.151-.37-.989-.7-1.861-1-2.643l.009,0c-1.462-3.9-.67-7.8,1.764-8.712Z" transform="translate(-184.684 -163.989)" fill="#06aa0e"/>
        <path id="Caminho_3108" data-name="Caminho 3108" d="M189.974,249.943c.269,1.066,1.8,6.366,5.575,6.763l1.654,4.41c-4.078-.091-6.376-4.1-7.114-5.663-.006-.018-.022-.032-.028-.05-.2-.479-.394-.969-.574-1.454A4.26,4.26,0,0,1,189.974,249.943Z" transform="translate(-136.696 -175.834)" fill="#006e24"/>
        <path id="Caminho_3109" data-name="Caminho 3109" d="M256.7,227a6.1,6.1,0,0,0,1.333.255l-.12.3c-2.435.913-3.226,4.812-1.764,8.712l-.009,0a51.274,51.274,0,0,0-2.142-5.2l.167-.093c-.883-2.355-1.259-5.343.474-6.194C255.621,225.386,255.949,226.661,256.7,227Z" transform="translate(-180.426 -158.701)" fill="#06aa0e"/>
        <path id="Caminho_3110" data-name="Caminho 3110" d="M245.065,224.1c-1.733.851-1.357,3.839-.474,6.194l-.167.093c-1-1.868-1.644-1.647-3.8-2.628a3.835,3.835,0,0,1-1.262-.925c.011-.587.385-1.764,2.916-2.712A3.061,3.061,0,0,1,245.065,224.1Z" transform="translate(-170.852 -158.022)" fill="#037701"/>
        <path id="Caminho_3111" data-name="Caminho 3111" d="M196.883,236.009s.214-2.032,3.585-3.346a5.261,5.261,0,0,0-.277,4.118c-5.292,1.985-2.977,8.159-2.977,8.159-3.771-.4-5.306-5.7-5.575-6.763C193.031,236.116,195.876,235.068,196.883,236.009Z" transform="translate(-138.36 -164.068)" fill="#00822d"/>
        <path id="Caminho_3112" data-name="Caminho 3112" d="M217.691,226.612a3.835,3.835,0,0,0,1.262.925c2.159.981,2.8.761,3.8,2.628a51.324,51.324,0,0,1,2.143,5.2c.3.782.631,1.655,1,2.643,0,0,2.646,7.056,2.425,9.151l-.126.067a25.587,25.587,0,0,1,1.532,3.33,19.226,19.226,0,0,1,.58,1.9c1.764,7.387.441,11.908.441,11.908l-2.646.992s0-8.049-4.631-12.35-4.85-2.205-7.057-5.4a2.406,2.406,0,0,0-2.425-1.213,4.015,4.015,0,0,1-2.083-.134c-.728-.331-1.468-1.181-2.216-3.173l-1.654-4.41s-2.315-6.174,2.977-8.159a5.257,5.257,0,0,1,.277-4.116,4.557,4.557,0,0,1,2.48-1.947l2.646-.992A5.465,5.465,0,0,0,217.691,226.612Z" transform="translate(-149.185 -157.801)" fill="#55e072"/>
        <path id="Caminho_3113" data-name="Caminho 3113" d="M199.114,272.875c.747,1.993,1.488,2.842,2.216,3.173l-.011.024s-4.741.772-5.733-1.874A57.2,57.2,0,0,1,192,267.212C192.737,268.777,195.035,272.784,199.114,272.875Z" transform="translate(-138.606 -187.593)" fill="#00822d"/>
        <path id="Caminho_3114" data-name="Caminho 3114" d="M208.785,305.1a5.023,5.023,0,0,0,.407.843l-.076.039a2.767,2.767,0,0,1-3.638-1.654c-.991-2.646-3.087-2.867-4.962-5.182a20.18,20.18,0,0,1-2.867-4.962s-1.874-2.315-3.969-2.536l-2.536-4.08s1.985-2.756,3.859-.441c.992,2.646,5.733,1.874,5.733,1.874l.011-.024a4.016,4.016,0,0,0,2.083.134v.11l2.646,7.057Z" transform="translate(-138.024 -200.523)" fill="#00b040"/>
        <path id="Caminho_3115" data-name="Caminho 3115" d="M230.193,296.513c2.205,3.2,2.425,1.1,7.057,5.4s4.631,12.35,4.631,12.35L241,314.6a5.65,5.65,0,0,1-6.87-2.464,5.022,5.022,0,0,1-.407-.843l-3.308-8.821-2.646-7.056v-.11A2.406,2.406,0,0,1,230.193,296.513Z" transform="translate(-162.96 -206.71)" fill="#9dde98"/>
        <path id="Caminho_3116" data-name="Caminho 3116" d="M262.291,232.546c.506.142,1.01.627,1.755,2.612,1.323,3.528-.221,10.144,1.433,14.554a8.055,8.055,0,0,1-.249,7.035,25.577,25.577,0,0,0-1.532-3.33l.126-.067c.221-2.095-2.425-9.151-2.425-9.151-.37-.989-.7-1.861-1-2.643l.009,0c-1.462-3.9-.67-7.8,1.764-8.712Z" transform="translate(-184.684 -163.989)" fill="#00822d"/>
        <path id="Caminho_3117" data-name="Caminho 3117" d="M256.7,227a6.1,6.1,0,0,0,1.333.255l-.12.3c-2.435.913-3.226,4.812-1.764,8.712l-.009,0a51.274,51.274,0,0,0-2.142-5.2l.167-.093c-.883-2.355-1.259-5.343.474-6.194C255.621,225.386,255.949,226.661,256.7,227Z" transform="translate(-180.426 -158.701)" fill="#009435"/>
        <path id="Caminho_3118" data-name="Caminho 3118" d="M245.065,224.1c-1.733.851-1.357,3.839-.474,6.194l-.167.093c-1-1.868-1.644-1.647-3.8-2.628a3.835,3.835,0,0,1-1.262-.925c.011-.587.385-1.764,2.916-2.712A3.061,3.061,0,0,1,245.065,224.1Z" transform="translate(-170.852 -158.022)" fill="#00822d"/>
        <path id="Caminho_3119" data-name="Caminho 3119" d="M217.691,226.612a3.835,3.835,0,0,0,1.262.925c2.159.981,2.8.761,3.8,2.628a51.324,51.324,0,0,1,2.143,5.2c.3.782.631,1.655,1,2.643,0,0,2.646,7.056,2.425,9.151l-.126.067a25.587,25.587,0,0,1,1.532,3.33,19.226,19.226,0,0,1,.58,1.9c1.764,7.387.441,11.908.441,11.908l-2.646.992s0-8.049-4.631-12.35-4.85-2.205-7.057-5.4a2.406,2.406,0,0,0-2.425-1.213,4.015,4.015,0,0,1-2.083-.134c-.728-.331-1.468-1.181-2.216-3.173l-1.654-4.41s-2.315-6.174,2.977-8.159a5.257,5.257,0,0,1,.277-4.116,4.557,4.557,0,0,1,2.48-1.947l2.646-.992A5.465,5.465,0,0,0,217.691,226.612Z" transform="translate(-149.185 -157.801)" fill="#55e072"/>
        <path id="Caminho_3120" data-name="Caminho 3120" d="M202.768,268.687c-.1-.064-.2-.133-.291-.2C202.573,268.553,202.668,268.624,202.768,268.687Z" transform="translate(-145.74 -188.459)" fill="#037701"/>
        <path id="Caminho_3121" data-name="Caminho 3121" d="M198.357,264.39q-.169-.2-.325-.41C198.136,264.12,198.245,264.257,198.357,264.39Z" transform="translate(-142.713 -185.392)" fill="#037701"/>
        <path id="Caminho_3122" data-name="Caminho 3122" d="M204.562,269.757c-.093-.042-.18-.093-.27-.14C204.382,269.665,204.469,269.716,204.562,269.757Z" transform="translate(-146.976 -189.23)" fill="#037701"/>
        <path id="Caminho_3123" data-name="Caminho 3123" d="M201.142,267.405c-.105-.085-.206-.177-.305-.269C200.937,267.228,201.037,267.32,201.142,267.405Z" transform="translate(-144.623 -187.541)" fill="#037701"/>
        <path id="Caminho_3124" data-name="Caminho 3124" d="M199.673,265.956c-.109-.109-.214-.222-.316-.338C199.459,265.734,199.564,265.848,199.673,265.956Z" transform="translate(-143.615 -186.507)" fill="#037701"/>
        <path id="Caminho_3125" data-name="Caminho 3125" d="M206.559,270.574c-.079-.022-.151-.054-.228-.08C206.407,270.52,206.481,270.552,206.559,270.574Z" transform="translate(-148.364 -189.827)" fill="#037701"/>
        <path id="Caminho_3126" data-name="Caminho 3126" d="M197.186,262.755c-.115-.16-.223-.319-.328-.482Q197.014,262.518,197.186,262.755Z" transform="translate(-141.914 -184.23)" fill="#037701"/>
        <path id="Caminho_3127" data-name="Caminho 3127" d="M203.679,269.276c-.1-.052-.2-.1-.287-.159C203.484,269.175,203.582,269.225,203.679,269.276Z" transform="translate(-146.363 -188.89)" fill="#026600"/>
        <path id="Caminho_3128" data-name="Caminho 3128" d="M207.7,270.869a4.183,4.183,0,0,1-.659-.125A4.151,4.151,0,0,0,207.7,270.869Z" transform="translate(-148.849 -189.997)" fill="#026600"/>
        <path id="Caminho_3129" data-name="Caminho 3129" d="M217.693,242.43h0a5.458,5.458,0,0,0,.238,1A5.458,5.458,0,0,1,217.693,242.43Z" transform="translate(-156.1 -170.719)" fill="#026600"/>
        <path id="Caminho_3130" data-name="Caminho 3130" d="M205.519,270.2c-.128-.043-.258-.085-.381-.139C205.261,270.112,205.39,270.153,205.519,270.2Z" transform="translate(-147.552 -189.53)" fill="#026600"/>
        <path id="Caminho_3131" data-name="Caminho 3131" d="M196.857,262.271h0Z" transform="translate(-141.913 -184.228)" fill="#026600"/>
        <path id="Caminho_3132" data-name="Caminho 3132" d="M197.933,263.844l-.046-.064Z" transform="translate(-142.615 -185.256)" fill="#026600"/>
        <path id="Caminho_3133" data-name="Caminho 3133" d="M200.5,266.824c-.052-.048-.105-.1-.156-.146C200.4,266.729,200.452,266.776,200.5,266.824Z" transform="translate(-144.29 -187.229)" fill="#026600"/>
        <path id="Caminho_3134" data-name="Caminho 3134" d="M199.147,265.378c-.032-.037-.066-.074-.1-.112C199.081,265.3,199.114,265.341,199.147,265.378Z" transform="translate(-143.406 -186.268)" fill="#026600"/>
        <path id="Caminho_3135" data-name="Caminho 3135" d="M202.012,268.144c-.073-.053-.147-.1-.218-.16C201.865,268.039,201.939,268.09,202.012,268.144Z" transform="translate(-145.275 -188.118)" fill="#026600"/>
        <path id="Caminho_3136" data-name="Caminho 3136" d="M198.958,303.06l.042.067c2.095.221,3.969,2.536,3.969,2.536a20.184,20.184,0,0,0,2.867,4.962c1.874,2.315,3.969,2.536,4.961,5.182l-3.739-9.972A19.739,19.739,0,0,0,198.958,303.06Z" transform="translate(-143.344 -212.001)" fill="#009435"/>
        <path id="Caminho_3137" data-name="Caminho 3137" d="M275.918,305.58c-.16-.439-.351-.878-.548-1.315C275.565,304.7,275.757,305.142,275.918,305.58Z" transform="translate(-195.372 -212.822)" fill="#06aa0e"/>
        <path id="Caminho_3138" data-name="Caminho 3138" d="M277.207,307.7c-.044.082-.089.167-.121.219C277.118,307.866,277.161,307.788,277.207,307.7Z" transform="translate(-196.54 -215.16)" fill="#06aa0e"/>
        <path id="Caminho_3139" data-name="Caminho 3139" d="M274.22,301.787c.128.263.248.527.367.791C274.47,302.313,274.348,302.051,274.22,301.787Z" transform="translate(-194.589 -211.134)" fill="#55e072"/>
        <path id="Caminho_3140" data-name="Caminho 3140" d="M223.036,279.352c2.029-.761,4.3.16,6.125,1.322a46.558,46.558,0,0,0-3.528-5c-1.138-.577-5.233-2.38-9.323-.847a.942.942,0,0,1-1.213-.551.916.916,0,0,1-.035-.47,37.878,37.878,0,0,0-3.8.984l.965,2.573c.747,1.994,1.488,2.842,2.216,3.173a4.014,4.014,0,0,0,2.083.134,4.258,4.258,0,0,1,.428-.005,17.856,17.856,0,0,1,5.6-.9A.922.922,0,0,1,223.036,279.352Z" transform="translate(-151.723 -192.085)" fill="#55e072"/>
        <path id="Caminho_3141" data-name="Caminho 3141" d="M213.114,253.99a12.6,12.6,0,0,1,7.47-.31c-.463-.5-.746-.785-.751-.789a28.506,28.506,0,0,0-4.352-4.107.942.942,0,0,1-.468-1.247c0-.009.013-.014.017-.023a19.087,19.087,0,0,0-4.165-1.721c-5.077,2.051-2.823,8.088-2.823,8.088l.689,1.837a37.89,37.89,0,0,1,3.8-.984A.93.93,0,0,1,213.114,253.99Z" transform="translate(-149.189 -173.008)" fill="#80e895"/>
        <path id="Caminho_3142" data-name="Caminho 3142" d="M239.621,297.782a.929.929,0,0,1,1.068-.565,6.566,6.566,0,0,1,3.322,2.213c-.13-.491-.284-1-.482-1.549-.044-.122-.1-.247-.145-.371-.019-.017-.042-.028-.061-.047-1.263-1.316-5.069-4.531-7.479-3.629a.941.941,0,0,1-1.213-.551.925.925,0,0,1,.077-.794,17.857,17.857,0,0,0-5.6.9,2.379,2.379,0,0,1,2,1.218,6.115,6.115,0,0,0,1.694,1.811A13.892,13.892,0,0,1,239.621,297.782Z" transform="translate(-163.871 -204.803)" fill="#0bcc23"/>
        <path id="Caminho_3143" data-name="Caminho 3143" d="M252.747,312.809c-.533-1.382-2.329-4.891-4.6-5.421a.941.941,0,0,1-.7-1.131.89.89,0,0,1,.064-.139,13.893,13.893,0,0,0-6.824-1.364c1.088.7,2.191.646,5.363,3.591,4.631,4.3,4.631,12.35,4.631,12.35l1.779-.667a.917.917,0,0,1-.037-.589A20.616,20.616,0,0,0,252.747,312.809Z" transform="translate(-171.754 -213.14)" fill="#006e24"/>
        <path id="Caminho_3144" data-name="Caminho 3144" d="M235.11,246.748c0-.082-.012-.175-.021-.266-.006-.07-.011-.138-.019-.212-.016-.133-.037-.274-.061-.42-.005-.032-.01-.064-.016-.1-.03-.174-.064-.354-.1-.541h0c-.118-.57-.272-1.189-.45-1.827-.722-2.59-1.765-5.373-1.765-5.373-.371-.989-.7-1.861-1-2.643a51.283,51.283,0,0,0-2.142-5.2c-1-1.868-1.644-1.647-3.8-2.629a3.834,3.834,0,0,1-1.262-.925,5.465,5.465,0,0,1-1.274-3.154l-2.646.992a4.557,4.557,0,0,0-2.48,1.947,5.261,5.261,0,0,0-.277,4.118c-.057.021-.1.049-.154.071a19.087,19.087,0,0,1,4.165,1.721,29.033,29.033,0,0,1,9.018,8.194,42.554,42.554,0,0,1,4.067,6.743l.214-.08A3.082,3.082,0,0,0,235.11,246.748Z" transform="translate(-155.961 -157.8)" fill="#55e072"/>
        <path id="Caminho_3145" data-name="Caminho 3145" d="M240.892,268.559a19.242,19.242,0,0,0-.58-1.9,25.575,25.575,0,0,0-1.532-3.33l.126-.067a7.2,7.2,0,0,0-.211-1.952,49.258,49.258,0,0,0-3.67-5.147l0-.005c-.437-.536-.841-1.013-1.217-1.453a35.905,35.905,0,0,0-1.735-6.988.942.942,0,1,0-1.764.662,29.251,29.251,0,0,1,1.085,3.69c-1.025-1.1-3.417-3.59-4.554-4.107a.942.942,0,0,0-.78,1.715,28.489,28.489,0,0,1,4.352,4.107s.287.29.751.789a12.6,12.6,0,0,0-7.47.31.942.942,0,0,0,.661,1.764c4.088-1.532,8.185.271,9.323.847a46.553,46.553,0,0,1,3.528,5c-1.822-1.164-4.1-2.083-6.125-1.322a.942.942,0,1,0,.662,1.764c2.41-.9,6.216,2.313,7.479,3.629.018.019.041.03.061.047.048.124.1.249.145.371.2.551.353,1.058.482,1.549a6.563,6.563,0,0,0-3.322-2.213.942.942,0,1,0-.428,1.835c2.272.53,4.068,4.039,4.6,5.421a20.52,20.52,0,0,1-.33,6.629.917.917,0,0,0,.037.589l.867-.325S242.657,275.947,240.892,268.559Z" transform="translate(-159.768 -173.905)" fill="#9dde98"/>
        <path id="Caminho_3146" data-name="Caminho 3146" d="M229.1,295.306h0Z" transform="translate(-163.869 -206.721)" fill="#55e072"/>
        <path id="Caminho_3147" data-name="Caminho 3147" d="M240,230.983Z" transform="translate(-171.289 -162.924)" fill="#026600"/>
        <path id="Caminho_3148" data-name="Caminho 3148" d="M211.268,274.8l.965,2.573c.084.223.168.43.252.626.025.059.051.115.076.172q.092.205.183.39c.026.052.052.106.078.156.082.16.164.308.246.443a5.4,5.4,0,0,0,.322.474c.032.041.062.076.093.114.076.094.153.181.229.259.035.036.071.071.107.1a2.636,2.636,0,0,0,.223.187c.032.024.064.05.1.071a2.188,2.188,0,0,0,.313.179,4.014,4.014,0,0,0,2.082.134,4.139,4.139,0,0,1,.428-.005h0a17.856,17.856,0,0,1,5.6-.9h0a.929.929,0,0,1,.191-.242.856.856,0,0,1,.282-.176c2.029-.761,4.3.159,6.125,1.322a46.559,46.559,0,0,0-3.528-5c-1.138-.577-5.233-2.38-9.323-.847a.942.942,0,0,1-1.213-.551.81.81,0,0,1-.046-.285.919.919,0,0,1,.011-.185A37.887,37.887,0,0,0,211.268,274.8Z" transform="translate(-151.726 -192.089)" fill="#2b9e36"/>
        <path id="Caminho_3149" data-name="Caminho 3149" d="M208.045,253.883l.689,1.837a37.892,37.892,0,0,1,3.8-.984.921.921,0,0,1,.139-.362.9.9,0,0,1,.089-.124,1,1,0,0,1,.359-.255,12.6,12.6,0,0,1,7.47-.31c-.463-.5-.746-.785-.751-.789a28.512,28.512,0,0,0-4.352-4.107.942.942,0,0,1-.468-1.247c0-.009.013-.014.017-.023a19.085,19.085,0,0,0-4.165-1.721C205.791,247.846,208.045,253.883,208.045,253.883Z" transform="translate(-149.192 -173.011)" fill="#31b03c"/>
        <path id="Caminho_3150" data-name="Caminho 3150" d="M229.1,293.379h0c.083,0,.166.009.249.019h.006a2.154,2.154,0,0,1,.451.108l.047.015c.048.018.1.043.143.066s.094.045.141.072.085.053.128.081.107.075.16.117l.116.1c.061.055.122.116.183.181.032.032.064.064.1.1a4.21,4.21,0,0,1,.28.359c.16.231.306.428.447.606.043.055.084.1.125.154.1.119.191.229.283.327.042.045.084.089.124.13.093.1.183.179.272.255.03.026.061.055.09.079a3.848,3.848,0,0,0,.351.258h0a13.893,13.893,0,0,1,6.824,1.364h0a.916.916,0,0,1,.417-.471.848.848,0,0,1,.094-.035.82.82,0,0,1,.558-.058,6.565,6.565,0,0,1,3.322,2.213c-.13-.491-.284-1-.482-1.549-.044-.122-.1-.247-.145-.371-.02-.017-.042-.028-.061-.047-1.263-1.316-5.069-4.531-7.479-3.629a.941.941,0,0,1-1.213-.551.925.925,0,0,1-.05-.408.122.122,0,0,1,.005-.021.923.923,0,0,1,.122-.366h0a17.85,17.85,0,0,0-5.6.9Z" transform="translate(-163.867 -204.795)" fill="#00822d"/>
        <path id="Caminho_3151" data-name="Caminho 3151" d="M217.817,226.912c-.036.087-.07.175-.1.263-.017.05-.032.1-.045.152-.023.082-.045.163-.064.244-.011.051-.022.1-.032.153-.016.082-.029.163-.04.243-.006.047-.013.094-.018.14-.009.09-.016.179-.02.266,0,.034,0,.069-.006.1a5.84,5.84,0,0,0,.061,1.035,5.455,5.455,0,0,0,.238,1c-.056.021-.1.049-.154.071A19.084,19.084,0,0,1,221.8,232.3h0a.934.934,0,0,1,.524-.471c.018-.006.038,0,.056-.009a.864.864,0,0,1,.651.036c1.137.517,3.529,3.006,4.554,4.107a29.238,29.238,0,0,0-1.085-3.69.942.942,0,1,1,1.764-.661A35.909,35.909,0,0,1,230,238.6c.376.44.78.916,1.217,1.453l0,.005c.83,1.028,1.587,2.042,2.282,3.041q.148.212.291.423c.385.566.756,1.129,1.1,1.682h0c-.057-.276-.124-.564-.2-.859,0-.016-.007-.032-.011-.048-.074-.3-.154-.6-.241-.914l0-.006c-.016-.056-.032-.113-.049-.17q-.073-.255-.148-.511-.032-.114-.067-.227-.09-.3-.183-.6l-.072-.229q-.073-.229-.144-.452c-.021-.064-.042-.132-.064-.2-.061-.185-.12-.365-.179-.541l-.078-.232c-.049-.147-.1-.289-.145-.426l-.072-.208c-.042-.123-.083-.241-.123-.351l-.059-.168c-.046-.128-.089-.252-.128-.361l-.039-.109c-.032-.089-.064-.173-.088-.243l-.021-.058-.072-.2-.014-.037-.021-.056c-.371-.989-.7-1.861-1-2.643a51.284,51.284,0,0,0-2.142-5.2c-1-1.868-1.644-1.647-3.8-2.628a3.834,3.834,0,0,1-1.262-.925,5.465,5.465,0,0,1-1.274-3.154l-2.646.992a4.557,4.557,0,0,0-2.48,1.947,3.881,3.881,0,0,0-.2.388C217.85,226.825,217.835,226.869,217.817,226.912Z" transform="translate(-155.963 -157.799)" fill="#2b9e36"/>
        <path id="Caminho_3152" data-name="Caminho 3152" d="M272.024,291.626h0Z" transform="translate(-193.094 -204.214)" fill="#80e895"/>
        <rect id="Retângulo_435" data-name="Retângulo 435" width="12.177" height="6.089" transform="translate(79.75 94.036)" fill="#0094ff"/>
        <rect id="Retângulo_436" data-name="Retângulo 436" width="12.177" height="16.237" transform="translate(79.75 77.799)" fill="#ecf5ff"/>
        <path id="Caminho_3153" data-name="Caminho 3153" d="M286.771,238.16v2.706H274.594V238.16a4.882,4.882,0,0,1,1.942-3.849,4.006,4.006,0,0,0,1.441-3.119v.2h5.412v-.2a4.006,4.006,0,0,0,1.441,3.119,4.885,4.885,0,0,1,1.942,3.849Z" transform="translate(-194.844 -163.067)" fill="#0094ff"/>
        <path id="Caminho_3154" data-name="Caminho 3154" d="M290.606,225.851v.2h-5.412v-2.706h5.412Z" transform="translate(-202.061 -157.726)" fill="#423e35"/>
        <path id="Caminho_3155" data-name="Caminho 3155" d="M290.606,213.424v2.706h-5.412v-2.706a.678.678,0,0,1,.676-.677h4.059A.678.678,0,0,1,290.606,213.424Z" transform="translate(-202.061 -150.508)" fill="#ecf5ff"/>
        <path id="Caminho_3156" data-name="Caminho 3156" d="M289.93,212.748H285.87a.678.678,0,0,0-.677.677v1.353a.678.678,0,0,1,.676-.677h4.059a.678.678,0,0,1,.677.677v-1.353A.678.678,0,0,0,289.93,212.748Z" transform="translate(-202.061 -150.508)" fill="#99c5ff"/>
        <rect id="Retângulo_437" data-name="Retângulo 437" width="12.177" height="1.353" transform="translate(79.75 77.799)" fill="#99c5ff"/>
        <rect id="Retângulo_438" data-name="Retângulo 438" width="12.177" height="1.353" transform="translate(79.75 92.683)" fill="#99c5ff"/>
        <path id="Caminho_3157" data-name="Caminho 3157" d="M277.3,315.1v-2.706h-2.706v6.089h12.177v-1.353H279.33a2.03,2.03,0,0,1-2.03-2.029Z" transform="translate(-194.844 -218.353)" fill="#0070ff"/>
        <rect id="Retângulo_439" data-name="Retângulo 439" width="2.706" height="13.53" transform="translate(79.75 79.152)" fill="#d2dae0"/>
        <path id="Caminho_3158" data-name="Caminho 3158" d="M277.3,238.16a4.883,4.883,0,0,1,1.942-3.849,3.985,3.985,0,0,0,1.43-2.916h-2.7v-.2a4.006,4.006,0,0,1-1.441,3.119,4.882,4.882,0,0,0-1.942,3.849v2.706H277.3Z" transform="translate(-194.844 -163.067)" fill="#0070ff"/>
        <path id="Caminho_3159" data-name="Caminho 3159" d="M287.889,226.054c0-.068.011-.135.011-.2v-2.5h-2.706v2.706Z" transform="translate(-202.061 -157.726)" fill="#2c2c2c"/>
        <path id="Caminho_3160" data-name="Caminho 3160" d="M285.87,216.988a.678.678,0,0,0-.677.676v1.353H287.9v-2.03Z" transform="translate(-202.061 -153.395)" fill="#d2dae0"/>
        <path id="Caminho_3161" data-name="Caminho 3161" d="M288.576,212.748H285.87a.678.678,0,0,0-.677.677v1.353a.678.678,0,0,1,.676-.677h2.03v-.676A.679.679,0,0,1,288.576,212.748Z" transform="translate(-202.061 -150.508)" fill="#7191bc"/>
        <rect id="Retângulo_440" data-name="Retângulo 440" width="2.706" height="1.353" transform="translate(79.75 92.683)" fill="#7191bc"/>
        <rect id="Retângulo_441" data-name="Retângulo 441" width="2.706" height="1.353" transform="translate(79.75 77.799)" fill="#7191bc"/>
        <path id="Caminho_3162" data-name="Caminho 3162" d="M284.883,347.979a14.682,14.682,0,0,1,3.437,9.359c-1.093-1.273-2.808-2.876-5.039-5.421a29.581,29.581,0,0,1-5.619-9.589A25.434,25.434,0,0,1,284.883,347.979Z" transform="translate(-196.933 -238.739)" fill="#fdcb8c"/>
        <path id="Caminho_3163" data-name="Caminho 3163" d="M301.331,314.354a14.6,14.6,0,0,1,3.425,9.355c-1.093-1.273-2.808-2.877-5.036-5.413a32.4,32.4,0,0,1-5.656-9.61,25.522,25.522,0,0,1,7.266,5.668Z" transform="translate(-208.101 -215.832)" fill="#fdcb8c"/>
        <path id="Caminho_3164" data-name="Caminho 3164" d="M316.382,277.293a14.593,14.593,0,0,1,3.433,9.352c-1.093-1.273-2.8-2.869-5.036-5.413a32.54,32.54,0,0,1-5.671-9.623A25.459,25.459,0,0,1,316.382,277.293Z" transform="translate(-218.345 -190.586)" fill="#fdcb8c"/>
        <path id="Caminho_3165" data-name="Caminho 3165" d="M330.545,242.746a14.666,14.666,0,0,1,3.429,9.363c-1.093-1.273-2.8-2.869-5.036-5.413a29.708,29.708,0,0,1-5.626-9.605A25.723,25.723,0,0,1,330.545,242.746Z" transform="translate(-228.015 -167.083)" fill="#fdcb8c"/>
        <path id="Caminho_3166" data-name="Caminho 3166" d="M266.157,337.794a29.58,29.58,0,0,0,5.619,9.589c2.232,2.545,3.946,4.148,5.039,5.421,1.2,1.394,1.667,2.393,1.273,3.811-2.939,3.473-7.316,5.977-11.766,4.173-6.3-2.57-6.454-11.239-4.328-16.466l3.526-8.653A21.453,21.453,0,0,0,266.157,337.794Z" transform="translate(-185.427 -234.204)" fill="#e38b1f"/>
        <path id="Caminho_3167" data-name="Caminho 3167" d="M292.231,316.827c1.375,1.589,1.791,2.665,1.077,4.422l-2.244,5.516a17.41,17.41,0,0,1-2.827,4.6c.394-1.418-.073-2.416-1.273-3.811a14.681,14.681,0,0,0-3.437-9.359,25.435,25.435,0,0,0-7.221-5.65,21.461,21.461,0,0,1-.636-2.124.027.027,0,0,0,0-.019l4.815-11.819a29.426,29.426,0,0,0,1.053,3.226,32.4,32.4,0,0,0,5.659,9.609C289.424,313.95,291.138,315.554,292.231,316.827Z" transform="translate(-195.576 -208.949)" fill="#e38b1f"/>
        <path id="Caminho_3168" data-name="Caminho 3168" d="M307.324,279.818c1.367,1.593,1.78,2.661,1.065,4.417l.011,0-4.815,11.819c.715-1.755.3-2.832-1.077-4.422a14.6,14.6,0,0,0-3.425-9.355,25.524,25.524,0,0,0-7.266-5.668,29.391,29.391,0,0,1-1.053-3.226l4.8-11.8a30.188,30.188,0,0,0,1.053,3.2,32.544,32.544,0,0,0,5.671,9.623C304.521,276.95,306.232,278.546,307.324,279.818Z" transform="translate(-205.854 -183.76)" fill="#e38b1f"/>
        <path id="Caminho_3169" data-name="Caminho 3169" d="M323.131,251.933l-4.485,11.041-.01-.005c.715-1.755.3-2.824-1.065-4.417a14.589,14.589,0,0,0-3.433-9.352,25.46,25.46,0,0,0-7.273-5.684,30.2,30.2,0,0,1-1.053-3.2.026.026,0,0,0,0-.019l2.244-5.516a17.479,17.479,0,0,1,2.683-4.431l.029.025a18.14,18.14,0,0,0,.628,2.127,29.707,29.707,0,0,0,5.626,9.605c2.232,2.544,3.943,4.14,5.036,5.413C323.424,249.112,323.837,250.18,323.131,251.933Z" transform="translate(-216.099 -162.493)" fill="#e38b1f"/>
        <path id="Caminho_3170" data-name="Caminho 3170" d="M333.164,215.472a8.307,8.307,0,0,1,4.573,4.644c1.55,3.676,1.121,8.463-.244,11.82l-3.847,9.455c.707-1.753.294-2.821-1.073-4.414a14.666,14.666,0,0,0-3.429-9.363,25.72,25.72,0,0,0-7.233-5.655,18.145,18.145,0,0,1-.628-2.127l-.029-.025C324.194,216.25,328.643,213.633,333.164,215.472Z" transform="translate(-226.614 -151.952)" fill="#e38b1f"/>
        <path id="Caminho_3171" data-name="Caminho 3171" d="M284.883,347.978a25.445,25.445,0,0,0-7.221-5.65c.18.513.412,1.109.689,1.755a25.521,25.521,0,0,1,6.077,5.015,14.3,14.3,0,0,1,3.315,7.6c.206.223.4.439.577.642A14.682,14.682,0,0,0,284.883,347.978Z" transform="translate(-196.933 -238.738)" fill="#a47033"/>
        <path id="Caminho_3172" data-name="Caminho 3172" d="M294.065,308.686c.209.546.461,1.149.743,1.782a25.688,25.688,0,0,1,6.068,5.005,14.233,14.233,0,0,1,3.309,7.6c.2.221.4.435.572.638a14.6,14.6,0,0,0-3.426-9.355A25.517,25.517,0,0,0,294.065,308.686Z" transform="translate(-208.101 -215.832)" fill="#a47033"/>
        <path id="Caminho_3173" data-name="Caminho 3173" d="M309.107,271.609c.211.546.465,1.152.748,1.787a25.58,25.58,0,0,1,6.069,5.018,14.222,14.222,0,0,1,3.315,7.595c.2.221.4.436.574.638a14.589,14.589,0,0,0-3.433-9.352A25.457,25.457,0,0,0,309.107,271.609Z" transform="translate(-218.343 -190.586)" fill="#a47033"/>
        <path id="Caminho_3174" data-name="Caminho 3174" d="M330.545,242.748a25.719,25.719,0,0,0-7.233-5.655c.181.514.415,1.111.691,1.758a25.684,25.684,0,0,1,6.087,5.015,14.271,14.271,0,0,1,3.309,7.6c.205.222.4.437.574.638A14.658,14.658,0,0,0,330.545,242.748Z" transform="translate(-228.015 -167.085)" fill="#a47033"/>
        <path id="Caminho_3175" data-name="Caminho 3175" d="M278.5,352.807c-1.093-1.273-2.808-2.876-5.039-5.421a29.577,29.577,0,0,1-5.619-9.589,21.457,21.457,0,0,1-.636-2.123l-1.085,2.66,2.954,7.005a21.731,21.731,0,0,0,4.716,6.461,3.858,3.858,0,0,1,.139,5.328h0a6.52,6.52,0,0,1-10.69-1.51,8.422,8.422,0,0,0,4.769,5.173c4.45,1.8,8.827-.7,11.766-4.173C280.168,355.2,279.7,354.2,278.5,352.807Z" transform="translate(-187.113 -234.208)" fill="#c76b1c"/>
        <path id="Caminho_3176" data-name="Caminho 3176" d="M300.6,316.826c-1.093-1.273-2.808-2.877-5.036-5.413a32.4,32.4,0,0,1-5.656-9.61,29.429,29.429,0,0,1-1.053-3.226l-.893,2.192,2.29,5.43a37.6,37.6,0,0,0,5.287,9.147,6,6,0,0,1,.92,6.049l-1.4,3.443a14.8,14.8,0,0,1,.275,2.712c1.2,1.394,1.667,2.393,1.273,3.811a17.411,17.411,0,0,0,2.827-4.6l2.244-5.516C302.395,319.491,301.978,318.415,300.6,316.826Z" transform="translate(-203.948 -208.948)" fill="#c76b1c"/>
        <path id="Caminho_3177" data-name="Caminho 3177" d="M315.128,279.818c-1.093-1.273-2.8-2.869-5.035-5.413a32.548,32.548,0,0,1-5.671-9.623,30.227,30.227,0,0,1-1.053-3.2l-1.143,2.808,2.289,5.43a37.6,37.6,0,0,0,5.287,9.147,6,6,0,0,1,.92,6.049l-1.017,2.5a15.135,15.135,0,0,1,.606,4.122c1.375,1.59,1.792,2.665,1.077,4.422l4.815-11.819-.009-.005C316.908,282.479,316.5,281.411,315.128,279.818Z" transform="translate(-213.658 -183.76)" fill="#c76b1c"/>
        <path id="Caminho_3178" data-name="Caminho 3178" d="M329.634,247.518c-1.093-1.273-2.8-2.869-5.036-5.413a29.712,29.712,0,0,1-5.626-9.605,18.124,18.124,0,0,1-.628-2.127l-.029-.025a18.4,18.4,0,0,0-1.377,1.923l2.147,5.092a37.593,37.593,0,0,0,5.287,9.147,6,6,0,0,1,.921,6.049l-.759,1.865a15.133,15.133,0,0,1,.612,4.126c1.367,1.593,1.78,2.661,1.066,4.417l.011,0,4.485-11.041C331.414,250.179,331,249.111,329.634,247.518Z" transform="translate(-223.676 -162.492)" fill="#c76b1c"/>
        <path id="Caminho_3179" data-name="Caminho 3179" d="M348.683,215.483a8.013,8.013,0,0,0-4.637-.439,6.876,6.876,0,0,1,4.789,2.872,10.507,10.507,0,0,1,1.195,10.281l-2.3,5.647a14.965,14.965,0,0,1,.359,3.145c1.367,1.593,1.78,2.661,1.073,4.414l3.847-9.455c1.365-3.357,1.794-8.145.244-11.82a8.307,8.307,0,0,0-4.573-4.645Z" transform="translate(-242.133 -151.963)" fill="#c76b1c"/>
        <path id="Caminho_3180" data-name="Caminho 3180" d="M307.189,215.491a7.946,7.946,0,0,0-3.546-.578,8,8,0,0,1,1.64.455,8.3,8.3,0,0,1,4.573,4.644c1.55,3.675,1.121,8.463-.244,11.82l-2.413,5.931-1.433,3.524-3.052,7.512-1.433,3.529-3.377,8.291-1.436,3.528-2.244,5.516a16.157,16.157,0,0,1-1.181,2.318,18.167,18.167,0,0,1-1.647,2.276c-2.165,2.558-5.109,4.583-8.289,4.755,3.893.734,7.6-1.57,10.195-4.633a17.412,17.412,0,0,0,2.827-4.6l2.244-5.516,4.815-11.819,4.485-11.041,3.847-9.455c1.365-3.357,1.794-8.145.244-11.82A8.306,8.306,0,0,0,307.189,215.491Z" transform="translate(-200.639 -151.97)" fill="#844921"/>
        <path id="Caminho_3181" data-name="Caminho 3181" d="M288.353,360a.527.527,0,0,0,.178.447,1.054,1.054,0,0,0,.442.223,2.178,2.178,0,0,0,.989.042.71.71,0,0,0,.447-.227.844.844,0,0,0,.122-.487.769.769,0,0,0-.071-.447C290.107,359,288.448,359.359,288.353,360Z" transform="translate(-204.21 -250.28)" fill="#f2b574"/>
        <path id="Caminho_3182" data-name="Caminho 3182" d="M284.8,352.467a.421.421,0,0,1,.243-.042.333.333,0,0,1,.223.431.478.478,0,0,1-.631.253C284.364,352.92,284.573,352.569,284.8,352.467Z" transform="translate(-201.594 -245.611)" fill="#f2b574"/>
        <path id="Caminho_3183" data-name="Caminho 3183" d="M300.646,373.884a.45.45,0,0,0-.236.145.223.223,0,0,0-.015.262.254.254,0,0,0,.106.076.56.56,0,0,0,.363.015.474.474,0,0,0,.268-.175C301.394,373.827,300.879,373.814,300.646,373.884Z" transform="translate(-212.387 -260.202)" fill="#f2b574"/>
        <path id="Caminho_3184" data-name="Caminho 3184" d="M303.137,376.244a.383.383,0,0,0-.213.24.176.176,0,0,0,.005.112c.036.081.14.1.228.108a.7.7,0,0,0,.321-.035.287.287,0,0,0,.185-.246C303.664,376.072,303.361,376.134,303.137,376.244Z" transform="translate(-214.129 -261.773)" fill="#f2b574"/>
        <path id="Caminho_3185" data-name="Caminho 3185" d="M294.064,364.8a1,1,0,0,0-.534.546c-.1.342.339.466.6.441a1.921,1.921,0,0,0,.413-.087.509.509,0,0,0,.207-.112.582.582,0,0,0,.1-.156.636.636,0,0,0,.1-.462.405.405,0,0,0-.242-.241A.827.827,0,0,0,294.064,364.8Z" transform="translate(-207.726 -253.969)" fill="#f2b574"/>
        <path id="Caminho_3186" data-name="Caminho 3186" d="M298.153,369.393a.213.213,0,0,0,.1.041.955.955,0,0,0,.781-.173c.237-.184-.133-.514-.356-.455C298.516,368.847,297.939,369.205,298.153,369.393Z" transform="translate(-210.853 -256.762)" fill="#f2b574"/>
        <path id="Caminho_3187" data-name="Caminho 3187" d="M287.6,356.876a.268.268,0,0,0-.029.287.29.29,0,0,0,.235.09c.277.008,1.328-.253.939-.728C288.482,356.2,287.757,356.624,287.6,356.876Z" transform="translate(-203.66 -248.326)" fill="#f2b574"/>
        <path id="Caminho_3188" data-name="Caminho 3188" d="M334.652,256.236a.526.526,0,0,0,.178.447,1.056,1.056,0,0,0,.442.223,2.177,2.177,0,0,0,.989.042.71.71,0,0,0,.447-.227.848.848,0,0,0,.122-.487.771.771,0,0,0-.071-.447C336.406,255.229,334.747,255.593,334.652,256.236Z" transform="translate(-235.735 -179.626)" fill="#f2b574"/>
        <path id="Caminho_3189" data-name="Caminho 3189" d="M331.1,248.7a.421.421,0,0,1,.243-.041.333.333,0,0,1,.223.431.479.479,0,0,1-.632.253C330.662,249.156,330.871,248.805,331.1,248.7Z" transform="translate(-233.118 -174.96)" fill="#f2b574"/>
        <path id="Caminho_3190" data-name="Caminho 3190" d="M346.946,270.118a.45.45,0,0,0-.236.145.223.223,0,0,0-.015.261.251.251,0,0,0,.106.076.562.562,0,0,0,.363.015.474.474,0,0,0,.267-.175C347.693,270.061,347.178,270.048,346.946,270.118Z" transform="translate(-243.912 -189.549)" fill="#f2b574"/>
        <path id="Caminho_3191" data-name="Caminho 3191" d="M349.432,272.477a.383.383,0,0,0-.213.24.176.176,0,0,0,.005.112c.035.081.14.1.229.108a.7.7,0,0,0,.321-.036.287.287,0,0,0,.185-.246C349.961,272.306,349.657,272.368,349.432,272.477Z" transform="translate(-245.651 -191.119)" fill="#f2b574"/>
        <path id="Caminho_3192" data-name="Caminho 3192" d="M340.362,261.037a1,1,0,0,0-.535.546c-.1.342.339.466.6.441a1.916,1.916,0,0,0,.413-.087.514.514,0,0,0,.207-.112.591.591,0,0,0,.1-.156.638.638,0,0,0,.1-.462.408.408,0,0,0-.242-.242A.83.83,0,0,0,340.362,261.037Z" transform="translate(-239.25 -183.316)" fill="#f2b574"/>
        <path id="Caminho_3193" data-name="Caminho 3193" d="M344.452,265.632a.211.211,0,0,0,.1.042.953.953,0,0,0,.781-.174c.237-.183-.133-.514-.356-.455C344.815,265.084,344.238,265.443,344.452,265.632Z" transform="translate(-242.377 -186.112)" fill="#f2b574"/>
        <path id="Caminho_3194" data-name="Caminho 3194" d="M333.9,253.109a.267.267,0,0,0-.029.287.287.287,0,0,0,.234.09c.276.009,1.328-.252.939-.728C334.781,252.437,334.056,252.857,333.9,253.109Z" transform="translate(-235.184 -177.672)" fill="#f2b574"/>
        <path id="Caminho_3195" data-name="Caminho 3195" d="M304.906,325.934a.526.526,0,0,0-.284.388,1.057,1.057,0,0,0,.044.494,2.171,2.171,0,0,0,.489.86.711.711,0,0,0,.43.258.847.847,0,0,0,.479-.155.771.771,0,0,0,.341-.3C306.69,326.888,305.5,325.673,304.906,325.934Z" transform="translate(-215.281 -227.551)" fill="#f2b574"/>
        <path id="Caminho_3196" data-name="Caminho 3196" d="M320.5,345.179a.451.451,0,0,0-.236.145.223.223,0,0,0-.015.262.252.252,0,0,0,.106.076.56.56,0,0,0,.363.015.473.473,0,0,0,.267-.175C321.245,345.122,320.73,345.109,320.5,345.179Z" transform="translate(-225.904 -240.657)" fill="#f2b574"/>
        <path id="Caminho_3197" data-name="Caminho 3197" d="M301.658,321.168a.453.453,0,0,0-.236.145.223.223,0,0,0-.016.262.256.256,0,0,0,.107.076.559.559,0,0,0,.363.014.474.474,0,0,0,.268-.175C302.405,321.112,301.891,321.1,301.658,321.168Z" transform="translate(-213.076 -224.308)" fill="#f2b574"/>
        <path id="Caminho_3198" data-name="Caminho 3198" d="M317.4,341.179a.383.383,0,0,0-.213.24.178.178,0,0,0,.005.112c.036.081.14.1.229.108a.7.7,0,0,0,.322-.036.287.287,0,0,0,.185-.246C317.928,341.008,317.625,341.07,317.4,341.179Z" transform="translate(-223.841 -237.898)" fill="#f2b574"/>
        <path id="Caminho_3199" data-name="Caminho 3199" d="M311.834,331.165a1,1,0,0,0-.535.546c-.1.342.339.466.6.441a1.938,1.938,0,0,0,.413-.087.511.511,0,0,0,.207-.112.581.581,0,0,0,.1-.156.638.638,0,0,0,.1-.462.406.406,0,0,0-.242-.241A.827.827,0,0,0,311.834,331.165Z" transform="translate(-219.826 -231.065)" fill="#f2b574"/>
        <path id="Caminho_3200" data-name="Caminho 3200" d="M316.963,338.222a.216.216,0,0,0,.1.042.953.953,0,0,0,.781-.174c.237-.183-.133-.514-.356-.455C317.326,337.676,316.749,338.033,316.963,338.222Z" transform="translate(-223.66 -235.538)" fill="#f2b574"/>
        <path id="Caminho_3201" data-name="Caminho 3201" d="M313.163,337.807a.261.261,0,0,0,0,.16c.04.084.152.1.245.1a1.428,1.428,0,0,0,.433-.092.167.167,0,0,0,.1-.069.141.141,0,0,0,.012-.067.427.427,0,0,0-.172-.335C313.451,337.256,313.223,337.471,313.163,337.807Z" transform="translate(-221.098 -235.379)" fill="#f2b574"/>
        <path id="Caminho_3202" data-name="Caminho 3202" d="M305.539,322.842a.268.268,0,0,0-.236.165.287.287,0,0,0,.084.237c.174.216,1.056.844,1.164.239C306.623,323.075,305.832,322.8,305.539,322.842Z" transform="translate(-215.751 -225.467)" fill="#f2b574"/>
        <path id="Caminho_3203" data-name="Caminho 3203" d="M319.556,284.9a.527.527,0,0,0-.285.388,1.053,1.053,0,0,0,.044.493,2.174,2.174,0,0,0,.489.862.708.708,0,0,0,.43.258.847.847,0,0,0,.479-.155.77.77,0,0,0,.341-.3C321.34,285.849,320.151,284.636,319.556,284.9Z" transform="translate(-225.256 -199.609)" fill="#f2b574"/>
        <path id="Caminho_3204" data-name="Caminho 3204" d="M333.721,307.648a.452.452,0,0,0-.236.145.224.224,0,0,0-.015.262.257.257,0,0,0,.106.076.56.56,0,0,0,.363.014.474.474,0,0,0,.267-.175C334.468,307.592,333.954,307.578,333.721,307.648Z" transform="translate(-234.908 -215.103)" fill="#f2b574"/>
        <path id="Caminho_3205" data-name="Caminho 3205" d="M317.349,282.6a.45.45,0,0,0-.236.145.223.223,0,0,0-.015.261.249.249,0,0,0,.106.076.562.562,0,0,0,.363.015.473.473,0,0,0,.267-.175C318.1,282.541,317.581,282.528,317.349,282.6Z" transform="translate(-223.76 -198.046)" fill="#f2b574"/>
        <path id="Caminho_3206" data-name="Caminho 3206" d="M332.052,300.142a.383.383,0,0,0-.213.24.18.18,0,0,0,.005.112c.036.081.14.1.229.108a.7.7,0,0,0,.321-.036.287.287,0,0,0,.185-.246C332.579,299.971,332.276,300.033,332.052,300.142Z" transform="translate(-233.817 -209.956)" fill="#f2b574"/>
        <path id="Caminho_3207" data-name="Caminho 3207" d="M326.1,296.1a1,1,0,0,0-.535.546c-.1.342.339.466.6.441a1.921,1.921,0,0,0,.413-.087.515.515,0,0,0,.207-.112.585.585,0,0,0,.1-.156.638.638,0,0,0,.1-.462.406.406,0,0,0-.242-.241A.826.826,0,0,0,326.1,296.1Z" transform="translate(-229.538 -207.191)" fill="#f2b574"/>
        <path id="Caminho_3208" data-name="Caminho 3208" d="M331.227,303.157a.214.214,0,0,0,.1.041.955.955,0,0,0,.781-.174c.237-.183-.133-.514-.356-.455C331.591,302.611,331.013,302.969,331.227,303.157Z" transform="translate(-233.373 -211.662)" fill="#f2b574"/>
        <path id="Caminho_3209" data-name="Caminho 3209" d="M328.854,299.236a.26.26,0,0,0,0,.16c.04.084.152.1.245.1a1.41,1.41,0,0,0,.433-.092.166.166,0,0,0,.1-.069.148.148,0,0,0,.012-.067.425.425,0,0,0-.172-.335C329.142,298.685,328.914,298.9,328.854,299.236Z" transform="translate(-231.782 -209.117)" fill="#f2b574"/>
        <path id="Caminho_3210" data-name="Caminho 3210" d="M324.349,291.67a.269.269,0,0,0-.236.165.289.289,0,0,0,.085.237c.173.215,1.056.844,1.163.239C325.433,291.9,324.642,291.625,324.349,291.67Z" transform="translate(-228.559 -204.242)" fill="#f2b574"/>
        <path id="Caminho_3211" data-name="Caminho 3211" d="M328.6,220.756a5.584,5.584,0,0,0-1.436,2.062,1.115,1.115,0,0,0-.073.659c.122.444.658.622,1.124.675a11.986,11.986,0,0,0,2.031,0,12.952,12.952,0,0,0,3.244-.459A3.6,3.6,0,0,0,334.8,223a1.859,1.859,0,0,0,.661-1.279,1.893,1.893,0,0,0-.634-1.392,5.316,5.316,0,0,0-2.436-1.253,3.747,3.747,0,0,0-2.4.606A7.171,7.171,0,0,0,328.6,220.756Z" transform="translate(-230.574 -154.794)" fill="#f5b44e"/>
        <path id="Caminho_3212" data-name="Caminho 3212" d="M351.7,234.128a4.65,4.65,0,0,0-.047,2.128,2.952,2.952,0,0,0,.846,1.632,1.436,1.436,0,0,0,1.656.253,1.566,1.566,0,0,0,.564-.706,3.239,3.239,0,0,0,.07-2.292c-.21-.647-.718-1.665-1.4-1.909A1.417,1.417,0,0,0,351.7,234.128Z" transform="translate(-247.243 -164.427)" fill="#f5b44e"/>
        <path id="Caminho_3213" data-name="Caminho 3213" d="M309.536,251.4a10.115,10.115,0,0,0-.687,1.765,2.539,2.539,0,0,0-.042,1.328,1.113,1.113,0,0,0,1.9.572,3.725,3.725,0,0,0,.67-.863l1.023-1.627a2.634,2.634,0,0,0,.438-.967,2.72,2.72,0,0,0-.292-1.4,1.485,1.485,0,0,0-.606-.843.949.949,0,0,0-.968.152A5.744,5.744,0,0,0,309.536,251.4Z" transform="translate(-218.092 -175.394)" fill="#f5b44e"/>
        <path id="Caminho_3214" data-name="Caminho 3214" d="M295.272,286.466a10.111,10.111,0,0,0-.687,1.765,2.539,2.539,0,0,0-.042,1.328,1.113,1.113,0,0,0,1.9.572,3.725,3.725,0,0,0,.67-.862l1.023-1.627a2.641,2.641,0,0,0,.438-.967,2.721,2.721,0,0,0-.292-1.4,1.487,1.487,0,0,0-.606-.843.95.95,0,0,0-.968.152,5.742,5.742,0,0,0-1.441,1.884Z" transform="translate(-208.38 -199.269)" fill="#f5b44e"/>
        <path id="Caminho_3215" data-name="Caminho 3215" d="M281.008,321.53a10.1,10.1,0,0,0-.687,1.764,2.538,2.538,0,0,0-.042,1.328,1.113,1.113,0,0,0,1.9.572,3.709,3.709,0,0,0,.67-.862l1.023-1.628a2.635,2.635,0,0,0,.438-.967,2.724,2.724,0,0,0-.292-1.4,1.487,1.487,0,0,0-.606-.843.95.95,0,0,0-.968.153A5.741,5.741,0,0,0,281.008,321.53Z" transform="translate(-198.668 -223.143)" fill="#f5b44e"/>
        <path id="Caminho_3216" data-name="Caminho 3216" d="M264.292,363.978a11.264,11.264,0,0,0-.54,5.068,2.587,2.587,0,0,0,.571,1.387,1.456,1.456,0,0,0,1.5.4,1.723,1.723,0,0,0,1-1.071,6.856,6.856,0,0,0,.244-1.388c.2-1.4.846-2.754,1.175-4.145a2.612,2.612,0,0,0-.2-2.18,1.734,1.734,0,0,0-1.315-.646C265.126,361.34,264.644,362.843,264.292,363.978Z" transform="translate(-187.393 -251.724)" fill="#f5b44e"/>
        <path id="Caminho_3217" data-name="Caminho 3217" d="M277.206,377.824a3.83,3.83,0,0,0,.887,1.737,1.705,1.705,0,0,0,1.89.373,1.669,1.669,0,0,0,.842-1.37A3.582,3.582,0,0,0,280.5,377a4.043,4.043,0,0,0-.641-1.163,1.832,1.832,0,0,0-1.16-.66C277,374.978,276.9,376.76,277.206,377.824Z" transform="translate(-196.529 -261.092)" fill="#f5b44e"/>
        <path id="Caminho_3218" data-name="Caminho 3218" d="M262.388,300.216c1.762,5.546-1.578,12.721-7.874,14.72s-13.163-1.933-14.925-7.479,2.423-10.064,8.718-12.062S260.627,294.67,262.388,300.216Z" transform="translate(-170.733 -206.177)" fill="#fc1f1f"/>
        <path id="Caminho_3219" data-name="Caminho 3219" d="M262.441,283.54a5.456,5.456,0,0,0,.531.429,1.135,1.135,0,0,1-.741,1.431l-.606.193a1.12,1.12,0,0,1-1.154-.285,5.3,5.3,0,0,1-.714-.969c-.911-1.532-1.6-3.848-.865-4.452l1.9-.6A4.86,4.86,0,0,0,262.441,283.54Z" transform="translate(-183.941 -195.812)" fill="#06aa0e"/>
        <path id="Caminho_3220" data-name="Caminho 3220" d="M252.228,290.8c.974-.339,2.778-.565,3.6.051,1.513,1.133,3.3-.378,3.426-.484-.444,2.364-5.08,2.8-5.08,2.8a4.728,4.728,0,0,1,.664,3.973c-1.627.517-4.292-2.223-4.292-2.223-.925.85-1.68,4.119-1.68,4.119-2.654-.83-2.12-2.912-2.12-2.912a4.525,4.525,0,0,1-4.49-.965c2.714-.862,2.184-.652,3.628-1.75a6.912,6.912,0,0,1,2.542-1.4l.213-.121a5.3,5.3,0,0,0,.714.969,1.12,1.12,0,0,0,1.154.285l.606-.193a1.135,1.135,0,0,0,.741-1.431,5.459,5.459,0,0,1-.531-.429Z" transform="translate(-172.827 -203.359)" fill="#037701"/>
        <path id="Caminho_3221" data-name="Caminho 3221" d="M262.388,300.216c1.762,5.546-1.578,12.721-7.874,14.72s-13.163-1.933-14.925-7.479,2.423-10.064,8.718-12.062S260.627,294.67,262.388,300.216Z" transform="translate(-170.733 -206.177)" fill="#ff3f28"/>
        <path id="Caminho_3222" data-name="Caminho 3222" d="M240.9,317.081a7.956,7.956,0,0,1-.332-3.442,7.653,7.653,0,0,0-.978,6.846c1.762,5.546,8.629,9.478,14.925,7.479a12.267,12.267,0,0,0,8.042-9.018,11.9,11.9,0,0,1-6.733,5.614C249.527,326.559,242.659,322.627,240.9,317.081Z" transform="translate(-170.732 -219.204)" fill="#c82919"/>
        <path id="Caminho_3223" data-name="Caminho 3223" d="M262.441,283.54a5.456,5.456,0,0,0,.531.429,1.135,1.135,0,0,1-.741,1.431l-.606.193a1.12,1.12,0,0,1-1.154-.285,5.3,5.3,0,0,1-.714-.969c-.911-1.532-1.6-3.848-.865-4.452l1.9-.6A4.86,4.86,0,0,0,262.441,283.54Z" transform="translate(-183.941 -195.812)" fill="#006e24"/>
        <path id="Caminho_3224" data-name="Caminho 3224" d="M252.228,290.8c.974-.339,2.778-.565,3.6.051,1.513,1.133,3.3-.378,3.426-.484-.444,2.364-5.08,2.8-5.08,2.8a4.728,4.728,0,0,1,.664,3.973c-1.627.517-4.292-2.223-4.292-2.223-.925.85-1.68,4.119-1.68,4.119-2.654-.83-2.12-2.912-2.12-2.912a4.525,4.525,0,0,1-4.49-.965c2.714-.862,2.184-.652,3.628-1.75a6.912,6.912,0,0,1,2.542-1.4l.213-.121a5.3,5.3,0,0,0,.714.969,1.12,1.12,0,0,0,1.154.285l.606-.193a1.135,1.135,0,0,0,.741-1.431,5.459,5.459,0,0,1-.531-.429Z" transform="translate(-172.827 -203.359)" fill="#00822d"/>
        <path id="Caminho_3225" data-name="Caminho 3225" d="M250.823,303.706s.511-3.191,1.577-4.087c0,0,2.874,2.673,4.713,2.089a5.72,5.72,0,0,0-.613-4.586s3.166-.021,4.84-1.171a9.62,9.62,0,0,0-1.035-.324,2.817,2.817,0,0,1-.853.039,10.549,10.549,0,0,1-3.667,1.085,4.728,4.728,0,0,1,.664,3.973c-1.627.517-4.292-2.223-4.292-2.223-.925.85-1.68,4.119-1.68,4.119-2.654-.83-2.12-2.912-2.12-2.912a4.511,4.511,0,0,1-2.711.042,10.558,10.558,0,0,0-1.024,1.117,5.822,5.822,0,0,0,2.821-.273A4.339,4.339,0,0,0,250.823,303.706Z" transform="translate(-174.437 -206.94)" fill="#c82919"/>
        <path id="Caminho_3226" data-name="Caminho 3226" d="M289.423,293.1c.064-.006.126-.015.188-.026C289.549,293.085,289.486,293.094,289.423,293.1Z" transform="translate(-204.941 -205.202)" fill="#06aa0e"/>
        <path id="Caminho_3227" data-name="Caminho 3227" d="M293.918,291.356l.116-.074Z" transform="translate(-208.001 -203.982)" fill="#06aa0e"/>
        <path id="Caminho_3228" data-name="Caminho 3228" d="M290.242,292.928c.069-.014.136-.032.2-.049C290.378,292.9,290.311,292.914,290.242,292.928Z" transform="translate(-205.498 -205.069)" fill="#06aa0e"/>
        <path id="Caminho_3229" data-name="Caminho 3229" d="M293.243,291.7q.089-.048.169-.1Q293.332,291.649,293.243,291.7Z" transform="translate(-207.542 -204.198)" fill="#06aa0e"/>
        <path id="Caminho_3230" data-name="Caminho 3230" d="M291.784,292.141a3.972,3.972,0,0,0,.449-.207A3.9,3.9,0,0,1,291.784,292.141Z" transform="translate(-206.548 -204.426)" fill="#06aa0e"/>
        <path id="Caminho_3231" data-name="Caminho 3231" d="M287.714,293.116c.06.009.119.016.178.02C287.833,293.132,287.773,293.125,287.714,293.116Z" transform="translate(-203.777 -205.23)" fill="#06aa0e"/>
        <path id="Caminho_3232" data-name="Caminho 3232" d="M272.376,294.151a1.024,1.024,0,0,0-.039-.184A1.146,1.146,0,0,1,272.376,294.151Z" transform="translate(-193.307 -205.81)" fill="#06aa0e"/>
        <path id="Caminho_3233" data-name="Caminho 3233" d="M279.641,299.224c-.014-.025-.025-.048-.039-.074.014.026.023.049.037.074Z" transform="translate(-198.254 -209.339)" fill="#06aa0e"/>
        <path id="Caminho_3234" data-name="Caminho 3234" d="M285.919,292.56a2.015,2.015,0,0,0,.191.083A1.9,1.9,0,0,1,285.919,292.56Z" transform="translate(-202.555 -204.852)" fill="#06aa0e"/>
        <path id="Caminho_3235" data-name="Caminho 3235" d="M294.457,291.048l.079-.055Z" transform="translate(-208.368 -203.785)" fill="#06aa0e"/>
        <path id="Caminho_3236" data-name="Caminho 3236" d="M286.833,292.917c.06.018.119.035.179.047C286.952,292.952,286.893,292.935,286.833,292.917Z" transform="translate(-203.177 -205.095)" fill="#06aa0e"/>
        <path id="Caminho_3237" data-name="Caminho 3237" d="M288.58,293.181c.061,0,.121,0,.18,0Q288.671,293.183,288.58,293.181Z" transform="translate(-204.367 -205.272)" fill="#06aa0e"/>
        <path id="Caminho_3238" data-name="Caminho 3238" d="M291.267,292.588c-.076.029-.154.056-.235.079Q291.153,292.632,291.267,292.588Z" transform="translate(-206.036 -204.871)" fill="#06aa0e"/>
        <path id="Caminho_3239" data-name="Caminho 3239" d="M285.059,292.061a2.249,2.249,0,0,1-.274-.175A2.249,2.249,0,0,0,285.059,292.061Z" transform="translate(-201.783 -204.393)" fill="#06aa0e"/>
        <path id="Caminho_3240" data-name="Caminho 3240" d="M294.9,290.785l.041-.032Z" transform="translate(-208.67 -203.621)" fill="#06aa0e"/>
        <path id="Caminho_3241" data-name="Caminho 3241" d="M288.271,293.178c.032,0,.066,0,.1,0Z" transform="translate(-204.156 -205.272)" fill="#0bcc23"/>
        <path id="Caminho_3242" data-name="Caminho 3242" d="M287.394,293.064c.034.007.068.012.1.017C287.462,293.076,287.428,293.071,287.394,293.064Z" transform="translate(-203.559 -205.195)" fill="#0bcc23"/>
        <path id="Caminho_3243" data-name="Caminho 3243" d="M272.469,294.707a1.133,1.133,0,0,0-.01-.163A1.334,1.334,0,0,1,272.469,294.707Z" transform="translate(-193.39 -206.203)" fill="#0bcc23"/>
        <path id="Caminho_3244" data-name="Caminho 3244" d="M289.145,293.163l.089-.007Z" transform="translate(-204.751 -205.258)" fill="#0bcc23"/>
        <path id="Caminho_3245" data-name="Caminho 3245" d="M286.515,292.82c.034.012.068.021.1.032C286.583,292.841,286.549,292.832,286.515,292.82Z" transform="translate(-202.961 -205.029)" fill="#0bcc23"/>
        <path id="Caminho_3246" data-name="Caminho 3246" d="M290.013,293.046l.073-.013Z" transform="translate(-205.342 -205.174)" fill="#0bcc23"/>
        <path id="Caminho_3247" data-name="Caminho 3247" d="M293.774,291.539l.046-.028Z" transform="translate(-207.903 -204.138)" fill="#0bcc23"/>
        <path id="Caminho_3248" data-name="Caminho 3248" d="M293.191,291.914l.017-.009Z" transform="translate(-207.506 -204.406)" fill="#0bcc23"/>
        <path id="Caminho_3249" data-name="Caminho 3249" d="M295.1,290.6l-.067.051.067-.051Z" transform="translate(-208.757 -203.517)" fill="#0bcc23"/>
        <path id="Caminho_3250" data-name="Caminho 3250" d="M294.7,290.9l.062-.045C294.748,290.868,294.727,290.882,294.7,290.9Z" transform="translate(-208.537 -203.689)" fill="#0bcc23"/>
        <path id="Caminho_3251" data-name="Caminho 3251" d="M291.767,292.584l.005,0Z" transform="translate(-206.537 -204.867)" fill="#0bcc23"/>
        <path id="Caminho_3252" data-name="Caminho 3252" d="M290.924,292.837l-.05.013Z" transform="translate(-205.929 -205.04)" fill="#0bcc23"/>
        <path id="Caminho_3253" data-name="Caminho 3253" d="M294.283,291.2l.055-.038Z" transform="translate(-208.25 -203.901)" fill="#0bcc23"/>
        <path id="Caminho_3254" data-name="Caminho 3254" d="M285.732,292.473c-.029-.014-.059-.025-.088-.041C285.673,292.449,285.7,292.459,285.732,292.473Z" transform="translate(-202.368 -204.765)" fill="#0bcc23"/>
        <path id="Caminho_3255" data-name="Caminho 3255" d="M271.413,295.583l-.008,0a1.118,1.118,0,0,1-.479.77A1.127,1.127,0,0,0,271.413,295.583Z" transform="translate(-192.346 -206.907)" fill="#06aa0e"/>
        <path id="Caminho_3256" data-name="Caminho 3256" d="M275.37,303.162a4.931,4.931,0,0,0-.667-3.781,18.026,18.026,0,0,1-2.35.11Z" transform="translate(-193.317 -209.496)" fill="#31b03c"/>
        <path id="Caminho_3257" data-name="Caminho 3257" d="M262.256,295.127c.087.146.176.278.266.4C262.432,295.4,262.342,295.272,262.256,295.127Z" transform="translate(-186.443 -206.6)" fill="#06aa0e"/>
        <path id="Caminho_3258" data-name="Caminho 3258" d="M263.088,296.391c.064.093.128.177.194.26C263.217,296.569,263.152,296.481,263.088,296.391Z" transform="translate(-187.009 -207.46)" fill="#078706"/>
        <path id="Caminho_3259" data-name="Caminho 3259" d="M263.447,298.869a1.138,1.138,0,0,1-.9-.087,5.456,5.456,0,0,0-.73,5.935c.1-.4.808-3.278,1.668-4.068l.026-1.8Z" transform="translate(-185.766 -209.088)" fill="#31b03c"/>
        <ellipse id="Elipse_46" data-name="Elipse 46" cx="0.94" cy="1.308" rx="0.94" ry="1.308" transform="translate(84.59 92.095) rotate(-62.639)" fill="#ff8173"/>
        <path id="Caminho_3260" data-name="Caminho 3260" d="M301.15,303.714c.272.226.324.549.116.721a.724.724,0,0,1-.869-.1c-.272-.226-.324-.549-.116-.721A.724.724,0,0,1,301.15,303.714Z" transform="translate(-212.247 -212.311)" fill="#ff8173"/>
        <path id="Caminho_3261" data-name="Caminho 3261" d="M297.437,310.426c.136.113.162.274.058.36a.362.362,0,0,1-.434-.049c-.136-.113-.162-.274-.058-.36A.362.362,0,0,1,297.437,310.426Z" transform="translate(-210.058 -216.949)" fill="#ff8173"/>
        <path id="Caminho_3262" data-name="Caminho 3262" d="M174.359,254.2s-.433-3.921,2.13-5.021,2.048,2.692,2.048,2.692,1.744-2.177,2.563-1.1-1.334,2.716-1.334,2.716a1.325,1.325,0,0,1,1.9.257c.819,1.077-2.539,4.483-2.539,4.483l-1.077.819Z" transform="translate(-126.576 -175.175)" fill="#86c42b"/>
        <path id="Caminho_3263" data-name="Caminho 3263" d="M158.528,266.874s-3.663-1.463-5.407.714,2.049,2.692,2.049,2.692-2.563,1.1-1.744,2.177,2.973-.562,2.973-.562a1.325,1.325,0,0,0-.257,1.9c.819,1.077,5-1.253,5-1.253l1.077-.819Z" transform="translate(-111.821 -187.035)" fill="#86c42b"/>
        <path id="Caminho_3264" data-name="Caminho 3264" d="M161.626,256.5s-1.615,1.229.024,3.383c0,0-1.486.281-1.615,1.229s4.2,1.053,4.2,1.053-3.921.433-2.692,2.048,5.15,1.181,5.15,1.181l1.077-.819Z" transform="translate(-116.84 -180.299)" fill="#a7e340"/>
        <path id="Caminho_3265" data-name="Caminho 3265" d="M165.028,255.755s1.615-1.229,3.255.925c0,0,.667-1.357,1.615-1.229s-.1,4.331-.1,4.331,1.463-3.664,2.692-2.049-.234,5.279-.234,5.279l-1.077.819Z" transform="translate(-120.241 -179.554)" fill="#bdf052"/>
        <path id="Caminho_3266" data-name="Caminho 3266" d="M198.091,303.872h0a4.921,4.921,0,0,1-6.779-.788l-15.5-18.82a5.859,5.859,0,0,1,.975-8.387h0a5.859,5.859,0,0,1,8.344,1.3l14.009,19.955A4.921,4.921,0,0,1,198.091,303.872Z" transform="translate(-126.675 -192.678)" fill="#fd922b"/>
        <path id="Caminho_3267" data-name="Caminho 3267" d="M191.832,306.168l-15.5-18.82a5.821,5.821,0,0,1-1.218-2.569,5.854,5.854,0,0,0,.7,6.361l15.5,18.82a4.918,4.918,0,0,0,8.546-4.409,4.921,4.921,0,0,1-8.031.617Z" transform="translate(-126.68 -199.554)" fill="#fc792c"/>
        <path id="Caminho_3268" data-name="Caminho 3268" d="M207.945,294.324a1.015,1.015,0,0,1-1.422-.191l-.631-.83a1.015,1.015,0,1,1,1.615-1.229l.631.83A1.015,1.015,0,0,1,207.945,294.324Z" transform="translate(-147.924 -204.248)" fill="#fdb645"/>
        <path id="Caminho_3269" data-name="Caminho 3269" d="M192.567,281.975a1.014,1.014,0,0,1-1.422-.191l-.7-.919c-.363-.479-1.025-1.057-2.563-.568a1.015,1.015,0,1,1-.615-1.934,4.075,4.075,0,0,1,4.794,1.273l.7.919a1.015,1.015,0,0,1-.193,1.42Z" transform="translate(-134.902 -194.995)" fill="#fdb645"/>
        <rect id="Retângulo_442" data-name="Retângulo 442" width="6.765" height="2.03" rx="1.015" transform="translate(51.133 93.475) rotate(-37.271)" fill="#e46718"/>
        <rect id="Retângulo_443" data-name="Retângulo 443" width="6.765" height="2.03" rx="1.015" transform="translate(58.05 95.862) rotate(-37.271)" fill="#e46718"/>
        <rect id="Retângulo_444" data-name="Retângulo 444" width="6.765" height="2.03" rx="1.015" transform="translate(62.487 102.726) rotate(-37.282)" fill="#e46718"/>
        <rect id="Retângulo_445" data-name="Retângulo 445" width="4.736" height="1.353" rx="0.677" transform="translate(58.226 101.679) rotate(-37.271)" fill="#e46718"/>
        <rect id="Retângulo_446" data-name="Retângulo 446" width="2.03" height="1.353" rx="0.677" transform="translate(62.533 98.401) rotate(-37.271)" fill="#e46718"/>
        <rect id="Retângulo_447" data-name="Retângulo 447" width="2.03" height="1.353" rx="0.677" transform="translate(69.064 103.633) rotate(-37.271)" fill="#e46718"/>
        <rect id="Retângulo_448" data-name="Retângulo 448" width="2.03" height="1.353" rx="0.677" transform="translate(65.963 105.142) rotate(-37.271)" fill="#e46718"/>
        <path id="Caminho_3270" data-name="Caminho 3270" d="M191.913,322.989h51.415v54.2a1.276,1.276,0,0,1-1.276,1.276H191.913Z" transform="translate(-138.547 -225.571)" fill="#ffc171"/>
        <path id="Caminho_3271" data-name="Caminho 3271" d="M180.252,416.665s-2.168-4.336-5.059-4.336-5.781-2.168-6.5-2.89-3.7.181-1.49,2.62a11.606,11.606,0,0,0,4.381,3.163L165.8,414.5s-1.445,0-1.445,2.168l1.445,1.445s-1.445.722-1.445,1.445,0,2.89,1.445,2.89c0,0-.722,0-.722,2.168l.722.722v2.168c0,1.445,2.89,2.168,2.89,2.168l6.446.645a2.7,2.7,0,0,0,1.48-.272l3.635-1.819Z" transform="translate(-119.782 -284.268)" fill="#faaba5"/>
        <path id="Caminho_3272" data-name="Caminho 3272" d="M171.051,460.79h3.383a.338.338,0,0,1,0,.677h-3.383a.338.338,0,0,1,0-.677Z" transform="translate(-124.112 -319.398)" fill="#ff9c94"/>
        <path id="Caminho_3273" data-name="Caminho 3273" d="M168.931,448.07h4.059a.338.338,0,0,1,0,.677h-4.059a.338.338,0,0,1,0-.677Z" transform="translate(-122.669 -310.737)" fill="#ff9c94"/>
        <path id="Caminho_3274" data-name="Caminho 3274" d="M171.051,437.47h3.383a.338.338,0,0,1,0,.677h-3.383a.338.338,0,1,1,0-.677Z" transform="translate(-124.112 -303.52)" fill="#ff9c94"/>
        <path id="Caminho_3275" data-name="Caminho 3275" d="M207.311,444.826l-.875-10.835s-.092-1.141-3.464-.868-3.861,2.608-3.861,2.608l.732,9.06a2.452,2.452,0,0,0,2.542,2.074c.491.009,1.056,0,1.693-.056C206.774,446.591,207.311,444.826,207.311,444.826Z" transform="translate(-143.448 -300.531)" fill="#ecf5ff"/>
        <path id="Caminho_3276" data-name="Caminho 3276" d="M202.36,442.355c.178,2.208,2.2,3.386,3.364,4.049a2.872,2.872,0,0,0,1.587-1.579l-.875-10.835s-.092-1.141-3.464-.868-3.861,2.608-3.861,2.608l.138,1.711C201.948,437.223,202.038,438.364,202.36,442.355Z" transform="translate(-143.448 -300.531)" fill="#d6e5f5"/>
        <path id="Caminho_3277" data-name="Caminho 3277" d="M207.7,464.054a.344.344,0,0,1,.324.148.271.271,0,0,1-.147.388,16.943,16.943,0,0,1-5.119,1.3.29.29,0,1,1-.046-.57,16.413,16.413,0,0,0,4.857-1.23A.383.383,0,0,1,207.7,464.054Z" transform="translate(-145.687 -321.619)" fill="#9ad0ee"/>
        <path id="Caminho_3278" data-name="Caminho 3278" d="M201.993,458.31l4.383-.354a.29.29,0,1,1,.046.57l-4.383.354a.29.29,0,1,1-.046-.57Z" transform="translate(-145.196 -317.463)" fill="#9ad0ee"/>
        <path id="Caminho_3279" data-name="Caminho 3279" d="M201.272,449.549l3.372-.272a.29.29,0,1,1,.046.57l-3.372.272a.29.29,0,1,1-.046-.57Z" transform="translate(-144.705 -311.553)" fill="#9ad0ee"/>
        <path id="Caminho_3280" data-name="Caminho 3280" d="M205.333,439.84a7.453,7.453,0,0,1,1.558.045.287.287,0,0,1,.273.325.345.345,0,0,1-.392.241,4.5,4.5,0,0,0-3.687.8.383.383,0,0,1-.476.035.255.255,0,0,1-.032-.4A4.529,4.529,0,0,1,205.333,439.84Z" transform="translate(-145.751 -305.119)" fill="#9ad0ee"/>
        <path id="Caminho_3281" data-name="Caminho 3281" d="M277.426,372.1a24.6,24.6,0,0,0-12.457.9c-11.233,3.742-42.425,14.709-43.355,21.41a2.127,2.127,0,0,0-.02.294v7.442s0,4.059,7.442,4.059c6.765,0,46.414-3.344,56.663-20.223a8.725,8.725,0,0,0-2.468-11.741A16.242,16.242,0,0,0,277.426,372.1Z" transform="translate(-158.756 -258.727)" fill="#00af8f"/>
        <path id="Caminho_3282" data-name="Caminho 3282" d="M228.362,408.4a3.8,3.8,0,0,1,3.482-3.789c13.313-1.089,33.728-7.745,33.728-12.7,0-3.954-3.247-8.987-5-11.415-13.373,4.625-38.127,13.957-38.955,19.916a2.125,2.125,0,0,0-.02.294v7.442s0,4.059,7.442,4.059c.567,0,1.37-.024,2.363-.077A3.807,3.807,0,0,1,228.362,408.4Z" transform="translate(-158.76 -264.729)" fill="#00947a"/>
        <path id="Caminho_3283" data-name="Caminho 3283" d="M314.875,357.307s2.168-4.336,5.058-4.336,5.781-2.168,6.5-2.891,3.7.181,1.49,2.62a11.593,11.593,0,0,1-4.381,3.162l5.781-.723s1.445,0,1.445,2.168l-1.445,1.445s1.445.723,1.445,1.445,0,2.89-1.445,2.89c0,0,.722,0,.722,2.168l-.722.723v2.168c0,1.445-2.89,2.168-2.89,2.168l-6.446.645a2.7,2.7,0,0,1-1.479-.272l-3.635-1.819Z" transform="translate(-222.271 -243.852)" fill="#ffceca"/>
        <path id="Caminho_3284" data-name="Caminho 3284" d="M318.258,381.622a14.166,14.166,0,0,0-3.227-9.283c-.1.176-.156.287-.156.287v11.562l3.635,1.819a2.7,2.7,0,0,0,1.479.272l6.446-.645s2.69-.676,2.872-2.025a8.6,8.6,0,0,1-2.292.6C323.417,384.634,318.258,384.7,318.258,381.622Z" transform="translate(-222.271 -259.173)" fill="#faaba5"/>
        <path id="Caminho_3285" data-name="Caminho 3285" d="M349.336,377.725h-3.383a.338.338,0,0,1,0-.676h3.383a.338.338,0,1,1,0,.676Z" transform="translate(-243.201 -262.38)" fill="#ff9c94"/>
        <path id="Caminho_3286" data-name="Caminho 3286" d="M350.017,390.445h-4.059a.338.338,0,0,1,0-.677h4.059a.338.338,0,1,1,0,.677Z" transform="translate(-243.205 -271.04)" fill="#ff9c94"/>
        <path id="Caminho_3287" data-name="Caminho 3287" d="M349.336,401.046h-3.383a.338.338,0,0,1,0-.677h3.383a.338.338,0,0,1,0,.677Z" transform="translate(-243.201 -278.258)" fill="#ff9c94"/>
        <path id="Caminho_3288" data-name="Caminho 3288" d="M99.916,380.922s6.255-6.613,24.405-8.757,31.182-.482,36.74,1.106S167.6,387,163.608,388s-27.983,8.379-46.256,7.128C103.7,394.191,100.3,385.642,99.916,380.922Z" transform="translate(-75.907 -258.36)" fill="#00af8f"/>
        <path id="Caminho_3289" data-name="Caminho 3289" d="M169.987,375.5a44.15,44.15,0,0,0-5.128-1.08c2,1.605,4.433,4.308,4.324,7.932-.172,5.728-40.562,13.514-56.158,9.778,2.636,2.637,6.8,4.782,13.253,5.224,18.273,1.251,42.265-6.127,46.256-7.128S175.545,377.088,169.987,375.5Z" transform="translate(-84.833 -260.59)" fill="#00947a"/>
        <path id="Caminho_3290" data-name="Caminho 3290" d="M293.813,374.745l1.035,12.812s.109,1.348,3.48,1.076a3.934,3.934,0,0,0,3.829-3.024l-.865-10.713a2.7,2.7,0,0,0-2.575-2.487,14.4,14.4,0,0,0-1.694.041A3.376,3.376,0,0,0,293.813,374.745Z" transform="translate(-207.93 -259.215)" fill="#ecf5ff"/>
        <path id="Caminho_3291" data-name="Caminho 3291" d="M298.805,378.808c-.211-2.61-2.249-4.032-3.427-4.833a3.145,3.145,0,0,0-1.565,1.842l1.035,12.812s.109,1.349,3.48,1.076a3.934,3.934,0,0,0,3.829-3.024l-.163-2.023C299.3,384.877,299.186,383.528,298.805,378.808Z" transform="translate(-207.93 -260.286)" fill="#d6e5f5"/>
        <path id="Caminho_3292" data-name="Caminho 3292" d="M298.914,382.248a.338.338,0,0,1-.185-.636,14.662,14.662,0,0,1,5.106-1.458.338.338,0,0,1,.055.674,14.2,14.2,0,0,0-4.846,1.382A.335.335,0,0,1,298.914,382.248Z" transform="translate(-211.154 -264.493)" fill="#9ad0ee"/>
        <path id="Caminho_3293" data-name="Caminho 3293" d="M306,391.393l-4.384.354a.338.338,0,1,1-.054-.674l4.383-.354a.338.338,0,0,1,.055.674Z" transform="translate(-212.997 -271.686)" fill="#9ad0ee"/>
        <path id="Caminho_3294" data-name="Caminho 3294" d="M309.018,401.959l-3.372.272a.338.338,0,0,1-.055-.674l3.372-.272a.338.338,0,1,1,.055.674Z" transform="translate(-215.738 -278.881)" fill="#9ad0ee"/>
        <path id="Caminho_3295" data-name="Caminho 3295" d="M303.751,411.654a6.375,6.375,0,0,1-1.56-.076.338.338,0,0,1,.111-.667,3.961,3.961,0,0,0,3.68-.888.338.338,0,1,1,.514.44A4.1,4.1,0,0,1,303.751,411.654Z" transform="translate(-213.441 -284.751)" fill="#9ad0ee"/>
        <path id="Caminho_3296" data-name="Caminho 3296" d="M379.823,372.663a.335.335,0,0,1-.142-.032,22.013,22.013,0,0,0-12.71-.977.338.338,0,0,1-.142-.661,22.261,22.261,0,0,1,13.136,1.024.338.338,0,0,1-.143.645Z" transform="translate(-257.47 -257.898)" fill="#00715c"/>
        <path id="Caminho_3297" data-name="Caminho 3297" d="M129.935,375.176a.338.338,0,0,1-.1-.66,105.784,105.784,0,0,1,23.693-4.14,116.689,116.689,0,0,1,28.329,2.038.338.338,0,1,1-.148.66,115.84,115.84,0,0,0-28.145-2.022,105.008,105.008,0,0,0-23.521,4.108A.337.337,0,0,1,129.935,375.176Z" transform="translate(-96.116 -257.736)" fill="#00715c"/>
        <path id="Caminho_3298" data-name="Caminho 3298" d="M203.626,429.86a.338.338,0,0,1-.025-.676c11.575-.853,30.376-6.515,30.565-6.574a.338.338,0,0,1,.2.647c-.189.057-19.062,5.741-30.712,6.6Z" transform="translate(-146.293 -293.392)" fill="#00715c"/>
      </g>
    </g>
  </g>
</svg>
