<svg xmlns="http://www.w3.org/2000/svg" width="9.56" height="15.719" viewBox="0 0 9.56 15.719">
  <path id="iphone" d="M7.333,15.419H1.928A1.93,1.93,0,0,1,0,13.491V1.928A1.93,1.93,0,0,1,1.928,0H7.333A1.93,1.93,0,0,1,9.26,1.928V13.491A1.93,1.93,0,0,1,7.333,15.419ZM1.928.771A1.158,1.158,0,0,0,.771,1.928V13.491a1.158,1.158,0,0,0,1.157,1.157H7.333a1.158,1.158,0,0,0,1.156-1.157V1.928A1.158,1.158,0,0,0,7.333.771Zm2.7,13.106a.771.771,0,1,1,.771-.771A.772.772,0,0,1,4.626,13.877Z" transform="translate(0.15 0.15)" fill="#f7bf26" stroke="#f6b504" stroke-width="0.3"/>
</svg>
