<svg xmlns="http://www.w3.org/2000/svg" width="22.907" height="23.212" viewBox="0 0 22.907 23.212">
  <path id="thumbs-up" d="M18.41,23.212H9.429A3.6,3.6,0,0,1,6.917,22.2a2.169,2.169,0,0,1-1.84,1.013h-2.9A2.179,2.179,0,0,1,0,21.035V10.88A2.178,2.178,0,0,1,2.177,8.7h2.9a2.167,2.167,0,0,1,1.451.554L7.808,6.7a8.545,8.545,0,0,0,.9-3.8V2.538A2.541,2.541,0,0,1,11.243,0a2.721,2.721,0,0,1,2.716,2.457l.479,4.8H19.28a3.624,3.624,0,0,1,3.609,3.987l-.871,8.7A3.615,3.615,0,0,1,18.41,23.212ZM11.243,1.451a1.089,1.089,0,0,0-1.088,1.088V2.9A10,10,0,0,1,9.1,7.348l-1.85,3.7v8.534a2.178,2.178,0,0,0,2.175,2.177h8.98A2.171,2.171,0,0,0,20.576,19.8l.871-8.7A2.176,2.176,0,0,0,19.28,8.7h-5.5a.725.725,0,0,1-.723-.653L12.516,2.6A1.275,1.275,0,0,0,11.243,1.451Zm-9.066,8.7a.726.726,0,0,0-.726.725V21.035a.727.727,0,0,0,.726.726h2.9a.726.726,0,0,0,.725-.726V10.88a.725.725,0,0,0-.725-.725Z" fill="#f6b504"/>
</svg>
