<svg xmlns="http://www.w3.org/2000/svg" width="23.033" height="23.01" viewBox="0 0 23.033 23.01">
  <path id="Shape_27" data-name="Shape 27" d="M1969.092,775.987a2.693,2.693,0,0,1-2.677-2.706v-7.9a2.692,2.692,0,0,1,2.677-2.705h17.68a2.692,2.692,0,0,1,2.677,2.705v7.9a2.707,2.707,0,0,1-2.686,2.706Zm1.228-16.085a1.038,1.038,0,0,1,0-2.075h15.416a1.034,1.034,0,0,1,1.027,1.039,1.019,1.019,0,0,1-1.017,1.037Zm2.705-4.85a.861.861,0,0,1-.854-.863v-.349a.861.861,0,0,1,.854-.863h10.418a.86.86,0,0,1,.853.863v.349a.86.86,0,0,1-.853.863Z" transform="translate(-1966.415 -752.977)" fill="#f8c63f"/>
</svg>
