<svg xmlns="http://www.w3.org/2000/svg" width="16.257" height="14.546" viewBox="0 0 16.257 14.546">
  <path id="store" d="M13.412,14.546H2.845a2.029,2.029,0,0,1-2.032-2.02V6.4a.727.727,0,0,0,.355.073c.072,0,.153,0,.225-.005l.066,0H1.22A1.217,1.217,0,0,1,0,5.252V4.6A1.2,1.2,0,0,1,.087,4.15L1.655.255A.409.409,0,0,1,2.032,0H14.224A.4.4,0,0,1,14.6.254l1.568,3.9a1.2,1.2,0,0,1,.087.451v.652A1.215,1.215,0,0,1,15.445,6.4a1.23,1.23,0,0,1-.131.038.314.314,0,0,0,.129-.037v6.129A2.029,2.029,0,0,1,13.412,14.546ZM4.471,8.081H6.909a1.217,1.217,0,0,1,1.22,1.212v4.444h5.283a1.217,1.217,0,0,0,1.22-1.212V6.471h.423l.061-.007-.032,0H13.006a1.215,1.215,0,0,1-.813-.309,1.218,1.218,0,0,1-.81.309H8.941a1.218,1.218,0,0,1-.813-.309,1.215,1.215,0,0,1-.81.309H4.877a1.215,1.215,0,0,1-.813-.309,1.219,1.219,0,0,1-.811.309H1.6c.02,0,.022.005.022.007v6.053a1.217,1.217,0,0,0,1.22,1.212h.406V9.293A1.217,1.217,0,0,1,4.471,8.081Zm0,.808a.406.406,0,0,0-.406.4v4.444H7.316V9.293a.406.406,0,0,0-.407-.4Zm7.722-4.848a.405.405,0,0,1,.406.4v.808a.406.406,0,0,0,.407.4h2.032a.406.406,0,0,0,.406-.4V4.6a.407.407,0,0,0-.029-.151L13.949.808H2.309L.842,4.45A.407.407,0,0,0,.813,4.6v.652a.406.406,0,0,0,.407.4H3.251a.406.406,0,0,0,.407-.4V4.444a.406.406,0,0,1,.813,0v.808a.406.406,0,0,0,.407.4H7.316a.406.406,0,0,0,.407-.4V4.444a.406.406,0,0,1,.813,0v.808a.406.406,0,0,0,.406.4H11.38a.406.406,0,0,0,.406-.4V4.444A.406.406,0,0,1,12.193,4.041Zm-.407,8.081h-.813a1.217,1.217,0,0,1-1.22-1.212V9.293a1.217,1.217,0,0,1,1.22-1.212h.813a1.217,1.217,0,0,1,1.22,1.212v1.616A1.217,1.217,0,0,1,11.786,12.122Zm-.813-3.233a.406.406,0,0,0-.407.4v1.616a.406.406,0,0,0,.407.4h.813a.406.406,0,0,0,.407-.4V9.293a.406.406,0,0,0-.407-.4Z" fill="#f6b504"/>
</svg>
