<svg xmlns="http://www.w3.org/2000/svg" width="14" height="20.008" viewBox="0 0 14 20.008">
  <path id="terminal" d="M11.5,20.008h-9a2.486,2.486,0,0,1-1.768-.732A2.518,2.518,0,0,1,0,17.508V6.5A2.5,2.5,0,0,1,2.5,4H3V2.5A2.5,2.5,0,0,1,5.5,0h3A2.5,2.5,0,0,1,11,2.5V4h.5A2.5,2.5,0,0,1,14,6.5V17.508A2.5,2.5,0,0,1,11.5,20.008ZM2.5,5A1.5,1.5,0,0,0,1,6.5V17.508a1.5,1.5,0,0,0,1.5,1.5h9a1.5,1.5,0,0,0,1.5-1.5V6.5A1.5,1.5,0,0,0,11.5,5H11V6h.5a.5.5,0,0,1,0,1h-9a.5.5,0,1,1,0-1H3V5ZM9,1.085V6h1V2.5A1.5,1.5,0,0,0,9,1.085ZM7,1V6H8V1ZM5.5,1A1.5,1.5,0,0,0,4,2.5V6H6V1Zm5,17h-1a.5.5,0,1,1,0-1h1a.5.5,0,0,1,0,1Zm-3,0h-1a.5.5,0,0,1,0-1h1a.5.5,0,1,1,0,1Zm-3,0h-1a.5.5,0,1,1,0-1h1a.5.5,0,1,1,0,1Zm6-2h-1a.5.5,0,1,1,0-1h1a.5.5,0,0,1,0,1Zm-3,0h-1a.5.5,0,0,1,0-1h1a.5.5,0,1,1,0,1Zm-3,0h-1a.5.5,0,1,1,0-1h1a.5.5,0,1,1,0,1Zm6-2h-1a.5.5,0,1,1,0-1h1a.5.5,0,0,1,0,1Zm-3,0h-1a.5.5,0,0,1,0-1h1a.5.5,0,1,1,0,1Zm-3,0h-1a.5.5,0,1,1,0-1h1a.5.5,0,0,1,0,1Zm7-2h-9a.5.5,0,0,1-.5-.5v-3A.5.5,0,0,1,2.5,8h9a.5.5,0,0,1,.5.5v3A.5.5,0,0,1,11.5,12ZM3,9v2h8V9Z" transform="translate(0 0)" fill="#687c96"/>
</svg>
