<svg xmlns="http://www.w3.org/2000/svg" width="22" height="22" viewBox="0 0 22 22">
  <path id="users" d="M18.562,22H3.438a3.411,3.411,0,0,1-2.43-1.007A3.461,3.461,0,0,1,0,18.562v-.98a3.443,3.443,0,0,1,2.015-3.128l4.753-2.161a6.875,6.875,0,1,1,8.464,0l4.753,2.158A3.446,3.446,0,0,1,22,17.585v.979a3.461,3.461,0,0,1-1.006,2.43A3.416,3.416,0,0,1,18.562,22ZM8.2,13.154,2.585,15.7a2.062,2.062,0,0,0-1.209,1.877v.98a2.062,2.062,0,0,0,2.062,2.062H18.562a2.065,2.065,0,0,0,2.063-2.062v-.98a2.065,2.065,0,0,0-1.21-1.877L13.8,13.154a6.821,6.821,0,0,1-2.8.6h-.018a6.816,6.816,0,0,1-2.794-.6ZM11,1.375a5.5,5.5,0,1,0,5.5,5.5A5.506,5.506,0,0,0,11,1.375Z" fill="#687c97"/>
</svg>
