<svg xmlns="http://www.w3.org/2000/svg" width="32" height="44" viewBox="0 0 32 44">
  <path id="Artboard_6" data-name="Artboard 6" d="M40,34V14a6,6,0,0,0-4.26-5.74L38.22,4.7A1.8,1.8,0,0,0,36.66,2H31.34a1.8,1.8,0,0,0-1.51,2.77l2.43,3.49A6,6,0,0,0,29,10.69a6,6,0,0,0-3.26-2.43L28.22,4.7A1.8,1.8,0,0,0,26.66,2H21.34a1.8,1.8,0,0,0-1.51,2.77l2.43,3.49A6,6,0,0,0,19,10.69a6,6,0,0,0-3.26-2.43L18.22,4.7A1.8,1.8,0,0,0,16.66,2H11.34A1.8,1.8,0,0,0,9.83,4.77l2.43,3.49A6,6,0,0,0,8,14V34a6,6,0,0,0,4.26,5.74L9.78,43.3A1.8,1.8,0,0,0,11.34,46h5.32a1.8,1.8,0,0,0,1.51-2.77l-2.43-3.49A6,6,0,0,0,19,37.31a6,6,0,0,0,3.26,2.43L19.78,43.3A1.8,1.8,0,0,0,21.34,46h5.32a1.8,1.8,0,0,0,1.51-2.77l-2.43-3.49A6,6,0,0,0,29,37.31a6,6,0,0,0,3.26,2.43L29.78,43.3A1.8,1.8,0,0,0,31.34,46h5.32a1.8,1.8,0,0,0,1.51-2.77l-2.43-3.49A6,6,0,0,0,40,34ZM36.27,4,34,7.25,31.73,4Zm-10,0L24,7.25,21.73,4Zm-10,0L14,7.25,11.73,4ZM11.73,44,14,40.75,16.27,44ZM14,38a4,4,0,0,1-4-4V31h3a1,1,0,0,0,0-2H10V25h3a1,1,0,0,0,0-2H10V19h3a1,1,0,0,0,0-2H10V14a4,4,0,1,1,8,0V34A4,4,0,0,1,14,38Zm7.73,6L24,40.75,26.27,44ZM24,38a4,4,0,0,1-4-4V31h3a1,1,0,0,0,0-2H20V25h3a1,1,0,0,0,0-2H20V19h3a1,1,0,0,0,0-2H20V14a4,4,0,1,1,8,0V34A4,4,0,0,1,24,38Zm7.73,6L34,40.75,36.27,44ZM38,34a4,4,0,0,1-8,0V31h3a1,1,0,0,0,0-2H30V25h3a1,1,0,0,0,0-2H30V19h3a1,1,0,0,0,0-2H30V14a4,4,0,1,1,8,0Z" transform="translate(-8 -2)" fill="#8897ad"/>
</svg>
