<svg xmlns="http://www.w3.org/2000/svg" width="47.253" height="40.562" viewBox="0 0 47.253 40.562">
  <path id="Artboard_1" data-name="Artboard 1" d="M45.78,27.334,44.926,12.06A5.337,5.337,0,0,0,39.589,7H11.4a5.337,5.337,0,0,0-5.337,5.06l-.79,15.275a3.744,3.744,0,0,0,.48,7.472h.939l2.8,11.934a1.067,1.067,0,0,0,1.067.822h8.539a1.067,1.067,0,0,0,.929-.534l3.96-6.938h3.031l3.96,6.938a1.067,1.067,0,0,0,.929.534h8.539a1.067,1.067,0,0,0,1.067-.822l2.8-11.987h.939a3.725,3.725,0,0,0,.534-7.419ZM8.207,12.166a3.2,3.2,0,0,1,3.2-3.031H39.6a3.2,3.2,0,0,1,3.2,3.031l.843,15.115H41.318a11.741,11.741,0,0,0,.192-2.135c0-5.337-3.352-9.607-7.472-9.607s-7.472,4.27-7.472,9.607a11.742,11.742,0,0,0,.192,2.135H24.239a11.742,11.742,0,0,0,.192-2.135c0-5.337-3.352-9.607-7.472-9.607s-7.472,4.27-7.472,9.607a11.742,11.742,0,0,0,.192,2.135H7.406ZM28.957,27.281a10.066,10.066,0,0,1-.256-2.135c0-4.12,2.391-7.472,5.337-7.472s5.337,3.352,5.337,7.472a10.066,10.066,0,0,1-.256,2.135Zm-17.079,0a10.066,10.066,0,0,1-.256-2.135c0-4.12,2.391-7.472,5.337-7.472S22.3,21.026,22.3,25.146a10.066,10.066,0,0,1-.256,2.135Zm33.367,5.337h-1.6a1.206,1.206,0,0,0-1.228.822L39.6,45.427H32.522l-3.96-6.938a1.067,1.067,0,0,0-.929-.534h-4.27a1.067,1.067,0,0,0-.929.534l-3.96,6.938H11.4L8.58,33.44a1.334,1.334,0,0,0-1.228-.822h-1.6a1.6,1.6,0,1,1,0-3.2H45.246a1.6,1.6,0,0,1,0,3.2Z" transform="translate(-1.768 -7)" fill="#8897ad"/>
</svg>
