<svg xmlns="http://www.w3.org/2000/svg" width="32" height="44" viewBox="0 0 32 44">
  <path id="Artboard_21" data-name="Artboard 21" d="M36,11.1V9h.5a3.5,3.5,0,1,0,0-7h-25a3.5,3.5,0,1,0,0,7H12v2.1A5,5,0,0,0,8,16V37a5,5,0,0,0,4,4.9V45a1,1,0,0,0,1,1H35a1,1,0,0,0,1-1V41.9A5,5,0,0,0,40,37V16a5,5,0,0,0-4-4.9ZM10,5.5A1.5,1.5,0,0,1,11.5,4h25a1.5,1.5,0,0,1,0,3h-25A1.5,1.5,0,0,1,10,5.5ZM34,9v2H14V9ZM13,13H35a3,3,0,0,1,3,3v4H31.85l-.29-.5a1,1,0,0,0-.86-.5H28l-1.45-2.5a1,1,0,0,0-.86-.5H22.23a1,1,0,0,0-.86.5L19.92,19H17.23c-.79,0-1,.77-1.15,1H10V16a3,3,0,0,1,3-3ZM28,31l-1.16-2L28,27h2.11l1.15,2-1.15,2ZM17.8,31l-1.16-2,1.16-2h2.11l1.16,2-1.16,2Zm2.11-10,1.16,2-1.16,2h-2.1l-1.16-2,1.16-2Zm10.2,0,1.15,2-1.15,2H28l-1.16-2L28,21ZM23,28l-1.16-2L23,24h1.91l1.16,2-1.16,2Zm1.91-6H23l-1.26-2.17L22.81,18h2.31l1.06,1.83ZM23,30h1.91l1.26,2.17L25.12,34H22.81l-1.06-1.83ZM34,44H14V42H34Zm1-4H13a3,3,0,0,1-3-3V22h4.92c-.1.27-.68.81-.29,1.5L16.08,26l-1.45,2.5a1,1,0,0,0,0,1l1.74,3a1,1,0,0,0,.86.5h2.69l1.45,2.5a1,1,0,0,0,.86.5H25.7a1,1,0,0,0,.86-.5L28,33h2.7c1,0,1-1,2.59-3.5a1,1,0,0,0,0-1L31.85,26l1.44-2.5a1,1,0,0,0,0-1L33,22h5V37A3,3,0,0,1,35,40Z" transform="translate(-8 -2)" fill="#8897ad"/>
</svg>
