<svg xmlns="http://www.w3.org/2000/svg" width="47.445" height="45.205" viewBox="0 0 47.445 45.205">
  <g id="SEAFOOD" transform="translate(-13.959 -16.342)">
    <path id="União_11" data-name="União 11" d="M17183.773-4660.617a11.87,11.87,0,0,1-5.227-1.234,11.838,11.838,0,0,1-4.135-3.431l-.064-.082c-1.014-.03-2.02-.043-3.068-.043-1.234,0-2.344.021-3.318.039-.812.013-1.576.026-2.275.026a16.044,16.044,0,0,1-7.018-1.221,14.8,14.8,0,0,1-8.943-13.578,18.821,18.821,0,0,1,1.49-7.376,18.893,18.893,0,0,1,4.057-6.025,19,19,0,0,1,6.025-4.061,18.884,18.884,0,0,1,7.375-1.489h21.762a.889.889,0,0,0,.91-.76.839.839,0,0,0-.211-.643.848.848,0,0,0-.621-.271h-35.383a2.533,2.533,0,0,1-2.529-2.529,2.529,2.529,0,0,1,2.529-2.525h36.15a5.9,5.9,0,0,1,5.891,5.891,5.9,5.9,0,0,1-5.891,5.892h-3.967a18.687,18.687,0,0,1-2.326,5.891,18.89,18.89,0,0,1-4.164,4.8,18.842,18.842,0,0,1-5.525,3.146,18.755,18.755,0,0,1-6.436,1.131h-.625a.455.455,0,0,0-.074,0,3.481,3.481,0,0,0-2.355.919,3.483,3.483,0,0,0-1.123,2.27,3.387,3.387,0,0,0,.906,2.551,3.4,3.4,0,0,0,2.611,1.079c.1,0,.191,0,.273-.009a2.423,2.423,0,0,1,.271,0h5.6l.064-.082a11.921,11.921,0,0,1,4.135-3.431,11.883,11.883,0,0,1,5.227-1.234h.01a3.445,3.445,0,0,1,3.15,2.05,3.449,3.449,0,0,1-.436,3.509,3.442,3.442,0,0,1,1.234,2.637,3.441,3.441,0,0,1-1.23,2.642,3.449,3.449,0,0,1,.426,3.5,3.441,3.441,0,0,1-3.145,2.046Zm0-2.149h.031a1.3,1.3,0,0,0,1.277-1.291,1.287,1.287,0,0,0-.381-.919,1.276,1.276,0,0,0-.914-.384h-6.561A9.67,9.67,0,0,0,17183.773-4662.767Zm-22.736-5.231a13.245,13.245,0,0,0,3.91.492c.324,0,.643,0,.98-.009s.686-.013,1.039-.013c.246,0,.471,0,.688.008v-2.606a5.56,5.56,0,0,1-3.172-1.312Zm21.084.488h2.17a1.3,1.3,0,0,0,.916-.38,1.288,1.288,0,0,0,.375-.919,1.3,1.3,0,0,0-1.3-1.3h-2.162Zm-6.158,0h4v-2.6h-4Zm-6.16,0h4.01v-2.6h-4.01Zm-10.949-1.347,4.277-4.277a5.581,5.581,0,0,1-.592-2.111h-9.672A12.572,12.572,0,0,0,17158.854-4668.856Zm18.369-3.405h6.551a1.3,1.3,0,0,0,1.3-1.3,1.3,1.3,0,0,0-1.3-1.295A9.679,9.679,0,0,0,17177.223-4672.262Zm-25.115-10.716a14.4,14.4,0,0,0,.074,5.585h10.625a5.474,5.474,0,0,1,1.084-1.873l-9.586-9.586A16.857,16.857,0,0,0,17152.107-4682.978Zm3.449-7.661,10.043,10.047a5.813,5.813,0,0,1,2.055-.6v-15.723A16.69,16.69,0,0,0,17155.557-4690.639Zm14.246,9.387a16.617,16.617,0,0,0,8.49-2.892,16.662,16.662,0,0,0,5.736-6.8,5.168,5.168,0,0,1-2.479-1.144,1.081,1.081,0,0,1-.385-.725,1.065,1.065,0,0,1,.246-.786,1.069,1.069,0,0,1,.824-.388,1.08,1.08,0,0,1,.688.246,3.032,3.032,0,0,0,1.9.717,16.3,16.3,0,0,0,.531-2.262,14.647,14.647,0,0,0,.189-1.653H17169.8Zm17.842-14.937h3.635a3.747,3.747,0,0,0,3.742-3.742,3.747,3.747,0,0,0-3.742-3.742c-5.184.039-10.125.056-14.691.056-6.842,0-11.645-.043-14.826-.073-1.691-.013-3.029-.026-4.025-.026a16.039,16.039,0,0,0-2.771.121c-.211.052-.211.052-.211.285v.013a.376.376,0,0,0,.375.375h35.383a2.986,2.986,0,0,1,2.209.979,2.968,2.968,0,0,1,.76,2.3,3.05,3.05,0,0,1-3.029,2.7h-2.75C17187.688-4696.69,17187.672-4696.439,17187.645-4696.189Zm-10.508,3.789a1.482,1.482,0,0,1-1.48-1.48,1.441,1.441,0,0,1,.432-1.049,1.467,1.467,0,0,1,1.049-.436,1.474,1.474,0,0,1,1.049.436,1.476,1.476,0,0,1,.436,1.049,1.485,1.485,0,0,1-1.477,1.48Z" transform="translate(-17135.766 4722.164)" fill="#8897ad"/>
  </g>
</svg>
