<svg xmlns="http://www.w3.org/2000/svg" width="43.962" height="43.787" viewBox="0 0 43.962 43.787">
  <path id="Artboard_9" data-name="Artboard 9" d="M46,27.5A11.52,11.52,0,0,0,35.5,16.05V14a1,1,0,0,0-2,0v1.77a9.68,9.68,0,0,0-6.57-3.74,9,9,0,1,0-17.84.16A9,9,0,0,0,13,29.77v1.85c-4.09.42-7.88,1.22-9.46,2.74a2.68,2.68,0,0,0,0,4c2.86,2.75,13.1,3.17,19,3.17,2,0,3.47,0,4.06-.07a5.11,5.11,0,0,0,2.27-.15l3,3.22a4,4,0,0,0,6.59-4.19h1.12a3.992,3.992,0,0,0,3.7-5.51A11.44,11.44,0,0,0,46,27.5Zm-3.94,5.73a4,4,0,0,0-2.44-.85h-1a4,4,0,0,0-6.68-3.94l-2.9,3a5.25,5.25,0,0,0-2.37-.19h-.86a9.44,9.44,0,0,1,.31-8.12,2.32,2.32,0,0,0,1.54.58h0c1.12,0,2.47-.73,4.1-2.18.44,2,1.37,3.06,2.75,3.06,1.23,0,2.09-.81,2.58-2.4,2.17,1.7,3.85,2,5,.85a2.26,2.26,0,0,0,.44-.62,9.43,9.43,0,0,1-.44,10.83Zm-19-4.55a11.25,11.25,0,0,0,.55,2.51H23V28.74ZM34.5,18A9.49,9.49,0,0,1,40,19.78c.68,1,.82,1.63.63,1.82s-1.43-.05-3.52-2a.992.992,0,0,0-1.66.61c-.19,1.65-.62,2.4-.94,2.4s-.87-.86-1-3.23a1,1,0,0,0-1.72-.63c-1.27,1.33-4.56,4.1-4.45,2.6A9.48,9.48,0,0,1,34.5,18ZM4,21a7,7,0,0,1,6.36-7,1,1,0,0,0,.88-1.25,7,7,0,1,1,13.53,0,1,1,0,0,0,1,1.25,6.91,6.91,0,0,1,5.55,2.45A11.49,11.49,0,0,0,28,18.06a1,1,0,0,0-1-.73,3,3,0,0,0-1.85.87L21,22.26V15a3,3,0,1,0-6,0v7.26L10.94,18.2a3.07,3.07,0,0,0-4.24,0,3,3,0,0,0,0,4.24l5.46,5.46A7.46,7.46,0,0,1,11,28,7,7,0,0,1,4,21Zm10.71,6.62L8.11,21a1,1,0,1,1,1.42-1.42l5.76,5.77A1,1,0,0,0,17,24.67V15a1,1,0,0,1,2,0v9.67a1,1,0,0,0,1.71.71l4.19-4.19a11.33,11.33,0,0,0-1.76,4.61l-1.85,1.82a1,1,0,0,0-.29.71V31.2c-1.83,0-3.91.09-6,.24V28.33a1,1,0,0,0-.29-.71ZM4.93,37a.78.78,0,0,1-.31-.58.77.77,0,0,1,.31-.58c3.06-2.95,23-3.2,24.55-1.86a3.18,3.18,0,0,1,0,4.88C27.74,40.27,7.9,39.82,4.93,37Zm34.69,1.42h-3a1,1,0,0,0-.92.62,1.17,1.17,0,0,0,.46,1.33,2,2,0,0,1,0,2.83,2.08,2.08,0,0,1-2.81,0l-2.62-2.8h0a5.18,5.18,0,0,0,0-7.91l2.52-2.61a2.06,2.06,0,0,1,2.83,0,2,2,0,0,1,0,2.83,1,1,0,0,0,.7,1.71h2.76a2,2,0,1,1,0,4Z" transform="translate(-2.038 -1.915)" fill="#8897ad"/>
</svg>
