<svg xmlns="http://www.w3.org/2000/svg" width="44.002" height="33.013" viewBox="0 0 44.002 33.013">
  <g id="Artboard_4" data-name="Artboard 4" transform="translate(-1.998 -8.987)">
    <path id="Caminho_6264" data-name="Caminho 6264" d="M45,26a1,1,0,0,0,1-1V21c0-5.85-6.75-10.93-12.83-12a1,1,0,0,0-.51.05L27.44,11a1,1,0,0,0-.58,1.3,2,2,0,1,1-3.74,1.37A1,1,0,0,0,21.83,13L2.66,20h0A1,1,0,0,0,2,21V41a1,1,0,0,0,1,1H8a1,1,0,0,0,1-1,4,4,0,1,1,8,0,1,1,0,0,0,1,1H45a1,1,0,0,0,1-1V33a1,1,0,0,0-1-1,3,3,0,0,1,0-6ZM21.68,15.21A4,4,0,0,0,29,12.54L33.09,11c4.68.91,10,4.68,10.79,9H8.63ZM44,33.9V40H18.92A6,6,0,0,0,7.08,40H4V22H44v2.1a5,5,0,0,0,0,9.8Z" fill="#8897ad"/>
    <path id="Caminho_6265" data-name="Caminho 6265" d="M32.5,37A4.5,4.5,0,1,1,37,32.5,4.5,4.5,0,0,1,32.5,37Zm0-7A2.5,2.5,0,1,0,35,32.5,2.5,2.5,0,0,0,32.5,30Z" fill="#8897ad"/>
    <path id="Caminho_6266" data-name="Caminho 6266" d="M16.5,32A3.5,3.5,0,1,1,20,28.5,3.5,3.5,0,0,1,16.5,32Zm0-5A1.5,1.5,0,1,0,18,28.5,1.5,1.5,0,0,0,16.5,27Z" fill="#8897ad"/>
  </g>
</svg>
