<svg xmlns="http://www.w3.org/2000/svg" width="44" height="33" viewBox="0 0 44 33">
  <path id="Artboard_16" data-name="Artboard 16" d="M45,8H7A1,1,0,0,0,6,9V22a1,1,0,0,0-.86.49C2.07,27.71,2,27.51,2,28V40a1,1,0,0,0,1,1H15a1,1,0,0,0,1-1V36h2.28a4.47,4.47,0,0,0,8.44,0H45a1,1,0,0,0,1-1V9A1,1,0,0,0,45,8Zm-1,2v3H8V10ZM8,15H44V29H30V25a1,1,0,0,0-1-1H23a1,1,0,0,0-1,1v4H20V22A6,6,0,1,0,8,22ZM20,34V31h2v1a1,1,0,0,0,1,1h2v1ZM12.86,22.49A1,1,0,0,0,12,22H10a4,4,0,1,1,8,0v7H16V28C16,27.51,16,27.75,12.86,22.49ZM24,31V26h4v5ZM14,39H4V28.28L6.57,24h4.86L14,28.28Zm2-8h2v3H16Zm6.5,6a2.51,2.51,0,0,1-2-1h4a2.51,2.51,0,0,1-2,1ZM27,34V33h2a1,1,0,0,0,1-1V31H44v3Z" transform="translate(-2 -8)" fill="#8897ad"/>
</svg>
