<svg xmlns="http://www.w3.org/2000/svg" width="41.348" height="51.267" viewBox="0 0 41.348 51.267">
  <g id="Layer_1" data-name="Layer 1" transform="translate(0.25 0.249)">
    <path id="União_13" data-name="União 13" d="M16578.67-4671.023a2.66,2.66,0,0,1-2.238-1.23,3.065,3.065,0,0,1-.264-2.89,8.694,8.694,0,0,1,1.139-1.935,4.16,4.16,0,0,0,.793-2.924,84.73,84.73,0,0,1-1.436-16.661,84.615,84.615,0,0,1,1.447-16.719,4.155,4.155,0,0,0-.816-2.865,8.831,8.831,0,0,1-1.127-1.922,3.063,3.063,0,0,1,.264-2.89,2.651,2.651,0,0,1,2.238-1.23h35.854a2.663,2.663,0,0,1,2.24,1.226,3.071,3.071,0,0,1,.266,2.89,8.578,8.578,0,0,1-1.143,1.939,4.173,4.173,0,0,0-.791,2.928,80.873,80.873,0,0,1,1.422,14.267l0,.25-2.16.025,0-.25a79.294,79.294,0,0,0-1.236-13.087h-33.057a85.37,85.37,0,0,0-1.24,15.439,84.9,84.9,0,0,0,1.246,15.456h33.053a80.047,80.047,0,0,0,1.234-13.087l0-.25,2.16.025,0,.246a81.6,81.6,0,0,1-1.432,14.338,4.158,4.158,0,0,0,.809,2.869,8.536,8.536,0,0,1,1.127,1.918,3.069,3.069,0,0,1-.264,2.9,2.657,2.657,0,0,1-2.238,1.226Zm35.85-2.16a.537.537,0,0,0,.441-.263.939.939,0,0,0,.072-.859,6.558,6.558,0,0,0-.855-1.447l0,0a6.385,6.385,0,0,1-1.244-3.291h-32.67a6.244,6.244,0,0,1-1.234,3.274v0a6.468,6.468,0,0,0-.863,1.468.915.915,0,0,0,.07.851.532.532,0,0,0,.438.267h3.912v-3.386h2.16v3.386h24.326v-3.386h2.16v3.386Zm-1.582-41.079a6.338,6.338,0,0,1,1.232-3.282l0,0a6.453,6.453,0,0,0,.863-1.463.926.926,0,0,0-.072-.855.532.532,0,0,0-.441-.263h-3.295v3.39h-2.16v-3.39h-24.326v3.39h-2.16v-3.39h-3.912a.523.523,0,0,0-.437.263.913.913,0,0,0-.07.855,6.4,6.4,0,0,0,.85,1.451l0,0a6.35,6.35,0,0,1,1.248,3.295ZM16593.408-4686a2.511,2.511,0,0,1-1.244-3.326,4.453,4.453,0,0,1-1.066.14,3.254,3.254,0,0,1-1.559-.384c-2.365-1.268-1.66-3.236-1.094-4.821a9.056,9.056,0,0,0,.664-5.067,6.044,6.044,0,0,1,2.061-6.118,7.141,7.141,0,0,1,4.533-1.614c.225,0,.449.012.674.033a9.387,9.387,0,0,1,7.1,4.066,9.306,9.306,0,0,1,1.75,6.48,7.851,7.851,0,0,1,1.148,4.146c-.066,1.86-1.08,3.065-2.578,3.065h-.008l-.4-.017c-1.26,0-2.781.955-4.254,1.876-1.531.963-2.979,1.869-4.375,1.869A2.852,2.852,0,0,1,16593.408-4686Zm2.641-11.515a2.968,2.968,0,0,0-.969,3.036,9.086,9.086,0,0,1-.611,5.08,4.3,4.3,0,0,0-.338,1.239c.008.083.029.108.3.254a.7.7,0,0,0,.326.071c.787,0,2.139-.851,3.232-1.535,1.65-1.034,3.523-2.21,5.4-2.21l.012,0,.334.013c.4,0,.467-.688.48-.98a5.935,5.935,0,0,0-5.377-5.805c-.137-.013-.258-.021-.379-.021A3.862,3.862,0,0,0,16596.049-4697.518Zm-3.508-6.389a3.949,3.949,0,0,0-1.309,4.041,11.125,11.125,0,0,1-.752,6.2c-.646,1.8-.545,1.852.08,2.185a1.1,1.1,0,0,0,.537.121,4.52,4.52,0,0,0,1.867-.6,5.8,5.8,0,0,0-.012-2.125,5.063,5.063,0,0,1,1.723-5.109,6.064,6.064,0,0,1,3.787-1.343c.184,0,.375.008.559.025a7.655,7.655,0,0,1,3.939,1.4,8.224,8.224,0,0,0-1.254-2.743,7.2,7.2,0,0,0-5.508-3.157c-.168-.012-.33-.021-.488-.021A4.979,4.979,0,0,0,16592.541-4703.907Z" transform="translate(-16576.174 4722.042)" fill="#8897ad"/>
  </g>
</svg>
