<svg xmlns="http://www.w3.org/2000/svg" width="39.004" height="44" viewBox="0 0 39.004 44">
  <g id="Artboard_3" data-name="Artboard 3" transform="translate(-3.996 -2)">
    <path id="Caminho_6249" data-name="Caminho 6249" d="M17,25H5a1.011,1.011,0,0,0-1,1.1l2,19A1,1,0,0,0,7,46h8a1,1,0,0,0,1-.9l2-19A1,1,0,0,0,17,25Zm-1.11,2-.32,3H6.43l-.32-3ZM14.1,44H7.9L6.64,32h8.72Z" fill="#8897ad"/>
    <path id="Caminho_6250" data-name="Caminho 6250" d="M40,7.82V3a1,1,0,0,0-1-1H25a1,1,0,0,0-1,1V7.82c-2.93,7.9-3,7.82-3,8.18V45a1,1,0,0,0,1,1H42a1,1,0,0,0,1-1V16C43,15.64,42.94,15.76,40,7.82ZM26,4H38V7H26Zm-.31,5H38.31l2.25,6H23.44ZM23,17H41v3a4,4,0,0,1-4,4c-2.8,0-3.48-3-8-3a8,8,0,0,0-6,2.73Zm0,12a6,6,0,0,1,6-6c3.92,0,4.09,3,8,3a6,6,0,0,0,4-1.54V30a4,4,0,0,1-4,4c-2.8,0-3.48-3-8-3a8,8,0,0,0-6,2.73Zm0,15V39a6,6,0,0,1,6-6c3.92,0,4.09,3,8,3a6,6,0,0,0,4-1.54V44Z" fill="#8897ad"/>
  </g>
</svg>
