<svg xmlns="http://www.w3.org/2000/svg" width="44" height="38" viewBox="0 0 44 38">
  <g id="Artboard_7" data-name="Artboard 7" transform="translate(-2 -5)">
    <path id="Caminho_6251" data-name="Caminho 6251" d="M45,5H3A1,1,0,0,0,2,6V42a1,1,0,0,0,1,1H45a1,1,0,0,0,1-1V6A1,1,0,0,0,45,5ZM44,41H4V7H44Z" fill="#8897ad"/>
    <path id="Caminho_6252" data-name="Caminho 6252" d="M7,39H41a1,1,0,0,0,1-1V10a1,1,0,0,0-1-1H7a1,1,0,0,0-1,1V38A1,1,0,0,0,7,39ZM8,11H40V37H8Z" fill="#8897ad"/>
    <path id="Caminho_6253" data-name="Caminho 6253" d="M17.14,14A6.533,6.533,0,0,0,13,26a1.15,1.15,0,0,1,.53,1.31,4.26,4.26,0,0,0-.2,1.73H11a1,1,0,0,0-1,1v4a1,1,0,0,0,1,1h9a1,1,0,0,0,1-1V32.72a5.48,5.48,0,0,0,2-4.52V20.74A6.68,6.68,0,0,0,17.14,14ZM19,33H12V31h7Zm2-4.8a4.72,4.72,0,0,1-.17,1.28A1,1,0,0,0,20,29H15.33a2.36,2.36,0,0,1,.11-1.11,3.11,3.11,0,0,0-1.37-3.61A4.51,4.51,0,0,1,17,16a4.67,4.67,0,0,1,4,4.74Z" fill="#8897ad"/>
    <path id="Caminho_6254" data-name="Caminho 6254" d="M32.14,14A6.533,6.533,0,0,0,28,26c1.07.69.3,1.37.3,2.79a5.18,5.18,0,0,0,4.85,4.85c3.35,0,4.85-2.71,4.85-5.4v-7.5A6.68,6.68,0,0,0,32.14,14ZM36,28.2c0,.8-.21,3.4-2.85,3.4a3.23,3.23,0,0,1-2.85-2.85c0-.87,1.1-3-1.23-4.47A4.51,4.51,0,0,1,32,16a4.67,4.67,0,0,1,4,4.74Z" fill="#8897ad"/>
    <path id="Caminho_6255" data-name="Caminho 6255" d="M16,19a1,1,0,0,0-1,1v1a1,1,0,0,0,2,0V20A1,1,0,0,0,16,19Z" fill="#8897ad"/>
    <path id="Caminho_6256" data-name="Caminho 6256" d="M31,19a1,1,0,0,0-1,1v1a1,1,0,0,0,2,0V20A1,1,0,0,0,31,19Z" fill="#8897ad"/>
  </g>
</svg>
