<svg xmlns="http://www.w3.org/2000/svg" width="14.757" height="12.734" viewBox="0 0 14.757 12.734"><defs><style>.a{fill:#687c96;}</style></defs><path class="a" d="M16.408,12.7H14.4V11.692h1.34a.335.335,0,1,0,0-.67H14.7a4.356,4.356,0,0,0,2.044-3.686A.335.335,0,0,0,16.408,7H2.333A.335.335,0,0,0,2,7.335a4.356,4.356,0,0,0,2.044,3.686H3a.335.335,0,1,0,0,.67h1.34V12.7H2.333a.338.338,0,0,0-.325.422l1.34,5.027a.335.335,0,0,0,.325.248h.335V19.4a.335.335,0,0,0,.335.335H7.025A.335.335,0,0,0,7.36,19.4V18.394h4.021V19.4a.335.335,0,0,0,.335.335H14.4a.335.335,0,0,0,.335-.335V18.394h.335a.335.335,0,0,0,.335-.248l1.34-5.027a.338.338,0,0,0-.335-.422ZM2.668,7.67h13.4a3.686,3.686,0,0,1-3.686,3.351H6.355A3.686,3.686,0,0,1,2.668,7.67Zm11.059,4.021V12.7H5.014V11.692ZM6.69,19.064H4.679v-.67H6.69Zm7.372,0H12.051v-.67h2.011Zm.747-1.34H3.932L2.769,13.367h13.2Z" transform="translate(-1.997 -7)"/><path class="a" d="M10.335,31.346h4.356a.335.335,0,0,0,.335-.335V29.335A.335.335,0,0,0,14.692,29H10.335a.335.335,0,0,0-.335.335v1.676A.335.335,0,0,0,10.335,31.346Zm.335-1.676h3.686v1.005H10.67Z" transform="translate(-7.318 -21.628)"/><path class="a" d="M32.173,31.346A1.173,1.173,0,1,0,31,30.173a1.173,1.173,0,0,0,1.173,1.173Zm0-1.676a.5.5,0,1,1-.5.5A.5.5,0,0,1,32.173,29.67Z" transform="translate(-21.281 -21.628)"/></svg>