<svg xmlns="http://www.w3.org/2000/svg" width="29.279" height="25.268" viewBox="0 0 29.279 25.268">
  <g id="Artboard_19" data-name="Artboard 19" transform="translate(-1.998 -7)">
    <path id="Caminho_5941" data-name="Caminho 5941" d="M3,25l2.66,9.974H28.267L30.927,25Z" transform="translate(-0.336 -6.031)" fill="#d1d1d1"/>
    <rect id="Retângulo_1549" data-name="Retângulo 1549" width="8.721" height="3.413" transform="translate(7.95 22.218)" fill="#fafafa"/>
    <rect id="Retângulo_1550" data-name="Retângulo 1550" width="5.309" height="2.654" transform="translate(21.222 28.854)" fill="#fafafa"/>
    <rect id="Retângulo_1551" data-name="Retângulo 1551" width="5.309" height="2.654" transform="translate(6.623 28.854)" fill="#fafafa"/>
    <ellipse id="Elipse_3324" data-name="Elipse 3324" cx="1.612" cy="1.706" rx="1.612" ry="1.706" transform="translate(21.98 22.218)" fill="#fafafa"/>
    <path id="Caminho_5942" data-name="Caminho 5942" d="M10.979,15.979A8.039,8.039,0,0,1,3,8.725V8H30.993l-.066.725a8.039,8.039,0,0,1-7.979,7.254Z" transform="translate(-0.336 -0.335)" fill="#d1d1d1"/>
    <path id="Caminho_5943" data-name="Caminho 5943" d="M30.591,18.3H26.6V16.309h2.66a.665.665,0,1,0,0-1.33H27.2a8.644,8.644,0,0,0,4.056-7.314A.665.665,0,0,0,30.591,7H2.664A.665.665,0,0,0,2,7.665a8.644,8.644,0,0,0,4.056,7.314H3.994a.665.665,0,1,0,0,1.33h2.66V18.3H2.664a.671.671,0,0,0-.645.838l2.66,9.974a.665.665,0,0,0,.645.492h.665V31.6a.665.665,0,0,0,.665.665h5.319a.665.665,0,0,0,.665-.665V29.607h7.979V31.6a.665.665,0,0,0,.665.665H26.6a.665.665,0,0,0,.665-.665V29.607h.665a.665.665,0,0,0,.665-.492l2.66-9.974a.671.671,0,0,0-.665-.838ZM3.329,8.33h26.6a7.314,7.314,0,0,1-7.314,6.649H10.643A7.314,7.314,0,0,1,3.329,8.33Zm21.942,7.979V18.3H7.983V16.309ZM11.308,30.937H7.318v-1.33h3.99Zm14.628,0h-3.99v-1.33h3.99Zm1.483-2.66H5.836L3.528,19.633h26.2Z" transform="translate(0)" fill="#80828f"/>
    <path id="Caminho_5944" data-name="Caminho 5944" d="M10.665,33.654h8.644a.665.665,0,0,0,.665-.665V29.665A.665.665,0,0,0,19.309,29H10.665a.665.665,0,0,0-.665.665V32.99A.665.665,0,0,0,10.665,33.654Zm.665-3.325h7.314v1.995H11.33Z" transform="translate(-2.682 -7.372)" fill="#80828f"/>
    <path id="Caminho_5945" data-name="Caminho 5945" d="M33.327,33.654A2.327,2.327,0,1,0,31,31.327a2.327,2.327,0,0,0,2.327,2.327Zm0-3.325a1,1,0,1,1-1,1A1,1,0,0,1,33.327,30.33Z" transform="translate(-9.718 -7.372)" fill="#80828f"/>
  </g>
</svg>
