<svg xmlns="http://www.w3.org/2000/svg" width="22.727" height="24.295" viewBox="0 0 22.727 24.295">
  <g id="Artboard_14" data-name="Artboard 14" transform="translate(-3.033 -1.172)">
    <path id="Caminho_5931" data-name="Caminho 5931" d="M25.511,26H6L8.179,36.3H23.332Z" transform="translate(-1.359 -11.372)" fill="#cbcbcb"/>
    <path id="Caminho_5932" data-name="Caminho 5932" d="M29.3,6.563a6.888,6.888,0,0,0-3-.7,6.72,6.72,0,0,0-1.81.244l-.466.13-.184-.45a1.236,1.236,0,0,1,.276-1.35,1.257,1.257,0,0,1,1.751,0V3.306a1.247,1.247,0,0,1,2.488,0V4.547l.054-.054.07-.07a1.257,1.257,0,0,1,.851-.331,1.23,1.23,0,0,1,.878.363,1.182,1.182,0,0,1,.363.862,1.317,1.317,0,0,1-.542,1.041.71.71,0,0,0-.065.06L29.7,6.7Z" transform="translate(-9.488 -0.444)" fill="#fafafa"/>
    <path id="Caminho_5933" data-name="Caminho 5933" d="M25.166,14.962V11.791h0V11.71a2.106,2.106,0,0,0-.141-.325c-.087-.2-.3-.683-.6-1.393l-.244-.574.6-.163A6.926,6.926,0,0,1,26.516,9a6.742,6.742,0,0,1,6.617,5.3l.163.661Z" transform="translate(-9.686 -3.586)" fill="#cbcbcb"/>
    <rect id="Ret창ngulo_1547" data-name="Ret창ngulo 1547" width="6.504" height="2.168" transform="translate(7.351 2.163)" fill="#fafafa"/>
    <path id="Caminho_5934" data-name="Caminho 5934" d="M8,10.794,9.626,7h6.5l1.626,3.794Z" transform="translate(-2.275 -2.67)" fill="#cbcbcb"/>
    <rect id="Ret창ngulo_1548" data-name="Ret창ngulo 1548" width="9.755" height="3.252" transform="translate(5.725 8.124)" fill="#fafafa"/>
    <path id="Caminho_5935" data-name="Caminho 5935" d="M5.626,23.252a1.626,1.626,0,1,1,0-3.252H24.053a1.626,1.626,0,1,1,0,3.252Z" transform="translate(-0.443 -8.624)" fill="#cbcbcb"/>
    <path id="Caminho_5936" data-name="Caminho 5936" d="M15.084,30.542v5.42a.542.542,0,1,1-1.084,0v-5.42a.542.542,0,0,1,1.084,0Z" transform="translate(-5.023 -13.204)" fill="#80828f"/>
    <path id="Caminho_5937" data-name="Caminho 5937" d="M21.084,30.542v5.42a.542.542,0,1,1-1.084,0v-5.42a.542.542,0,0,1,1.084,0Z" transform="translate(-7.771 -13.204)" fill="#80828f"/>
    <path id="Caminho_5938" data-name="Caminho 5938" d="M27.084,30.542v5.42a.542.542,0,1,1-1.084,0v-5.42a.542.542,0,0,1,1.084,0Z" transform="translate(-10.519 -13.204)" fill="#80828f"/>
    <path id="Caminho_5939" data-name="Caminho 5939" d="M33.084,30.542v5.42a.542.542,0,1,1-1.084,0v-5.42a.542.542,0,0,1,1.084,0Z" transform="translate(-13.267 -13.204)" fill="#80828f"/>
    <path id="Caminho_5940" data-name="Caminho 5940" d="M23.816,19.077l.835-4.184a2.168,2.168,0,0,0-.629-4.016,7.241,7.241,0,0,0-2.986-4.666,1.789,1.789,0,0,0,.07-2.591,1.81,1.81,0,0,0-1.7-.466V2.862a1.789,1.789,0,0,0-3.572,0v.271A1.783,1.783,0,0,0,14.4,3.5V2.163a.542.542,0,0,0-.542-.542h-6.5a.542.542,0,0,0-.542.542V4.222C5.075,8.271,5.183,7.94,5.183,8.124v2.71a2.168,2.168,0,0,0-1.041,4.059l.835,4.184-1.371,2.9a.542.542,0,0,0,.26.726.6.6,0,0,0,.233.049.542.542,0,0,0,.493-.309l.743-1.588.932,4.173a.542.542,0,0,0,.542.434H21.984a.542.542,0,0,0,.542-.434l.943-4.173.743,1.588a.542.542,0,0,0,.482.309.6.6,0,0,0,.233-.049.542.542,0,0,0,.26-.726Zm-.9-8.243H16.023V8.124c0-.206-.033-.141-.786-1.929a6.325,6.325,0,0,1,4.845.688,6.206,6.206,0,0,1,2.835,3.951ZM15.009,4.39a.71.71,0,0,1,.986,0,.533.533,0,0,0,.905-.385V2.862a.7.7,0,0,1,1.4,0V4.1a.542.542,0,0,0,.331.5.607.607,0,0,0,.694-.217.71.71,0,0,1,.986,0,.672.672,0,0,1,.206.493c0,.439-.341.591-.472.748a7.42,7.42,0,0,0-5.214-.482.694.694,0,0,1,.173-.759ZM7.893,2.7h5.42V3.788H7.893ZM7.709,4.872H13.5l1.16,2.71H6.527ZM6.267,8.666h8.672v2.168H6.267ZM5.3,15.17H6.809L5.725,17.424Zm16.259,9.214H7.254L6.11,19.213l1.9-4.043H20.781l1.9,4.043Zm1.507-6.959L21.984,15.17H23.5Zm-1.6-3.339-.618-1.317a.545.545,0,1,0-.986.466l.406.851H8.522l.406-.851a.545.545,0,0,0-.986-.466l-.591,1.317H5.183a1.084,1.084,0,0,1,0-2.168H23.61a1.084,1.084,0,0,1,0,2.168Z" transform="translate(0)" fill="#80828f"/>
  </g>
</svg>
