<svg xmlns="http://www.w3.org/2000/svg" width="42.252" height="48.44" viewBox="0 0 42.252 48.44">
  <g id="COSMETICS" transform="translate(-19.371 -10.81)">
    <path id="União_12" data-name="União 12" d="M17061-4661.5a1.032,1.032,0,0,1-.732-.3,1.034,1.034,0,0,1-.3-.737v-7.139h-.8a1.045,1.045,0,0,1-1.039-.969l-2.074-29.061-1.943-4.969c-.008-.03-.016-.051-.021-.068v-.009c-.012-.03-.02-.064-.029-.1l0-.017a1.066,1.066,0,0,1-.008-.111v0a.207.207,0,0,1-.01-.068v-3.842a1.043,1.043,0,0,1,1.043-1.042h23.027a1.04,1.04,0,0,1,.738.309,1.049,1.049,0,0,1,.3.737v3.837a.263.263,0,0,1-.008.068v0a.412.412,0,0,1-.014.111v.013c-.008.039-.021.077-.029.116v0c0,.013-.014.035-.021.056l-.008.021-1.943,4.982-.137,1.033h5.844a1.035,1.035,0,0,1,1.037,1.042v3.64a.246.246,0,0,1,0,.06v.077l-3.631,27.667v3.619a1.034,1.034,0,0,1-.3.737,1.035,1.035,0,0,1-.738.3Zm11.953-2.084h5.2v-1.595h-5.2Zm-10.906,0h8.822v-2.572l-.463-3.524h-8.359Zm10.777-3.683h5.451l3.369-25.656h-12.186Zm-12.686-4.5h9.994l-2.9-22.093v-.043c0-.013,0-.034,0-.06v-3.644a1.035,1.035,0,0,1,.3-.738,1.052,1.052,0,0,1,.736-.3h6.611l.035-.253H17058.2Zm9.176-23.242h12.477l-.006-1.557h-12.471Zm-11.525-5.981h17.609l1.182-3.031h-19.975Zm-1.668-5.115h20.939v-1.753h-20.939Zm-10.389,44.6a4.125,4.125,0,0,1-4.115-4.116v-12.408a1.042,1.042,0,0,1,1.041-1.042h.754v-5.883a1.044,1.044,0,0,1,1.043-1.042h.793v-7.512a6.891,6.891,0,0,1,6.877-6.877,1.035,1.035,0,0,1,.738.3,1.067,1.067,0,0,1,.3.737v13.347h.8a1.041,1.041,0,0,1,1.037,1.038v5.887h.75a1.037,1.037,0,0,1,.742.3,1.05,1.05,0,0,1,.3.737v12.408a4.125,4.125,0,0,1-4.117,4.116Zm-2.031-4.116a2.036,2.036,0,0,0,2.031,2.032h6.949a2.04,2.04,0,0,0,2.033-2.032v-11.366h-11.014Zm1.795-13.45h7.422v-4.841h-7.422Zm1.836-10.17v3.246h3.752v-5.72A5.636,5.636,0,0,1,17047.336-4689.235Zm0-4.266v2.122c2.74-.8,3.48-4.759,3.678-6.783A4.785,4.785,0,0,0,17047.336-4693.5Z" transform="translate(-17022.25 4720.75)" fill="#8897ad"/>
  </g>
</svg>
