<svg xmlns="http://www.w3.org/2000/svg" width="32" height="44" viewBox="0 0 32 44">
  <path id="Artboard_20" data-name="Artboard 20" d="M39.45,33.89A1,1,0,0,0,40,33V28a1,1,0,0,0-.45-.83L39,26.8V19a6,6,0,0,0-3-5.2V10a1,1,0,0,0,1-1V5a1,1,0,0,0-1-1H30a1,1,0,0,0-1,1V9a1,1,0,0,0,1,1v3.8a6,6,0,0,0-3,5,6,6,0,0,0-2-.74V3a1,1,0,1,0-2,0V18.1a6,6,0,0,0-2,.74,6,6,0,0,0-3-5V10a1,1,0,0,0,1-1V5a1,1,0,0,0-1-1H12a1,1,0,0,0-1,1V9a1,1,0,0,0,1,1v3.8A6,6,0,0,0,9,19v7.8l-.55.37A1,1,0,0,0,8,28v5a1,1,0,0,0,.55.89l1.45.73v2.76l-1.45.73A1,1,0,0,0,8,39v6a1,1,0,0,0,1,1H39a1,1,0,0,0,1-1V39a1,1,0,0,0-.55-.89L38,37.38V34.62ZM12,37V35H36v2ZM31,6h4V8H31Zm.4,9.33a1,1,0,0,0,.6-.91V10h2v4.42a1,1,0,0,0,.6.91A4,4,0,0,1,37,19v6.46l-8-5.33V19a4,4,0,0,1,2.4-3.67ZM23,20.14V23a1,1,0,0,0,2,0V20.14c1.21.32.68.28,13,8.4v3.84L36.76,33H11.24L10,32.38V28.54C22.31,20.43,21.78,20.46,23,20.14ZM13,6h4V8H13ZM11,19a4,4,0,0,1,2.4-3.67,1,1,0,0,0,.6-.91V10h2v4.42a1,1,0,0,0,.6.91A4,4,0,0,1,19,19v1.13l-8,5.33ZM38,44H10V39.62L11.24,39H36.76l1.24.62Z" transform="translate(-8 -2)" fill="#8897ad"/>
</svg>
