<svg xmlns="http://www.w3.org/2000/svg" width="43.98" height="40.979" viewBox="0 0 43.98 40.979">
  <path id="Artboard_10" data-name="Artboard 10" d="M40.5,18.47C39,17.57,38,19,37,20.18V17a1,1,0,0,0-2,0v3.18c-.56-.7-.81-1.23-1.18-1.65C32.68,10.22,26,4,18,4,9.18,4,2,11.63,2,21A17,17,0,0,0,6.53,32.83a13.95,13.95,0,0,0,23.7,8.06,2.47,2.47,0,0,0,.71-2.68c.23-.18.45-.38.67-.58.59.27,1.65.73,2.09.87a2,2,0,0,0,1.89-.33.57.57,0,0,1,.82,0,2,2,0,0,0,1.89.33,11,11,0,0,0,2.2-20Zm-8.74-.16A11.2,11.2,0,0,0,26,28a10.91,10.91,0,0,0,.46,3.12,11.61,11.61,0,0,1-2.94-.18,3.35,3.35,0,0,1,.26-3.81c2.88-3.61-.26-7-.33-7.26a3.35,3.35,0,0,1,0-3.74c.47-1,2.94-3.13,1.82-6.48l-.61-1.82a14.94,14.94,0,0,1,7.1,10.48Zm-2.2,18.41a2.53,2.53,0,0,0-1.4-.2,12,12,0,0,1-12.8-8,13.67,13.67,0,0,0,4.69,3.41,13.88,13.88,0,0,0,12.29-.47.57.57,0,0,1,.66.08.467.467,0,0,1,0,.69,12,12,0,0,1-3.44,4.49ZM11,23.51c.5-.63,1.12-1.43,1.58-1.2a.55.55,0,0,1,.29.61,14,14,0,0,0,0,3.3,3,3,0,0,1-2.74-1.39A11.73,11.73,0,0,1,11,23.51ZM22.18,6.7l1.19,3.58c.75,2.23-1,3.57-1.58,4.74a5.35,5.35,0,0,0,0,6c.08.23,2.31,2.55.43,4.9a5.29,5.29,0,0,0-1.07,4.34,11.8,11.8,0,0,1-6.4-6.28,3.686,3.686,0,0,1,.06-.81,2.52,2.52,0,0,0-2.67-2.86,3.35,3.35,0,0,1,.31-3.14c.47-1,2.94-3.13,1.82-6.48L13.05,7a12.85,12.85,0,0,1,9.13-.29ZM11.24,7.87l1.13,3.41c.75,2.23-1,3.57-1.58,4.74a5.34,5.34,0,0,0-.43,5.17,13.62,13.62,0,0,0-3.87,8.32A15.64,15.64,0,0,1,4,21,15.22,15.22,0,0,1,11.24,7.87Zm17.58,31.6A11.91,11.91,0,0,1,20.34,43h-.06a11.9,11.9,0,0,1-8.51-3.59A12.19,12.19,0,0,1,9.13,26.82a5,5,0,0,0,4,1.38A13.94,13.94,0,0,0,28.44,38.5a.56.56,0,0,1,.59.31C29.23,39.21,28.87,39.37,28.82,39.47Zm8.88-2.85A2.79,2.79,0,0,0,36,36a3.24,3.24,0,0,0-1.7.59,11.13,11.13,0,0,1-1.27-.5,13.62,13.62,0,0,0,1.84-3,2.47,2.47,0,0,0-.52-3,2.56,2.56,0,0,0-3-.34,12.06,12.06,0,0,1-2.91,1.09,9.089,9.089,0,0,1,4.01-10.61C33.14,20.77,34.08,23,36,23s2.9-2.26,3.55-2.77A9,9,0,0,1,37.7,36.62Z" transform="translate(-1.998 -4)" fill="#8897ad"/>
</svg>
