<svg xmlns="http://www.w3.org/2000/svg" width="37" height="44" viewBox="0 0 37 44">
  <path id="Artboard_11" data-name="Artboard 11" d="M42.06,19.76A1.967,1.967,0,0,0,39,18.16l-.42.28c-.28-2.45-.65-4.92-1.11-7.34A3.82,3.82,0,0,0,33.67,8H32a5,5,0,0,0-4.36,2.59L26.4,6.7a.94.94,0,0,0-.4-.53V3a1,1,0,0,0-1-1H14a1,1,0,0,0-1,1V6.17a.94.94,0,0,0-.4.53c-2.5,7.9-2.6,8-2.6,8.3v3.28a2,2,0,0,0-3.07,1.6L6,45a.959.959,0,0,0,1,1H42a1.007,1.007,0,0,0,1-1ZM29,13a3,3,0,0,1,3-3h1.67a1.81,1.81,0,0,1,1.78,1.48c.46,2.41.93,5.69,1.22,8.21l-.68.45-2.92-1.87a2,2,0,0,0-2.12,0L29,19.44ZM12,16H27v3.4l-1.94-1.24a2,2,0,0,0-2.11,0L20,19.93l-2.94-1.88A2,2,0,0,0,15,18l-3,1.75ZM15,4h9V6H15Zm-.72,4H24.72l1.91,6H12.37ZM8,44l.89-24,1.93,1.44a2,2,0,0,0,2.24.11L16,19.73l3,1.89a2,2,0,0,0,2.11,0L24,19.85l2.94,1.88a2,2,0,0,0,2.12,0L32,20l2.92,1.86a2,2,0,0,0,2.19,0l3-2L41,44Z" transform="translate(-6 -2)" fill="#8897ad"/>
</svg>
