<svg xmlns="http://www.w3.org/2000/svg" width="45.129" height="64.422" viewBox="0 0 45.129 64.422">
  <path id="Caminho_5952" data-name="Caminho 5952" d="M47.137,0H4.254V-8.508l20.238-21.57a49.928,49.928,0,0,0,6.166-7.949,12.771,12.771,0,0,0,2-6.445,9.556,9.556,0,0,0-2.105-6.553,7.6,7.6,0,0,0-6.016-2.385,8.2,8.2,0,0,0-6.639,2.9,11.489,11.489,0,0,0-2.428,7.627H3.008A20.51,20.51,0,0,1,5.736-53.324a19.231,19.231,0,0,1,7.713-7.412,23.443,23.443,0,0,1,11.3-2.686q9.668,0,15.018,4.641t5.35,13.105a21.036,21.036,0,0,1-2.406,9.453,52.533,52.533,0,0,1-8.25,11.215l-14.223,15h26.9Z" transform="translate(-2.508 63.922)" fill="none" stroke="#50c682" stroke-width="1"/>
</svg>
