<svg xmlns="http://www.w3.org/2000/svg" width="44.441" height="65.281" viewBox="0 0 44.441 65.281">
  <path id="Caminho_5953" data-name="Caminho 5953" d="M16.887-36.781H23.5q4.727,0,7-2.363a8.66,8.66,0,0,0,2.277-6.273A7.657,7.657,0,0,0,30.529-51.3,8.743,8.743,0,0,0,24.32-53.41a9.164,9.164,0,0,0-5.973,1.955,6.251,6.251,0,0,0-2.406,5.092H3.523A15.272,15.272,0,0,1,6.166-55.15a17.609,17.609,0,0,1,7.391-6.08A24.666,24.666,0,0,1,24.02-63.422q9.926,0,15.555,4.748T45.2-45.59a13.164,13.164,0,0,1-2.621,7.906,17.029,17.029,0,0,1-6.875,5.543,15.545,15.545,0,0,1,7.885,5.672,15.386,15.386,0,0,1,2.6,8.938,16.468,16.468,0,0,1-6.08,13.363Q34.031.859,24.02.859,14.652.859,8.7-4.082A16.138,16.138,0,0,1,2.75-17.145H15.168a7.194,7.194,0,0,0,2.643,5.758,9.738,9.738,0,0,0,6.51,2.234,9.784,9.784,0,0,0,6.939-2.342A8.084,8.084,0,0,0,33.773-17.7q0-9.367-10.312-9.367H16.887Z" transform="translate(-2.25 63.922)" fill="none" stroke="#50c682" stroke-width="1"/>
</svg>
